<?xml version="1.0" encoding="UTF-8" standalone="no"?>
<svg
   width="39.948227"
   height="18.434349"
   viewBox="0 0 39.948227 18.434349"
   fill="none"
   version="1.1"
   id="svg6"
   sodipodi:docname="proj_mirv.svg"
   inkscape:version="1.4 (86a8ad7, 2024-10-11)"
   xmlns:inkscape="http://www.inkscape.org/namespaces/inkscape"
   xmlns:sodipodi="http://sodipodi.sourceforge.net/DTD/sodipodi-0.dtd"
   xmlns="http://www.w3.org/2000/svg"
   xmlns:svg="http://www.w3.org/2000/svg">
  <defs
     id="defs6" />
  <sodipodi:namedview
     id="namedview6"
     pagecolor="#ffffff"
     bordercolor="#000000"
     borderopacity="0.25"
     inkscape:showpageshadow="2"
     inkscape:pageopacity="0.0"
     inkscape:pagecheckerboard="0"
     inkscape:deskcolor="#d1d1d1"
     inkscape:zoom="6.253846"
     inkscape:cx="16.469865"
     inkscape:cy="61.642068"
     inkscape:window-width="1920"
     inkscape:window-height="1009"
     inkscape:window-x="-8"
     inkscape:window-y="-8"
     inkscape:window-maximized="1"
     inkscape:current-layer="svg6" />
  <path
     d="M 29.947595,5.5257763 C 29.923353,5.4013022 29.802847,5.3199939 29.678343,5.344197 l -4.208498,0.8180562 c -0.124503,0.0242 -0.205746,0.1447193 -0.181574,0.2691888 l 0.429672,2.2104984 0.430105,2.2126776 c 0.02421,0.124505 0.144713,0.205812 0.269188,0.181575 l 4.208527,-0.818022 c 0.124504,-0.0242 0.205781,-0.144749 0.181574,-0.2691891 z"
     fill="#575946"
     stroke="#191a14"
     stroke-width="1.83684"
     stroke-miterlimit="3.99393"
     id="path1" />
  <path
     d="m 36.905478,9.4776362 c -0.176839,0.03434 -0.345222,0.1032608 -0.495467,0.2027754 -0.150241,0.099448 -0.279411,0.2276151 -0.380156,0.3770734 -0.100716,0.149492 -0.171074,0.317317 -0.206963,0.493998 -0.03589,0.176681 -0.03661,0.358748 -0.0022,0.535722 0.03443,0.177008 0.103271,0.345518 0.202713,0.495888 0.0995,0.150375 0.227568,0.279636 0.376986,0.380477 0.149383,0.10087 0.317137,0.171289 0.493713,0.20727 0.176575,0.03598 0.358509,0.03676 0.535347,0.0024 0.176869,-0.03435 0.345187,-0.103274 0.495462,-0.202752 0.150247,-0.09951 0.279446,-0.227648 0.380161,-0.377138 0.100745,-0.149459 0.171039,-0.317288 0.206929,-0.493969 0.03589,-0.17668 0.03667,-0.358744 0.0022,-0.535717 -0.03439,-0.177021 -0.10329,-0.345535 -0.202732,-0.495904 C 38.211967,9.9173836 38.083938,9.7880933 37.93455,9.6872869 37.785168,9.5864163 37.617349,9.5159926 37.440772,9.4800139 37.264227,9.4440715 37.082328,9.4432633 36.905455,9.477626 Z"
     fill="#47443c"
     stroke="#191815"
     stroke-width="1.83684"
     stroke-miterlimit="3.99393"
     id="path4" />
  <path
     d="m 37.213049,8.3464356 -0.397358,0.6686956 0.347684,1.7886728 -3.67351,-1.7336557 -2.638337,1.1043087 c 0,0 -0.97265,-5.0037924 -0.985907,-5.0720991 l -0.706325,-3.6338397 6.919927,1.0448966 z"
     fill="#4E4735"
     stroke="#1b1913"
     stroke-width="1.83684"
     stroke-miterlimit="3.99393"
     stroke-linecap="square"
     id="path5"
     style="fill:#353535;fill-opacity:1" />
  <g
     id="g11"
     transform="matrix(0.30126777,0.34657064,-0.34656893,0.30126926,26.016041,-16.856339)"
     style="stroke-width:1">
    <path
       style="fill:#005bf9;fill-opacity:1;stroke:#191a14;stroke-width:7.20002;stroke-linejoin:bevel;stroke-dasharray:none;stroke-opacity:1;paint-order:markers stroke fill"
       d="M 11.520794,53.004918 20.695169,42.451007 40.543276,59.704703 31.368901,70.258614 Z"
       id="path11"
       sodipodi:nodetypes="ccccc" />
    <path
       d="m 42.476086,32.194147 c -4.2049,-2.4263 -9.2022,-3.0815 -13.8927,-1.8217 -4.6906,1.2597 -11.1194,8.5395 -11.1194,8.5395 -0.196704,0.346028 26.9926,23.6813 26.9926,23.6813 0,0 3.5097,-3.2922 4.7128,-5.3762 1.2033,-2.0839 1.9847,-4.3843 2.2996,-6.7696 0.3148,-2.3854 0.1569,-4.8091 -0.4646,-7.1327 -0.6216,-2.3236 -1.6947,-4.5017 -3.1579,-6.4098 -1.4633,-1.9081 -3.2882,-3.5088 -5.3704,-4.7108 z"
       stroke="#191a14"
       stroke-width="4.00001"
       stroke-miterlimit="3.99393"
       id="path7"
       sodipodi:nodetypes="ccccccccc"
       style="fill:#0023e2;fill-opacity:1" />
    <path
       d="m 9.9333712,80.606769 c 4.2048998,2.4263 9.2021998,3.0815 13.8926998,1.8217 4.6906,-1.2597 11.1194,-8.5395 11.1194,-8.5395 0.196704,-0.346028 -26.9925998,-23.6813 -26.9925998,-23.6813 0,0 -3.5097006,3.2922 -4.7128006,5.3762 -1.2033,2.0839 -1.9847,4.3843 -2.29959997,6.7696 -0.3148,2.3854 -0.1569,4.8091 0.46459997,7.1327 0.6216,2.3236 1.6947,4.5017 3.1579001,6.4098 1.4633005,1.9081 3.2882005,3.5088 5.3704005,4.7108 z"
       stroke="#191a14"
       stroke-width="4.00001"
       stroke-miterlimit="3.99393"
       id="path9"
       sodipodi:nodetypes="ccccccccc"
       style="fill:#0023e2;fill-opacity:1" />
    <path
       d="m 9.7777499,79.90123 c 3.2917151,2.296443 6.7869531,3.638894 9.7169491,3.732201 2.930078,0.09339 5.907268,-3.234587 5.907268,-3.234587 C 25.470007,80.22029 2.7552259,60.612573 2.7552259,60.612573 c 0,0 -1.7529282,1.392371 -2.17510955,2.464273 -0.42233436,1.071805 -0.51943401,2.357253 -0.2858111,3.782795 0.23370858,1.425621 0.79360755,2.963493 1.64766715,4.525779 0.8541284,1.562309 1.9857601,3.118517 3.3301702,4.579661 1.3444779,1.461161 2.8755031,2.798653 4.5056073,3.936149 z"
       stroke="#191a14"
       stroke-width="4.00002"
       stroke-miterlimit="3.99393"
       id="path10"
       sodipodi:nodetypes="ccccccccc"
       style="fill:#25009f;fill-opacity:1;stroke-width:2.60001;stroke-dasharray:none" />
  </g>
  <g
     id="g3"
     style="fill:#25009f;fill-opacity:1;stroke:#191a14;stroke-opacity:1"
     transform="matrix(0,0.4592106,-0.4592106,0,44.934392,-4.4777662)">
    <rect
       style="fill:#25009f;fill-opacity:1;stroke:#191a14;stroke-width:2.6;stroke-dasharray:none;stroke-opacity:1;paint-order:markers fill stroke"
       id="rect1"
       width="10.854481"
       height="5.0201974"
       x="14.274778"
       y="51.992413" />
    <rect
       style="fill:#25009f;fill-opacity:1;stroke:#191a14;stroke-width:2.6;stroke-dasharray:none;stroke-opacity:1;paint-order:markers fill stroke"
       id="rect2"
       width="10.854481"
       height="5.0201974"
       x="25.075006"
       y="51.992413" />
    <rect
       style="fill:#25009f;fill-opacity:1;stroke:#191a14;stroke-width:2.6;stroke-dasharray:none;stroke-opacity:1;paint-order:markers fill stroke"
       id="rect3"
       width="10.854481"
       height="5.0201974"
       x="35.875008"
       y="51.992413" />
  </g>
  <g
     id="g6"
     transform="matrix(0,0.4592106,-0.4592106,0,34.977486,-5.2267364)"
     style="fill:#25009f;fill-opacity:1;stroke:#191a14;stroke-opacity:1">
    <rect
       style="fill:#25009f;fill-opacity:1;stroke:#191a14;stroke-width:2.6;stroke-dasharray:none;stroke-opacity:1;paint-order:markers fill stroke"
       id="rect4"
       width="10.854481"
       height="5.0201974"
       x="14.274778"
       y="51.992413" />
    <rect
       style="fill:#25009f;fill-opacity:1;stroke:#191a14;stroke-width:2.6;stroke-dasharray:none;stroke-opacity:1;paint-order:markers fill stroke"
       id="rect5"
       width="10.854481"
       height="5.0201974"
       x="25.075006"
       y="51.992413" />
    <rect
       style="fill:#25009f;fill-opacity:1;stroke:#191a14;stroke-width:2.6;stroke-dasharray:none;stroke-opacity:1;paint-order:markers fill stroke"
       id="rect6"
       width="10.854481"
       height="5.0201974"
       x="35.875008"
       y="51.992413" />
  </g>
</svg>
