<?xml version="1.0" encoding="UTF-8" standalone="no"?>
<svg
   width="59.479553"
   height="37.864887"
   viewBox="0 0 59.479553 37.864886"
   fill="none"
   version="1.1"
   id="svg6"
   sodipodi:docname="proj_frag.svg"
   inkscape:version="1.4.2 (f4327f4, 2025-05-13)"
   xmlns:inkscape="http://www.inkscape.org/namespaces/inkscape"
   xmlns:sodipodi="http://sodipodi.sourceforge.net/DTD/sodipodi-0.dtd"
   xmlns="http://www.w3.org/2000/svg"
   xmlns:svg="http://www.w3.org/2000/svg">
  <defs
     id="defs6" />
  <sodipodi:namedview
     id="namedview6"
     pagecolor="#ffffff"
     bordercolor="#000000"
     borderopacity="0.25"
     inkscape:showpageshadow="2"
     inkscape:pageopacity="0.0"
     inkscape:pagecheckerboard="0"
     inkscape:deskcolor="#d1d1d1"
     inkscape:zoom="6.2076923"
     inkscape:cx="18.283767"
     inkscape:cy="48.085502"
     inkscape:window-width="1920"
     inkscape:window-height="1009"
     inkscape:window-x="-8"
     inkscape:window-y="-8"
     inkscape:window-maximized="1"
     inkscape:current-layer="svg6" />
  <g
     id="g1"
     transform="scale(1.9826517)">
    <path
       d="m 21.432126,7.2403961 c 0,-0.1298905 -0.105248,-0.2351386 -0.235138,-0.2351386 h -4.038693 c -0.129843,0 -0.235138,0.1052481 -0.235138,0.2351386 v 2.3060977 2.3084492 c 0,0.129891 0.105295,0.235139 0.235138,0.235139 h 4.038693 c 0.12989,0 0.235138,-0.105248 0.235138,-0.235139 z"
       fill="#575946"
       stroke="#191a14"
       stroke-width="1.88111"
       stroke-miterlimit="3.99393"
       id="path1" />
    <path
       d="M 18.175081,9.5476695 C 18.174517,7.2646624 17.266318,5.0752874 15.650352,3.4612072 14.034339,1.8471081 11.842848,0.94045153 9.5578181,0.94055499 7.2727888,0.94044213 5.0813446,1.8471034 3.4653315,3.4612072 1.8493184,5.0752874 0.94116634,7.2646154 0.94055498,9.5476695 0.94050795,10.678357 1.1633252,11.797945 1.5963563,12.842572 c 0.4330312,1.044626 1.0677641,1.993787 1.8679876,2.793305 0.8002235,0.799518 1.7502302,1.433733 2.7957502,1.866388 1.04552,0.432702 2.1660962,0.655331 3.297724,0.655284 1.1316749,4.7e-5 2.2522979,-0.222582 3.2978179,-0.655284 1.04552,-0.432655 1.99548,-1.06687 2.795703,-1.866388 0.800177,-0.799471 1.434957,-1.748679 1.867988,-2.793305 0.433031,-1.044627 0.655848,-2.164215 0.655754,-3.2949025 z"
       fill="#575946"
       id="path2"
       style="stroke-width:0.470277" />
    <path
       d="M 10.28877,18.126558 V 0.97153214 C 10.067505,0.95272576 9.8448282,0.94241729 9.6212114,0.94078543 H 9.4944247 c -0.2237578,0.001646 -0.4465751,0.0119544 -0.6679815,0.0307796 V 18.126511 c 0.2321287,0.01975 0.4652921,0.0301 0.6989728,0.03094 h 0.064757 c 0.2335867,-8.46e-4 0.466609,-0.01119 0.698597,-0.0309 z"
       fill="#404233"
       id="path3"
       style="stroke-width:0.470277" />
    <path
       d="m 27.654376,12.572774 c -0.184517,0 -0.367248,0.0364 -0.537724,0.107035 -0.170475,0.07068 -0.325361,0.174285 -0.455835,0.304834 -0.130478,0.130596 -0.233986,0.285552 -0.304598,0.456168 -0.07061,0.17057 -0.106913,0.353461 -0.106913,0.538091 0,0.184678 0.0363,0.367522 0.106913,0.538139 0.07061,0.170616 0.17412,0.325572 0.304598,0.456168 0.130474,0.130549 0.28536,0.234151 0.455835,0.304834 0.170476,0.07064 0.353207,0.106988 0.537724,0.106988 0.184523,0 0.367207,-0.03635 0.537678,-0.106988 0.170475,-0.07068 0.325413,-0.174285 0.455886,-0.304834 0.130474,-0.130596 0.23394,-0.285552 0.304547,-0.456168 0.07061,-0.170617 0.106965,-0.353461 0.10696,-0.538139 5e-6,-0.18463 -0.03635,-0.367521 -0.10696,-0.538091 -0.07061,-0.170616 -0.174073,-0.325572 -0.304547,-0.456168 -0.130473,-0.130549 -0.285411,-0.234151 -0.455886,-0.304834 -0.170471,-0.07064 -0.353155,-0.107035 -0.537678,-0.107035 z"
       fill="#47443c"
       stroke="#191815"
       stroke-width="1.88111"
       stroke-miterlimit="3.99393"
       id="path4" />
    <path
       d="m 28.185028,11.495463 -0.53012,0.594572 v 1.866059 l -3.354186,-2.460631 -2.868078,0.594572 c 0,0 0,-5.2203113 0,-5.2915583 V 3.0074321 l 6.752384,2.4026456 z"
       fill="#4e4735"
       stroke="#1b1913"
       stroke-width="1.88111"
       stroke-miterlimit="3.99393"
       stroke-linecap="square"
       id="path5" />
    <path
       d="M 18.175081,9.5476695 C 18.174517,7.2646624 17.266318,5.0752874 15.650352,3.4612072 14.034339,1.8471081 11.842848,0.94045153 9.5578181,0.94055499 7.2727888,0.94044213 5.0813446,1.8471034 3.4653315,3.4612072 1.8493184,5.0752874 0.94116634,7.2646154 0.94055498,9.5476695 0.94050795,10.678357 1.1633252,11.797945 1.5963563,12.842572 c 0.4330312,1.044626 1.0677641,1.993787 1.8679876,2.793305 0.8002235,0.799518 1.7502302,1.433733 2.7957502,1.866388 1.04552,0.432702 2.1660962,0.655331 3.297724,0.655284 1.1316749,4.7e-5 2.2522979,-0.222582 3.2978179,-0.655284 1.04552,-0.432655 1.99548,-1.06687 2.795703,-1.866388 0.800177,-0.799471 1.434957,-1.748679 1.867988,-2.793305 0.433031,-1.044627 0.655848,-2.164215 0.655754,-3.2949025 z"
       stroke="#191a14"
       stroke-width="1.88111"
       stroke-miterlimit="3.99393"
       id="path6" />
  </g>
</svg>
