<?xml version="1.0" encoding="UTF-8" standalone="no"?>
<svg
   width="75"
   height="78"
   viewBox="0 0 75 78"
   fill="none"
   version="1.1"
   id="svg8"
   sodipodi:docname="frag_grenade.svg"
   inkscape:version="1.4 (86a8ad7, 2024-10-11)"
   xmlns:inkscape="http://www.inkscape.org/namespaces/inkscape"
   xmlns:sodipodi="http://sodipodi.sourceforge.net/DTD/sodipodi-0.dtd"
   xmlns="http://www.w3.org/2000/svg"
   xmlns:svg="http://www.w3.org/2000/svg">
  <defs
     id="defs8" />
  <sodipodi:namedview
     id="namedview8"
     pagecolor="#ffffff"
     bordercolor="#000000"
     borderopacity="0.25"
     inkscape:showpageshadow="2"
     inkscape:pageopacity="0.0"
     inkscape:pagecheckerboard="0"
     inkscape:deskcolor="#d1d1d1"
     inkscape:zoom="5.1730769"
     inkscape:cx="16.817844"
     inkscape:cy="53.836431"
     inkscape:window-width="1920"
     inkscape:window-height="1009"
     inkscape:window-x="-8"
     inkscape:window-y="-8"
     inkscape:window-maximized="1"
     inkscape:current-layer="svg8" />
  <path
     d="m 49.981205,42.607841 c -8.9e-5,-0.276153 -0.223916,-0.500034 -0.50012,-0.500032 l -9.336211,7e-6 c -0.276204,2e-6 -0.499948,0.223866 -0.499996,0.499983 l -7e-6,4.903786 1.4e-5,4.908624 c 10e-7,0.276204 0.223829,0.500084 0.499982,0.499996 l 9.336262,8e-5 c 0.276203,-2e-6 0.500034,-0.223916 0.499995,-0.499983 z"
     fill="#575946"
     stroke="#191a14"
     stroke-width="4"
     stroke-miterlimit="3.99393"
     id="path1" />
  <path
     d="m 43.05644,47.513797 c -0.0012,-4.8547 -1.932443,-9.510089 -5.368711,-12.942281 -3.436233,-3.432329 -8.096203,-5.360234 -12.955124,-5.359933 -4.858912,-2.82e-4 -9.518843,1.927682 -12.955134,5.359851 -3.4362411,3.432255 -5.3673791,8.087626 -5.3686721,12.942387 -8.6e-5,2.404251 0.473628,4.784947 1.394439,7.006238 0.920811,2.221292 2.2706011,4.239598 3.9721181,5.939712 1.701604,1.700063 3.721754,3.048666 5.944941,3.968739 2.223274,0.920023 4.605979,1.39339 7.012326,1.393305 2.40636,1.38e-4 4.789265,-0.473349 7.012446,-1.393288 2.223217,-0.920075 4.243252,-2.268671 5.944799,-3.968705 1.701497,-1.700122 3.051237,-3.718504 3.9721,-5.939722 0.920813,-2.221305 1.39461,-4.602065 1.394472,-7.006303 z"
     fill="#575946"
     id="path2" />
  <path
     d="m 26.286662,65.75609 -3.9e-5,-36.478469 c -0.470535,-0.03999 -0.944016,-0.06188 -1.419573,-0.06537 l -0.26953,-4.1e-5 c -0.475811,0.0035 -0.949568,0.0255 -1.420367,0.06545 l -1.1e-5,36.478381 c 0.493553,0.04206 0.989398,0.06409 1.486269,0.06589 l 0.137767,1.9e-5 c 0.496607,-0.0019 0.992182,-0.02389 1.485484,-0.06587 z"
     fill="#404233"
     id="path3" />
  <path
     d="m 63.212672,53.946615 c -0.392289,-6.4e-5 -0.780871,0.07729 -1.143392,0.227587 -0.362484,0.15016 -0.69186,0.370463 -0.96932,0.648088 -0.277411,0.277711 -0.497546,0.607225 -0.647676,0.969992 -0.150131,0.362767 -0.227323,0.751665 -0.227324,1.144264 4.9e-5,0.392685 0.07719,0.781505 0.227281,1.144262 0.150223,0.362793 0.370266,0.69232 0.647768,0.969967 0.277415,0.277696 0.606756,0.497932 0.969263,0.648212 0.362506,0.150281 0.751095,0.227536 1.143384,0.227601 0.392376,1.4e-5 0.780822,-0.07738 1.143392,-0.227587 0.362521,-0.150296 0.691947,-0.370513 0.969357,-0.648224 0.277461,-0.277625 0.49746,-0.607176 0.64759,-0.969943 0.15013,-0.362766 0.227459,-0.751629 0.22746,-1.144227 -4.9e-5,-0.392686 -0.07733,-0.781541 -0.227417,-1.144299 -0.150223,-0.362793 -0.37018,-0.69237 -0.647632,-0.96993 -0.277415,-0.277697 -0.606892,-0.497969 -0.969399,-0.648249 -0.362457,-0.150194 -0.750959,-0.2275 -1.143335,-0.227514 z"
     fill="#47443c"
     stroke="#191815"
     stroke-width="4"
     stroke-miterlimit="3.99393"
     id="path4" />
  <path
     d="m 64.340182,51.656319 -1.127266,1.264319 6e-6,3.96801 -7.13232,-5.232341 -6.098701,1.26434 c 0,0 -3.6e-5,-11.100462 9e-6,-11.251984 l 3.8e-5,-8.061334 14.358218,5.108963 z"
     fill="#4e4735"
     stroke="#1b1913"
     stroke-width="4"
     stroke-miterlimit="3.99393"
     stroke-linecap="square"
     id="path5" />
  <path
     d="M 56.017898,35.755101 49.834623,20.785954 26.75898,14.731768 l -2.25633,6.166522 22.681518,6.054142 2.796824,6.654641 z"
     fill="#4e4735"
     stroke="#1b1913"
     stroke-width="4"
     stroke-miterlimit="3.99393"
     id="path6" />
  <path
     d="m 43.05644,47.513797 c -0.0012,-4.8547 -1.932443,-9.510089 -5.368711,-12.942281 -3.436233,-3.432329 -8.096203,-5.360234 -12.955124,-5.359933 -4.858912,-2.82e-4 -9.518843,1.927682 -12.955134,5.359851 -3.4362411,3.432255 -5.3673791,8.087626 -5.3686721,12.942387 -8.6e-5,2.404251 0.473628,4.784947 1.394439,7.006238 0.920811,2.221292 2.2706011,4.239598 3.9721181,5.939712 1.701604,1.700063 3.721754,3.048666 5.944941,3.968739 2.223274,0.920023 4.605979,1.39339 7.012326,1.393305 2.40636,1.38e-4 4.789265,-0.473349 7.012446,-1.393288 2.223217,-0.920075 4.243252,-2.268671 5.944799,-3.968705 1.701497,-1.700122 3.051237,-3.718504 3.9721,-5.939722 0.920813,-2.221305 1.39461,-4.602065 1.394472,-7.006303 z"
     stroke="#191a14"
     stroke-width="4"
     stroke-miterlimit="3.99393"
     id="path7" />
  <path
     fill-rule="evenodd"
     clip-rule="evenodd"
     d="m 36.304956,38.717683 c 3.7e-5,6.365265 5.160209,11.524945 11.525474,11.524908 6.365179,1.2e-5 11.525382,-5.159653 11.525345,-11.524918 3.9e-5,-6.364732 -5.16016,-11.524859 -11.525338,-11.524871 -6.365315,-4.9e-5 -11.525442,5.160149 -11.525481,11.524881 z m 4.095742,3.4e-5 c -3.4e-5,4.103941 3.326169,7.431093 7.429663,7.431154 4.105504,-6e-5 7.43166,-3.327188 7.431644,-7.431216 3.4e-5,-4.103941 -3.326169,-7.431093 -7.431636,-7.43117 -4.103531,7.6e-5 -7.429687,3.327204 -7.429671,7.431232 z"
     fill="#a1a29c"
     stroke="#222220"
     stroke-width="2"
     stroke-miterlimit="3.99393"
     id="path8" />
</svg>
