<?xml version="1.0" encoding="UTF-8" standalone="no"?>
<svg
   width="87.106003"
   height="53.156563"
   viewBox="0 0 87.106003 53.156563"
   fill="none"
   version="1.1"
   id="svg8"
   sodipodi:docname="mirv_grenade.svg"
   inkscape:version="1.4 (86a8ad7, 2024-10-11)"
   inkscape:export-filename="mirv_grenade.png"
   inkscape:export-xdpi="96"
   inkscape:export-ydpi="96"
   xmlns:inkscape="http://www.inkscape.org/namespaces/inkscape"
   xmlns:sodipodi="http://sodipodi.sourceforge.net/DTD/sodipodi-0.dtd"
   xmlns="http://www.w3.org/2000/svg"
   xmlns:svg="http://www.w3.org/2000/svg">
  <defs
     id="defs8" />
  <sodipodi:namedview
     id="namedview8"
     pagecolor="#ffffff"
     bordercolor="#000000"
     borderopacity="0.25"
     inkscape:showpageshadow="2"
     inkscape:pageopacity="0.0"
     inkscape:pagecheckerboard="0"
     inkscape:deskcolor="#d1d1d1"
     inkscape:zoom="3.6851142"
     inkscape:cx="26.864839"
     inkscape:cy="73.946148"
     inkscape:window-width="1920"
     inkscape:window-height="1009"
     inkscape:window-x="-8"
     inkscape:window-y="-8"
     inkscape:window-maximized="1"
     inkscape:current-layer="svg8" />
  <g
     id="g8"
     transform="translate(3.2619921,-10.745387)">
    <path
       d="m 61.953391,35.791594 c -0.05279,-0.271061 -0.31521,-0.448122 -0.586337,-0.395416 l -9.164635,1.78144 c -0.271126,0.0527 -0.448044,0.315148 -0.395406,0.586199 l 0.935676,4.813692 0.936618,4.818437 c 0.05271,0.271128 0.315135,0.448187 0.586197,0.395408 l 9.1647,-1.781366 c 0.271125,-0.0527 0.448119,-0.315213 0.395403,-0.5862 z"
       fill="#575946"
       stroke="#191a14"
       stroke-width="4"
       stroke-miterlimit="3.99393"
       id="path1"
       sodipodi:nodetypes="cccccccccc" />
    <path
       d="m 77.105224,44.397362 c -0.385094,0.07478 -0.751773,0.224866 -1.078953,0.441574 -0.327173,0.216563 -0.608461,0.495666 -0.827848,0.821134 -0.219324,0.325541 -0.372538,0.691006 -0.450693,1.075754 -0.07815,0.384749 -0.07972,0.781228 -0.0048,1.166615 0.07498,0.385462 0.224889,0.752418 0.44144,1.07987 0.216684,0.327466 0.495562,0.60895 0.820942,0.828546 0.325305,0.219661 0.690615,0.373009 1.075134,0.451363 0.384519,0.07834 0.780708,0.08004 1.1658,0.0052 0.385157,-0.0748 0.751696,-0.224896 1.078943,-0.441523 0.327184,-0.216706 0.608534,-0.495737 0.827856,-0.821276 0.219389,-0.325468 0.372464,-0.690942 0.45062,-1.07569 0.07815,-0.384748 0.07986,-0.781219 0.0049,-1.166605 -0.07498,-0.385463 -0.225031,-0.752428 -0.441581,-1.07988 -0.216685,-0.327466 -0.495486,-0.609015 -0.820801,-0.828536 -0.325303,-0.219661 -0.690754,-0.373019 -1.075276,-0.451368 -0.384453,-0.07827 -0.780566,-0.08003 -1.165734,-0.0052 z"
       fill="#47443c"
       stroke="#191815"
       stroke-width="4"
       stroke-miterlimit="3.99393"
       id="path4"
       sodipodi:nodetypes="cccscccccccssccccc" />
    <path
       d="m 77.775005,41.934003 -0.865306,1.456185 0.757134,3.895104 -7.999618,-3.775296 -5.745374,2.404797 c 0,0 -2.118093,-10.896508 -2.14696,-11.045256 l -1.538129,-7.913231 15.069177,2.275419 z"
       fill="#4E4735"
       stroke="#1b1913"
       stroke-width="4"
       stroke-miterlimit="3.99393"
       stroke-linecap="square"
       id="path5"
       style="fill:#353535;fill-opacity:1"
       sodipodi:nodetypes="ccccccccc" />
    <path
       d="M 66.571586,27.912904 57.64571,14.398607 33.838957,12.858693 l -1.038241,6.483755 23.419864,1.615071 4.015183,5.998719 z"
       fill="#4E4735"
       stroke="#1b1913"
       stroke-width="4"
       stroke-miterlimit="3.99393"
       id="path6"
       style="fill:#353535;fill-opacity:1"
       sodipodi:nodetypes="ccccccc" />
    <g
       id="g11"
       transform="matrix(0.65605579,0.75470958,-0.75470585,0.65605903,53.391841,-12.948821)"
       style="stroke-width:1">
      <path
         style="fill:#005bf9;fill-opacity:1;stroke:#191a14;stroke-width:7.20002;stroke-linejoin:bevel;stroke-dasharray:none;stroke-opacity:1;paint-order:markers stroke fill"
         d="M 11.520794,53.004918 20.695169,42.451007 40.543276,59.704703 31.368901,70.258614 Z"
         id="path11"
         sodipodi:nodetypes="ccccc" />
      <path
         d="m 42.476086,32.194147 c -4.2049,-2.4263 -9.2022,-3.0815 -13.8927,-1.8217 -4.6906,1.2597 -11.1194,8.5395 -11.1194,8.5395 -0.196704,0.346028 26.9926,23.6813 26.9926,23.6813 0,0 3.5097,-3.2922 4.7128,-5.3762 1.2033,-2.0839 1.9847,-4.3843 2.2996,-6.7696 0.3148,-2.3854 0.1569,-4.8091 -0.4646,-7.1327 -0.6216,-2.3236 -1.6947,-4.5017 -3.1579,-6.4098 -1.4633,-1.9081 -3.2882,-3.5088 -5.3704,-4.7108 z"
         stroke="#191a14"
         stroke-width="4.00001"
         stroke-miterlimit="3.99393"
         id="path7"
         sodipodi:nodetypes="ccccccccc"
         style="fill:#0023e2;fill-opacity:1" />
      <path
         d="m 9.9333712,80.606769 c 4.2048998,2.4263 9.2021998,3.0815 13.8926998,1.8217 4.6906,-1.2597 11.1194,-8.5395 11.1194,-8.5395 0.196704,-0.346028 -26.9925998,-23.6813 -26.9925998,-23.6813 0,0 -3.5097006,3.2922 -4.7128006,5.3762 -1.2033,2.0839 -1.9847,4.3843 -2.29959997,6.7696 -0.3148,2.3854 -0.1569,4.8091 0.46459997,7.1327 0.6216,2.3236 1.6947,4.5017 3.1579001,6.4098 1.4633005,1.9081 3.2882005,3.5088 5.3704005,4.7108 z"
         stroke="#191a14"
         stroke-width="4.00001"
         stroke-miterlimit="3.99393"
         id="path9"
         sodipodi:nodetypes="ccccccccc"
         style="fill:#0023e2;fill-opacity:1" />
      <path
         d="m 9.7777499,79.90123 c 3.2917151,2.296443 6.7869531,3.638894 9.7169491,3.732201 2.930078,0.09339 5.907268,-3.234587 5.907268,-3.234587 C 25.470007,80.22029 2.7552259,60.612573 2.7552259,60.612573 c 0,0 -1.7529282,1.392371 -2.17510955,2.464273 -0.42233436,1.071805 -0.51943401,2.357253 -0.2858111,3.782795 0.23370858,1.425621 0.79360755,2.963493 1.64766715,4.525779 0.8541284,1.562309 1.9857601,3.118517 3.3301702,4.579661 1.3444779,1.461161 2.8755031,2.798653 4.5056073,3.936149 z"
         stroke="#191a14"
         stroke-width="4.00002"
         stroke-miterlimit="3.99393"
         id="path10"
         sodipodi:nodetypes="ccccccccc"
         style="fill:#25009f;fill-opacity:1;stroke-width:2.60001;stroke-dasharray:none" />
    </g>
    <path
       fill-rule="evenodd"
       clip-rule="evenodd"
       d="m 47.786205,34.582461 c 1.214582,6.24831 7.264429,10.328586 13.51271,9.113998 6.248204,-1.21452 10.329067,-7.264001 9.114487,-13.512312 -1.214403,-6.247801 -7.264365,-10.32851 -13.512566,-9.113988 -6.248344,1.21451 -10.329034,7.264502 -9.114631,13.512302 z m 4.02048,-0.78147 c 0.783031,4.028546 4.682954,6.659898 8.711047,5.876976 4.030043,-0.783425 6.660229,-4.684088 5.877132,-8.712709 -0.783033,-4.028546 -4.682954,-6.6599 -8.712989,-5.876615 -4.028102,0.783065 -6.658289,4.683725 -5.87519,8.712348 z"
       fill="#a1a29c"
       stroke="#222220"
       stroke-width="2.00001"
       stroke-miterlimit="3.99393"
       id="path8"
       sodipodi:nodetypes="cccccccccc" />
    <g
       id="g3"
       style="fill:#25009f;fill-opacity:1;stroke:#191a14;stroke-opacity:1"
       transform="rotate(90,40.291004,54.298385)">
      <rect
         style="fill:#25009f;fill-opacity:1;stroke:#191a14;stroke-width:2.6;stroke-dasharray:none;stroke-opacity:1;paint-order:markers fill stroke"
         id="rect1"
         width="10.854481"
         height="5.0201974"
         x="14.274778"
         y="51.992413" />
      <rect
         style="fill:#25009f;fill-opacity:1;stroke:#191a14;stroke-width:2.6;stroke-dasharray:none;stroke-opacity:1;paint-order:markers fill stroke"
         id="rect2"
         width="10.854481"
         height="5.0201974"
         x="25.075006"
         y="51.992413" />
      <rect
         style="fill:#25009f;fill-opacity:1;stroke:#191a14;stroke-width:2.6;stroke-dasharray:none;stroke-opacity:1;paint-order:markers fill stroke"
         id="rect3"
         width="10.854481"
         height="5.0201974"
         x="35.875008"
         y="51.992413" />
    </g>
    <g
       id="g6"
       transform="rotate(90,30.265174,42.641558)"
       style="fill:#25009f;fill-opacity:1;stroke:#191a14;stroke-opacity:1">
      <rect
         style="fill:#25009f;fill-opacity:1;stroke:#191a14;stroke-width:2.6;stroke-dasharray:none;stroke-opacity:1;paint-order:markers fill stroke"
         id="rect4"
         width="10.854481"
         height="5.0201974"
         x="14.274778"
         y="51.992413" />
      <rect
         style="fill:#25009f;fill-opacity:1;stroke:#191a14;stroke-width:2.6;stroke-dasharray:none;stroke-opacity:1;paint-order:markers fill stroke"
         id="rect5"
         width="10.854481"
         height="5.0201974"
         x="25.075006"
         y="51.992413" />
      <rect
         style="fill:#25009f;fill-opacity:1;stroke:#191a14;stroke-width:2.6;stroke-dasharray:none;stroke-opacity:1;paint-order:markers fill stroke"
         id="rect6"
         width="10.854481"
         height="5.0201974"
         x="35.875008"
         y="51.992413" />
    </g>
  </g>
</svg>
