<?xml version="1.0" encoding="UTF-8" standalone="no"?>
<!-- Created with Inkscape (http://www.inkscape.org/) -->

<svg
   width="8.9688683mm"
   height="15.380341mm"
   viewBox="0 0 8.9688674 15.380341"
   version="1.1"
   id="svg5"
   inkscape:version="1.4.2 (f4327f4, 2025-05-13)"
   sodipodi:docname="blue_pills.svg"
   xmlns:inkscape="http://www.inkscape.org/namespaces/inkscape"
   xmlns:sodipodi="http://sodipodi.sourceforge.net/DTD/sodipodi-0.dtd"
   xmlns:xlink="http://www.w3.org/1999/xlink"
   xmlns="http://www.w3.org/2000/svg"
   xmlns:svg="http://www.w3.org/2000/svg">
  <sodipodi:namedview
     id="namedview7"
     pagecolor="#ffffff"
     bordercolor="#666666"
     borderopacity="1.0"
     inkscape:pageshadow="2"
     inkscape:pageopacity="0.0"
     inkscape:pagecheckerboard="0"
     inkscape:document-units="mm"
     showgrid="false"
     inkscape:zoom="6.911334"
     inkscape:cx="14.975401"
     inkscape:cy="43.334615"
     inkscape:window-width="1920"
     inkscape:window-height="1009"
     inkscape:window-x="-8"
     inkscape:window-y="-8"
     inkscape:window-maximized="1"
     inkscape:current-layer="layer1"
     fit-margin-top="0"
     fit-margin-left="0"
     fit-margin-right="0"
     fit-margin-bottom="0"
     inkscape:showpageshadow="2"
     inkscape:deskcolor="#d1d1d1" />
  <defs
     id="defs2">
    <linearGradient
       id="linearGradient22"
       inkscape:collect="always">
      <stop
         style="stop-color:#737373;stop-opacity:1;"
         offset="0"
         id="stop22" />
      <stop
         style="stop-color:#838383;stop-opacity:1;"
         offset="1"
         id="stop23" />
    </linearGradient>
    <linearGradient
       id="linearGradient20"
       inkscape:collect="always">
      <stop
         style="stop-color:#b2b2b2;stop-opacity:1;"
         offset="0"
         id="stop20" />
      <stop
         style="stop-color:#d5d5d5;stop-opacity:1;"
         offset="1"
         id="stop21" />
    </linearGradient>
    <linearGradient
       inkscape:collect="always"
       xlink:href="#linearGradient20"
       id="linearGradient21"
       x1="86.219116"
       y1="114.21862"
       x2="85.453468"
       y2="187.58344"
       gradientUnits="userSpaceOnUse" />
    <linearGradient
       inkscape:collect="always"
       xlink:href="#linearGradient22"
       id="linearGradient23"
       x1="86.219116"
       y1="114.21862"
       x2="85.453468"
       y2="187.58344"
       gradientUnits="userSpaceOnUse" />
  </defs>
  <g
     inkscape:label="Layer 1"
     inkscape:groupmode="layer"
     id="layer1"
     transform="matrix(0.2,0,0,0.2,-12.75939,-22.2412)">
    <rect
       style="fill:url(#linearGradient21);fill-opacity:1;stroke:url(#linearGradient23);stroke-width:5;stroke-linecap:square;stroke-dasharray:none;stroke-opacity:1"
       id="rect2383"
       width="39.844341"
       height="71.901703"
       x="66.296951"
       y="113.706"
       rx="5.7303567"
       ry="6.0857296" />
    <g
       id="g20"
       style="fill:#1e00ff;fill-opacity:1">
      <path
         style="baseline-shift:baseline;display:inline;overflow:visible;opacity:1;vector-effect:none;stroke-linecap:square;enable-background:accumulate;stop-color:#000000;stop-opacity:1;fill:#1e00ff;fill-opacity:1"
         d="m 123.055,133.02601 c 0,-3.92828 6.51341,-4.223 6.51341,0 v 11.46174 c 0,3.8727 -6.51341,3.9947 -6.51341,0 z"
         id="path15"
         transform="translate(-40.644102,31.980245)" />
      <path
         style="baseline-shift:baseline;display:inline;overflow:visible;opacity:1;vector-effect:none;stroke-linecap:square;enable-background:accumulate;stop-color:#000000;stop-opacity:1;fill:#1e00ff;fill-opacity:1"
         d="m 123.055,133.02601 c 0,-3.92828 6.51341,-4.223 6.51341,0 v 11.46174 c 0,3.8727 -6.51341,3.9947 -6.51341,0 z"
         id="path17"
         transform="translate(-30.072085,32.127461)" />
      <path
         style="baseline-shift:baseline;display:inline;overflow:visible;opacity:1;vector-effect:none;stroke-linecap:square;enable-background:accumulate;stop-color:#000000;stop-opacity:1;fill:#1e00ff;fill-opacity:1"
         d="m 123.055,133.02601 c 0,-3.92828 6.51341,-4.223 6.51341,0 v 11.46174 c 0,3.8727 -6.51341,3.9947 -6.51341,0 z"
         id="path13"
         transform="translate(-51.641264,32.079205)" />
      <path
         style="baseline-shift:baseline;display:inline;overflow:visible;opacity:1;vector-effect:none;stroke-linecap:square;enable-background:accumulate;stop-color:#000000;stop-opacity:1;fill:#1e00ff;fill-opacity:1"
         d="m 123.055,133.02601 c 0,-3.92828 6.51341,-4.223 6.51341,0 v 11.46174 c 0,3.8727 -6.51341,3.9947 -6.51341,0 z"
         id="path7"
         transform="translate(-30.072084,12.019116)" />
      <path
         style="baseline-shift:baseline;display:inline;overflow:visible;opacity:1;vector-effect:none;stroke-linecap:square;enable-background:accumulate;stop-color:#000000;stop-opacity:1;fill:#1e00ff;fill-opacity:1"
         d="m 123.055,133.02601 c 0,-3.92828 6.51341,-4.223 6.51341,0 v 11.46174 c 0,3.8727 -6.51341,3.9947 -6.51341,0 z"
         id="path9"
         transform="translate(-40.644102,11.871898)" />
      <path
         style="baseline-shift:baseline;display:inline;overflow:visible;opacity:1;vector-effect:none;stroke-linecap:square;enable-background:accumulate;stop-color:#000000;stop-opacity:1;fill:#1e00ff;fill-opacity:1"
         d="m 123.055,133.02601 c 0,-3.92828 6.51341,-4.223 6.51341,0 v 11.46174 c 0,3.8727 -6.51341,3.9947 -6.51341,0 z"
         id="path11"
         transform="translate(-51.641263,11.970859)" />
      <path
         style="baseline-shift:baseline;display:inline;overflow:visible;opacity:1;vector-effect:none;stroke-linecap:square;enable-background:accumulate;stop-color:#000000;stop-opacity:1;fill:#1e00ff;fill-opacity:1"
         d="m 123.055,133.02601 c 0,-3.92828 6.51341,-4.223 6.51341,0 v 11.46174 c 0,3.8727 -6.51341,3.9947 -6.51341,0 z"
         id="path5"
         transform="translate(-30.011922,-11.222357)" />
      <path
         style="baseline-shift:baseline;display:inline;overflow:visible;opacity:1;vector-effect:none;stroke-linecap:square;enable-background:accumulate;stop-color:#000000;stop-opacity:1;fill:#1e00ff;fill-opacity:1"
         d="m 123.055,133.02601 c 0,-3.92828 6.51341,-4.223 6.51341,0 v 11.46174 c 0,3.8727 -6.51341,3.9947 -6.51341,0 z"
         id="path3"
         transform="translate(-40.58394,-11.369576)" />
      <path
         style="baseline-shift:baseline;display:inline;overflow:visible;opacity:1;vector-effect:none;stroke-linecap:square;enable-background:accumulate;stop-color:#000000;stop-opacity:1;fill:#1e00ff;fill-opacity:1"
         d="m 123.055,133.02601 c 0,-3.92828 6.51341,-4.223 6.51341,0 v 11.46174 c 0,3.8727 -6.51341,3.9947 -6.51341,0 z"
         id="path1"
         transform="translate(-51.5811,-11.270615)" />
    </g>
    <g
       id="g19"
       style="fill:#1300a0;fill-opacity:1;stroke:#0001cb;stroke-opacity:1;stroke-width:2.5;stroke-dasharray:none">
      <rect
         style="fill-opacity:1;stroke-width:2.5;stroke-linecap:square;fill:#1300a0;stroke:#0001cb;stroke-opacity:1;stroke-dasharray:none"
         id="rect992-7-3-6-6-2"
         width="6.4219909"
         height="1.2063076"
         x="123.11473"
         y="137.91888"
         transform="translate(-30.072085,32.127461)" />
      <rect
         style="fill-opacity:1;stroke-width:2.5;stroke-linecap:square;fill:#1300a0;stroke:#0001cb;stroke-opacity:1;stroke-dasharray:none"
         id="rect992-7-3-5-0-5"
         width="6.4219909"
         height="1.2063076"
         x="123.11473"
         y="137.91888"
         transform="translate(-40.644102,31.980245)" />
      <rect
         style="fill-opacity:1;stroke-width:2.5;stroke-linecap:square;fill:#1300a0;stroke:#0001cb;stroke-opacity:1;stroke-dasharray:none"
         id="rect992-7-3-9-2"
         width="6.4219909"
         height="1.2063076"
         x="123.11473"
         y="137.91888"
         transform="translate(-51.641264,32.079205)" />
      <rect
         style="fill-opacity:1;stroke-width:2.5;stroke-linecap:square;fill:#1300a0;stroke:#0001cb;stroke-opacity:1;stroke-dasharray:none"
         id="rect992-7-3-6-6"
         width="6.4219909"
         height="1.2063076"
         x="123.11473"
         y="137.91888"
         transform="translate(-30.072084,12.019116)" />
      <rect
         style="fill-opacity:1;stroke-width:2.5;stroke-linecap:square;fill:#1300a0;stroke:#0001cb;stroke-opacity:1;stroke-dasharray:none"
         id="rect992-7-3-5-0"
         width="6.4219909"
         height="1.2063076"
         x="123.11473"
         y="137.91888"
         transform="translate(-40.644102,11.871898)" />
      <rect
         style="fill-opacity:1;stroke-width:2.5;stroke-linecap:square;fill:#1300a0;stroke:#0001cb;stroke-opacity:1;stroke-dasharray:none"
         id="rect992-7-3-9"
         width="6.4219909"
         height="1.2063076"
         x="123.11473"
         y="137.91888"
         transform="translate(-51.641263,11.970859)" />
      <rect
         style="fill-opacity:1;stroke-width:2.5;stroke-linecap:square;fill:#1300a0;stroke:#0001cb;stroke-opacity:1;stroke-dasharray:none"
         id="rect992-7-3-6"
         width="6.4219909"
         height="1.2063076"
         x="123.11473"
         y="137.91888"
         transform="translate(-30.011922,-11.222357)" />
      <rect
         style="fill-opacity:1;stroke-width:2.5;stroke-linecap:square;fill:#1300a0;stroke:#0001cb;stroke-opacity:1;stroke-dasharray:none"
         id="rect992-7-3"
         width="6.4219909"
         height="1.2063076"
         x="123.11473"
         y="137.91888"
         transform="translate(-51.5811,-11.270615)" />
      <rect
         style="fill-opacity:1;stroke:#0001cb;stroke-opacity:1"
         id="rect992-7-3-5"
         width="6.4219909"
         height="1.2063076"
         x="123.11473"
         y="137.91888"
         transform="translate(-40.58394,-11.369576)" />
    </g>
    <g
       id="g18"
       style="fill:#1300a0;fill-opacity:1">
      <path
         style="baseline-shift:baseline;display:inline;overflow:visible;opacity:1;vector-effect:none;fill-opacity:1;stroke-linecap:square;enable-background:accumulate;stop-color:#000000;stop-opacity:1;fill:#1300a0"
         d="m 126.2832,128.71875 c -1.07469,0.0243 -2.1531,0.37349 -3.01562,1.09961 -0.86253,0.72611 -1.46289,1.87953 -1.46289,3.20703 v 11.46289 c 0,1.33837 0.60697,2.49972 1.48633,3.20508 0.87935,0.70536 1.96741,1.00412 3.0332,0.99414 1.06578,-0.01 2.14134,-0.32766 3.01172,-1.03125 0.87038,-0.70359 1.48242,-1.8494 1.48242,-3.16797 v -11.46289 c 0,-1.37708 -0.58717,-2.5664 -1.4707,-3.29687 -0.88354,-0.73048 -1.98976,-1.03408 -3.06446,-1.00977 z m 0.0566,2.5 c 0.55366,-0.0125 1.07634,0.15828 1.41407,0.4375 0.33772,0.27922 0.56445,0.63472 0.56445,1.36914 v 11.46289 c 0,0.61778 -0.20185,0.93901 -0.55273,1.22266 -0.35089,0.28364 -0.90228,0.47129 -1.46485,0.47656 -0.56257,0.005 -1.1034,-0.17106 -1.44531,-0.44531 -0.34191,-0.27426 -0.55078,-0.59492 -0.55078,-1.25391 v -11.46289 c 0,-0.63664 0.21352,-0.99292 0.57226,-1.29492 0.35874,-0.30201 0.90924,-0.49919 1.46289,-0.51172 z"
         id="path16"
         transform="translate(-40.644102,31.980245)"
         sodipodi:nodetypes="scssscssssscsssscssssc" />
      <path
         style="baseline-shift:baseline;display:inline;overflow:visible;opacity:1;vector-effect:none;fill-opacity:1;stroke-linecap:square;enable-background:accumulate;stop-color:#000000;stop-opacity:1;fill:#1300a0"
         d="m 126.2832,128.71875 c -1.07469,0.0243 -2.1531,0.37349 -3.01562,1.09961 -0.86253,0.72611 -1.46289,1.87953 -1.46289,3.20703 v 11.46289 c 0,1.33837 0.60697,2.49972 1.48633,3.20508 0.87935,0.70536 1.96741,1.00412 3.0332,0.99414 1.06578,-0.01 2.14134,-0.32766 3.01172,-1.03125 0.87038,-0.70359 1.48242,-1.8494 1.48242,-3.16797 v -11.46289 c 0,-1.37708 -0.58717,-2.5664 -1.4707,-3.29687 -0.88354,-0.73048 -1.98976,-1.03408 -3.06446,-1.00977 z m 0.0566,2.5 c 0.55366,-0.0125 1.07634,0.15828 1.41407,0.4375 0.33772,0.27922 0.56445,0.63472 0.56445,1.36914 v 11.46289 c 0,0.61778 -0.20185,0.93901 -0.55273,1.22266 -0.35089,0.28364 -0.90228,0.47129 -1.46485,0.47656 -0.56257,0.005 -1.1034,-0.17106 -1.44531,-0.44531 -0.34191,-0.27426 -0.55078,-0.59492 -0.55078,-1.25391 v -11.46289 c 0,-0.63664 0.21352,-0.99292 0.57226,-1.29492 0.35874,-0.30201 0.90924,-0.49919 1.46289,-0.51172 z"
         id="path18"
         transform="translate(-30.072085,32.12746)"
         sodipodi:nodetypes="scssscssssscsssscssssc" />
      <path
         style="baseline-shift:baseline;display:inline;overflow:visible;opacity:1;vector-effect:none;fill-opacity:1;stroke-linecap:square;enable-background:accumulate;stop-color:#000000;stop-opacity:1;fill:#1300a0"
         d="m 126.2832,128.71875 c -1.07469,0.0243 -2.1531,0.37349 -3.01562,1.09961 -0.86253,0.72611 -1.46289,1.87953 -1.46289,3.20703 v 11.46289 c 0,1.33837 0.60697,2.49972 1.48633,3.20508 0.87935,0.70536 1.96741,1.00412 3.0332,0.99414 1.06578,-0.01 2.14134,-0.32766 3.01172,-1.03125 0.87038,-0.70359 1.48242,-1.8494 1.48242,-3.16797 v -11.46289 c 0,-1.37708 -0.58717,-2.5664 -1.4707,-3.29687 -0.88354,-0.73048 -1.98976,-1.03408 -3.06446,-1.00977 z m 0.0566,2.5 c 0.55366,-0.0125 1.07634,0.15828 1.41407,0.4375 0.33772,0.27922 0.56445,0.63472 0.56445,1.36914 v 11.46289 c 0,0.61778 -0.20185,0.93901 -0.55273,1.22266 -0.35089,0.28364 -0.90228,0.47129 -1.46485,0.47656 -0.56257,0.005 -1.1034,-0.17106 -1.44531,-0.44531 -0.34191,-0.27426 -0.55078,-0.59492 -0.55078,-1.25391 v -11.46289 c 0,-0.63664 0.21352,-0.99292 0.57226,-1.29492 0.35874,-0.30201 0.90924,-0.49919 1.46289,-0.51172 z"
         id="path14"
         transform="translate(-51.641264,32.079205)"
         sodipodi:nodetypes="scssscssssscsssccssssc" />
      <path
         style="baseline-shift:baseline;display:inline;overflow:visible;opacity:1;vector-effect:none;fill-opacity:1;stroke-linecap:square;enable-background:accumulate;stop-color:#000000;stop-opacity:1;fill:#1300a0"
         d="m 126.2832,128.71875 c -1.07469,0.0243 -2.1531,0.37349 -3.01562,1.09961 -0.86253,0.72611 -1.46289,1.87953 -1.46289,3.20703 v 11.46289 c 0,1.33837 0.60697,2.49972 1.48633,3.20508 0.87935,0.70536 1.96741,1.00412 3.0332,0.99414 1.06578,-0.01 2.14134,-0.32766 3.01172,-1.03125 0.87038,-0.70359 1.48242,-1.8494 1.48242,-3.16797 v -11.46289 c 0,-1.37708 -0.58717,-2.5664 -1.4707,-3.29687 -0.88354,-0.73048 -1.98976,-1.03408 -3.06446,-1.00977 z m 0.0566,2.5 c 0.55366,-0.0125 1.07634,0.15828 1.41407,0.4375 0.33772,0.27922 0.56445,0.63472 0.56445,1.36914 v 11.46289 c 0,0.61778 -0.20185,0.93901 -0.55273,1.22266 -0.35089,0.28364 -0.90228,0.47129 -1.46485,0.47656 -0.56257,0.005 -1.1034,-0.17106 -1.44531,-0.44531 -0.34191,-0.27426 -0.55078,-0.59492 -0.55078,-1.25391 v -11.46289 c 0,-0.63664 0.21352,-0.99292 0.57226,-1.29492 0.35874,-0.30201 0.90924,-0.49919 1.46289,-0.51172 z"
         id="path8"
         transform="translate(-30.072084,12.019116)"
         sodipodi:nodetypes="ccssscssssccsssccssssc" />
      <path
         style="baseline-shift:baseline;display:inline;overflow:visible;opacity:1;vector-effect:none;fill-opacity:1;stroke-linecap:square;enable-background:accumulate;stop-color:#000000;stop-opacity:1;fill:#1300a0"
         d="m 126.2832,128.71875 c -1.07469,0.0243 -2.1531,0.37349 -3.01562,1.09961 -0.86253,0.72611 -1.46289,1.87953 -1.46289,3.20703 v 11.46289 c 0,1.33837 0.60697,2.49972 1.48633,3.20508 0.87935,0.70536 1.96741,1.00412 3.0332,0.99414 1.06578,-0.01 2.14134,-0.32766 3.01172,-1.03125 0.87038,-0.70359 1.48242,-1.8494 1.48242,-3.16797 v -11.46289 c 0,-1.37708 -0.58717,-2.5664 -1.4707,-3.29687 -0.88354,-0.73048 -1.98976,-1.03408 -3.06446,-1.00977 z m 0.0566,2.5 c 0.55366,-0.0125 1.07634,0.15828 1.41407,0.4375 0.33772,0.27922 0.56445,0.63472 0.56445,1.36914 v 11.46289 c 0,0.61778 -0.20185,0.93901 -0.55273,1.22266 -0.35089,0.28364 -0.90228,0.47129 -1.46485,0.47656 -0.56257,0.005 -1.1034,-0.17106 -1.44531,-0.44531 -0.34191,-0.27426 -0.55078,-0.59492 -0.55078,-1.25391 v -11.46289 c 0,-0.63664 0.21352,-0.99292 0.57226,-1.29492 0.35874,-0.30201 0.90924,-0.49919 1.46289,-0.51172 z"
         id="path10"
         transform="translate(-40.644102,11.871898)"
         sodipodi:nodetypes="ccssscssssccsssccssssc" />
      <path
         style="baseline-shift:baseline;display:inline;overflow:visible;opacity:1;vector-effect:none;fill-opacity:1;stroke-linecap:square;enable-background:accumulate;stop-color:#000000;stop-opacity:1;fill:#1300a0"
         d="m 126.2832,128.71875 c -1.07469,0.0243 -2.1531,0.37349 -3.01562,1.09961 -0.86253,0.72611 -1.46289,1.87953 -1.46289,3.20703 v 11.46289 c 0,1.33837 0.60697,2.49972 1.48633,3.20508 0.87935,0.70536 1.96741,1.00412 3.0332,0.99414 1.06578,-0.01 2.14134,-0.32766 3.01172,-1.03125 0.87038,-0.70359 1.48242,-1.8494 1.48242,-3.16797 v -11.46289 c 0,-1.37708 -0.58717,-2.5664 -1.4707,-3.29687 -0.88354,-0.73048 -1.98976,-1.03408 -3.06446,-1.00977 z m 0.0566,2.5 c 0.55366,-0.0125 1.07634,0.15828 1.41407,0.4375 0.33772,0.27922 0.56445,0.63472 0.56445,1.36914 v 11.46289 c 0,0.61778 -0.20185,0.93901 -0.55273,1.22266 -0.35089,0.28364 -0.90228,0.47129 -1.46485,0.47656 -0.56257,0.005 -1.1034,-0.17106 -1.44531,-0.44531 -0.34191,-0.27426 -0.55078,-0.59492 -0.55078,-1.25391 v -11.46289 c 0,-0.63664 0.21352,-0.99292 0.57226,-1.29492 0.35874,-0.30201 0.90924,-0.49919 1.46289,-0.51172 z"
         id="path12"
         transform="translate(-51.641263,11.970859)"
         sodipodi:nodetypes="ccssscssssccsssccssscc" />
      <path
         style="baseline-shift:baseline;display:inline;overflow:visible;opacity:1;vector-effect:none;fill-opacity:1;stroke-linecap:square;enable-background:accumulate;stop-color:#000000;stop-opacity:1;fill:#1300a0"
         d="m 126.2832,128.71875 c -1.07469,0.0243 -2.1531,0.37349 -3.01562,1.09961 -0.86253,0.72611 -1.46289,1.87953 -1.46289,3.20703 v 11.46289 c 0,1.33837 0.60697,2.49972 1.48633,3.20508 0.87935,0.70536 1.96741,1.00412 3.0332,0.99414 1.06578,-0.01 2.14134,-0.32766 3.01172,-1.03125 0.87038,-0.70359 1.48242,-1.8494 1.48242,-3.16797 v -11.46289 c 0,-1.37708 -0.58717,-2.5664 -1.4707,-3.29687 -0.88354,-0.73048 -1.98976,-1.03408 -3.06446,-1.00977 z m 0.0566,2.5 c 0.55366,-0.0125 1.07634,0.15828 1.41407,0.4375 0.33772,0.27922 0.56445,0.63472 0.56445,1.36914 v 11.46289 c 0,0.61778 -0.20185,0.93901 -0.55273,1.22266 -0.35089,0.28364 -0.90228,0.47129 -1.46485,0.47656 -0.56257,0.005 -1.1034,-0.17106 -1.44531,-0.44531 -0.34191,-0.27426 -0.55078,-0.59492 -0.55078,-1.25391 v -11.46289 c 0,-0.63664 0.21352,-0.99292 0.57226,-1.29492 0.35874,-0.30201 0.90924,-0.49919 1.46289,-0.51172 z"
         id="path6"
         transform="translate(-30.011922,-11.222357)"
         sodipodi:nodetypes="ccssscssssccssscccsscc" />
      <path
         style="baseline-shift:baseline;display:inline;overflow:visible;opacity:1;vector-effect:none;fill-opacity:1;stroke-linecap:square;enable-background:accumulate;stop-color:#000000;stop-opacity:1;fill:#1300a0"
         d="m 126.2832,128.71875 c -1.07469,0.0243 -2.1531,0.37349 -3.01562,1.09961 -0.86253,0.72611 -1.46289,1.87953 -1.46289,3.20703 v 11.46289 c 0,1.33837 0.60697,2.49972 1.48633,3.20508 0.87935,0.70536 1.96741,1.00412 3.0332,0.99414 1.06578,-0.01 2.14134,-0.32766 3.01172,-1.03125 0.87038,-0.70359 1.48242,-1.8494 1.48242,-3.16797 v -11.46289 c 0,-1.37708 -0.58717,-2.5664 -1.4707,-3.29687 -0.88354,-0.73048 -1.98976,-1.03408 -3.06446,-1.00977 z m 0.0566,2.5 c 0.55366,-0.0125 1.07634,0.15828 1.41407,0.4375 0.33772,0.27922 0.56445,0.63472 0.56445,1.36914 v 11.46289 c 0,0.61778 -0.20185,0.93901 -0.55273,1.22266 -0.35089,0.28364 -0.90228,0.47129 -1.46485,0.47656 -0.56257,0.005 -1.1034,-0.17106 -1.44531,-0.44531 -0.34191,-0.27426 -0.55078,-0.59492 -0.55078,-1.25391 v -11.46289 c 0,-0.63664 0.21352,-0.99292 0.57226,-1.29492 0.35874,-0.30201 0.90924,-0.49919 1.46289,-0.51172 z"
         id="path4"
         transform="translate(-40.58394,-11.369576)"
         sodipodi:nodetypes="ccssscsssscccsscccsscc" />
      <path
         style="baseline-shift:baseline;display:inline;overflow:visible;opacity:1;vector-effect:none;fill-opacity:1;stroke-linecap:square;enable-background:accumulate;stop-color:#000000;stop-opacity:1;fill:#1300a0"
         d="m 126.2832,128.71875 c -1.07469,0.0243 -2.1531,0.37349 -3.01562,1.09961 -0.86253,0.72611 -1.46289,1.87953 -1.46289,3.20703 v 11.46289 c 0,1.33837 0.60697,2.49972 1.48633,3.20508 0.87935,0.70536 1.96741,1.00412 3.0332,0.99414 1.06578,-0.01 2.14134,-0.32766 3.01172,-1.03125 0.87038,-0.70359 1.48242,-1.8494 1.48242,-3.16797 v -11.46289 c 0,-1.37708 -0.58717,-2.5664 -1.4707,-3.29687 -0.88354,-0.73048 -1.98976,-1.03408 -3.06446,-1.00977 z m 0.0566,2.5 c 0.55366,-0.0125 1.07634,0.15828 1.41407,0.4375 0.33772,0.27922 0.56445,0.63472 0.56445,1.36914 v 11.46289 c 0,0.61778 -0.20185,0.93901 -0.55273,1.22266 -0.35089,0.28364 -0.90228,0.47129 -1.46485,0.47656 -0.56257,0.005 -1.1034,-0.17106 -1.44531,-0.44531 -0.34191,-0.27426 -0.55078,-0.59492 -0.55078,-1.25391 v -11.46289 c 0,-0.63664 0.21352,-0.99292 0.57226,-1.29492 0.35874,-0.30201 0.90924,-0.49919 1.46289,-0.51172 z"
         id="path2"
         transform="translate(-51.5811,-11.270615)"
         sodipodi:nodetypes="ccssccsssscccsscccsscc" />
    </g>
  </g>
</svg>
