<?xml version="1.0" encoding="UTF-8" standalone="no"?>
<!-- Created with Inkscape (http://www.inkscape.org/) -->

<svg
   width="15.35514mm"
   height="21.525818mm"
   viewBox="0 0 15.35514 21.525818"
   version="1.1"
   id="svg5"
   inkscape:version="1.4.2 (f4327f4, 2025-05-13)"
   sodipodi:docname="blue_potion.svg"
   inkscape:export-filename="blue_potion.png"
   inkscape:export-xdpi="96"
   inkscape:export-ydpi="96"
   xmlns:inkscape="http://www.inkscape.org/namespaces/inkscape"
   xmlns:sodipodi="http://sodipodi.sourceforge.net/DTD/sodipodi-0.dtd"
   xmlns="http://www.w3.org/2000/svg"
   xmlns:svg="http://www.w3.org/2000/svg">
  <sodipodi:namedview
     id="namedview7"
     pagecolor="#ffffff"
     bordercolor="#666666"
     borderopacity="1.0"
     inkscape:pageshadow="2"
     inkscape:pageopacity="0.0"
     inkscape:pagecheckerboard="0"
     inkscape:document-units="mm"
     showgrid="false"
     inkscape:zoom="12.58111"
     inkscape:cx="36.443524"
     inkscape:cy="39.940831"
     inkscape:window-width="1920"
     inkscape:window-height="1009"
     inkscape:window-x="-8"
     inkscape:window-y="-8"
     inkscape:window-maximized="1"
     inkscape:current-layer="layer1"
     fit-margin-top="0"
     fit-margin-left="0"
     fit-margin-right="0"
     fit-margin-bottom="0"
     inkscape:showpageshadow="2"
     inkscape:deskcolor="#d1d1d1" />
  <defs
     id="defs2">
    <inkscape:path-effect
       effect="fillet_chamfer"
       id="path-effect6"
       is_visible="true"
       lpeversion="1"
       nodesatellites_param="F,0,0,1,0,3.7117481,0,1 @ F,0,0,1,0,3.2216074,0,1 @ F,0,0,1,0,4.0448537,0,1 @ F,0,0,1,0,4.6016164,0,1"
       radius="0"
       unit="px"
       method="auto"
       mode="F"
       chamfer_steps="1"
       flexible="false"
       use_knot_distance="true"
       apply_no_radius="true"
       apply_with_radius="true"
       only_selected="false"
       hide_knots="false" />
  </defs>
  <g
     inkscape:label="Layer 1"
     inkscape:groupmode="layer"
     id="layer1"
     transform="matrix(0.62499219,0,0,0.62499219,-82.074062,-85.667467)">
    <g
       id="g1"
       transform="matrix(0.85491267,0,0,1.007174,20.932821,-0.88202875)"
       style="stroke-width:1.00008;stroke-dasharray:none">
      <path
         id="rect880"
         style="fill:#2c52ff;fill-opacity:1;stroke-width:1.00008;stroke-linecap:square;stroke-dasharray:none"
         d="m 141.37453,142.78817 c -1.1111,-0.0293 -2.16823,0.24205 -3.15679,0.90058 v 2.70993 h -1.98847 c -3.17461,0 -5.7304,2.69691 -5.7304,6.04625 v 11.85197 c 0,3.34933 2.55579,6.04543 5.7304,6.04543 h 14.70462 c 3.17461,0 5.7304,-2.6961 5.7304,-6.04543 v -11.85197 c 0,-3.34934 -2.55579,-6.04625 -5.7304,-6.04625 h -2.11033 v -2.70993 c -1.04476,0.64053 -2.36453,0.77954 -3.97114,0 -1.20236,-0.54149 -2.36679,-0.87132 -3.47789,-0.90058 z"
         sodipodi:nodetypes="sccsssssssscccs" />
      <path
         id="path1"
         style="fill-opacity:0.526934;stroke-width:1.00008;stroke-dasharray:none"
         d="m 155.29146,167.48333 c -0.15571,4.31646 -13.51074,3.12153 -17.78096,3.12153 -4.27021,0 -7.94413,-1.80828 -7.60891,-11.43187 0.48795,-14.00825 25.65878,0.85608 25.38987,8.31034 z"
         sodipodi:nodetypes="ssss" />
    </g>
    <path
       id="path5"
       style="baseline-shift:baseline;display:inline;overflow:visible;opacity:1;vector-effect:none;fill:#ffffff;fill-opacity:0.168627;stroke-linecap:square;enable-background:accumulate;stop-color:#000000;stop-opacity:1"
       d="m 138.62604,140.525 -0.14552,6.8561 -2.49621,0.0347 c -2.04943,0.0285 -3.68743,1.71351 -3.65791,3.76292 l 0.21332,14.76724 c 0.0368,2.53488 2.13215,4.55415 4.66665,4.49715 l 13.53113,-0.3051 c 2.23972,-0.0508 4.02081,-1.8957 3.99277,-4.13582 l -0.1943,-15.62302 c -0.0221,-1.77857 -1.48333,-3.20165 -3.26186,-3.17669 l -2.83604,0.0397 0.14056,-6.71719 z"
       sodipodi:nodetypes="ccccccccccccc" />
    <g
       id="g6">
      <path
         style="fill:#ffffff;fill-opacity:0.168473;stroke-width:1.60002;stroke-dasharray:none"
         d="m 140.74262,170.95395 8.0084,-24.19345 0.40379,0.40379 -6.59516,24.2271 z"
         id="path6"
         sodipodi:nodetypes="ccccc" />
      <path
         style="fill:#ffffff;fill-opacity:0.168473;stroke-width:1.60002;stroke-dasharray:none"
         d="m 131.99395,162.27257 13.76233,-22.17452 0.80757,0.97582 -13.56044,26.21237 z"
         id="path2"
         sodipodi:nodetypes="ccccc" />
    </g>
    <path
       id="rect3143"
       style="fill:#b16729;stroke:#873b1f;stroke-width:1.60002;stroke-linecap:square;stroke-dasharray:none;stroke-opacity:1"
       d="m 138.50265,137.86967 h 10.20496 l -0.41231,2.63878 h -9.38034 z"
       sodipodi:nodetypes="ccccc" />
    <path
       id="path4"
       style="baseline-shift:baseline;display:inline;overflow:visible;opacity:1;vector-effect:none;fill:#000957;stroke-linecap:square;enable-background:accumulate;stop-color:#000000;stop-opacity:1"
       d="m 137.82649,139.72462 v 6.51958 h -0.67635 c -3.30549,-5.1e-4 -5.83,3.1552 -5.83,6.87677 v 11.51614 c 0,3.72157 2.52466,6.87429 5.83,6.87429 h 12.90853 c 3.30535,0 5.83,-3.15272 5.83,-6.87429 v -11.51614 c 0,-3.72157 -2.52465,-6.87677 -5.83,-6.87677 h -0.67966 v -6.51958 z m 1.5991,1.60158 h 8.3535 v 4.918 0.80038 0.79954 h 1.59992 0.67966 c 2.26807,0 4.23007,2.26621 4.23007,5.27685 v 11.51614 c 0,3.01065 -1.962,5.27519 -4.23007,5.27519 h -12.90853 c -2.26806,0 -4.22842,-2.26455 -4.22842,-5.27519 v -11.51614 c 0,-3.01064 1.96051,-5.2772 4.22842,-5.27685 h 0.67635 0.79873 0.80037 v -1.59992 z"
       sodipodi:nodetypes="cccssssssscccccccccssssssscccccc" />
  </g>
</svg>
