<?xml version="1.0" encoding="UTF-8" standalone="no"?>
<!-- Created with Inkscape (http://www.inkscape.org/) -->

<svg
   width="44.568489mm"
   height="10.932754mm"
   viewBox="0 0 44.56849 10.932754"
   version="1.1"
   id="svg878"
   inkscape:version="1.4.2 (f4327f4, 2025-05-13)"
   sodipodi:docname="ak47.svg"
   xmlns:inkscape="http://www.inkscape.org/namespaces/inkscape"
   xmlns:sodipodi="http://sodipodi.sourceforge.net/DTD/sodipodi-0.dtd"
   xmlns="http://www.w3.org/2000/svg"
   xmlns:svg="http://www.w3.org/2000/svg">
  <sodipodi:namedview
     id="namedview880"
     pagecolor="#ffffff"
     bordercolor="#666666"
     borderopacity="1.0"
     inkscape:pageshadow="2"
     inkscape:pageopacity="0.0"
     inkscape:pagecheckerboard="0"
     inkscape:document-units="mm"
     showgrid="false"
     inkscape:zoom="4.031158"
     inkscape:cx="69.831051"
     inkscape:cy="34.605441"
     inkscape:window-width="1920"
     inkscape:window-height="1009"
     inkscape:window-x="-8"
     inkscape:window-y="-8"
     inkscape:window-maximized="1"
     inkscape:current-layer="layer1"
     fit-margin-top="0"
     fit-margin-left="0"
     fit-margin-right="0"
     fit-margin-bottom="0"
     inkscape:showpageshadow="2"
     inkscape:deskcolor="#d1d1d1" />
  <defs
     id="defs875" />
  <g
     inkscape:label="Layer 1"
     inkscape:groupmode="layer"
     id="layer1"
     transform="matrix(0.6057186,0,0,0.6057186,-9.1868597,-89.807162)">
    <path
       id="rect1202"
       style="fill:#3e4142;fill-opacity:1;stroke:#2d2f30;stroke-width:0.825466;stroke-linecap:square;stroke-linejoin:round;stroke-miterlimit:0;stroke-dasharray:none;stroke-opacity:1"
       d="m 69.986028,149.20178 v 1.73188 h 0.05375 v 0.95638 h -0.0026 v 2.3487 h 16.661021 v 0.21072 h -16.696 v 0.65253 h 16.696 1.134681 v -0.86325 h 0.500795 v -2.3487 h -0.662039 v -1.85218 H 86.26996 l -0.411215,1.85218 h -6.428429 l -2.688252,-2.68826 z m 1.736998,1.73188 h 4.815137 l 1.092876,0.95638 h -5.908013 z m 14.454795,0.25168 h 1.353084 v 0.59891 h -1.353084 z"
       sodipodi:nodetypes="cccccccccccccccccccccccccccccccc" />
    <g
       id="g2">
      <path
         id="rect9807"
         style="fill:#3e4142;fill-opacity:1;stroke:#292929;stroke-width:0.330186;stroke-linecap:square;stroke-linejoin:round;stroke-miterlimit:0;stroke-dasharray:none"
         d="m 49.386048,155.08591 v 0.0662 c -0.0482,-0.036 -0.106797,-0.0578 -0.169776,-0.0578 h -3.370767 c -0.166201,0 -0.300305,0.14649 -0.300305,0.32803 v 1.82928 c 0,0.18154 0.134104,0.49351 0.300305,0.49351 h 3.370767 c 0.166201,0 0.300305,-0.31197 0.300305,-0.49351 v -0.42214 h 1.021212 v -1.74355 z m -3.194167,0.19197 c 0.0041,-2.3e-4 0.0078,0 0.01193,0 h 2.697639 c 0.132977,0 0.239733,0.1166 0.239733,0.26185 v 1.46306 c 0,0.14525 -0.106756,0.26279 -0.239733,0.26279 h -2.697639 c -0.13298,0 -0.239731,-0.11754 -0.239731,-0.26279 v -1.46306 c 0,-0.14071 0.100613,-0.25486 0.227788,-0.26185 z"
         sodipodi:nodetypes="ccsssssssccccsssssssssss" />
      <path
         id="path10079"
         style="fill:#3e4142;fill-opacity:1;stroke:#292929;stroke-width:0.330186;stroke-linecap:square;stroke-linejoin:round;stroke-miterlimit:0;stroke-dasharray:none"
         d="m 46.948168,154.88223 c -0.513989,0.13117 -0.824267,0.65424 -0.692959,1.1682 0.131346,0.51379 0.6543,0.82385 1.16811,0.69258 0.04036,-0.0105 0.07999,-0.0236 0.11864,-0.0393 -0.458144,0.026 -0.870647,-0.27581 -0.984591,-0.72032 -0.119114,-0.46771 0.127419,-0.95117 0.575937,-1.12942 -0.06247,0.003 -0.124464,0.0127 -0.185102,0.0281 z"
         sodipodi:nodetypes="cccccccc" />
    </g>
    <path
       id="rect7432"
       style="fill:#3e4142;fill-opacity:1;stroke:#2d2f30;stroke-width:1.65093;stroke-linecap:square;stroke-linejoin:round;stroke-miterlimit:0;stroke-dasharray:none;stroke-opacity:1"
       d="m 50.743579,154.46521 4.688603,-1.1156 c -0.0629,3.56402 0.600222,6.70002 4.631106,7.74372 l -1.431697,4.39594 c -5.000746,-1.60036 -7.931395,-7.28265 -7.888012,-11.02406 z"
       sodipodi:nodetypes="ccccc" />
    <path
       id="rect3917"
       style="fill:#583b08;fill-opacity:1;stroke:#432b07;stroke-width:1.65093;stroke-linecap:square;stroke-linejoin:round;stroke-miterlimit:0;stroke-dasharray:none;stroke-opacity:1"
       d="m 35.315167,151.63495 -19.208505,1.36161 -0.114321,9.55349 15.62104,-4.85352 8.54e-4,-8.6e-4 9.179814,-2.6746 -2.254856,5.72288 4.193196,1.65339 2.812811,-7.13568 -4.194049,-1.65339 -0.405243,1.02889 -1.518594,-2.85377 -2.743706,0.83096 z"
       sodipodi:nodetypes="cccccccccccccc" />
    <path
       id="rect6812"
       style="fill:#3e4142;fill-opacity:1;stroke:#2d2f30;stroke-width:1.65093;stroke-linecap:square;stroke-linejoin:round;stroke-miterlimit:0;stroke-dasharray:none;stroke-opacity:1"
       d="m 40.65328,149.19496 -1.206343,2.58843 h -0.01962 l 0.0085,0.0239 -0.0085,0.0179 h 0.0145 l 1.211462,3.44158 h 1.866676 16.016899 v -3.41002 h 2.752238 v -2.65498 h -2.752238 v -0.007 z"
       sodipodi:nodetypes="ccccccccccccccc" />
    <g
       id="g1">
      <rect
         style="fill:#434343;fill-opacity:1;stroke:#292929;stroke-width:0;stroke-linecap:square;stroke-linejoin:round;stroke-miterlimit:0"
         id="rect8579"
         width="6.3782125"
         height="1.828289"
         x="51.287495"
         y="149.97025" />
      <rect
         style="fill:#5e5e5e;fill-opacity:1;stroke:#292929;stroke-width:0;stroke-linecap:square;stroke-linejoin:round;stroke-miterlimit:0"
         id="rect9011"
         width="0.46988878"
         height="0.78151405"
         x="57.195812"
         y="151.01703" />
    </g>
    <path
       d="m 61.175956,149.09095 v 2.51848 h -2.53298 v 0.26277 3.0278 0.26277 h 11.576291 v -3.29057 h -0.0068 v -0.12627 h 0.0094 v -2.65498 z m 0.883002,2.65498 h 1.558692 v 0.12627 h -1.558692 z m 4.092525,0 h 1.527979 v 0.12627 h -1.527979 z"
       style="fill:#583b08;fill-opacity:1;stroke:#432b07;stroke-width:1.65093;stroke-linecap:square;stroke-linejoin:round;stroke-miterlimit:0;stroke-dasharray:none;stroke-opacity:1"
       id="path1"
       sodipodi:nodetypes="ccccccccccccccccccccccc" />
  </g>
</svg>
