<?xml version="1.0" encoding="UTF-8" standalone="no"?>
<!-- Created with Inkscape (http://www.inkscape.org/) -->

<svg
   width="50.469437mm"
   height="9.9106407mm"
   viewBox="0 0 50.469438 9.9106408"
   version="1.1"
   id="svg5"
   inkscape:version="1.4.2 (f4327f4, 2025-05-13)"
   sodipodi:docname="ar15.svg"
   xml:space="preserve"
   xmlns:inkscape="http://www.inkscape.org/namespaces/inkscape"
   xmlns:sodipodi="http://sodipodi.sourceforge.net/DTD/sodipodi-0.dtd"
   xmlns="http://www.w3.org/2000/svg"
   xmlns:svg="http://www.w3.org/2000/svg"><sodipodi:namedview
     id="namedview7"
     pagecolor="#ffffff"
     bordercolor="#666666"
     borderopacity="1.0"
     inkscape:pageshadow="2"
     inkscape:pageopacity="0.0"
     inkscape:pagecheckerboard="0"
     inkscape:document-units="mm"
     showgrid="false"
     fit-margin-top="0"
     fit-margin-left="0"
     fit-margin-right="0"
     fit-margin-bottom="0"
     inkscape:zoom="3.2266428"
     inkscape:cx="53.926019"
     inkscape:cy="42.613952"
     inkscape:window-width="1920"
     inkscape:window-height="1009"
     inkscape:window-x="-8"
     inkscape:window-y="-8"
     inkscape:window-maximized="1"
     inkscape:current-layer="layer1"
     inkscape:showpageshadow="2"
     inkscape:deskcolor="#d1d1d1" /><defs
     id="defs2"><clipPath
       clipPathUnits="userSpaceOnUse"
       id="clipPath15839"><g
         id="g15875"
         transform="translate(0,0.08199958)"><path
           style="fill:#ffffff;fill-opacity:1;stroke:none;stroke-width:0.198976px;stroke-linecap:butt;stroke-linejoin:miter;stroke-opacity:1"
           d="m 158.75501,141.07688 c 0,0 0.71457,0.89015 1.01813,0.87238 0.30355,-0.0178 0.76052,-0.34992 0.76052,-0.34992 z"
           id="path15841"
           sodipodi:nodetypes="czcc" /><path
           style="fill:#ffffff;fill-opacity:1;stroke:none;stroke-width:0.198976px;stroke-linecap:butt;stroke-linejoin:miter;stroke-opacity:1"
           d="m 160.53366,141.59934 c 0,0 0.71457,0.36098 1.01813,0.34321 0.30355,-0.0178 0.76052,-0.34992 0.76052,-0.34992 z"
           id="path15843"
           sodipodi:nodetypes="czcc" /><path
           style="fill:#ffffff;fill-opacity:1;stroke:none;stroke-width:0.198976px;stroke-linecap:butt;stroke-linejoin:miter;stroke-opacity:1"
           d="m 162.31231,141.59263 c 0,0 0.71457,0.36098 1.01813,0.34321 0.30355,-0.0178 0.76052,-0.34992 0.76052,-0.34992 z"
           id="path15845"
           sodipodi:nodetypes="czcc" /><path
           style="fill:#ffffff;fill-opacity:1;stroke:none;stroke-width:0.198976px;stroke-linecap:butt;stroke-linejoin:miter;stroke-opacity:1"
           d="m 164.09096,141.58592 c 0,0 0.71457,0.36098 1.01813,0.34321 0.30355,-0.0178 0.76052,-0.34992 0.76052,-0.34992 z"
           id="path15847"
           sodipodi:nodetypes="czcc" /><path
           style="fill:#ffffff;fill-opacity:1;stroke:none;stroke-width:0.198976px;stroke-linecap:butt;stroke-linejoin:miter;stroke-opacity:1"
           d="m 165.86961,141.57921 c 0,0 0.71457,0.36098 1.01813,0.34321 0.30355,-0.0178 0.76052,-0.34992 0.76052,-0.34992 z"
           id="path15849"
           sodipodi:nodetypes="czcc" /><path
           style="fill:#ffffff;fill-opacity:1;stroke:none;stroke-width:0.198976px;stroke-linecap:butt;stroke-linejoin:miter;stroke-opacity:1"
           d="m 167.64826,141.5725 c 0,0 0.71457,0.36098 1.01813,0.34321 0.30355,-0.0178 0.76052,-0.34992 0.76052,-0.34992 z"
           id="path15851"
           sodipodi:nodetypes="czcc" /><path
           style="fill:#ffffff;fill-opacity:1;stroke:none;stroke-width:0.198976px;stroke-linecap:butt;stroke-linejoin:miter;stroke-opacity:1"
           d="m 169.42691,141.56579 c 0,0 0.71457,0.36098 1.01813,0.34321 0.30355,-0.0178 0.76052,-0.34992 0.76052,-0.34992 z"
           id="path15853"
           sodipodi:nodetypes="czcc" /><path
           style="fill:#ffffff;fill-opacity:1;stroke:none;stroke-width:0.198976px;stroke-linecap:butt;stroke-linejoin:miter;stroke-opacity:1"
           d="m 171.20556,141.55908 c 0,0 0.71457,0.36098 1.01813,0.34321 0.30355,-0.0178 0.76052,-0.34992 0.76052,-0.34992 z"
           id="path15855"
           sodipodi:nodetypes="czcc" /><path
           style="fill:#ffffff;fill-opacity:1;stroke:none;stroke-width:0.198976px;stroke-linecap:butt;stroke-linejoin:miter;stroke-opacity:1"
           d="m 172.98421,141.67501 c 0,0 0.71457,0.36098 1.01813,0.34321 0.30355,-0.0178 0.76052,-0.34992 0.76052,-0.34992 z"
           id="path15857"
           sodipodi:nodetypes="czcc" /><path
           style="fill:#ffffff;fill-opacity:1;stroke:none;stroke-width:0.198976px;stroke-linecap:butt;stroke-linejoin:miter;stroke-opacity:1"
           d="m 174.76286,141.6683 c 0,0 0.71457,0.36098 1.01813,0.34321 0.30355,-0.0178 0.76052,-0.34992 0.76052,-0.34992 z"
           id="path15859"
           sodipodi:nodetypes="czcc" /><path
           style="fill:#ffffff;fill-opacity:1;stroke:none;stroke-width:0.198976px;stroke-linecap:butt;stroke-linejoin:miter;stroke-opacity:1"
           d="m 176.54151,141.66159 c 0,0 0.71457,0.36098 1.01813,0.34321 0.30355,-0.0178 0.76052,-0.34992 0.76052,-0.34992 z"
           id="path15861"
           sodipodi:nodetypes="czcc" /><path
           style="fill:#ffffff;fill-opacity:1;stroke:none;stroke-width:0.198976px;stroke-linecap:butt;stroke-linejoin:miter;stroke-opacity:1"
           d="m 178.32016,141.65488 c 0,0 0.71457,0.36098 1.01813,0.34321 0.30355,-0.0178 0.76052,-0.34992 0.76052,-0.34992 z"
           id="path15863"
           sodipodi:nodetypes="czcc" /><path
           style="fill:#ffffff;fill-opacity:1;stroke:none;stroke-width:0.198976px;stroke-linecap:butt;stroke-linejoin:miter;stroke-opacity:1"
           d="m 180.09881,141.77081 c 0,0 0.71457,0.36098 1.01813,0.34321 0.30355,-0.0178 0.76052,-0.34992 0.76052,-0.34992 z"
           id="path15865"
           sodipodi:nodetypes="czcc" /><path
           style="fill:#ffffff;fill-opacity:1;stroke:none;stroke-width:0.198976px;stroke-linecap:butt;stroke-linejoin:miter;stroke-opacity:1"
           d="m 181.87746,141.7641 c 0,0 0.71457,0.36098 1.01813,0.34321 0.30355,-0.0178 0.76052,-0.34992 0.76052,-0.34992 z"
           id="path15867"
           sodipodi:nodetypes="czcc" /><path
           style="fill:#ffffff;fill-opacity:1;stroke:none;stroke-width:0.198976px;stroke-linecap:butt;stroke-linejoin:miter;stroke-opacity:1"
           d="m 183.65611,141.75739 c 0,0 0.71457,0.36098 1.01813,0.34321 0.30355,-0.0178 0.76052,-0.34992 0.76052,-0.34992 z"
           id="path15869"
           sodipodi:nodetypes="czcc" /><path
           style="fill:#ffffff;fill-opacity:1;stroke:none;stroke-width:0.198976px;stroke-linecap:butt;stroke-linejoin:miter;stroke-opacity:1"
           d="m 185.43476,141.75068 c 0,0 0.71457,0.36098 1.01813,0.34321 0.30355,-0.0178 0.76052,-0.34992 0.76052,-0.34992 z"
           id="path15871"
           sodipodi:nodetypes="czcc" /><path
           style="fill:#ffffff;fill-opacity:1;stroke:none;stroke-width:0.198976px;stroke-linecap:butt;stroke-linejoin:miter;stroke-opacity:1"
           d="m 187.21341,141.74397 c 0,0 0.71457,0.36098 1.01813,0.34321 0.30355,-0.0178 0.76052,-0.34992 0.76052,-0.34992 z"
           id="path15873"
           sodipodi:nodetypes="czcc" /></g></clipPath></defs><g
     inkscape:label="Layer 1"
     inkscape:groupmode="layer"
     id="layer1"
     transform="matrix(0.41854405,0,0,0.41854405,-8.7821833,-52.906799)"><path
       style="fill:#454545;fill-opacity:1;stroke:none;stroke-width:0.264583px;stroke-linecap:butt;stroke-linejoin:miter;stroke-opacity:1"
       d="m 66.810439,140.98971 v 4.60879 l 6.16938,-1.55569 v -3.69182 z"
       id="path5542"
       sodipodi:nodetypes="ccccc" /><path
       id="path891"
       style="fill:#3e4142;fill-opacity:1;stroke:#2d2f30;stroke-width:2.38923;stroke-linecap:butt;stroke-linejoin:miter;stroke-dasharray:none;stroke-opacity:1"
       d="m 49.975743,132.33683 -27.731935,-0.0346 c 0.258128,4.7689 0.689583,6.89105 1.055644,11.6553 l 19.460889,-5.36835 c 3.262078,-0.23593 6.486886,-1.18529 9.762546,-1.18529 0.804642,0.16828 1.534913,0.7526 1.386536,2.36934 -0.31109,3.38978 -2.832336,7.6883 -2.832336,7.6883 l 4.386787,1.16182 0.217302,-0.83834 -0.677834,-0.40374 1.937199,-5.72147 3.294103,-0.0778 4.652241,-0.0247 1.092684,-0.0296 0.100009,0.0765 7.4747,-1.05811 v -3.69414 h 3.918846 v -4.65964 l -2.028358,0.0693 z m 11.133252,6.26299 h 3.363244 c 0.579303,0.28723 1.214919,1.7072 0.414646,2.14506 H 60.56677 c -0.120235,-0.46972 -0.09224,-1.36578 0.542225,-2.14506 z"
       sodipodi:nodetypes="cccccccccccccccccccccccccc" /><path
       style="fill:#1e1f20;fill-opacity:1;stroke:#121213;stroke-width:2.38923;stroke-linecap:butt;stroke-linejoin:miter;stroke-dasharray:none;stroke-opacity:1"
       d="m 77.448249,131.56439 c 2.6e-4,1.81703 0,5.86378 0,5.86378 l 33.243341,-0.97273 V 131.955 Z"
       id="path11056"
       sodipodi:nodetypes="ccccc" /><path
       id="path16549"
       style="fill:#242424;fill-opacity:1;stroke:none;stroke-width:0.264583px;stroke-linecap:butt;stroke-linejoin:miter;stroke-opacity:1"
       d="m 114.84909,126.40706 c -0.65558,-0.011 -1.34462,0.28888 -1.34462,0.28888 l -2.89491,5.25911 v 4.5005 l 5.96449,0.031 c 0,0 -0.18232,-8.95036 -0.82631,-9.71878 -0.22136,-0.26416 -0.55525,-0.35494 -0.89865,-0.36071 z m -1.24281,1.81333 h 2.23552 v 3.93568 h -4.74132 z"
       sodipodi:nodetypes="scccccsccccc" /><rect
       style="fill:#242424;fill-opacity:1;stroke:none;stroke-width:0.142692;stroke-linecap:square;stroke-miterlimit:4;stroke-dasharray:none;stroke-opacity:1"
       id="rect17509"
       width="28.522881"
       height="2.6438456"
       x="111.13084"
       y="133.0632" /><rect
       style="fill:#242424;fill-opacity:1;stroke:none;stroke-width:0.0855703;stroke-linecap:square;stroke-miterlimit:4;stroke-dasharray:none;stroke-opacity:1"
       id="rect17985"
       width="6.674747"
       height="2.9473333"
       x="134.89128"
       y="132.9402" /></g></svg>
