<?xml version="1.0" encoding="UTF-8" standalone="no"?>
<!-- Created with Inkscape (http://www.inkscape.org/) -->

<svg
   width="50.350048mm"
   height="7.2307534mm"
   viewBox="0 0 50.350049 7.2307534"
   version="1.1"
   id="svg5"
   inkscape:version="1.4.2 (f4327f4, 2025-05-13)"
   sodipodi:docname="awms.svg"
   xml:space="preserve"
   xmlns:inkscape="http://www.inkscape.org/namespaces/inkscape"
   xmlns:sodipodi="http://sodipodi.sourceforge.net/DTD/sodipodi-0.dtd"
   xmlns="http://www.w3.org/2000/svg"
   xmlns:svg="http://www.w3.org/2000/svg"><sodipodi:namedview
     id="namedview7"
     pagecolor="#ffffff"
     bordercolor="#666666"
     borderopacity="1.0"
     inkscape:pageshadow="2"
     inkscape:pageopacity="0.0"
     inkscape:pagecheckerboard="0"
     inkscape:document-units="mm"
     showgrid="false"
     inkscape:zoom="9.5799948"
     inkscape:cx="112.05643"
     inkscape:cy="12.682679"
     inkscape:window-width="1920"
     inkscape:window-height="1009"
     inkscape:window-x="-8"
     inkscape:window-y="-8"
     inkscape:window-maximized="1"
     inkscape:current-layer="svg5"
     fit-margin-top="0"
     fit-margin-left="0"
     fit-margin-right="0"
     fit-margin-bottom="0"
     inkscape:showpageshadow="2"
     inkscape:deskcolor="#d1d1d1"
     showguides="true" /><defs
     id="defs2" /><path
     style="fill:#24282b;fill-opacity:1;stroke:#131518;stroke-width:0.5;stroke-linecap:butt;stroke-linejoin:miter;stroke-dasharray:none;stroke-opacity:1"
     d="M 19.382994,4.077738 V 5.3006204 L 21.87734,4.5215635 V 3.598679 Z"
     id="path6495"
     sodipodi:nodetypes="ccccc" /><g
     inkscape:label="Layer 1"
     inkscape:groupmode="layer"
     id="layer1"
     transform="matrix(0.19279579,0,0,0.19279579,-0.12184774,-21.43705)"><path
       id="path10079"
       style="fill:#3e4142;fill-opacity:1;stroke:#292929;stroke-width:1.03737;stroke-linecap:square;stroke-linejoin:round;stroke-miterlimit:0;stroke-dasharray:none"
       d="m 90.4374,126.53078 c -1.61483,0.4121 -2.58965,2.05546 -2.17712,3.6702 0.41266,1.61421 2.05566,2.58834 3.66993,2.17592 0.1268,-0.033 0.25131,-0.0741 0.37274,-0.12347 -1.43938,0.0817 -2.73537,-0.86653 -3.09335,-2.26307 -0.37423,-1.46943 0.40032,-2.98835 1.80945,-3.54837 -0.19626,0.009 -0.39103,0.0399 -0.58154,0.0883 z"
       sodipodi:nodetypes="cccccccc" /><rect
       style="fill:#24282b;fill-opacity:1;stroke:#131518;stroke-width:2.59342;stroke-linecap:square;stroke-dasharray:none;stroke-opacity:1"
       id="rect880"
       width="7.0686312"
       height="27.515633"
       x="1.928713"
       y="115.93742" /><path
       id="rect4393"
       style="fill:#24282b;fill-opacity:1;stroke:#131518;stroke-width:1.03737;stroke-linecap:square;stroke-dasharray:none;stroke-opacity:1"
       d="m 10.339718,111.70913 v 2.00224 h 9.912014 v 2.23007 h 1.573378 v -2.23007 h 11.021687 v 2.28635 h 1.573378 v -2.28635 h 8.116165 v -2.00224 z"
       sodipodi:nodetypes="ccccccccccccc" /><path
       id="rect880-3"
       style="fill:#334736;fill-opacity:1;stroke:#222f24;stroke-width:2.59342;stroke-linecap:square;stroke-dasharray:none;stroke-opacity:1"
       d="m 8.6644863,115.93876 v 27.51401 h 7.0708197 v -2.43646 c 0.440375,-1.35438 1.033105,-1.74359 1.624305,-1.9942 h 26.058571 c 0.657428,0.92164 3.712542,4.85379 8.003589,4.85148 4.86035,-0.003 6.762268,2.04837 11.287044,2.17646 4.524776,0.12809 5.516204,1.34018 5.516204,1.34018 l 10.037991,-0.13401 c 1.025499,-4.01355 3.303851,-9.63945 4.234987,-11.87941 5.939412,5.19997 13.58163,4.16286 16.639746,-1.45008 0,0 10.508997,-1.31523 16.741597,-2.1443 5.04446,-0.67102 18.51484,-3.29033 23.46665,-4.26447 h 24.49324 v -9.55869 l -79.787354,2.07241 v -2.25955 H 45.20867 c -1.554638,-0.41379 -1.688634,-1.15941 -1.688634,-1.83337 h -27.78473 z m 54.3257677,8.16977 c 4.67545,0.0271 10.131804,0.89524 10.131804,0.89524 0,0 1.257994,7.68162 -3.044902,10.05944 -4.302898,2.37781 -6.421512,3.2086 -11.075295,2.33192 -4.653783,-0.87668 -4.913148,-5.03959 -5.020335,-6.04692 -0.107186,-1.00734 -0.07032,-4.33054 3.200363,-6.34444 1.124295,-0.69227 3.35932,-0.90944 5.808365,-0.89524 z m 25.098998,3.40943 h 5.982589 c 1.612786,0.59554 2.241549,1.67082 2.211306,3.0047 -0.0454,2.00168 -1.619661,4.50424 -4.698691,4.97745 -3.07903,0.4732 -6.786119,-1.75712 -6.848349,-3.63459 -0.04586,-1.38365 1.125941,-3.41215 3.353145,-4.34756 z"
       sodipodi:nodetypes="cccccccsccccscccccccccscsssssccsssc" /><rect
       style="fill:#334736;fill-opacity:1;stroke:none;stroke-width:0.0404651;stroke-linecap:square"
       id="rect3017"
       width="49.63847"
       height="5.8325305"
       x="82.166595"
       y="115.98438" /><path
       id="rect3017-7"
       style="fill:#24282b;fill-opacity:1;stroke:#131518;stroke-width:1.03737;stroke-linecap:square;stroke-dasharray:none;stroke-opacity:1"
       d="m 112.84784,112.45427 v 0.57896 h -0.85772 v -0.52267 h -1.25977 v 0.52267 h -0.89256 v -0.52267 h -1.25978 v 0.52267 h -1.05875 v -0.52267 h -1.25977 v 0.52267 h -0.89256 v -0.52267 h -1.25978 v 0.52267 h -1.05875 v -0.52267 h -1.25977 v 0.52267 h -0.89256 v -0.52267 h -1.259778 v 0.52267 h -1.058747 v -0.52267 h -1.259774 v 0.52267 h -0.892564 v -0.52267 h -1.262455 v 0.52267 h -2.436458 v 1.39916 h 1.809251 v 0.71834 H 82.165631 77.558073 v 0.0992 h -1.795849 v 2.37213 c -0.849656,0.36765 -1.399533,1.2051 -1.399154,2.13089 0.0012,1.28102 1.040185,2.31876 2.321202,2.31853 1.27997,-10e-4 2.317278,-1.03856 2.318521,-2.31853 -7.4e-5,-0.90729 -0.528847,-1.73133 -1.353588,-2.10945 v -0.4503 h 4.516426 v 3.0181 h 50.878809 v 1.58678 h 25.81198 v -1.58678 h 71.63828 v 1.36431 h 30.77603 v -6.74114 H 230.4947 v 1.14988 h -98.65107 v -0.83359 h -8.22337 v -0.71834 h 0.86039 v -1.39916 h -1.43131 v -0.57896 h -1.25978 v 0.57896 h -1.05875 v -0.57896 h -1.25977 v 0.57896 h -0.89256 v -0.57896 h -1.25978 v 0.57896 h -1.05874 v -0.57896 h -1.25978 v 0.57896 h -0.89256 v -0.57896 z m 39.11466,0.72102 v 0.57628 h -0.85504 v -0.52267 h -1.26245 v 0.52267 h -0.89256 v -0.52267 h -1.25978 v 0.52267 h -0.47174 v 1.39916 h 16.37438 v -1.39916 H 162.164 v -0.57628 h -1.25978 v 0.57628 h -1.05875 v -0.57628 h -1.25977 v 0.57628 h -0.89256 v -0.57628 h -1.25978 v 0.57628 h -1.05874 v -0.57628 h -1.25978 v 0.57628 h -0.89256 v -0.57628 z m -53.979997,1.2571 h 16.202847 v 0.71834 H 97.982503 Z"
       sodipodi:nodetypes="ccccccccccccccccccccccccccccccccccccccccccccccccccccccccccccccccccccccccccccccccccccccccccccccccccccccccccccccccccccccccccc" /><rect
       style="fill:#5e5e5e;fill-opacity:1;stroke:none;stroke-width:0.0649999;stroke-linecap:square"
       id="rect6864"
       width="13.568384"
       height="2.7935684"
       x="99.418274"
       y="116.0183" /><path
       id="rect3603-2"
       style="fill:#334736;stroke:#222f24;stroke-width:1.03737;stroke-linecap:square;stroke-dasharray:none;stroke-opacity:1"
       d="m 147.21962,115.15163 h 16.32841 l -6.83884,7.37724 h -16.32841 z"
       sodipodi:nodetypes="ccccc" /><path
       id="rect6834"
       style="stroke-width:0.0649999;stroke-linecap:square"
       d="m 146.69702,117.25375 h 2.83196 c 0.8508,0.44549 0.53457,0.89097 0,1.33646 h -2.83196 c -0.43968,-0.45944 -0.77326,-0.91551 0,-1.33646 z"
       sodipodi:nodetypes="ccccc" /><path
       id="rect6834-2"
       style="stroke-width:0.0649999;stroke-linecap:square"
       d="m 151.38967,117.27425 h 2.83196 c 0.8508,0.44549 0.53457,0.89097 0,1.33646 h -2.83196 c -0.43968,-0.45944 -0.77326,-0.91551 0,-1.33646 z"
       sodipodi:nodetypes="ccccc" /><path
       id="rect6834-2-8"
       style="stroke-width:0.0649999;stroke-linecap:square"
       d="m 156.02567,117.33121 h 2.83196 c 0.8508,0.44549 0.53457,0.89097 0,1.33646 h -2.83196 c -0.43968,-0.45944 -0.77326,-0.91551 0,-1.33646 z"
       sodipodi:nodetypes="ccccc" /></g></svg>
