<?xml version="1.0" encoding="UTF-8" standalone="no"?>
<!-- Created with Inkscape (http://www.inkscape.org/) -->

<svg
   width="50.75005mm"
   height="9.0764618mm"
   viewBox="0 0 50.750051 9.0764619"
   version="1.1"
   id="svg5"
   inkscape:version="1.4.2 (f4327f4, 2025-05-13)"
   sodipodi:docname="awp.svg"
   xml:space="preserve"
   xmlns:inkscape="http://www.inkscape.org/namespaces/inkscape"
   xmlns:sodipodi="http://sodipodi.sourceforge.net/DTD/sodipodi-0.dtd"
   xmlns="http://www.w3.org/2000/svg"
   xmlns:svg="http://www.w3.org/2000/svg"><sodipodi:namedview
     id="namedview7"
     pagecolor="#ffffff"
     bordercolor="#666666"
     borderopacity="1.0"
     inkscape:pageshadow="2"
     inkscape:pageopacity="0.0"
     inkscape:pagecheckerboard="0"
     inkscape:document-units="mm"
     showgrid="false"
     inkscape:zoom="9.8053524"
     inkscape:cx="91.021716"
     inkscape:cy="22.589703"
     inkscape:window-width="1920"
     inkscape:window-height="1009"
     inkscape:window-x="-8"
     inkscape:window-y="-8"
     inkscape:window-maximized="1"
     inkscape:current-layer="layer1"
     fit-margin-top="0"
     fit-margin-left="0"
     fit-margin-right="0"
     fit-margin-bottom="0"
     inkscape:showpageshadow="2"
     inkscape:deskcolor="#d1d1d1" /><defs
     id="defs2"><inkscape:path-effect
       effect="fillet_chamfer"
       id="path-effect10"
       is_visible="true"
       lpeversion="1"
       nodesatellites_param="F,0,0,1,0,2.1166666,0,1 @ F,0,0,1,0,2.1166666,0,1 @ F,0,0,1,0,2.1166666,0,1 @ F,0,0,1,0,2.1166666,0,1 @ F,0,0,1,0,2.1166666,0,1 @ F,0,0,1,0,2.1166666,0,1 @ F,0,0,1,0,2.1166666,0,1 @ F,0,0,1,0,2.1166666,0,1 @ F,0,0,1,0,2.1166666,0,1 @ F,0,0,1,0,2.1166666,0,1 | F,0,0,1,0,2.1166666,0,1 @ F,0,0,1,0,2.1166666,0,1 @ F,0,0,1,0,2.1166666,0,1 @ F,0,0,1,0,2.1166666,0,1"
       radius="9"
       unit="px"
       method="auto"
       mode="F"
       chamfer_steps="1"
       flexible="false"
       use_knot_distance="true"
       apply_no_radius="true"
       apply_with_radius="true"
       only_selected="false"
       hide_knots="false" /><inkscape:path-effect
       effect="fillet_chamfer"
       id="path-effect9"
       is_visible="true"
       lpeversion="1"
       nodesatellites_param="F,0,0,1,0,4.0898107,0,1 @ F,0,0,1,0,3.8062347,0,1 @ F,0,0,1,0,3.4101038,0,1 @ F,0,0,1,0,3.1973842,0,1 | F,0,0,1,0,0,0,1 @ F,0,0,1,0,0,0,1 @ F,0,0,1,0,0,0,1 @ F,0,0,1,0,0,0,1 | F,0,0,1,0,0,0,1 @ F,0,0,1,0,0,0,1 @ F,0,0,1,0,0,0,1 @ F,0,0,1,0,0,0,1 | F,0,0,1,0,0,0,1 @ F,0,0,1,0,0,0,1 @ F,0,0,1,0,0,0,1 @ F,0,0,1,0,0,0,1 | F,0,0,1,0,0,0,1 @ F,0,0,1,0,0,0,1 @ F,0,0,1,0,0,0,1 @ F,0,0,1,0,0,0,1 | F,0,0,1,0,0,0,1 @ F,0,0,1,0,0,0,1 @ F,0,0,1,0,0,0,1 @ F,0,0,1,0,0,0,1 | F,0,0,1,0,0,0,1 @ F,0,0,1,0,0,0,1 @ F,0,0,1,0,0,0,1 @ F,0,0,1,0,0,0,1 | F,0,0,1,0,0,0,1 @ F,0,0,1,0,0,0,1 @ F,0,0,1,0,0,0,1 @ F,0,0,1,0,0,0,1 | F,0,0,1,0,0,0,1 @ F,0,0,1,0,0,0,1 @ F,0,0,1,0,0,0,1 @ F,0,0,1,0,0,0,1 | F,0,0,1,0,0,0,1 @ F,0,0,1,0,0,0,1 @ F,0,0,1,0,0,0,1 @ F,0,0,1,0,0,0,1"
       radius="0"
       unit="px"
       method="auto"
       mode="F"
       chamfer_steps="1"
       flexible="false"
       use_knot_distance="true"
       apply_no_radius="true"
       apply_with_radius="true"
       only_selected="false"
       hide_knots="false" /><linearGradient
       x1="240.32478"
       y1="183.08984"
       x2="240.32478"
       y2="203.08984"
       gradientUnits="userSpaceOnUse"
       id="color-1"><stop
         offset="0"
         stop-color="#ffffff"
         stop-opacity="0.25098"
         id="stop1" /><stop
         offset="1"
         stop-color="#ffffff"
         stop-opacity="0.10196"
         id="stop2" /></linearGradient><linearGradient
       x1="240.32478"
       y1="183.08986"
       x2="240.32478"
       y2="203.08986"
       gradientUnits="userSpaceOnUse"
       id="color-3"><stop
         offset="0"
         stop-color="#000000"
         stop-opacity="0.8"
         id="stop5" /><stop
         offset="1"
         stop-color="#000000"
         stop-opacity="0.50196"
         id="stop6" /></linearGradient><linearGradient
       x1="240"
       y1="156.30388"
       x2="240"
       y2="203.69615"
       gradientUnits="userSpaceOnUse"
       id="color-4"><stop
         offset="0"
         stop-color="#074cb3"
         id="stop7" /><stop
         offset="1"
         stop-color="#003d99"
         id="stop8" /></linearGradient><linearGradient
       x1="235.16945"
       y1="156.8488"
       x2="235.16945"
       y2="204.24104"
       gradientUnits="userSpaceOnUse"
       id="color-5"><stop
         offset="0"
         stop-color="#b3b3b3"
         id="stop9" /><stop
         offset="1"
         stop-color="#e6e6e6"
         id="stop10" /></linearGradient><linearGradient
       x1="245.36626"
       y1="156.88062"
       x2="245.36626"
       y2="204.27287"
       gradientUnits="userSpaceOnUse"
       id="color-6"><stop
         offset="0"
         stop-color="#b3b3b3"
         id="stop11" /><stop
         offset="1"
         stop-color="#e6e6e6"
         id="stop12" /></linearGradient><linearGradient
       x1="240.00002"
       y1="150.77409"
       x2="240.00002"
       y2="184.71407"
       gradientUnits="userSpaceOnUse"
       id="color-7"
       gradientTransform="matrix(0.89718188,0,0,0.89718188,21.81132,15.39949)"><stop
         offset="0"
         stop-color="#4d3108"
         id="stop13" /><stop
         offset="1"
         stop-color="#331f00"
         id="stop14" /></linearGradient><linearGradient
       x1="240.00002"
       y1="150.37373"
       x2="240.00002"
       y2="186.34032"
       gradientUnits="userSpaceOnUse"
       id="color-6-0"><stop
         offset="0"
         stop-color="#261700"
         id="stop11-9" /><stop
         offset="1"
         stop-color="#0d0800"
         id="stop12-4" /></linearGradient></defs><g
     inkscape:label="Layer 1"
     inkscape:groupmode="layer"
     id="layer1"
     transform="matrix(0.24299411,0,0,0.24299411,0.0313346,-24.669484)"><path
       style="fill:#5e5e5e;fill-opacity:1;stroke:#323232;stroke-width:2.05766;stroke-linecap:butt;stroke-linejoin:miter;stroke-dasharray:none;stroke-opacity:1"
       d="m 101.31165,123.49015 v 6.74309 l 12.93776,-4.29581 v -5.08887 z"
       id="path6495" /><path
       id="path10079"
       style="fill:#3e4142;fill-opacity:1;stroke:#292929;stroke-width:0.2;stroke-linecap:square;stroke-linejoin:round;stroke-miterlimit:0;stroke-dasharray:none"
       d="m 21.616808,2.819029 c -0.311333,0.079452 -0.499274,0.3962853 -0.419739,0.7076005 0.07956,0.3112121 0.396322,0.4990212 0.707546,0.4195086 0.02445,-0.00636 0.04845,-0.014295 0.07186,-0.023805 -0.277507,0.015749 -0.527367,-0.1670632 -0.596385,-0.4363112 -0.07215,-0.2833007 0.07718,-0.5761414 0.348855,-0.6841107 -0.03784,0.00182 -0.07539,0.00769 -0.112119,0.017021 z"
       sodipodi:nodetypes="cccccccc"
       transform="matrix(4.1153261,0,0,4.1153261,1.928713,104.56831)" /><path
       id="rect880"
       style="fill:#1a1a1a;stroke:#101010;stroke-width:4.11533;stroke-linecap:square;stroke-dasharray:none;stroke-opacity:1"
       d="m 1.928713,105.35305 v 27.51677 h 13.806236 v -2.43715 c 0.440328,-1.35424 1.033625,-1.74419 1.624763,-1.9948 H 43.4176 c 0.657547,0.92179 3.7138,4.85534 8.004725,4.85303 0.66788,-4.1e-4 16.061853,2.73411 16.80269,3.51536 l 10.039932,-0.13186 3.706758,-9.09995 c 0,0 6.194208,3.58068 10.212191,3.31971 5.179898,-0.33642 8.814984,-7.41139 8.814984,-7.41139 0,0 8.64759,-1.45283 14.88019,-2.2819 5.04459,-0.67104 18.51399,-3.29199 23.4655,-4.26607 h 24.49267 v -6.03331 h -32.03166 v -5.49953 H 82.167357 v 1.78639 H 45.210369 c -1.567039,-0.41709 -1.69069,-1.16907 -1.69069,-1.8353 H 15.734949 8.9977099 Z m 61.060481,8.1706 c 4.67545,0.0271 10.131378,0.89532 10.131378,0.89532 0,0 1.259655,7.68338 -3.043241,10.0612 -4.302898,2.37781 -6.42183,3.20962 -11.075613,2.33294 -4.653783,-0.87668 -4.911715,-5.04087 -5.018902,-6.0482 -0.107186,-1.00734 -0.07219,-4.33204 3.198487,-6.34594 1.124295,-0.69227 3.358846,-0.90952 5.807891,-0.89532 z m 25.100894,3.41115 h 5.98015 c 1.612698,0.59555 2.244088,1.67112 2.213846,3.00497 -0.0454,2.00167 -1.620874,4.50528 -4.699904,4.97849 -3.079031,0.4732 -6.785595,-1.75911 -6.847825,-3.63658 -0.04586,-1.38363 1.126603,-3.41144 3.353733,-4.34688 z"
       sodipodi:nodetypes="ccccccccccscsccccccccccccscsssssccsssc" /><rect
       style="fill:#0f0f0f;fill-opacity:1;stroke:#000000;stroke-width:2.05766;stroke-linecap:square;stroke-dasharray:none;stroke-opacity:1"
       id="rect3017-7"
       width="75.742142"
       height="4.2268982"
       x="130.88428"
       y="107.63486" /><path
       id="rect3148"
       style="fill:#4c4c4c;fill-opacity:1;stroke:#323232;stroke-width:2.05766;stroke-linecap:square;stroke-dasharray:none;stroke-opacity:1"
       d="m 196.8686,106.46822 v 6.74149 h 5.47613 v -1.19305 h 4.76158 v -4.33412 h -4.76158 v -1.21432 z"
       sodipodi:nodetypes="ccccccccc" /><path
       id="rect5599"
       style="fill:#3e4142;fill-opacity:1;stroke:#323232;stroke-width:2.05766;stroke-linecap:square;stroke-dasharray:none;stroke-opacity:1"
       d="m 88.990598,103.3296 v 4.76686 c -0.849731,0.36759 -1.39969,1.20507 -1.399338,2.1309 3.34e-4,1.28126 1.038918,2.31985 2.320179,2.32018 1.282092,8.4e-4 2.321972,-1.03809 2.322306,-2.32018 -1.95e-4,-0.90761 -0.52945,-1.73182 -1.354679,-2.10964 v -4.78812 z"
       sodipodi:nodetypes="cccccccc" /><rect
       style="fill:#5e5e5e;fill-opacity:1;stroke:none;stroke-width:0.0649999;stroke-linecap:square"
       id="rect6864"
       width="13.568384"
       height="2.7935684"
       x="99.418274"
       y="105.43497" /><rect
       style="fill:#000000;fill-opacity:1;stroke:none;stroke-width:0.0244984;stroke-linecap:square"
       id="rect6971"
       width="53.840134"
       height="2.7467206"
       x="80.112244"
       y="101.52297" /></g></svg>
