<?xml version="1.0" encoding="UTF-8" standalone="no"?>
<!-- Created with Inkscape (http://www.inkscape.org/) -->

<svg
   width="50.600021mm"
   height="10.646552mm"
   viewBox="0 0 50.60002 10.646553"
   version="1.1"
   id="svg5"
   sodipodi:docname="hp18.svg"
   inkscape:version="1.4.2 (f4327f4, 2025-05-13)"
   xmlns:inkscape="http://www.inkscape.org/namespaces/inkscape"
   xmlns:sodipodi="http://sodipodi.sourceforge.net/DTD/sodipodi-0.dtd"
   xmlns="http://www.w3.org/2000/svg"
   xmlns:svg="http://www.w3.org/2000/svg">
  <sodipodi:namedview
     id="namedview7"
     pagecolor="#ffffff"
     bordercolor="#666666"
     borderopacity="1.0"
     inkscape:pageshadow="2"
     inkscape:pageopacity="0.0"
     inkscape:pagecheckerboard="0"
     inkscape:document-units="mm"
     showgrid="false"
     showguides="false"
     inkscape:zoom="9.1540169"
     inkscape:cx="117.87175"
     inkscape:cy="12.398928"
     inkscape:window-width="1920"
     inkscape:window-height="1009"
     inkscape:window-x="-8"
     inkscape:window-y="-8"
     inkscape:window-maximized="1"
     inkscape:current-layer="layer1"
     fit-margin-top="0"
     fit-margin-left="0"
     fit-margin-right="0"
     fit-margin-bottom="0"
     inkscape:showpageshadow="2"
     inkscape:deskcolor="#d1d1d1" />
  <defs
     id="defs2" />
  <g
     inkscape:label="Layer 1"
     inkscape:groupmode="layer"
     id="layer1"
     transform="matrix(0.24187089,0,0,0.24187089,-0.02071467,-24.555732)">
    <path
       id="rect935"
       style="fill:#1a1a1a;fill-opacity:1;stroke:#000000;stroke-width:2.06722;stroke-linecap:square;stroke-dasharray:none;stroke-opacity:1"
       d="m 135.88086,105.64898 c 0,0 -33.13177,-0.44028 -40.134712,0.18374 -7.00294,0.62401 -13.801982,5.34773 -13.801982,5.34773 l -14.643771,1.00844 c 0,0 -17.718635,-0.0133 -34.577595,0.90589 -13.411776,0.73123 -26.1430477,2.38351 -30.0545625,2.48478 v -0.8247 h -1.548984 v 27.5591 h 1.548984 v -1.22637 c 0.41214,-0.52828 1.4004878,-1.44892 3.4996355,-1.9186 3.052181,-0.68292 36.0847,-7.96215 39.96806,-11.35779 3.88337,-3.39563 17.931893,-6.72153 17.931893,-6.72153 l 0.01282,-0.0342 c 0.88615,0.32758 3.141552,1.39703 2.245493,3.5445 L 58.098363,144.318 H 73.10107 c 0,0 0.132091,0.16685 0.170923,0.18802 h 0.0021 l 0.0021,0.002 h 0.0021 0.0021 v -0.002 h 0.0021 v -0.002 -0.002 -0.002 c -0.01443,-0.0776 -0.32906,-0.60557 -1.640854,-2.55102 -2.39872,-3.55738 1.736244,-9.78933 3.260344,-14.87879 1.52409,-5.08946 7.338979,-3.00182 7.338979,-3.00182 l 4.935383,-0.42517 v 0 c 0,0 0.37053,2.0027 3.17061,1.8075 2.80007,-0.19519 16.348725,-7.43939 16.348725,-7.43939 l -7.569724,-0.10897 36.927784,0.0833 z m -46.956651,12.22949 h 0.0043 l 5.296457,0.0128 c 0.685838,0.10725 1.939804,0.35039 2.512559,0.75847 1.2865,0.91661 1.018908,2.54398 -2.578792,4.42261 -7.77723,4.06108 -7.625588,-3.35365 -6.828348,-4.5273 0.224292,-0.33019 0.834603,-0.53906 1.593851,-0.6666 z"
       sodipodi:nodetypes="cscccccccccscccccccccccccccccscccscccccccssscc" />
    <path
       style="fill:#1a1a1a;fill-opacity:1;stroke:#000000;stroke-width:0.826887;stroke-linecap:butt;stroke-linejoin:miter;stroke-dasharray:none;stroke-opacity:1"
       d="m 89.154737,117.62746 c 0,0 -1.70334,1.70863 0.21643,4.52755 1.91977,2.81891 -0.73089,-0.77377 -0.0818,-2.52435 0.64907,-1.75059 -0.1346,-2.0032 -0.1346,-2.0032 z"
       id="path3823"
       sodipodi:nodetypes="csccc" />
    <path
       id="rect4360"
       style="fill:#1a1a1a;fill-opacity:1;stroke:#000000;stroke-width:1.24033;stroke-linecap:square;stroke-dasharray:none;stroke-opacity:1"
       d="m 191.12919,102.41328 -0.6168,3.74633 h -54.75972 v 4.24955 h 64.31381 v 0.18588 h 8.60161 v -4.55508 h -8.60161 v 0.11965 H 199.167 l -0.24143,-3.74633 z m 1.56463,1.72406 h 4.46107 v 1.38558 h -4.46107 z m 11.51328,3.36957 2.41848,0.85332 -3.02311,0.80045 -1.90513,-0.83677 z"
       sodipodi:nodetypes="ccccccccccccccccccccccc" />
    <path
       id="rect5705"
       style="stroke-width:0.0649999;stroke-linecap:square"
       d="m 103.01479,108.38244 h 15.96472 v 1.34425 h -15.96472 c -0.90059,-0.34603 -0.67048,-0.82019 0,-1.34425 z"
       sodipodi:nodetypes="ccccc" />
    <rect
       style="fill:#0a0a0a;fill-opacity:1;stroke:none;stroke-width:0.0712255;stroke-linecap:square;stroke-opacity:1"
       id="rect6245"
       width="12.736067"
       height="2.6083171"
       x="118.97951"
       y="107.40742" />
    <rect
       style="fill:#2e2e2e;fill-opacity:1;stroke:none;stroke-width:0.0408261;stroke-linecap:square;stroke-opacity:1"
       id="rect6371"
       width="0.62108022"
       height="1.4652731"
       x="129.30974"
       y="108.5508" />
    <path
       id="path7601"
       style="fill:#262626;fill-opacity:1;stroke:#191919;stroke-width:2.06722;stroke-linecap:butt;stroke-linejoin:miter;stroke-dasharray:none;stroke-opacity:1"
       d="m 135.81035,108.75549 0.24357,9.22981 h 31.9518 v 0.75633 h 1.66008 v -0.75633 h 0.9358 v 0.73283 h 1.66008 v -0.73283 h 1.08536 v 0.75206 h 1.66008 v -0.75206 h 7.83252 c 0,0 -0.0418,-0.81014 -0.35039,-1.94211 h 5.88187 v -4.62558 h -8.53117 c -1.36434,-1.29044 -3.34664,-2.27497 -6.22157,-2.34164 -8.75795,-0.2031 -37.80803,-0.32048 -37.80803,-0.32048 z"
       sodipodi:nodetypes="cccccccccccccccccccsc" />
    <rect
       style="fill:#262626;fill-opacity:1;stroke:none;stroke-width:0.0649999;stroke-linecap:square;stroke-opacity:1"
       id="rect9107-3-7"
       width="1.6602582"
       height="0.79196769"
       x="175.94391"
       y="117.9223" />
    <circle
       style="fill:#262626;fill-opacity:1;stroke:none;stroke-width:0.0649999;stroke-linecap:square;stroke-opacity:1"
       id="path9287"
       cx="127.58121"
       cy="115.60142"
       r="0.83060807" />
    <rect
       style="fill:#1a1a1a;fill-opacity:1;stroke:none;stroke-width:0.0649999;stroke-linecap:square;stroke-opacity:1"
       id="rect9391"
       width="2.3462043"
       height="1.0650049"
       x="128.68996"
       y="104.71442" />
    <rect
       style="fill:#1a1a1a;fill-opacity:1;stroke:none;stroke-width:0.0649999;stroke-linecap:square;stroke-opacity:1"
       id="rect9391-5"
       width="2.3462043"
       height="1.0650049"
       x="125.70523"
       y="104.76344" />
    <rect
       style="fill:#1a1a1a;fill-opacity:1;stroke:none;stroke-width:0.0649999;stroke-linecap:square;stroke-opacity:1"
       id="rect9391-3"
       width="2.3462043"
       height="1.0650049"
       x="122.88532"
       y="104.75668" />
    <rect
       style="fill:#1a1a1a;fill-opacity:1;stroke:none;stroke-width:0.0649999;stroke-linecap:square;stroke-opacity:1"
       id="rect9391-5-5"
       width="2.3462043"
       height="1.0650049"
       x="119.90056"
       y="104.8057" />
    <rect
       style="fill:#1a1a1a;fill-opacity:1;stroke:none;stroke-width:0.0649999;stroke-linecap:square;stroke-opacity:1"
       id="rect9391-6"
       width="2.3462043"
       height="1.0650049"
       x="116.88113"
       y="104.74759" />
    <rect
       style="fill:#1a1a1a;fill-opacity:1;stroke:none;stroke-width:0.0649999;stroke-linecap:square;stroke-opacity:1"
       id="rect9391-5-2"
       width="2.3462043"
       height="1.0650049"
       x="113.89635"
       y="104.79659" />
    <rect
       style="fill:#1a1a1a;fill-opacity:1;stroke:none;stroke-width:0.0649999;stroke-linecap:square;stroke-opacity:1"
       id="rect9391-3-9"
       width="2.3462043"
       height="1.0650049"
       x="111.07642"
       y="104.78985" />
    <rect
       style="fill:#1a1a1a;fill-opacity:1;stroke:none;stroke-width:0.0649999;stroke-linecap:square;stroke-opacity:1"
       id="rect9391-5-5-1"
       width="2.3462043"
       height="1.0650049"
       x="108.09163"
       y="104.83887" />
    <path
       style="mix-blend-mode:multiply;fill:#1a1a1a;fill-opacity:1;stroke:#000000;stroke-width:0.826887;stroke-linecap:butt;stroke-linejoin:miter;stroke-dasharray:none;stroke-opacity:1"
       d="m 92.826269,104.78499 c 0,0 2.911777,-0.29731 3.040153,-1.79566 0.128376,-1.49835 2.767735,-0.95579 2.767735,-0.95579 0,0 -0.690097,1.75191 1.176774,1.9713 1.866839,0.21938 6.693379,0.36884 6.693379,0.36884 l -0.092,1.33676 -13.539099,0.24499 z"
       id="path9849"
       sodipodi:nodetypes="cscscccc" />
  </g>
</svg>
