<?xml version="1.0" encoding="UTF-8" standalone="no"?>
<!-- Created with Inkscape (http://www.inkscape.org/) -->

<svg
   width="51.648819mm"
   height="9.9133282mm"
   viewBox="0 0 51.648819 9.913328"
   version="1.1"
   id="svg5"
   inkscape:version="1.4.2 (f4327f4, 2025-05-13)"
   sodipodi:docname="kar98k.svg"
   xml:space="preserve"
   xmlns:inkscape="http://www.inkscape.org/namespaces/inkscape"
   xmlns:sodipodi="http://sodipodi.sourceforge.net/DTD/sodipodi-0.dtd"
   xmlns="http://www.w3.org/2000/svg"
   xmlns:svg="http://www.w3.org/2000/svg"><sodipodi:namedview
     id="namedview7"
     pagecolor="#ffffff"
     bordercolor="#666666"
     borderopacity="1.0"
     inkscape:pageshadow="2"
     inkscape:pageopacity="0.0"
     inkscape:pagecheckerboard="0"
     inkscape:document-units="mm"
     showgrid="false"
     inkscape:zoom="51.839964"
     inkscape:cx="59.616168"
     inkscape:cy="22.829877"
     inkscape:window-width="1920"
     inkscape:window-height="1009"
     inkscape:window-x="-8"
     inkscape:window-y="-8"
     inkscape:window-maximized="1"
     inkscape:current-layer="layer1"
     fit-margin-top="0"
     fit-margin-left="0"
     fit-margin-right="0"
     fit-margin-bottom="0"
     inkscape:showpageshadow="2"
     inkscape:deskcolor="#d1d1d1" /><defs
     id="defs2"><inkscape:path-effect
       effect="fillet_chamfer"
       id="path-effect10"
       is_visible="true"
       lpeversion="1"
       nodesatellites_param="F,0,0,1,0,2.1166666,0,1 @ F,0,0,1,0,2.1166666,0,1 @ F,0,0,1,0,2.1166666,0,1 @ F,0,0,1,0,2.1166666,0,1 @ F,0,0,1,0,2.1166666,0,1 @ F,0,0,1,0,2.1166666,0,1 @ F,0,0,1,0,2.1166666,0,1 @ F,0,0,1,0,2.1166666,0,1 @ F,0,0,1,0,2.1166666,0,1 @ F,0,0,1,0,2.1166666,0,1 | F,0,0,1,0,2.1166666,0,1 @ F,0,0,1,0,2.1166666,0,1 @ F,0,0,1,0,2.1166666,0,1 @ F,0,0,1,0,2.1166666,0,1"
       radius="9"
       unit="px"
       method="auto"
       mode="F"
       chamfer_steps="1"
       flexible="false"
       use_knot_distance="true"
       apply_no_radius="true"
       apply_with_radius="true"
       only_selected="false"
       hide_knots="false" /><inkscape:path-effect
       effect="fillet_chamfer"
       id="path-effect9"
       is_visible="true"
       lpeversion="1"
       nodesatellites_param="F,0,0,1,0,4.0898107,0,1 @ F,0,0,1,0,3.8062347,0,1 @ F,0,0,1,0,3.4101038,0,1 @ F,0,0,1,0,3.1973842,0,1 | F,0,0,1,0,0,0,1 @ F,0,0,1,0,0,0,1 @ F,0,0,1,0,0,0,1 @ F,0,0,1,0,0,0,1 | F,0,0,1,0,0,0,1 @ F,0,0,1,0,0,0,1 @ F,0,0,1,0,0,0,1 @ F,0,0,1,0,0,0,1 | F,0,0,1,0,0,0,1 @ F,0,0,1,0,0,0,1 @ F,0,0,1,0,0,0,1 @ F,0,0,1,0,0,0,1 | F,0,0,1,0,0,0,1 @ F,0,0,1,0,0,0,1 @ F,0,0,1,0,0,0,1 @ F,0,0,1,0,0,0,1 | F,0,0,1,0,0,0,1 @ F,0,0,1,0,0,0,1 @ F,0,0,1,0,0,0,1 @ F,0,0,1,0,0,0,1 | F,0,0,1,0,0,0,1 @ F,0,0,1,0,0,0,1 @ F,0,0,1,0,0,0,1 @ F,0,0,1,0,0,0,1 | F,0,0,1,0,0,0,1 @ F,0,0,1,0,0,0,1 @ F,0,0,1,0,0,0,1 @ F,0,0,1,0,0,0,1 | F,0,0,1,0,0,0,1 @ F,0,0,1,0,0,0,1 @ F,0,0,1,0,0,0,1 @ F,0,0,1,0,0,0,1 | F,0,0,1,0,0,0,1 @ F,0,0,1,0,0,0,1 @ F,0,0,1,0,0,0,1 @ F,0,0,1,0,0,0,1"
       radius="0"
       unit="px"
       method="auto"
       mode="F"
       chamfer_steps="1"
       flexible="false"
       use_knot_distance="true"
       apply_no_radius="true"
       apply_with_radius="true"
       only_selected="false"
       hide_knots="false" /><linearGradient
       x1="240.32478"
       y1="183.08984"
       x2="240.32478"
       y2="203.08984"
       gradientUnits="userSpaceOnUse"
       id="color-1"><stop
         offset="0"
         stop-color="#ffffff"
         stop-opacity="0.25098"
         id="stop1" /><stop
         offset="1"
         stop-color="#ffffff"
         stop-opacity="0.10196"
         id="stop2" /></linearGradient><linearGradient
       x1="240.32478"
       y1="183.08986"
       x2="240.32478"
       y2="203.08986"
       gradientUnits="userSpaceOnUse"
       id="color-3"><stop
         offset="0"
         stop-color="#000000"
         stop-opacity="0.8"
         id="stop5" /><stop
         offset="1"
         stop-color="#000000"
         stop-opacity="0.50196"
         id="stop6" /></linearGradient><linearGradient
       x1="240"
       y1="156.30388"
       x2="240"
       y2="203.69615"
       gradientUnits="userSpaceOnUse"
       id="color-4"><stop
         offset="0"
         stop-color="#074cb3"
         id="stop7" /><stop
         offset="1"
         stop-color="#003d99"
         id="stop8" /></linearGradient><linearGradient
       x1="235.16945"
       y1="156.8488"
       x2="235.16945"
       y2="204.24104"
       gradientUnits="userSpaceOnUse"
       id="color-5"><stop
         offset="0"
         stop-color="#b3b3b3"
         id="stop9" /><stop
         offset="1"
         stop-color="#e6e6e6"
         id="stop10" /></linearGradient><linearGradient
       x1="245.36626"
       y1="156.88062"
       x2="245.36626"
       y2="204.27287"
       gradientUnits="userSpaceOnUse"
       id="color-6"><stop
         offset="0"
         stop-color="#b3b3b3"
         id="stop11" /><stop
         offset="1"
         stop-color="#e6e6e6"
         id="stop12" /></linearGradient><linearGradient
       x1="240.00002"
       y1="150.77409"
       x2="240.00002"
       y2="184.71407"
       gradientUnits="userSpaceOnUse"
       id="color-7"
       gradientTransform="matrix(0.89718188,0,0,0.89718188,21.81132,15.39949)"><stop
         offset="0"
         stop-color="#4d3108"
         id="stop13" /><stop
         offset="1"
         stop-color="#331f00"
         id="stop14" /></linearGradient><linearGradient
       x1="240.00002"
       y1="150.37373"
       x2="240.00002"
       y2="186.34032"
       gradientUnits="userSpaceOnUse"
       id="color-6-0"><stop
         offset="0"
         stop-color="#261700"
         id="stop11-9" /><stop
         offset="1"
         stop-color="#0d0800"
         id="stop12-4" /></linearGradient></defs><g
     inkscape:label="Layer 1"
     inkscape:groupmode="layer"
     id="layer1"
     transform="matrix(0.57276989,0,0,0.57276989,-52.583322,-78.927926)"><g
       id="g1"><path
         id="rect9807"
         style="fill:#3e4142;fill-opacity:1;stroke:#292929;stroke-width:0.34918;stroke-linecap:square;stroke-linejoin:round;stroke-miterlimit:0;stroke-dasharray:none"
         d="m 120.40315,147.14387 v 0.07 c -0.051,-0.0381 -0.11295,-0.0611 -0.17955,-0.0611 h -3.56467 c -0.17576,0 -0.4913,0.15492 -0.4913,0.3469 v 1.93451 c 0,0.19198 0.31554,0.69579 0.4913,0.69579 h 3.56467 c 0.1791,0 0.6662,-0.50682 0.6662,-0.69579 v -1.49357 h 1.07996 v -0.7967 z m -3.37792,0.20302 c 0.004,-2.5e-4 0.008,0 0.0126,0 h 2.85282 c 0.14063,0 0.25352,0.12331 0.25352,0.27691 v 1.54722 c 0,0.15361 -0.11289,0.27791 -0.25352,0.27791 h -2.85282 c -0.14063,0 -0.25352,-0.1243 -0.25352,-0.27791 v -1.54722 c 0,-0.1488 0.1064,-0.26952 0.24089,-0.27691 z"
         sodipodi:nodetypes="ccsssssssccccsssssssssss"
         transform="translate(2.1460043e-6)" /><path
         id="path10079"
         style="fill:#3e4142;fill-opacity:1;stroke:#292929;stroke-width:0.34918;stroke-linecap:square;stroke-linejoin:round;stroke-miterlimit:0;stroke-dasharray:none"
         d="m 118.2535,146.65336 c -0.54356,0.13872 -0.87169,0.69188 -0.73283,1.2354 0.13891,0.54335 0.69194,0.87125 1.23531,0.73242 0.0427,-0.0111 0.0846,-0.025 0.12546,-0.0416 -0.48449,0.0275 -0.92073,-0.29167 -1.04123,-0.76175 -0.12596,-0.49462 0.13475,-1.00589 0.60907,-1.19439 -0.0661,0.003 -0.13162,0.0134 -0.19575,0.0297 z"
         sodipodi:nodetypes="cccccccc" /></g><path
       style="baseline-shift:baseline;display:inline;overflow:visible;opacity:1;vector-effect:none;fill:#583b08;fill-opacity:1;stroke-linecap:square;stroke-linejoin:round;stroke-miterlimit:0;enable-background:accumulate;stop-color:#000000;stop-opacity:1"
       d="m 82.688865,106.58929 v 1.51393 c -13.475222,-0.002 -27.626335,0.0585 -28.975691,0.25713 -0.931301,0.84381 -1.908594,1.90844 -3.642261,2.40081 l -0.794855,-0.79035 -19.73696,0.30315 -0.114582,9.5536 16.149734,-4.85304 0.06135,-0.0821 c -0.07373,0.66021 0.532661,1.01536 2.361109,0.93831 0.774293,-1.41567 3.403715,-3.87738 5.105662,-3.33551 l 54.559039,-2.78966 0.009,-1.49678 c -0.4553,-0.0296 -4.94596,-0.0612 -11.161364,-0.0821 v -1.53738 z"
       id="path1"
       transform="translate(63.254621,34.406235)" /><path
       id="rect3836"
       style="fill:#3e4142;fill-opacity:1;stroke:#303030;stroke-width:0.872951;stroke-linecap:square;stroke-linejoin:round;stroke-miterlimit:0;stroke-dasharray:none"
       d="m 178.96776,139.61911 -0.59139,0.78583 h -18.2999 v 1.68625 h 8.50274 v 1.5852 l 4.66674,-0.29413 v -1.29107 h 8.29666 v -1.68625 h -1.07115 v -0.78583 z"
       sodipodi:nodetypes="ccccccccccccc" /><path
       id="rect4446"
       style="fill:#3e4142;fill-opacity:1;stroke:#303030;stroke-width:0.34918;stroke-linecap:square;stroke-linejoin:round;stroke-miterlimit:0;stroke-dasharray:none"
       d="m 119.90091,137.975 c -0.45749,-1.6e-4 -0.8284,0.37074 -0.82824,0.82823 1.6e-4,0.33527 0.2025,0.81227 0.51247,0.94002 v 1.3425 h 0.66132 v -1.35604 c 0.29347,-0.13507 0.48157,-0.60342 0.48179,-0.92648 1.6e-4,-0.45714 -0.3702,-0.82789 -0.82734,-0.82823 z"
       sodipodi:nodetypes="cccccccc" /><path
       style="baseline-shift:baseline;display:inline;overflow:visible;opacity:1;vector-effect:none;fill:#432b07;fill-opacity:1;stroke-linecap:square;stroke-linejoin:round;stroke-miterlimit:0;enable-background:accumulate;stop-color:#000000;stop-opacity:1"
       d="m 82.689453,105.7168 c -0.48217,-1e-5 -0.873048,0.39087 -0.873047,0.87304 v 0.64258 c -6.441412,4.3e-4 -13.022488,0.0129 -18.169922,0.0508 -2.697381,0.0199 -5.014707,0.0464 -6.748047,0.0801 -1.733339,0.0337 -2.763979,0.0521 -3.3125,0.13281 -0.171091,0.0252 -0.330839,0.10067 -0.458984,0.2168 -0.865751,0.78442 -1.674297,1.53132 -2.875,1.99805 l -0.361328,-0.35938 c -0.166851,-0.16593 -0.39362,-0.25748 -0.628906,-0.2539 l -19.736328,0.30273 c -0.473049,0.007 -0.854145,0.3902 -0.859375,0.86328 l -0.115235,9.55274 c -0.008,0.5902 0.559874,1.01806 1.125,0.84765 l 15.546875,-4.67187 c 0.166727,0.16963 0.325961,0.35583 0.53125,0.44531 0.607578,0.26483 1.304648,0.3067 2.279297,0.26563 0.305433,-0.0131 0.581771,-0.18498 0.728516,-0.45317 0.28974,-0.52974 1.098272,-1.47504 1.96289,-2.12305 0.864619,-0.648 1.750274,-0.91635 2.113282,-0.80078 0.09958,0.032 0.204103,0.0459 0.308593,0.041 l 54.558596,-2.61482 c 0.46306,-0.0228 0.82754,-0.40358 0.83008,-0.86719 l 0.008,-1.67034 c 0.003,-0.4624 -0.35498,-0.84697 -0.81641,-0.87695 -0.39299,-0.0255 -1.51232,-0.0327 -3.4707,-0.0469 -1.7381,-0.0126 -4.20355,-0.0234 -6.873048,-0.0332 v -0.66797 c 10e-7,-0.48217 -0.390876,-0.87304 -0.873046,-0.87304 z m 0.873047,1.74609 h 12.074219 v 0.66406 c -1.2e-5,0.48065 0.388493,0.8709 0.86914,0.87305 2.878734,0.01 5.262161,0.0221 7.169921,0.0352 l -50.617186,2.58789 0.308593,0.041 c -1.338939,-0.42629 -2.6203,0.26511 -3.689453,1.06641 -0.879024,0.6588 -1.499793,1.45285 -2.011718,2.20508 -0.581877,-0.008 -1.10664,-0.0505 -1.214844,-0.0977 -0.06715,-0.0293 -0.02342,-0.0207 0.01367,0.041 0.03709,0.0617 0.03624,0.13663 0.03906,0.11132 0.103351,-0.88779 -1.035859,-1.33893 -1.568359,-0.62109 l 0.111328,-0.14844 -14.736328,4.42969 0.0918,-7.51758 18.519531,-0.2832 0.533203,0.53125 c 0.223742,0.22236 0.550032,0.30673 0.853516,0.2207 1.820856,-0.51713 2.895041,-1.58861 3.751953,-2.38476 0.262411,-0.0228 1.273307,-0.0764 2.871094,-0.10742 1.720601,-0.0335 4.035046,-0.0602 6.728515,-0.0801 5.386939,-0.0397 12.293038,-0.0537 19.029297,-0.0527 0.48217,1e-5 0.873048,-0.39087 0.873047,-0.87304 z"
       id="path2"
       transform="translate(63.254621,34.406235)"
       sodipodi:nodetypes="csccsccccccccccscccccccccscscccccccccsccsccccccccccccsc" /><path
       id="rect4238"
       style="fill:#3e4142;fill-opacity:1;stroke:#2d2f30;stroke-width:0.908778;stroke-linecap:square;stroke-linejoin:round;stroke-miterlimit:0;stroke-dasharray:none;stroke-opacity:1"
       d="m 141.46763,140.13559 v 0.93681 h -7.6746 v -0.70671 h -3.05114 v 0.70671 h -5.23457 v -0.66531 h -3.05115 v 0.66531 h -2.89995 v -0.42556 h -2.57469 v 0.42556 h -0.78706 v 1.80624 h 0.78706 v 0.0857 h 2.57469 v -0.0857 h 2.89995 v 0.0318 h 3.05115 v -0.0318 h 20.91726 v -0.23974 -1.5665 -0.93681 z"
       sodipodi:nodetypes="ccccccccccccccccccccccccccccc" /><rect
       style="fill:#3e4142;fill-opacity:1;stroke:#2d2f30;stroke-width:0.872949;stroke-dasharray:none;stroke-opacity:1"
       id="rect2"
       width="1.8178101"
       height="4.8026805"
       x="159.02908"
       y="140.40463" /></g></svg>
