<?xml version="1.0" encoding="UTF-8" standalone="no"?>
<!-- Created with Inkscape (http://www.inkscape.org/) -->

<svg
   width="50mm"
   height="7.7870116mm"
   viewBox="0 0 50 7.7870119"
   version="1.1"
   id="svg5"
   inkscape:version="1.4.2 (f4327f4, 2025-05-13)"
   sodipodi:docname="m870.svg"
   xml:space="preserve"
   xmlns:inkscape="http://www.inkscape.org/namespaces/inkscape"
   xmlns:sodipodi="http://sodipodi.sourceforge.net/DTD/sodipodi-0.dtd"
   xmlns="http://www.w3.org/2000/svg"
   xmlns:svg="http://www.w3.org/2000/svg"><sodipodi:namedview
     id="namedview7"
     pagecolor="#ffffff"
     bordercolor="#666666"
     borderopacity="1.0"
     inkscape:pageshadow="2"
     inkscape:pageopacity="0.0"
     inkscape:pagecheckerboard="0"
     inkscape:document-units="mm"
     showgrid="false"
     inkscape:zoom="3.433758"
     inkscape:cx="97.560748"
     inkscape:cy="31.306807"
     inkscape:window-width="1920"
     inkscape:window-height="1009"
     inkscape:window-x="-8"
     inkscape:window-y="-8"
     inkscape:window-maximized="1"
     inkscape:current-layer="g43"
     fit-margin-top="0"
     fit-margin-left="0"
     fit-margin-right="0"
     fit-margin-bottom="0"
     inkscape:showpageshadow="2"
     inkscape:deskcolor="#d1d1d1" /><defs
     id="defs2" /><g
     data-paper-data="{&quot;isPaintingLayer&quot;:true}"
     fill-rule="nonzero"
     stroke-linejoin="miter"
     stroke-miterlimit="10"
     stroke-dasharray="none"
     stroke-dashoffset="0"
     style="mix-blend-mode:normal"
     id="g58"
     transform="matrix(0.35977068,0,0,0.35977068,-65.865181,-65.102386)"><g
       stroke-width="1.5"
       id="g29"><path
         d="m 244.17277,182.73583 c 0,0 0.32774,0.0211 0.97899,0.13065 0.64057,0.10778 0.37808,0.21467 1.01,0.21467 7.9863,0 67.43243,0 74.0711,0 0.40272,0 0.61547,0.26291 0.61547,0.44913 0,0.12232 0,0.46493 0,0.68318 0,0.38455 -0.26986,0.53218 -0.78038,0.53218 -7.39092,0 -66.1042,0 -73.94908,0 -0.72422,0 -0.41594,0.1166 -0.94583,0.17994 -0.52989,0.0633 -1.03987,0.1306 -1.03987,0.1306 z"
         fill="#474747"
         stroke="none"
         stroke-linecap="butt"
         id="path1" /><path
         d="m 243.80005,188.40531 v -2.58333 h 31.61858 v 2.58333 z"
         fill="none"
         stroke="#333333"
         stroke-linecap="butt"
         id="path2" /><g
         stroke-linecap="butt"
         id="g8"><g
           stroke="#333333"
           id="g4"><path
             d="m 275.43137,188.00429 c 0,-0.62387 0,-1.6265 0,-1.92755 0,-0.16936 0.005,-0.35019 0.014,-0.35019 0.10904,0 1.20196,0 1.40047,0 0.01,0 1.04053,0.21297 1.04053,0.40373 0,0.33854 0,1.45487 0,2.03464 0,0.21528 -1.03144,0.35659 -1.04247,0.35659 -0.20992,0 -1.28984,0 -1.39853,0 -0.009,0 -0.014,-0.21383 -0.014,-0.51723 z"
             fill="#3f3f3f"
             id="path3" /><path
             d="m 276.55861,185.72655 c 0.20051,0 0.37951,0 0.44485,0 0.004,0 0.20523,0.0483 0.41501,0.11947 0.23079,0.0783 0.23327,2.52313 0.003,2.58561 -0.21141,0.0574 -0.4155,0.0899 -0.42,0.0899 -0.0846,0 -0.24028,0 -0.49055,0 -0.27903,0 -0.27137,-2.79496 0.0473,-2.79496 z"
             fill="#383838"
             id="path4" /></g><g
           id="g7"><path
             d="m 243.80005,188.40531 v -2.58333 h 31.61858 v 2.58333 z"
             fill="#474747"
             stroke="#333333"
             id="path5" /><path
             d="m 274.97333,187.60531 c 0,0.42754 -0.10874,0.59168 -0.31445,0.59168 -2.97809,0 -30.59714,0.0401 -30.59714,0.0401 0,0 0.004,-0.2913 0.006,-0.65229 6.4e-4,-0.10454 30.90567,-0.0472 30.90567,0.0206 z"
             fill="#3b3b3b"
             stroke="none"
             id="path6" /><path
             d="m 244.09641,186.81712 c -0.002,-0.36099 -0.006,-0.65229 -0.006,-0.65229 0,0 27.59335,0.0401 30.56868,0.0401 0.20552,0 0.31416,0.16414 0.31416,0.59168 0,0.0677 -30.87627,0.1251 -30.87691,0.0206 z"
             data-paper-data="{&quot;index&quot;:null}"
             fill="#626262"
             stroke="none"
             id="path7" /></g></g><g
         id="g16"><path
           d="m 223.53067,188.46791 c 0.44808,0 1.51729,0 1.51729,0 0,0 -0.34746,0.30894 -0.51713,0.74515 -0.14267,0.3668 -0.19711,0.58976 -0.24896,0.7461 -0.0492,0.14828 -0.10075,0.35009 -0.0578,0.5608 0.0575,0.28186 0.37277,0.62663 0.27289,0.71897 -0.13883,0.12835 -0.48854,-0.26349 -0.63817,-0.59662 -0.1438,-0.32014 -0.32122,-0.50937 -0.37687,-0.87812 -0.0557,-0.36876 -0.22588,-1.29627 0.0487,-1.29627 z"
           fill="#474747"
           stroke="#333333"
           stroke-linecap="butt"
           id="path8" /><path
           d="m 222.6867,188.67333 c 1.57437,0 9.60778,0 9.60778,0 0,0 -1.7214,0.48246 -2.09157,0.86186 -0.45181,0.46308 -1.04336,1.24431 -1.75686,1.71594 -0.71348,0.47163 -1.33212,0.49468 -2.2417,0.61869 -0.9096,0.12401 -1.73072,0.16411 -2.29638,0 -0.71697,-0.20801 -0.80893,-0.2694 -1.19621,-0.67022 -0.25519,-0.26412 -0.32013,-0.80314 -0.52944,-1.34047 -0.20933,-0.53731 -0.51606,-1.05245 -0.51606,-1.05245 0,0 0.50736,-0.13335 1.02044,-0.13335 z m 2.3641,3.29677 c 4.40551,-0.0738 2.92149,-2.84155 2.92149,-2.84155 l -5.25254,-0.007 c 0,0 -0.56106,1.22841 -0.34506,1.56901 0.52465,0.82727 1.73135,1.29561 2.67612,1.2798 z"
           fill="#393939"
           stroke="#333333"
           stroke-linecap="round"
           id="path9" /><g
           id="g15"><path
             d="m 226.51419,181.70523 c 5.67678,0 14.02965,0 16.58334,0 0.49278,0 0.76961,0.35105 0.76961,0.70007 0,0.76089 0,3.73024 0,5.25 0,0.54765 -0.18843,0.90707 -0.51961,0.90707 -0.47685,0 -1.24964,0 -2.18197,0 -1.14073,0 -1.29808,-0.22222 -3.88889,-0.22222 -2.47868,0 -3.16477,0.22222 -4.33333,0.22222 -2.82369,0 -7.83615,0 -9.51248,0 -0.35789,0 -0.66363,-0.29977 -0.81279,-0.74724 -0.37298,-1.11895 -1.05383,-3.16151 -1.25,-3.75 -0.10405,-0.31214 0.081,-0.78291 0.49256,-0.96328 0.55105,-0.24149 1.30897,-0.5602 1.83986,-0.72995 0,0 2.45215,-0.66667 2.8137,-0.66667 z"
             fill="#626262"
             stroke="#333333"
             stroke-linecap="round"
             id="path10" /><path
             d="m 243.58714,187.3753 c 0,0 0.0644,0.34209 0.0343,0.48145 -0.0736,0.34066 -0.23382,0.54562 -0.46469,0.54562 -0.46839,0 -1.22745,0 -2.14323,0 -1.12047,0 -1.27504,-0.25162 -3.81984,-0.25162 -2.43467,0 -3.10858,0.25162 -4.25638,0.25162 -2.77355,0 -7.69701,0 -9.34358,0 -0.26125,0 -0.49421,-0.18746 -0.65678,-0.49172 -0.0562,-0.10515 -0.14395,-0.31483 -0.18158,-0.44496 -0.0261,-0.0903 20.83177,-0.0904 20.83177,-0.0904 z"
             fill="#393939"
             stroke="none"
             stroke-linecap="round"
             id="path11" /><path
             d="m 223.95927,183.82356 c 1.81116,-0.35625 2.38179,-0.39834 2.73297,-0.39834 5.51385,0 13.62699,0 16.10738,0 0.47863,0 0.74752,0.20975 0.74752,0.41829 0,0.45463 0,2.22882 0,3.13687 0,0.32722 -0.18302,0.54198 -0.50469,0.54198 -0.46317,0 -1.21378,0 -2.11935,0 -1.10799,0 -1.26083,-0.13277 -3.77728,-0.13277 -2.40754,0 -3.07394,0.13277 -4.20896,0.13277 -0.11704,0 -10.13421,0 -10.13421,0 l -0.91458,-2.6871 c 0,0 1.55557,-0.91028 2.07122,-1.01171 z"
             fill="#474747"
             stroke="none"
             stroke-linecap="round"
             id="path12" /><path
             d="m 233.66085,184.11227 c 0,-0.89982 0.66499,-1.3776 0.68943,-1.3776 0.30803,0 6.29299,0 6.85376,0 0.0276,0 0.7921,0.42242 0.74205,1.3776 -0.05,0.95438 -0.71637,1.35283 -0.74753,1.35283 -0.59304,0 -6.54123,0 -6.84828,0 -0.0244,0 -0.68943,-0.29549 -0.68943,-1.35283 z"
             fill="#6b6b6b"
             stroke="#333333"
             stroke-linecap="butt"
             id="path13" /><path
             d="m 233.81504,184.19561 h 8.05"
             fill="none"
             stroke="#333333"
             stroke-linecap="round"
             id="path14" /><path
             d="m 241.86504,183.5456 h -1.35"
             fill="none"
             stroke="#333333"
             stroke-linecap="round"
             id="path15" /></g></g><g
         stroke-linecap="butt"
         id="g18"><path
           d="m 243.80955,182.33934 c 0,0 0.79063,0.0283 1.44883,0.17529 0.6474,0.14461 1.11714,0.28804 1.7558,0.28804 h 73.66666 c 0.40702,0 0.62203,0.35276 0.62203,0.60262 v 0.91666 c 0,0.51597 -0.27273,0.71405 -0.7887,0.71405 h -73.54334 c -0.73195,0 -1.15541,0.15646 -1.69095,0.24143 -0.53554,0.085 -1.51035,0.17524 -1.51035,0.17524 z"
           fill="#474747"
           stroke="#333333"
           id="path16"
           sodipodi:nodetypes="ccssssssccc" /><path
           d="m 320.84833,184.28489 c 0,0.38455 -0.27011,0.53218 -0.78111,0.53218 -7.39779,0 -65.8086,0 -73.66079,0 -0.7249,0 -0.77347,0.18803 -1.30385,0.25136 -0.53038,0.0633 -1.04084,0.13061 -1.04084,0.13061 0,0 0.009,-0.60795 0.0147,-0.93264 0.002,-0.094 76.77187,-0.0424 76.77187,0.0185 z"
           fill="#3b3b3b"
           stroke="none"
           id="path17" /><path
           d="m 244.14787,183.57595 c -0.006,-0.32469 -0.0147,-0.93264 -0.0147,-0.93264 0,0 0.50998,0.0673 1.03987,0.13061 0.52989,0.0633 0.50732,0.25137 1.23155,0.25137 7.84489,0 66.27245,0 73.66337,0 0.51052,0 0.78038,0.14763 0.78038,0.53218 0,0.0609 -76.69886,0.11252 -76.70046,0.0185 z"
           data-paper-data="{&quot;index&quot;:null}"
           fill="#626262"
           stroke="none"
           id="path18" /></g><g
         stroke-linecap="butt"
         id="g23"><path
           d="m 183.82563,188.57758 c -0.0534,-0.52438 5.99275,-0.68623 9.93747,-1.1196 3.94472,-0.43337 9.85247,-1.59947 16.37634,-1.77128 0.11029,-0.003 0.9988,0.49434 2.12941,0.67115 0.36109,0.0565 1.5358,-0.0219 2.73173,-0.45158 1.48333,-0.53294 3.09927,-1.14929 3.13586,-1.16577 1.10415,-0.49731 2.78066,-1.02352 3.09945,-1.12196 0.12015,-0.0371 0.28667,0.27893 0.37946,0.57942 0.16466,0.53325 0.81672,2.74625 1.09871,3.65949 0.10471,0.33911 0.10216,0.58371 -0.0335,0.6256 -0.46725,0.14427 -1.39808,-0.0302 -3.10873,0.498 -1.11228,0.34345 -2.88347,0.81997 -5.77647,4.0378 -0.28799,0.32034 -0.66186,1.80971 -0.84015,2.57836 -0.0645,0.27803 -0.25515,0.36738 -0.39409,0.377 -0.78096,0.0541 -2.8847,-1.08379 -4.74563,-0.94231 -0.25894,0.0197 0.11339,-0.37771 -0.62541,-0.80693 -0.3559,-0.20676 -21.50639,7.50886 -21.98289,7.65599 -0.10639,0.0329 -1.23399,-12.82548 -1.38156,-13.30339 z"
           fill="#6d5548"
           stroke="#331d10"
           id="path19" /><path
           d="m 219.21645,188.87393 c -0.7626,0.23547 -1.84841,0.53622 -3.41989,1.81761 -0.625,0.50962 -1.3268,1.17436 -2.11566,2.05178 -0.27598,0.30697 -0.63425,1.73424 -0.80511,2.47083 -0.0618,0.26644 -0.24451,0.35206 -0.37766,0.36128 -0.74839,0.0519 -2.76439,-1.03858 -4.54771,-0.90301 -0.24814,0.0189 0.10866,-0.36195 -0.59932,-0.77327 -0.34105,-0.19814 -20.60944,7.19568 -21.06606,7.33668 -0.0532,0.0164 -0.37259,-3.32797 -0.68612,-6.59671 -0.1636,-1.70568 11.26988,-3.50037 20.85629,-4.63754 1.24689,-0.14791 2.58753,0.71531 3.74234,0.59128 1.91463,-0.20562 3.53704,-1.37615 4.98242,-1.5041 2.76174,-0.24448 4.42075,-0.3335 4.03647,-0.21484 z"
           fill="#5c473d"
           stroke="none"
           id="path20" /><path
           d="m 186.1803,194.92852 -0.37197,-3.19269 c 0,0 16.09367,-2.08928 19.40827,-2.47545 1.14155,-0.13299 4.65918,1.01752 4.65918,1.01752 l -2.12803,1.26412 c 0,0 -0.27443,-0.81938 -2.00221,-0.54808 -3.74325,0.58776 -19.56523,3.93458 -19.56523,3.93458 z"
           fill="#522c18"
           stroke="none"
           id="path21" /><path
           d="m 206.99129,192.30705 c 0.42367,-0.27452 2.28585,-1.48113 3.20463,-2.07646 0.31288,-0.20273 0.26561,-0.34492 0.11505,-0.35113 -0.19377,-0.008 -0.61044,-0.0521 -0.25197,-0.23002 0.94395,-0.46866 2.91831,-1.46121 3.48309,-1.8264 1.33059,-0.86037 4.04147,-1.98985 5.14701,-2.43629 0.3033,-0.12248 0.25145,0.13318 0.0859,0.36405 -0.16716,0.23308 -0.53595,0.74733 -0.79452,1.10788 -0.16117,0.22474 -0.089,0.41796 0.0812,0.44317 0.29082,0.0431 1.22443,0.18133 1.74948,0.2591 0.21941,0.0325 0.24534,0.15416 0.0872,0.28332 -0.36806,0.30054 -2.9255,1.50349 -4.85672,3.08046 -1.64954,1.34695 -2.67319,3.06817 -3.34537,3.61704 -0.20125,0.16433 -0.53967,0.18653 -0.7258,0.128 -0.28447,-0.0894 -1.11861,-0.35175 -1.56248,-0.49133 -0.17208,-0.0541 -0.3511,-0.27581 -0.4503,-0.50799 -0.1469,-0.34384 -0.36748,-0.78889 -0.55775,-0.88081 -0.32186,-0.15549 -0.77773,-0.2223 -1.14165,-0.25059 -0.33691,-0.0262 -0.43556,-0.12269 -0.26692,-0.23197 z"
           fill="#493429"
           stroke="none"
           id="path22" /><path
           d="m 183.82563,188.57758 c -0.0197,-0.19299 0.78684,-0.33687 2.01071,-0.46326 0.14631,-0.0151 1.98341,12.88965 1.46846,13.07528 -1.71892,0.61965 -1.99074,0.65837 -2.0976,0.69137 -0.10639,0.0328 -1.23399,-12.82548 -1.38156,-13.30339 z"
           fill="#50392d"
           stroke="#331d10"
           id="path23" /></g><g
         stroke-linecap="butt"
         id="g28"><path
           d="m 249.65251,188.97605 v -1.38779 c 0,-0.12194 0.0545,-0.25212 0.14342,-0.25212 h 24.92889 c 0.10038,0 0.15296,0.15333 0.15296,0.29068 v 1.46489 c 0,0.155 -0.0595,0.25674 -0.17288,0.25674 h -24.90896 c -0.0889,0 -0.14342,-0.15396 -0.14342,-0.3724 z"
           fill="#493429"
           stroke="none"
           id="path25"
           sodipodi:nodetypes="cssssssssc" /><path
           d="m 249.61584,189.04978 c 0,-0.40647 0,-1.05971 0,-1.25586 0,-0.11034 0.0125,-0.22815 0.033,-0.22815 0.25762,0 5.26311,0 5.73211,0 0.0103,0 2.73617,1.00256 2.73617,1.00256 0,0 -2.72631,0.81844 -2.74075,0.81844 -0.49598,0 -5.47073,0 -5.72753,0 -0.0204,0 -0.033,-0.13932 -0.033,-0.33699 z"
           fill="#675044"
           stroke="none"
           id="path26" /><path
           d="m 274.74944,187.09511 c -0.59161,0 -15.42707,0 -16.56968,0 -0.022,0 -1.58433,-0.65305 -2.44751,-1.21151 -0.16896,-0.10931 -0.3487,-0.27974 -0.39337,-0.40117 -0.0732,-0.19908 0.076,-0.3368 0.18947,-0.37852 0.53767,-0.1977 4.2873,-0.22256 8.34037,-0.18785 4.40605,0.0377 9.1707,0.14585 10.55748,0.17885 0.25811,0.006 0.3992,0.15071 0.3992,0.34302 0,0.27656 0,0.65916 0,0.88087 0,0.45539 -0.0289,0.77633 -0.076,0.77633 z"
           data-paper-data="{&quot;index&quot;:null}"
           fill="#806455"
           stroke="none"
           id="path27" /><path
           d="m 274.81255,189.17844 c -0.0706,0 -0.498,0.16666 -1.09092,0.16666 -1.56322,0 -4.27702,0 -4.63662,0 -0.0145,0 -2.74075,-0.81844 -2.74075,-0.81844 0,0 2.72589,-1.00256 2.73617,-1.00256 0.33745,0 3.02333,0 4.59952,0 0.61449,0 1.06032,-0.16667 1.13259,-0.16667 0.0204,0 0.033,0.11781 0.033,0.22815 0,0.19615 0,0.84939 0,1.25586 0,0.19768 -0.0125,0.33699 -0.033,0.33699 z"
           data-paper-data="{&quot;index&quot;:null}"
           fill="#675044"
           stroke="none"
           id="path28" /></g></g><g
       id="g57"><path
         d="m 244.17277,182.73583 c 0,0 0.32774,0.0211 0.97899,0.13065 0.64057,0.10778 0.37808,0.21467 1.01,0.21467 7.9863,0 67.43243,0 74.0711,0 0.40272,0 0.61547,0.26291 0.61547,0.44913 0,0.12232 0,0.46493 0,0.68318 0,0.38455 -0.26986,0.53218 -0.78038,0.53218 -7.39092,0 -66.1042,0 -73.94908,0 -0.72422,0 -0.41594,0.1166 -0.94583,0.17994 -0.52989,0.0633 -1.03987,0.1306 -1.03987,0.1306 z"
         fill="#474747"
         stroke="none"
         stroke-width="0"
         stroke-linecap="butt"
         id="path29" /><path
         d="m 243.80005,188.40531 v -2.58333 h 31.61858 v 2.58333 z"
         fill="none"
         stroke="#333333"
         stroke-width="0.5"
         stroke-linecap="butt"
         id="path30" /><g
         stroke-linecap="butt"
         id="g36"><g
           stroke="#333333"
           stroke-width="0.5"
           id="g32"><path
             d="m 275.43137,188.00429 v -1.92755 c 0,-0.16936 0.005,-0.35019 0.014,-0.35019 h 1.40047 c 0.01,0 1.04053,0.21297 1.04053,0.40373 v 2.03464 c 0,0.21528 -1.03144,0.35659 -1.04247,0.35659 h -1.39853 c -0.009,0 -0.014,-0.21383 -0.014,-0.51723 z"
             fill="#3f3f3f"
             id="path31"
             style="stroke-width:1.38977;stroke-dasharray:none"
             sodipodi:nodetypes="cssssssssc" /><path
             d="m 276.55861,185.72655 c 0.20051,0 0.37951,0 0.44485,0 0.004,0 0.20523,0.0483 0.41501,0.11947 0.23079,0.0783 0.23327,2.52313 0.003,2.58561 -0.21141,0.0574 -0.4155,0.0899 -0.42,0.0899 -0.0846,0 -0.24028,0 -0.49055,0 -0.27903,0 -0.27137,-2.79496 0.0473,-2.79496 z"
             fill="#383838"
             id="path32" /></g><g
           id="g35"><path
             d="m 243.80005,188.40531 v -2.58333 h 31.61858 v 2.58333 z"
             fill="#474747"
             stroke="#333333"
             stroke-width="0.5"
             id="path33"
             style="stroke-width:1.38977;stroke-dasharray:none"
             sodipodi:nodetypes="ccccc" /><path
             d="m 274.97333,187.60531 c 0,0.42754 -0.10874,0.59168 -0.31445,0.59168 -2.97809,0 -30.59714,0.0401 -30.59714,0.0401 0,0 0.004,-0.2913 0.006,-0.65229 6.4e-4,-0.10454 30.90567,-0.0472 30.90567,0.0206 z"
             fill="#3b3b3b"
             stroke="none"
             stroke-width="0"
             id="path34" /><path
             d="m 244.09641,186.81712 c -0.002,-0.36099 -0.006,-0.65229 -0.006,-0.65229 0,0 27.59335,0.0401 30.56868,0.0401 0.20552,0 0.31416,0.16414 0.31416,0.59168 0,0.0677 -30.87627,0.1251 -30.87691,0.0206 z"
             data-paper-data="{&quot;index&quot;:null}"
             fill="#626262"
             stroke="none"
             stroke-width="0"
             id="path35" /></g></g><g
         id="g44"><path
           d="m 223.53067,188.46791 c 0.44808,0 1.51729,0 1.51729,0 0,0 -0.34746,0.30894 -0.51713,0.74515 -0.14267,0.3668 -0.19711,0.58976 -0.24896,0.7461 -0.0492,0.14828 -0.10075,0.35009 -0.0578,0.5608 0.0575,0.28186 0.37277,0.62663 0.27289,0.71897 -0.13883,0.12835 -0.48854,-0.26349 -0.63817,-0.59662 -0.1438,-0.32014 -0.32122,-0.50937 -0.37687,-0.87812 -0.0557,-0.36876 -0.22588,-1.29627 0.0487,-1.29627 z"
           fill="#474747"
           stroke="#333333"
           stroke-width="0.5"
           stroke-linecap="butt"
           id="path36" /><path
           d="m 222.6867,188.67333 c 1.57437,0 9.60778,0 9.60778,0 0,0 -1.7214,0.48246 -2.09157,0.86186 -0.45181,0.46308 -1.04336,1.24431 -1.75686,1.71594 -0.71348,0.47163 -1.33212,0.49468 -2.2417,0.61869 -0.9096,0.12401 -1.73072,0.16411 -2.29638,0 -0.71697,-0.20801 -0.80893,-0.2694 -1.19621,-0.67022 -0.25519,-0.26412 -0.32013,-0.80314 -0.52944,-1.34047 -0.20933,-0.53731 -0.51606,-1.05245 -0.51606,-1.05245 0,0 0.50736,-0.13335 1.02044,-0.13335 z m 2.3641,3.29677 c 4.40551,-0.0738 2.92149,-2.84155 2.92149,-2.84155 l -5.25254,-0.007 c 0,0 -0.56106,1.22841 -0.34506,1.56901 0.52465,0.82727 1.73135,1.29561 2.67612,1.2798 z"
           fill="#393939"
           stroke="#333333"
           stroke-width="0.5"
           stroke-linecap="round"
           id="path37" /><g
           id="g43"><path
             style="mix-blend-mode:normal;opacity:1;baseline-shift:baseline;display:inline;overflow:visible;vector-effect:none;fill:#626262;stroke-linecap:round;paint-order:fill markers stroke;enable-background:accumulate;stop-color:#000000;stop-opacity:1"
             d="m 226.51419,181.70523 h 16.58334 c 0.49278,0 0.76961,0.35105 0.76961,0.70007 v 5.25 c 0,0.54765 -0.18843,0.90707 -0.51961,0.90707 h -2.18197 c -1.14073,0 -1.29808,-0.22222 -3.88889,-0.22222 -2.47868,0 -3.16477,0.22222 -4.33333,0.22222 h -9.51248 c -0.35789,0 -0.66363,-0.29977 -0.81279,-0.74724 -0.37298,-1.11895 -1.05383,-3.16151 -1.25,-3.75 -0.10405,-0.31214 0.081,-0.78291 0.49256,-0.96328 0.55105,-0.24149 1.30897,-0.5602 1.83986,-0.72995 0,0 2.45215,-0.66667 2.8137,-0.66667 z"
             id="path59"
             transform="translate(-2.3741975e-6)" /><path
             d="m 243.58714,187.3753 c 0,0 0.0644,0.34209 0.0343,0.48145 -0.0736,0.34066 -0.23382,0.54562 -0.46469,0.54562 -0.46839,0 -1.22745,0 -2.14323,0 -1.12047,0 -1.27504,-0.25162 -3.81984,-0.25162 -2.43467,0 -3.10858,0.25162 -4.25638,0.25162 -2.77355,0 -7.69701,0 -9.34358,0 -0.26125,0 -0.49421,-0.18746 -0.65678,-0.49172 -0.0562,-0.10515 -0.14395,-0.31483 -0.18158,-0.44496 -0.0261,-0.0903 20.83177,-0.0904 20.83177,-0.0904 z"
             fill="#393939"
             stroke="none"
             stroke-width="0"
             stroke-linecap="round"
             id="path39" /><path
             d="m 223.95927,183.82356 c 1.81116,-0.35625 2.38179,-0.39834 2.73297,-0.39834 5.51385,0 13.62699,0 16.10738,0 0.47863,0 0.74752,0.20975 0.74752,0.41829 0,0.45463 0,2.22882 0,3.13687 0,0.32722 -0.18302,0.54198 -0.50469,0.54198 -0.46317,0 -1.21378,0 -2.11935,0 -1.10799,0 -1.26083,-0.13277 -3.77728,-0.13277 -2.40754,0 -3.07394,0.13277 -4.20896,0.13277 -0.11704,0 -10.13421,0 -10.13421,0 l -0.91458,-2.6871 c 0,0 1.55557,-0.91028 2.07122,-1.01171 z"
             fill="#474747"
             stroke="none"
             stroke-width="0"
             stroke-linecap="round"
             id="path40" /><path
             d="m 233.66085,184.11227 c 0,-0.89982 0.66499,-1.3776 0.68943,-1.3776 0.30803,0 6.29299,0 6.85376,0 0.0276,0 0.7921,0.42242 0.74205,1.3776 -0.05,0.95438 -0.71637,1.35283 -0.74753,1.35283 -0.59304,0 -6.54123,0 -6.84828,0 -0.0244,0 -0.68943,-0.29549 -0.68943,-1.35283 z"
             fill="#6b6b6b"
             stroke="#333333"
             stroke-width="0.5"
             stroke-linecap="butt"
             id="path41" /><path
             d="m 233.81504,184.19561 h 8.05"
             fill="none"
             stroke="#333333"
             stroke-width="0.5"
             stroke-linecap="round"
             id="path42" /><path
             d="m 241.86504,183.5456 h -1.35"
             fill="none"
             stroke="#333333"
             stroke-width="0.5"
             stroke-linecap="round"
             id="path43" /><path
             style="mix-blend-mode:normal;opacity:1;baseline-shift:baseline;display:inline;overflow:visible;vector-effect:none;fill:#333333;stroke-linecap:round;paint-order:fill markers stroke;enable-background:accumulate;stop-color:#000000;stop-opacity:1"
             d="m 226.51367,181.00977 c -0.30394,0 -0.44987,0.056 -0.74219,0.12109 -0.29231,0.0651 -0.63791,0.15011 -0.9707,0.23437 -0.66557,0.16853 -1.2832,0.33594 -1.2832,0.33594 l -0.0137,0.004 -0.0156,0.006 c -0.58847,0.18816 -1.34652,0.50861 -1.90625,0.7539 -0.74856,0.32807 -1.12155,1.07483 -0.87305,1.82032 0.19617,0.58847 0.87702,2.63105 1.25,3.75 0.20981,0.62939 0.72675,1.22265 1.47266,1.22265 h 9.51172 c 1.25665,0 1.89684,-0.22265 4.33398,-0.22265 2.55108,0 2.6577,0.22265 3.88868,0.22265 h 2.18164 c 0.41697,0 0.81505,-0.29212 0.99023,-0.60547 0.17518,-0.31334 0.22461,-0.64257 0.22461,-0.99609 v -5.25 c 0,-0.71646 -0.64205,-1.39648 -1.46484,-1.39648 z m 0,1.39062 h 16.58399 c 0.16276,0 0.0742,0.0243 0.0742,0.006 v 5.25 c 0,0.12864 -0.0173,0.15908 -0.0312,0.21094 h -1.9746 c -1.05049,0 -1.25813,-0.22266 -3.88868,-0.22266 -2.52021,0 -3.25352,0.22266 -4.33398,0.22266 h -9.51172 c 0.0301,0 -0.0658,-0.006 -0.1543,-0.27149 -0.37298,-1.11895 -1.05382,-3.16149 -1.25,-3.75 0.0404,0.1212 0.0368,-0.0747 0.11133,-0.10742 0.53763,-0.23561 1.28377,-0.54638 1.75781,-0.69922 0.0131,-0.004 0.60231,-0.16316 1.2461,-0.32617 0.32545,-0.0824 0.66053,-0.16469 0.92969,-0.22461 0.26915,-0.0599 0.56457,-0.0879 0.4414,-0.0879 z"
             id="path60"
             transform="translate(-2.3741975e-6)" /></g></g><g
         stroke-linecap="butt"
         id="g46"><path
           d="m 243.80955,182.33934 c 0,0 0.79063,0.0283 1.44883,0.17529 0.6474,0.14461 1.11714,0.28804 1.7558,0.28804 h 73.66666 c 0.40702,0 0.62203,0.35276 0.62203,0.60262 v 0.91666 c 0,0.51597 -0.27273,0.71405 -0.7887,0.71405 h -73.54334 c -0.73195,0 -1.15541,0.15646 -1.69095,0.24143 -0.53554,0.085 -1.51035,0.17524 -1.51035,0.17524 z"
           fill="#474747"
           stroke="#333333"
           stroke-width="0.5"
           id="path44"
           sodipodi:nodetypes="ccssssssccc"
           style="stroke-width:1.38977418;stroke-dasharray:none" /><path
           d="m 320.84833,184.28489 c 0,0.38455 -0.27011,0.53218 -0.78111,0.53218 -7.39779,0 -65.8086,0 -73.66079,0 -0.7249,0 -0.77347,0.18803 -1.30385,0.25136 -0.53038,0.0633 -1.04084,0.13061 -1.04084,0.13061 0,0 0.009,-0.60795 0.0147,-0.93264 0.002,-0.094 76.77187,-0.0424 76.77187,0.0185 z"
           fill="#3b3b3b"
           stroke="none"
           stroke-width="0"
           id="path45" /><path
           d="m 244.14787,183.57595 c -0.006,-0.32469 -0.0147,-0.93264 -0.0147,-0.93264 0,0 0.50998,0.0673 1.03987,0.13061 0.52989,0.0633 0.50732,0.25137 1.23155,0.25137 7.84489,0 66.27245,0 73.66337,0 0.51052,0 0.78038,0.14763 0.78038,0.53218 0,0.0609 -76.69886,0.11252 -76.70046,0.0185 z"
           data-paper-data="{&quot;index&quot;:null}"
           fill="#626262"
           stroke="none"
           stroke-width="0"
           id="path46" /></g><g
         stroke-linecap="butt"
         id="g51"><path
           d="m 183.82563,188.57758 c -0.0534,-0.52438 5.99275,-0.68623 9.93747,-1.1196 3.94472,-0.43337 9.85247,-1.59947 16.37634,-1.77128 0.11029,-0.003 0.9988,0.49434 2.12941,0.67115 0.36109,0.0565 1.5358,-0.0219 2.73173,-0.45158 1.48333,-0.53294 3.09927,-1.14929 3.13586,-1.16577 1.10415,-0.49731 2.78066,-1.02352 3.09945,-1.12196 0.12015,-0.0371 0.28667,0.27893 0.37946,0.57942 0.16466,0.53325 0.81672,2.74625 1.09871,3.65949 0.10471,0.33911 0.10216,0.58371 -0.0335,0.6256 -0.46725,0.14427 -1.39808,-0.0302 -3.10873,0.498 -1.11228,0.34345 -2.88347,0.81997 -5.77647,4.0378 -0.28799,0.32034 -0.66186,1.80971 -0.84015,2.57836 -0.0645,0.27803 -0.25515,0.36738 -0.39409,0.377 -0.78096,0.0541 -2.8847,-1.08379 -4.74563,-0.94231 -0.25894,0.0197 0.11339,-0.37771 -0.62541,-0.80693 -0.3559,-0.20676 -21.50639,7.50886 -21.98289,7.65599 -0.10639,0.0329 -1.23399,-12.82548 -1.38156,-13.30339 z"
           fill="#6d5548"
           stroke="#331d10"
           stroke-width="0.5"
           id="path47"
           style="stroke-width:1.38977;stroke-dasharray:none"
           sodipodi:nodetypes="csccssssscccccccccc" /><path
           d="m 219.21645,188.87393 c -0.7626,0.23547 -1.84841,0.53622 -3.41989,1.81761 -0.625,0.50962 -1.3268,1.17436 -2.11566,2.05178 -0.27598,0.30697 -0.63425,1.73424 -0.80511,2.47083 -0.0618,0.26644 -0.24451,0.35206 -0.37766,0.36128 -0.74839,0.0519 -2.76439,-1.03858 -4.54771,-0.90301 -0.24814,0.0189 0.10866,-0.36195 -0.59932,-0.77327 -0.34105,-0.19814 -20.60944,7.19568 -21.06606,7.33668 -0.0532,0.0164 -0.37259,-3.32797 -0.68612,-6.59671 -0.1636,-1.70568 11.26988,-3.50037 20.85629,-4.63754 1.24689,-0.14791 2.58753,0.71531 3.74234,0.59128 1.91463,-0.20562 3.53704,-1.37615 4.98242,-1.5041 2.76174,-0.24448 4.42075,-0.3335 4.03647,-0.21484 z"
           fill="#5c473d"
           stroke="none"
           stroke-width="0"
           id="path48" /><path
           d="m 186.1803,194.92852 -0.37197,-3.19269 c 0,0 16.09367,-2.08928 19.40827,-2.47545 1.14155,-0.13299 4.65918,1.01752 4.65918,1.01752 l -2.12803,1.26412 c 0,0 -0.27443,-0.81938 -2.00221,-0.54808 -3.74325,0.58776 -19.56523,3.93458 -19.56523,3.93458 z"
           fill="#522c18"
           stroke="none"
           stroke-width="0"
           id="path49" /><path
           d="m 206.99129,192.30705 c 0.42367,-0.27452 2.28585,-1.48113 3.20463,-2.07646 0.31288,-0.20273 0.26561,-0.34492 0.11505,-0.35113 -0.19377,-0.008 -0.61044,-0.0521 -0.25197,-0.23002 0.94395,-0.46866 2.91831,-1.46121 3.48309,-1.8264 1.33059,-0.86037 4.04147,-1.98985 5.14701,-2.43629 0.3033,-0.12248 0.25145,0.13318 0.0859,0.36405 -0.16716,0.23308 -0.53595,0.74733 -0.79452,1.10788 -0.16117,0.22474 -0.089,0.41796 0.0812,0.44317 0.29082,0.0431 1.22443,0.18133 1.74948,0.2591 0.21941,0.0325 0.24534,0.15416 0.0872,0.28332 -0.36806,0.30054 -2.9255,1.50349 -4.85672,3.08046 -1.64954,1.34695 -2.67319,3.06817 -3.34537,3.61704 -0.20125,0.16433 -0.53967,0.18653 -0.7258,0.128 -0.28447,-0.0894 -1.11861,-0.35175 -1.56248,-0.49133 -0.17208,-0.0541 -0.3511,-0.27581 -0.4503,-0.50799 -0.1469,-0.34384 -0.36748,-0.78889 -0.55775,-0.88081 -0.32186,-0.15549 -0.77773,-0.2223 -1.14165,-0.25059 -0.33691,-0.0262 -0.43556,-0.12269 -0.26692,-0.23197 z"
           fill="#493429"
           stroke="none"
           stroke-width="0"
           id="path50" /><path
           d="m 183.82563,188.57758 c -0.0197,-0.19299 0.78684,-0.33687 2.01071,-0.46326 0.14631,-0.0151 1.98341,12.88965 1.46846,13.07528 -1.71892,0.61965 -1.99074,0.65837 -2.0976,0.69137 -0.10639,0.0328 -1.23399,-12.82548 -1.38156,-13.30339 z"
           fill="#50392d"
           stroke="#331d10"
           stroke-width="0.5"
           id="path51"
           style="stroke-width:1.38977;stroke-dasharray:none"
           sodipodi:nodetypes="cccccc" /></g><g
         stroke-linecap="butt"
         id="g56"><path
           style="mix-blend-mode:normal;opacity:1;baseline-shift:baseline;display:inline;overflow:visible;vector-effect:none;fill:#522c18;enable-background:accumulate;stop-color:#000000;stop-opacity:1"
           d="m 249.41084,188.58793 v -2.40357 c 0,-0.31997 0.0555,-0.66159 0.14612,-0.66159 h 2.49293 c 0.82201,0 2.35202,-1.23809 3.23809,-1.23809 h 19.66728 c 0.10227,0 0.15584,0.40234 0.15584,0.76274 v 3.84399 c 0,0.40672 -0.0607,0.6737 -0.17613,0.6737 h -25.37801 c -0.0906,0 -0.14612,-0.40398 -0.14612,-0.97718 z"
           id="path24"
           transform="translate(-2.3741975e-6)" /><path
           d="m 249.65251,188.97605 c 0,-0.44917 0,-1.17104 0,-1.38779 0,-0.12194 0.0545,-0.25212 0.14342,-0.25212 1.12038,0 22.88922,0 24.92889,0 0.10038,0 0.15296,0.15333 0.15296,0.29068 0,0.24373 0,1.04747 0,1.46489 0,0.155 -0.0595,0.25674 -0.17288,0.25674 -2.15703,0 -23.79212,0 -24.90896,0 -0.0889,0 -0.14342,-0.15396 -0.14342,-0.3724 z"
           fill="#493429"
           stroke="none"
           stroke-width="0"
           id="path53" /><path
           d="m 249.61584,189.04978 c 0,-0.40647 0,-1.05971 0,-1.25586 0,-0.11034 0.0125,-0.22815 0.033,-0.22815 0.25762,0 5.26311,0 5.73211,0 0.0103,0 2.73617,1.00256 2.73617,1.00256 0,0 -2.72631,0.81844 -2.74075,0.81844 -0.49598,0 -5.47073,0 -5.72753,0 -0.0204,0 -0.033,-0.13932 -0.033,-0.33699 z"
           fill="#675044"
           stroke="none"
           stroke-width="0"
           id="path54" /><path
           d="m 274.74944,187.09511 c -0.59161,0 -15.42707,0 -16.56968,0 -0.022,0 -1.58433,-0.65305 -2.44751,-1.21151 -0.16896,-0.10931 -0.3487,-0.27974 -0.39337,-0.40117 -0.0732,-0.19908 0.076,-0.3368 0.18947,-0.37852 0.53767,-0.1977 4.2873,-0.22256 8.34037,-0.18785 4.40605,0.0377 9.1707,0.14585 10.55748,0.17885 0.25811,0.006 0.3992,0.15071 0.3992,0.34302 0,0.27656 0,0.65916 0,0.88087 0,0.45539 -0.0289,0.77633 -0.076,0.77633 z"
           data-paper-data="{&quot;index&quot;:null}"
           fill="#806455"
           stroke="none"
           stroke-width="0"
           id="path55" /><path
           d="m 274.81255,189.17844 c -0.0706,0 -0.498,0.16666 -1.09092,0.16666 -1.56322,0 -4.27702,0 -4.63662,0 -0.0145,0 -2.74075,-0.81844 -2.74075,-0.81844 0,0 2.72589,-1.00256 2.73617,-1.00256 0.33745,0 3.02333,0 4.59952,0 0.61449,0 1.06032,-0.16667 1.13259,-0.16667 0.0204,0 0.033,0.11781 0.033,0.22815 0,0.19615 0,0.84939 0,1.25586 0,0.19768 -0.0125,0.33699 -0.033,0.33699 z"
           data-paper-data="{&quot;index&quot;:null}"
           fill="#675044"
           stroke="none"
           stroke-width="0"
           id="path56" /><path
           style="mix-blend-mode:normal;opacity:1;baseline-shift:baseline;display:inline;overflow:visible;vector-effect:none;fill:#331d10;enable-background:accumulate;stop-color:#000000;stop-opacity:1"
           d="m 255.28711,183.58984 c -0.76669,0 -1.36462,0.38657 -1.96289,0.69727 -0.59827,0.3107 -1.21131,0.54101 -1.27344,0.54101 h -2.49414 c -0.22963,10e-6 -0.42094,0.11838 -0.51758,0.2129 -0.0966,0.0945 -0.13665,0.17172 -0.16797,0.23632 -0.0626,0.12921 -0.0822,0.22195 -0.10156,0.31836 -0.0387,0.19282 -0.0527,0.38773 -0.0527,0.58789 v 2.4043 c 0,0.30904 0.0114,0.57541 0.0449,0.80469 0.0167,0.11464 0.0347,0.21593 0.0859,0.34961 0.0256,0.0668 0.0554,0.14363 0.14453,0.25 0.0891,0.10637 0.29492,0.26758 0.56445,0.26758 h 25.37891 c 0.29672,0 0.54432,-0.20225 0.64453,-0.34571 0.10021,-0.14346 0.13304,-0.25557 0.16015,-0.36328 0.0542,-0.21541 0.0664,-0.42223 0.0664,-0.66016 v -3.84375 c 0,-0.21462 -0.0132,-0.4297 -0.0508,-0.63867 -0.0188,-0.10448 -0.0392,-0.20493 -0.0996,-0.33984 -0.0302,-0.0675 -0.0676,-0.14767 -0.16406,-0.24805 -0.0965,-0.10037 -0.29652,-0.23047 -0.53711,-0.23047 z m 0,1.39063 h 19.12305 c 7.3e-4,0.0253 0.006,0.0417 0.006,0.0664 v 3.82422 h -24.29493 c -0.005,-0.099 -0.0156,-0.15922 -0.0156,-0.2832 v -2.37109 h 1.94531 c 0.75988,0 1.32031,-0.38892 1.91406,-0.69727 0.59376,-0.30835 1.20288,-0.53906 1.32227,-0.53906 z"
           id="path57"
           transform="translate(-2.3741975e-6)" /></g></g></g></svg>
