<?xml version="1.0" encoding="UTF-8" standalone="no"?>
<svg
   version="1.1"
   width="168.94957"
   height="75.175453"
   viewBox="0 0 168.94957 75.175454"
   id="svg90"
   sodipodi:docname="mp5.svg"
   inkscape:version="1.4.2 (f4327f4, 2025-05-13)"
   xmlns:inkscape="http://www.inkscape.org/namespaces/inkscape"
   xmlns:sodipodi="http://sodipodi.sourceforge.net/DTD/sodipodi-0.dtd"
   xmlns="http://www.w3.org/2000/svg"
   xmlns:svg="http://www.w3.org/2000/svg">
  <defs
     id="defs90" />
  <sodipodi:namedview
     id="namedview90"
     pagecolor="#ffffff"
     bordercolor="#000000"
     borderopacity="0.25"
     inkscape:showpageshadow="2"
     inkscape:pageopacity="0.0"
     inkscape:pagecheckerboard="0"
     inkscape:deskcolor="#d1d1d1"
     inkscape:zoom="2.0969879"
     inkscape:cx="169.52888"
     inkscape:cy="99.905202"
     inkscape:window-width="1920"
     inkscape:window-height="1009"
     inkscape:window-x="-8"
     inkscape:window-y="-8"
     inkscape:window-maximized="1"
     inkscape:current-layer="svg90" />
  <g
     transform="matrix(0.41374673,0,0,0.41374673,-17.033386,-52.828655)"
     id="g90">
    <g
       data-paper-data="{&quot;isPaintingLayer&quot;:true}"
       fill-rule="nonzero"
       stroke-linejoin="miter"
       stroke-miterlimit="10"
       stroke-dasharray="none"
       stroke-dashoffset="0"
       style="mix-blend-mode:normal"
       id="g89">
      <g
         stroke="#323232"
         stroke-width="0"
         stroke-linecap="butt"
         id="g7">
        <g
           id="g2">
          <path
             d="m 50.84958,178.09158 v -10.0148 H 183.7126 v 10.0148 z"
             fill="#323232"
             id="path1" />
          <path
             d="m 50.84957,175.08713 v -5.0074 h 132.86302 v 5.67506 z"
             fill="#7e7e7e"
             id="path2" />
        </g>
        <g
           id="g6">
          <path
             d="M 58.52762,242.16076 41.16863,165.38063 c 0,0 14.56096,-21.46619 15.73225,-21.87209 1.28837,-0.44647 12.12851,-4.17169 17.2938,0.1809 5.16529,4.35259 13.37586,24.02796 13.37586,24.02796 0,0 -16.1307,3.23048 -18.17364,16.83061 -1.82769,12.16721 4.48676,57.27891 4.48676,57.27891 z"
             fill="#323232"
             id="path3" />
          <path
             d="M 60.94531,237.32027 44.6018,167.05203 c 0,0 11.72054,-19.88621 13.29921,-20.49255 1.08911,-0.41831 10.25281,-3.90857 14.61927,0.16949 4.36647,4.07805 9.61405,19.07196 9.61405,19.07196 0,0 -13.46188,3.36587 -15.7348,16.32502 -1.7965,10.24275 3.1872,55.21537 3.1872,55.21537 z"
             fill="#898989"
             id="path4" />
          <path
             d="m 58.52762,242.16076 -9.68098,-76.78013 c 0,0 4.27575,-20.5627 8.05424,-21.87207 1.28837,-0.44647 -1.85379,13.24438 -1.71152,21.87207 0.14227,8.62771 3.33827,76.78013 3.33827,76.78013 z"
             fill="#323232"
             id="path5" />
          <path
             d="M 60.94531,237.32027 44.6018,167.05203 c 0,0 11.72054,-19.88621 13.29921,-20.49255 0.33468,-0.12854 1.43186,-0.54718 2.91802,-0.94714 -1.47396,1.4305 -2.99996,2.86325 -3.82459,4.47856 -1.22733,2.40412 -1.8168,5.60332 -3.06715,8.14714 -1.41965,8.25432 -3.50513,16.03703 -1.01189,24.38652 1.81699,8.18953 3.35127,16.71588 7.05611,24.1573 1.13199,2.25135 1.8733,4.57751 2.65123,6.96766 l 0.03161,0.0366 -0.01223,0.006 0.32777,0.65554 c 0.10022,0.2114 0.31557,0.3576 0.56507,0.35761 0.34518,0 0.625,-0.27982 0.625,-0.625 0,-0.10496 -0.02588,-0.2039 -0.07161,-0.29076 l -0.31241,-0.62481 c -0.0086,-0.0267 -0.01726,-0.0535 -0.02589,-0.0802 0.28635,-3.56158 -0.5085,-7.23167 0.06489,-10.73369 0.55764,-3.40582 0.88061,-7.07759 0.98301,-10.59664 0.05228,-2.4277 0.47873,-4.83859 1.31345,-6.98684 -0.81271,13.77922 3.4753,52.47385 3.4753,52.47385 z"
             fill="#434343"
             id="path6" />
        </g>
      </g>
      <path
         d=""
         fill="#d99e82"
         stroke="#000000"
         stroke-width="0"
         stroke-linecap="butt"
         id="path7" />
      <path
         d=""
         fill="#fcb1e3"
         stroke="#000000"
         stroke-width="0"
         stroke-linecap="butt"
         id="path8" />
      <path
         d=""
         fill="#ffd983"
         stroke="#000000"
         stroke-width="0"
         stroke-linecap="butt"
         id="path9" />
      <path
         d=""
         fill="#a6d388"
         stroke="#000000"
         stroke-width="0"
         stroke-linecap="butt"
         id="path10" />
      <path
         d=""
         fill="#000000"
         stroke="#000000"
         stroke-width="1.5"
         stroke-linecap="butt"
         id="path11" />
      <path
         d=""
         fill="#000000"
         stroke="#000000"
         stroke-width="0"
         stroke-linecap="butt"
         id="path12" />
      <path
         d=""
         fill="#000000"
         stroke="#000000"
         stroke-width="1.5"
         stroke-linecap="butt"
         id="path13" />
      <g
         stroke="#323232"
         stroke-width="0"
         stroke-linecap="butt"
         id="g15">
        <path
           d="m 279.86135,309.37793 c 0,0 -21.64429,-16.70287 -32.92846,-62.74681 -11.28416,-46.04394 -8.37177,-68.73311 -8.37177,-68.73311 h 29.53272 c 0,0 -1.67545,23.29472 7.38548,63.57017 9.06093,40.27545 26.57277,55.56187 26.57277,55.56187 z"
           fill="#323232"
           id="path14" />
        <path
           d="M 267.96402,241.62371 C 257.0137,197.91656 257.16192,177.898 257.16192,177.898 h 5.0074 c 0,0 -1.42592,24.63003 7.63501,64.90548 9.06093,40.27545 28.71209,53.67412 28.71209,53.67412 l -15.7306,8.41988 11.57861,-8.15018 c 0,0 -15.11625,-9.07965 -26.4004,-55.12359 z"
           fill="#434343"
           id="path15" />
      </g>
      <g
         stroke="#323232"
         stroke-width="0"
         stroke-linecap="butt"
         id="g24">
        <path
           d="m 165.95458,140.78908 c 0,0 -1.42238,-1.02502 -2.17122,-1.77385 -0.99042,-0.99042 -3.25184,-3.64921 -3.25184,-3.64921 l 7.68246,-7.68246 3.41196,2.88214 2.0111,2.54092 z"
           fill="#323232"
           id="path21" />
        <path
           d="m 166.23278,139.17562 c 0,0 -1.07215,-0.77263 -1.63662,-1.33709 -0.74655,-0.74655 -2.45116,-2.75069 -2.45116,-2.75069 l 5.79086,-5.79086 2.57185,2.17249 1.51592,1.91528 z"
           fill="#7e7e7e"
           id="path22" />
        <path
           d="m 152.28271,143.14517 c 0,0 -0.48457,-2.00785 -0.48457,-3.23654 0,-1.62509 0.48457,-5.66163 0.48457,-5.66163 h 18.73674 l 0.64608,5.1637 -0.64609,3.73448 z"
           fill="#323232"
           id="path23" />
        <path
           d="m 153.66552,141.63259 c 0,0 -0.41366,-1.32523 -0.41366,-2.1362 0,-1.0726 0.41366,-3.73683 0.41366,-3.73683 h 15.99478 l 0.55154,3.40818 -0.55154,2.46486 z"
           fill="#898989"
           id="path24" />
      </g>
      <path
         d="m 131.27635,189.45532 c 0,0 -3.2878,-8.33723 -3.2878,-12.82069 0,-5.16383 3.2878,-16.41048 3.2878,-16.41048 0,0 -2.02327,-7.28175 -2.02327,-10.51296 0,-2.76398 2.02327,-7.69241 2.02327,-7.69241 h 141.12226 c 0,0 -3.49673,8.93313 -3.0349,22.13706 0.63099,18.03992 3.03489,25.2995 3.03489,25.2995 z"
         fill="#323232"
         stroke="#323232"
         stroke-width="0"
         stroke-linecap="butt"
         id="path25" />
      <path
         d="m 135.15814,186.12919 c 0,0 -3.10261,-7.16805 -3.10261,-11.02277 0,-4.43967 3.10261,-14.10915 3.10261,-14.10915 0,0 -1.90929,-6.26059 -1.90929,-9.03867 0,-2.37637 1.9093,-6.61365 1.9093,-6.61365 h 133.17344 c 0,0 -3.29978,7.68039 -2.86395,19.03265 0.59546,15.51008 2.86395,21.7516 2.86395,21.7516 z"
         fill="#898989"
         stroke="#323232"
         stroke-width="0"
         stroke-linecap="butt"
         id="path26" />
      <path
         d="m 135.15818,186.12919 c 0,0 -3.35289,-7.16805 -3.3529,-11.02277 0,-0.7617 0.49292,-2.67169 0.49292,-2.67169 l 133.76951,-0.0931 2.2639,13.78754 z"
         fill="#434343"
         stroke="#323232"
         stroke-width="0"
         stroke-linecap="butt"
         id="path27" />
      <path
         d="m 130.53122,174.46901 2.82731,-4.25472 h 92.80233 l -2.82731,4.25472 z"
         fill="#323232"
         stroke="#323232"
         stroke-width="0"
         stroke-linecap="butt"
         id="path28" />
      <path
         d="m 166.50866,179.2354 1.76261,-9.02112 h 57.85525 c 0,0 0.14316,3.1101 -0.1545,4.63354 -0.28965,1.48247 -1.60811,4.38758 -1.60811,4.38758 z"
         fill="#323232"
         stroke="#323232"
         stroke-width="0"
         stroke-linecap="butt"
         id="path29" />
      <path
         d="m 131.70279,172.71705 0.72774,-2.50278 h 93.79216 l 0.0234,2.25264 z"
         fill="#434343"
         stroke="#323232"
         stroke-width="0"
         stroke-linecap="butt"
         id="path30" />
      <path
         d="m 257.1716,179.98347 c 0,-1.65869 1.34464,-3.00333 3.00333,-3.00333 1.65869,0 3.00333,1.34464 3.00333,3.00333 0,1.65869 -1.34464,3.00333 -3.00333,3.00333 -1.65869,0 -3.00333,-1.34464 -3.00333,-3.00333 z"
         fill="#323232"
         stroke="#323232"
         stroke-width="0"
         stroke-linecap="butt"
         id="path31" />
      <path
         d="m 253.41742,164.96682 c 0,-1.65869 1.34463,-3.00333 3.00333,-3.00333 1.6587,0 3.00332,1.34464 3.00332,3.00333 0,1.65869 -1.34463,3.00333 -3.00332,3.00333 -1.6587,0 -3.00333,-1.34464 -3.00333,-3.00333 z"
         fill="#434343"
         stroke="#323232"
         stroke-width="0"
         stroke-linecap="butt"
         id="path32" />
      <path
         d="m 257.1716,149.95018 c 0,-1.65869 1.34463,-3.00333 3.00333,-3.00333 1.6587,0 3.00333,1.34464 3.00333,3.00333 0,1.65869 -1.34463,3.00333 -3.00333,3.00333 -1.6587,0 -3.00333,-1.34463 -3.00333,-3.00333 z"
         fill="#434343"
         stroke="#323232"
         stroke-width="0"
         stroke-linecap="butt"
         id="path33" />
      <path
         d="m 135.15814,160.99726 c 0,0 -1.90929,-6.26059 -1.90929,-9.03867 0,-0.8143 7.33803,6.72859 36.60272,6.87563 91.39155,0.26159 96.22646,-4.39901 96.22646,-4.39901 l -0.60794,5.74817 z"
         fill="#434343"
         stroke="#323232"
         stroke-width="0"
         stroke-linecap="butt"
         id="path34" />
      <path
         d="m 258.29786,180.48402 c 0,-1.03668 0.8404,-1.87708 1.87708,-1.87708 1.03668,0 1.87708,0.8404 1.87708,1.87708 0,1.03668 -0.8404,1.87708 -1.87708,1.87708 -1.03668,0 -1.87708,-0.8404 -1.87708,-1.87708 z"
         fill="#7e7e7e"
         stroke="#323232"
         stroke-width="0"
         stroke-linecap="butt"
         id="path35" />
      <path
         d="m 254.54367,165.46737 c 0,-1.03668 0.8404,-1.87707 1.87707,-1.87707 1.03668,0 1.87707,0.8404 1.87707,1.87707 0,1.03668 -0.8404,1.87707 -1.87707,1.87707 -1.03668,0 -1.87707,-0.8404 -1.87707,-1.87707 z"
         fill="#898989"
         stroke="#323232"
         stroke-width="0"
         stroke-linecap="butt"
         id="path36" />
      <path
         d="m 258.29785,150.45074 c 0,-1.03668 0.8404,-1.87707 1.87707,-1.87707 1.03668,0 1.87707,0.8404 1.87707,1.87707 0,1.03668 -0.8404,1.87707 -1.87707,1.87707 -1.03668,0 -1.87707,-0.8404 -1.87707,-1.87707 z"
         fill="#898989"
         stroke="#323232"
         stroke-width="0"
         stroke-linecap="butt"
         id="path37" />
      <path
         d="m 120.03069,258.74873 26.02886,-44.04882 c 0,0 -2.05061,-6.9695 -4.40334,-9.11375 -3.1616,-2.88145 -12.86718,-6.62645 -12.86718,-6.62645 l 2.22655,-13.03973 116.87134,-0.0625 -23.20101,30.66973 -48.84335,-0.32559 c 0,0 -20.58298,42.57734 -24.07391,53.94879 -1.01068,3.29222 0.79811,6.86862 0.79811,6.86862 0,0 -8.79089,0.88668 -19.85987,-5.99059 -9.05713,-5.62729 -12.6762,-12.27966 -12.6762,-12.27966 z"
         fill="#323232"
         stroke="#323232"
         stroke-width="0"
         stroke-linecap="butt"
         id="path38" />
      <path
         d="m 123.78482,258.77716 23.50018,-41.20369 16.41601,-2.95413 -13.73281,-1.75044 c 0,0 -3.09728,-7.27483 -5.21513,-9.20502 -2.84597,-2.59379 -13.08429,-6.96603 -13.08429,-6.96603 l 1.25344,-6.7324 106.95578,0.44427 -17.38093,22.35208 -48.47221,-0.54336 c 0,0 -23.6532,47.28988 -26.42583,56.32157 -0.90978,2.96355 1.21899,4.18069 1.21899,4.18069 0,0 -3.90884,1.54899 -13.87278,-4.64171 -8.15294,-5.06551 -11.16041,-9.30183 -11.16041,-9.30183 z"
         fill="#434343"
         stroke="#323232"
         stroke-width="0"
         stroke-linecap="butt"
         id="path39" />
      <path
         d="m 130.54233,198.96015 22.31572,-1.80938 1.60834,-10.45421 v 12.26359 z"
         fill="#323232"
         stroke="#323232"
         stroke-width="0"
         stroke-linecap="butt"
         id="path40" />
      <g
         stroke="#323232"
         stroke-width="0"
         stroke-linecap="butt"
         id="g45">
        <path
           d="m 179.73736,211.09377 c -2.62403,-2.49029 -18.04924,-15.9569 -12.35102,-21.11825 4.99838,-4.52746 18.74515,9.12549 21.36918,11.61579 2.62403,2.49029 2.73246,6.63628 0.24216,9.26032 -2.49029,2.62403 -6.63629,2.73247 -9.26033,0.24216 z"
           fill="#323232"
           id="path41" />
        <g
           id="g44">
          <path
             d="m 180.10328,210.40897 c -2.31063,-2.19286 -16.99545,-15.15301 -11.9778,-19.69792 4.4014,-3.98672 17.60824,9.13751 19.91887,11.33038 2.31063,2.19286 2.40611,5.84367 0.21324,8.15431 -2.19286,2.31063 -5.84368,2.40611 -8.15432,0.21324 z"
             fill="#323232"
             id="path42" />
          <path
             d="m 179.92439,209.53407 c -2.10548,-1.99817 -15.48649,-13.80764 -10.91434,-17.94902 4.01062,-3.63276 16.04488,8.32623 18.15036,10.3244 2.10548,1.99817 2.19248,5.32484 0.1943,7.43033 -1.99817,2.10548 -5.32484,2.19248 -7.43033,0.1943 z"
             fill="#8a1f1f"
             id="path43" />
          <path
             d="m 179.9244,209.53407 c -2.10548,-1.99817 -15.48649,-13.80763 -10.91434,-17.94902 0.93666,-0.84842 -0.31252,4.47383 7.92364,12.45522 6.27901,6.08477 9.5651,-2.75871 10.22671,-2.13082 2.10548,1.99817 2.19247,5.32484 0.1943,7.43032 -1.99817,2.10548 -5.32484,2.19247 -7.43032,0.1943 z"
             fill="#481010"
             id="path44" />
        </g>
      </g>
      <path
         d="m 160.32537,246.51285 4.13754,-9.02735 c 0,0 24.63267,5.91247 36.86167,-1.69263 12.22899,-7.6051 0.94034,-21.81608 0.94034,-21.81608 h 4.51367 c 0,0 8.81382,21.1434 0,26.7059 -5.4385,3.4323 -20.27676,2.62885 -30.84402,1.5101 -6.55839,-0.69433 -15.6092,4.32005 -15.6092,4.32005 z"
         fill="#323232"
         stroke="#323232"
         stroke-width="0"
         stroke-linecap="butt"
         id="path45" />
      <path
         d="m 177.34095,226.19012 1.23457,-10.83679 h 9.60221 c 0,0 -5.19085,6.13801 -5.03456,9.7613 0.16402,3.80225 3.66281,9.99184 3.66281,9.99184 z"
         fill="#323232"
         stroke="#323232"
         stroke-width="0"
         stroke-linecap="butt"
         id="path46" />
      <path
         d="m 222.77774,216.09729 19.69577,-26.70613 h 27.70761 l 5.34123,27.03996 z"
         fill="#323232"
         stroke="#323232"
         stroke-width="0"
         stroke-linecap="butt"
         id="path47" />
      <path
         d="m 226.12649,212.58856 16.73882,-21.81721 h 23.54783 l 4.53934,22.08993 z"
         fill="#434343"
         stroke="#323232"
         stroke-width="0"
         stroke-linecap="butt"
         id="path48" />
      <path
         d="m 260.16863,206.68221 c 0,-1.65869 1.34464,-3.00333 3.00333,-3.00333 1.65869,0 3.00333,1.34464 3.00333,3.00333 0,1.65869 -1.34464,3.00333 -3.00333,3.00333 -1.65869,0 -3.00333,-1.34464 -3.00333,-3.00333 z"
         fill="#323232"
         stroke="#323232"
         stroke-width="0"
         stroke-linecap="butt"
         id="path49" />
      <path
         d="m 258.49212,197.32765 c 0,-1.65869 1.34464,-3.00333 3.00333,-3.00333 1.65869,0 3.00333,1.34464 3.00333,3.00333 0,1.65869 -1.34464,3.00333 -3.00333,3.00333 -1.65869,0 -3.00333,-1.34464 -3.00333,-3.00333 z"
         fill="#323232"
         stroke="#323232"
         stroke-width="0"
         stroke-linecap="butt"
         id="path50" />
      <g
         stroke="#323232"
         stroke-width="0"
         stroke-linecap="butt"
         id="g52">
        <path
           d="m 227.11753,201.81631 c 0,-2.58114 2.09243,-4.67357 4.67357,-4.67357 0.81729,0 8.95881,0.10752 8.95881,0.10752 l -0.13151,9.19828 c 0,0 -8.03841,0.0413 -8.82729,0.0413 -2.58114,0 -4.67357,-2.09243 -4.67357,-4.67357 z"
           fill="#323232"
           id="path51" />
        <path
           d="m 229.71982,201.81631 c 0,-1.03668 0.8404,-1.87708 1.87708,-1.87708 1.03668,0 1.87708,0.8404 1.87708,1.87708 0,1.03668 -0.8404,1.87708 -1.87708,1.87708 -1.03668,0 -1.87708,-0.8404 -1.87708,-1.87708 z"
           fill="#7e7e7e"
           id="path52" />
      </g>
      <g
         stroke-linecap="butt"
         id="g87">
        <g
           stroke="#323232"
           stroke-width="0"
           id="g74">
          <path
             d="m 271.66576,186.40271 c 0,0 -4.64616,-8.87464 -4.64616,-21.27358 0,-13.02494 4.64616,-19.02108 4.64616,-19.02108 h 126.3756 c 0,0 -0.92923,4.50935 -0.92923,7.00777 0,2.87201 0.92923,9.26026 0.92923,9.26026 0,0 -1.54872,6.39402 -1.54872,10.0111 0,4.27978 1.54872,14.01553 1.54872,14.01553 z"
             fill="#323232"
             id="path53" />
          <path
             d="m 274.54349,182.94733 c 0,0 -4.42649,-7.39704 -4.42649,-17.73158 0,-10.85631 4.42649,-15.85411 4.42649,-15.85411 h 120.4004 c 0,0 -0.88529,3.75856 -0.88529,5.84099 0,2.39383 0.88529,7.71845 0.88529,7.71845 0,0 -1.4755,5.32943 -1.4755,8.34427 0,3.56721 1.4755,11.68198 1.4755,11.68198 z"
             fill="#898989"
             id="path54" />
          <path
             d="m 284.52012,158.36242 c 0,0 0.23557,-2.3677 0.96627,-3.54099 0.72204,-1.1594 3.39228,-3.45758 3.39228,-3.45758 h 68.45345 c 0,0 -0.39873,2.13233 -1.0981,3.25531 -0.74995,1.2042 -3.26045,3.74327 -3.26045,3.74327 z"
             fill="#434343"
             id="path55" />
          <path
             d="m 284.52012,158.36242 64.13917,-3.24441 -36.33831,-1.81668 45.01115,-1.93748 c 0,0 2.69869,2.13233 1.99934,3.25531 -0.74995,1.2042 -4.49943,3.99355 -4.49943,3.99355 z"
             fill="#323232"
             id="path56" />
          <path
             d="m 342.90694,141.25418 c 0,0 1.83058,4.11591 -0.0229,5.82746 -1.85345,1.71155 -8.64997,2.18142 -8.64997,2.18142 l 1.7013,5.46894 c 0,0 -1.88808,0.89281 -2.84506,0.71106 -0.97461,-0.18509 -2.95072,-1.81178 -2.95072,-1.81178 l -3.33935,-12.12682 c 0,0 3.87928,-4.19948 7.43386,-4.25472 3.55458,-0.0552 8.67284,4.00444 8.67284,4.00444 z"
             fill="#323232"
             id="path57" />
          <path
             d="m 274.54349,182.94733 c 0,0 -1.52943,-2.55581 -2.79026,-6.76171 -0.15576,-0.5196 -0.30743,-1.06438 -0.45161,-1.63262 -0.6742,-2.65727 122.226,-1.67576 122.3207,-0.69786 0.0719,0.74276 0.16437,1.53207 0.26686,2.32334 0.43612,3.36685 1.05471,6.76886 1.05471,6.76886 z"
             fill="#434343"
             id="path58" />
          <g
             fill="#323232"
             id="g70">
            <path
               d="m 388.79885,182.27771 c -2.59756,2.00171 -5.59179,3.62443 -6.68778,3.62443 -1.096,0 0.12127,-1.62271 2.71884,-3.62442 2.59756,-2.00171 5.59179,-3.62443 6.68778,-3.62443 1.096,0 -0.12127,1.62273 -2.71884,3.62442 z"
               id="path59" />
            <path
               d="m 378.87649,182.27772 c -2.59756,2.00171 -5.59179,3.62443 -6.68778,3.62443 -1.096,0 0.12127,-1.62271 2.71884,-3.62442 2.59756,-2.00171 5.59179,-3.62443 6.68778,-3.62443 1.096,0 -0.12127,1.62271 -2.71884,3.62442 z"
               id="path60" />
            <path
               d="m 368.95411,182.27771 c -2.59757,2.00171 -5.59179,3.62443 -6.68778,3.62443 -1.09598,0 0.12127,-1.62271 2.71884,-3.62442 2.59757,-2.00171 5.59179,-3.62443 6.68778,-3.62443 1.096,0 -0.12127,1.62271 -2.71883,3.62443 z"
               id="path61" />
            <path
               d="m 359.03176,182.27771 c -2.59756,2.00171 -5.59179,3.62443 -6.68778,3.62443 -1.09598,0 0.12126,-1.62271 2.71883,-3.62443 2.59756,-2.00171 5.5918,-3.62442 6.68778,-3.62443 1.096,0 -0.12127,1.62271 -2.71884,3.62442 z"
               id="path62" />
            <path
               d="m 349.10936,182.27772 c -2.59757,2.00171 -5.59179,3.62443 -6.68778,3.62443 -1.09598,0 0.12126,-1.62271 2.71883,-3.62443 2.59756,-2.00171 5.5918,-3.62442 6.68778,-3.62443 1.096,0 -0.12127,1.62271 -2.71883,3.62443 z"
               id="path63" />
            <path
               d="m 339.18701,182.27772 c -2.59756,2.00171 -5.59179,3.62443 -6.68778,3.62443 -1.09598,0 0.12127,-1.62271 2.71884,-3.62442 2.59756,-2.00171 5.59179,-3.62443 6.68778,-3.62443 1.096,0 -0.12127,1.62271 -2.71884,3.62442 z"
               id="path64" />
            <path
               d="m 329.2646,182.27772 c -2.59756,2.00171 -5.59179,3.62443 -6.68778,3.62443 -1.096,0 0.12126,-1.62271 2.71883,-3.62443 2.59757,-2.00171 5.5918,-3.62442 6.68778,-3.62443 1.096,0 -0.12127,1.62271 -2.71884,3.62442 z"
               id="path65" />
            <path
               d="m 319.34225,182.27772 c -2.59756,2.00171 -5.5918,3.62442 -6.68778,3.62443 -1.096,0 0.12127,-1.62271 2.71883,-3.62443 2.59757,-2.00171 5.59179,-3.62443 6.68778,-3.62443 1.096,0 -0.12126,1.62271 -2.71883,3.62443 z"
               id="path66" />
            <path
               d="m 309.41986,182.27772 c -2.59756,2.00171 -5.59179,3.62443 -6.68778,3.62443 -1.096,0 0.12126,-1.62271 2.71883,-3.62443 2.59757,-2.00171 5.59179,-3.62443 6.68778,-3.62443 1.096,0 -0.12126,1.62271 -2.71883,3.62443 z"
               id="path67" />
            <path
               d="m 299.49753,182.27771 c -2.59756,2.00171 -5.59179,3.62443 -6.68778,3.62443 -1.096,0 0.12127,-1.62271 2.71884,-3.62442 2.59756,-2.00171 5.59179,-3.62443 6.68778,-3.62443 1.096,0 -0.12127,1.62271 -2.71884,3.62442 z"
               id="path68" />
            <path
               d="m 289.57512,182.27772 c -2.59756,2.00171 -5.59179,3.62443 -6.68778,3.62443 -1.09598,0 0.12127,-1.62271 2.71883,-3.62443 2.59756,-2.00171 5.5918,-3.62442 6.68778,-3.62443 1.096,0 -0.12127,1.62271 -2.71884,3.62442 z"
               id="path69" />
            <path
               d="m 279.65278,182.27772 c -2.59756,2.00171 -5.59179,3.62443 -6.68778,3.62443 -1.09598,0 0.12127,-1.62271 2.71884,-3.62442 2.59756,-2.00171 5.59179,-3.62443 6.68778,-3.62443 1.09598,0 -0.12127,1.62271 -2.71884,3.62442 z"
               id="path70" />
          </g>
          <g
             fill="#323232"
             id="g73">
            <path
               d="m 274.80744,174.88994 c 0,0 -0.97349,-2.00163 -0.97349,-2.9497 0,-0.88261 0.97349,-2.5564 0.97349,-2.5564 h 29.69118 c 0,0 0.97349,1.63872 0.97349,2.5564 0,0.91768 -0.97349,2.9497 -0.97349,2.9497 z"
               id="path71" />
            <path
               d="m 311.97671,174.88994 c 0,0 -0.97349,-2.00163 -0.97349,-2.9497 0,-0.88261 0.97349,-2.55641 0.97349,-2.55641 h 29.69118 c 0,0 0.97349,1.63872 0.97349,2.55641 0,0.91768 -0.97349,2.9497 -0.97349,2.9497 z"
               id="path72" />
            <path
               d="m 349.14603,174.88994 c 0,0 -0.97349,-2.00163 -0.97349,-2.9497 0,-0.88261 0.97349,-2.55641 0.97349,-2.55641 h 29.69118 c 0,0 0.97349,1.63872 0.97349,2.55641 0,0.91768 -0.97349,2.9497 -0.97349,2.9497 z"
               id="path73" />
          </g>
        </g>
        <g
           id="g86">
          <g
             id="g82">
            <g
               fill="#ffffff"
               stroke="#323232"
               stroke-width="7"
               id="g77">
              <path
                 d="m 403.76728,148.42781 c 0,0 -1.70262,-5.89221 -2.24084,-8.56333 -0.47326,-2.3487 -0.81874,-6.62084 -0.81874,-6.62084 h 7.33021 c 0,0 1.39954,4.38809 1.87879,6.76661 0.53455,2.65286 1.18078,8.41755 1.18078,8.41755 z"
                 id="path74" />
              <path
                 d="m 400.58527,164.9039 c 0,0 -0.90208,-5.89222 -0.90208,-8.56333 0,-2.3487 0.90208,-6.62084 0.90208,-6.62084 h 12.83107 c 0,0 0.90208,4.38809 0.90208,6.76662 0,2.65287 -0.90208,8.41755 -0.90208,8.41755 z"
                 id="path75" />
              <path
                 d="m 418.1944,180.14827 c 0,0 0.76828,-4.00608 0.76828,-5.82215 0,-1.59686 -0.76828,-4.50145 -0.76828,-4.50145 l 2.32004,-1.88315 7.48506,1.73377 16.89634,0.14938 c 0,0 1.11335,2.98343 1.11335,4.60057 0,1.80367 -1.11335,5.72303 -1.11335,5.72303 z"
                 id="path76" />
              <path
                 d="m 400.79648,182.39718 c 0,0 -1.11336,-5.89222 -1.11336,-8.56333 0,-2.3487 1.11336,-6.62082 1.11336,-6.62082 h 15.8364 c 0,0 1.11336,4.38809 1.11336,6.76662 0,2.65287 -1.11336,8.41755 -1.11336,8.41755 z"
                 id="path77" />
            </g>
            <g
               fill="#898989"
               stroke="#000000"
               stroke-width="0"
               id="g81">
              <path
                 d="m 403.76728,148.42781 c 0,0 -1.70262,-5.89221 -2.24084,-8.56333 -0.47326,-2.3487 -0.81874,-6.62084 -0.81874,-6.62084 h 7.33021 c 0,0 1.39954,4.38809 1.87879,6.76661 0.53455,2.65286 1.18078,8.41755 1.18078,8.41755 z"
                 id="path78" />
              <path
                 d="m 400.58527,164.9039 c 0,0 -0.90208,-5.89222 -0.90208,-8.56333 0,-2.3487 0.90208,-6.62084 0.90208,-6.62084 h 12.83107 c 0,0 0.90208,4.38809 0.90208,6.76662 0,2.65287 -0.90208,8.41755 -0.90208,8.41755 z"
                 id="path79" />
              <path
                 d="m 418.1944,180.14827 c 0,0 0.76828,-4.00608 0.76828,-5.82215 0,-1.59686 -0.76828,-4.50145 -0.76828,-4.50145 l 2.32004,-1.88315 7.48506,1.73377 16.89633,0.14937 c 0,0 1.11335,2.98343 1.11335,4.60057 0,1.80366 -1.11335,5.72303 -1.11335,5.72303 z"
                 id="path80" />
              <path
                 d="m 400.79648,182.39718 c 0,0 -1.11336,-5.89222 -1.11336,-8.56333 0,-2.3487 1.11336,-6.62082 1.11336,-6.62082 h 15.8364 c 0,0 1.11336,4.38809 1.11336,6.76662 0,2.65287 -1.11336,8.41755 -1.11336,8.41755 z"
                 id="path81" />
            </g>
          </g>
          <g
             fill="#434343"
             stroke="#323232"
             stroke-width="0"
             id="g85">
            <path
               d="m 403.76725,148.42781 c 0,0 -1.23854,-4.28618 -1.93685,-7.20443 2.77291,1.62837 5.34374,1.58643 8.26145,-0.26162 0.49073,2.87319 1.00561,7.46604 1.00561,7.46604 z"
               id="path82" />
            <path
               d="m 400.58526,164.90389 c 0,0 -0.84083,-5.4922 -0.89892,-8.27538 4.53837,1.26978 9.76166,2.35872 14.5322,1.82546 -0.23479,2.82388 -0.8022,6.44993 -0.8022,6.44993 z"
               id="path83" />
            <path
               d="m 418.1944,180.14828 c 0,0 0.76702,-3.9995 0.76828,-5.81767 0.6935,0.42938 1.47255,1.671 3.10914,2.12054 4.80652,1.32024 10.08898,1.03493 15.11875,1.03493 2.33044,0 6.82605,0.25029 8.63842,-1.36882 -0.31512,1.85533 -0.93317,4.03102 -0.93317,4.03102 z"
               id="path84" />
            <path
               d="m 400.79648,182.39718 c 0,0 -1.11336,-5.89222 -1.11336,-8.56333 0,-0.26194 0.0139,-0.54782 0.0385,-0.84902 4.77396,3.63935 13.16409,7.40902 17.97917,1.72016 0.008,-0.0103 0.0167,-0.0203 0.0251,-0.0302 -0.15132,2.84688 -1.09295,7.72244 -1.09295,7.72244 z"
               id="path85" />
          </g>
        </g>
      </g>
      <path
         d="m 238.19445,214.55556 -6.33333,19"
         fill="none"
         stroke="#323232"
         stroke-width="2"
         stroke-linecap="round"
         id="path89" />
    </g>
  </g>
</svg>
