<?xml version="1.0" encoding="UTF-8" standalone="no"?>
<svg
   width="109.31331"
   height="55.250637"
   viewBox="0 0 109.31331 55.250637"
   fill="none"
   version="1.1"
   id="svg30"
   sodipodi:docname="pfeifer_zeliska.svg"
   inkscape:version="1.4 (86a8ad7, 2024-10-11)"
   xmlns:inkscape="http://www.inkscape.org/namespaces/inkscape"
   xmlns:sodipodi="http://sodipodi.sourceforge.net/DTD/sodipodi-0.dtd"
   xmlns="http://www.w3.org/2000/svg"
   xmlns:svg="http://www.w3.org/2000/svg">
  <sodipodi:namedview
     id="namedview30"
     pagecolor="#ffffff"
     bordercolor="#000000"
     borderopacity="0.25"
     inkscape:showpageshadow="2"
     inkscape:pageopacity="0.0"
     inkscape:pagecheckerboard="0"
     inkscape:deskcolor="#d1d1d1"
     inkscape:zoom="3.6681818"
     inkscape:cx="67.335812"
     inkscape:cy="111.09046"
     inkscape:window-width="1920"
     inkscape:window-height="1009"
     inkscape:window-x="-8"
     inkscape:window-y="-8"
     inkscape:window-maximized="1"
     inkscape:current-layer="svg30"
     showguides="false" />
  <path
     style="fill:#ae9d04;fill-opacity:1;stroke:#604c03;stroke-width:1.12543;stroke-dasharray:none;stroke-opacity:1;paint-order:markers stroke fill"
     d="m 94.60503,17.311383 0.0018,1.570538 1.162191,-0.01091 0.05174,-1.530441 z"
     id="path32"
     sodipodi:nodetypes="ccccc" />
  <path
     d="m 49.95329,13.569266 57.75398,0.706418 c 0,0 1.47303,-1.385746 0.1454,-3.528616 0,0 -5.80125,-0.104837 -8.547313,-0.121736 L 49.953811,10.1258 Z"
     fill="#514c49"
     stroke="#363330"
     stroke-width="1.83249"
     stroke-miterlimit="3.99393"
     stroke-linecap="round"
     id="path1"
     sodipodi:nodetypes="cccccc" />
  <path
     fill-rule="evenodd"
     clip-rule="evenodd"
     d="m 29.133557,28.055039 c 1.380941,0.465998 4.569681,0.601887 4.569681,0.601887 0.796844,0.197863 1.110344,0.567815 1.157028,0.982682 0.0478,0.42482 -0.225604,0.865061 -0.746234,1.465316 -1.102146,1.270938 -1.392078,3.222607 -0.812556,4.734229 0.696725,1.81764 2.525932,3.080564 4.339991,2.688319 0.371601,-0.08035 0.310722,-0.566186 -0.06623,-0.601195 -0.714677,-0.06652 -0.984662,-0.330595 -1.728943,-1.046887 -0.785747,-0.756129 -1.242999,-1.907958 -1.08715,-3.069889 0.163491,-1.219115 0.662727,-2.163101 1.517578,-2.683562 1.221081,-0.743361 2.212384,-1.149095 3.528263,-1.481326 l -0.286872,-1.493223 -7.4189,-1.730712 z"
     fill="#45413F"
     stroke="#353230"
     stroke-width="1.83249"
     stroke-miterlimit="3.99393"
     stroke-linecap="round"
     id="path2"
     style="fill:#ae9d04;fill-opacity:1;stroke:#604c03;stroke-opacity:1" />
  <path
     style="fill:#514c49;fill-opacity:1;stroke:#363330;stroke-width:1.332;stroke-dasharray:none;stroke-opacity:1;paint-order:markers stroke fill"
     d="m 53.861188,15.351372 2.969771,0.01427 0.05778,1.298426 -3.045322,-0.245676 z"
     id="path30"
     sodipodi:nodetypes="ccccc" />
  <path
     d="m 25.445549,20.292262 c -0.544878,-0.128069 -2.065015,-0.494407 -2.065015,-0.494407 0.272098,-0.02643 0.781014,-3.83079 -0.07226,-3.803259 -1.576957,0.05088 -7.717924,-3.469323 -8.790852,-7.1072067 0.04049,-0.242496 1.460048,0.294259 1.856151,0.429197 2.861767,2.2657067 5.554946,2.5809197 8.268355,0.54939 l 0.941425,-2.037215 1.933714,0.07221 z"
     fill="#5d5855"
     stroke="#363330"
     stroke-width="1.83249"
     stroke-miterlimit="3.99393"
     stroke-linecap="round"
     id="path3"
     sodipodi:nodetypes="ccscccccc"
     style="fill:#ae9d04;fill-opacity:1;stroke:#604c03;stroke-width:1.332;stroke-dasharray:none;stroke-opacity:1" />
  <path
     fill-rule="evenodd"
     clip-rule="evenodd"
     d="m 12.174514,28.592052 c 1.370659,-2.350752 1.931075,-4.858331 2.441695,-7.269024 8.441125,0.723966 11.588505,0.90724 13.759011,-5.486733 L 29.755456,2.9098173 c 1.749573,0.212255 5.204515,-0.48357 6.984053,-0.341666 l 0.298162,2.068293 13.836356,1.395741 c 1.719856,0.08587 20.024846,-0.221076 20.024846,-0.221076 0,0 -0.120153,3.194619 -0.02714,3.436102 0.08351,0.216818 -17.411014,0.425367 -17.262437,0.572945 l -0.0014,8.8155067 c -2.107014,0.05051 -0.625972,0.147471 -1.569351,4.283855 -0.155941,0.403018 -0.133372,0.871074 -0.110806,1.33913 0.01416,0.293788 4.648881,1.184298 4.085575,0.504322 -1.645516,-1.986334 2.243082,-7.645272 4.790089,-4.592077 0.300346,0.360037 -1.676846,6.45701 -1.905287,6.669555 -2.046293,1.903906 -9.38561,4.024602 -10.190881,4.225187 -1.715844,-2.165501 -4.488744,-2.893992 -7.257022,-3.628765 -6.195785,-1.194689 -11.131191,4.681002 -11.5531,7.533207 -4.469624,0.474136 -4.292691,-3.019158 -7.440966,-0.280952 -2.492526,-7.704117 -6.707152,-6.8874 -10.206542,-6.052524 z m 36.707273,-5.092421 1.07147,-14.5588637 -15.504308,-0.01852 0.410297,14.1539207 z"
     fill="#79726d"
     id="path4"
     sodipodi:nodetypes="ccccccccscccssssccccccccccc"
     style="stroke-width:0.999999" />
  <path
     d="m 49.956426,13.926482 -0.539579,-0.358222 5.89e-4,-3.443427 0.539641,-0.3584237 z"
     fill="#45413f"
     id="path7"
     style="stroke-width:0.999999" />
  <path
     fill-rule="evenodd"
     clip-rule="evenodd"
     d="m 57.073118,13.772527 -7.18e-4,3.749533 9.418955,-0.0014 c -0.278929,-0.684118 -0.648674,-1.184076 5.58e-4,-3.750348 z"
     fill="#5d5855"
     stroke="#363330"
     stroke-width="1.83249"
     stroke-miterlimit="3.99393"
     stroke-linecap="round"
     id="path8"
     sodipodi:nodetypes="ccccc" />
  <path
     fill-rule="evenodd"
     clip-rule="evenodd"
     d="m 57.073105,13.770984 4.59e-4,-4.0806107 15.13226,0.7290157 c -0.54903,1.439232 -0.389872,2.434658 0.489387,3.232641 z"
     fill="#6b6561"
     stroke="#363330"
     stroke-width="1.83249"
     stroke-miterlimit="3.99393"
     stroke-linecap="round"
     id="path9"
     sodipodi:nodetypes="ccccc" />
  <path
     d="m 14.801122,20.629564 c 0.423779,2.950442 -1.255921,5.611843 -2.62659,7.962769 l 0.07506,0.04406 c 3.499379,-0.834702 7.713966,-1.651352 10.206579,6.052456 0.707138,-0.615227 1.449223,-1.190588 2.231804,-1.723963 1.901819,-0.236806 2.911704,0.633556 3.905395,2.884032 1.767158,4.002597 5.551707,4.908332 7.709043,5.065438 1.517736,0.110994 3.916073,-0.134311 5.70464,-0.597812 1.956922,-0.506296 3.876957,-1.526218 4.838609,-2.268889 1.4212,-1.097481 2.081852,-2.486031 2.492939,-4.063467 0.162702,-0.624279 0.132286,-1.258266 0.106999,-1.782444 l -0.01179,-0.26873 c -0.0098,-0.272253 -0.04442,-0.558437 -0.07873,-0.841166 0,0 0.258913,-0.953105 0.338936,-0.743094 l 0.50283,-0.55363 0.0045,-0.293262 c -0.150733,-0.174667 -0.320372,-0.355016 -0.183128,-0.44298 l 5.142371,-0.564754 0.691667,-0.91543 3.915771,0.01084 0.40083,-3.773273 c 0.230161,-2.166655 2.671437,-2.162172 1.816735,-3.069719 l -5.793223,-0.418852 -0.848611,3.800043 c 0,0 -3.406681,0.274702 -3.415921,0.131058 l -1.8e-5,-2.82e-4 -1.8e-5,-2.81e-4 c -0.02264,-0.468097 -0.04518,-0.935415 0.110691,-1.338473 0.943401,-4.136734 -1.00451,-4.329409 1.10251,-4.379461 l 0.0014,-8.8155067 c -0.227581,-0.226033 18.743493,-0.06088 18.695122,-0.400368 -0.08628,-0.605563 0.840646,-4.220495 -0.863779,-4.048694 0,0 -19.554198,-0.0077 -20.433088,-0.05166 l -10.340839,-0.01131 c -0.413562,-0.04964 -0.813762,-0.06285 -1.310995,-0.0628 -1.42157,-0.577561 -1.991986,-2.105809 -2.283531,-3.210199 L 29.21756,1.8530403 28.490698,15.902878 c -2.171266,6.39486 -14.333575,4.235353 -13.689581,4.726689 z"
     stroke="#363330"
     stroke-width="3.66498"
     id="path24"
     sodipodi:nodetypes="cccccccccsccccccccccscccscscccscccccccc"
     style="stroke-width:3.665;stroke-dasharray:none" />
  <path
     style="fill:#514c49;fill-opacity:1;stroke:#363330;stroke-width:3.665;stroke-dasharray:none;stroke-opacity:1;paint-order:markers stroke fill"
     d="m 57.420779,19.887506 0.201399,-1.102461 8.154926,-0.144941 -0.08169,1.498022 z"
     id="path31"
     sodipodi:nodetypes="ccccc" />
  <path
     d="m 100.11268,9.3979303 4.69902,-7.25e-4 c -0.0235,-1.11756 -0.97552,-2.016419 -2.12272,-2.016538 l -1.4e-4,0.670323 -2.57607,0.770053 z"
     fill="#433f3d"
     stroke="#363330"
     stroke-width="1.83249"
     stroke-miterlimit="3.99393"
     stroke-linecap="round"
     id="path10" />
  <path
     d="M 26.595776,22.702589 C 23.414077,18.156371 24.604024,13.327487 27.556828,8.3846173 l 26.092183,0.325573 -0.543654,14.1280687 z"
     fill="#5d5855"
     stroke="#363330"
     stroke-width="1.83249"
     stroke-miterlimit="3.99393"
     stroke-linecap="round"
     id="path13"
     sodipodi:nodetypes="ccccc" />
  <path
     d="m 96.669758,13.771887 0.0068,3.364744 -30.099243,-0.107778 0.04904,-3.301629 z"
     fill="#534e4b"
     stroke="#363330"
     stroke-width="1.83249"
     stroke-miterlimit="3.99393"
     stroke-linecap="round"
     id="path11"
     sodipodi:nodetypes="ccccc" />
  <path
     d="m 33.355794,29.535821 c 0.27505,-0.04135 0.361422,-0.04974 0.640692,-0.07916 1.964998,-1.472019 3.004653,-1.654838 7.456417,-2.020786 l 1.405515,-0.131094 0.341371,0.82851 c 3.712101,0.04977 5.3285,2.648661 4.344992,5.623679 -0.654257,1.979226 -2.185644,3.576408 -4.841263,4.594332 -2.655445,1.017934 -6.105096,1.223553 -7.711741,0.703114 -3.214398,-1.042242 -7.515779,-3.087779 -1.635983,-9.518593 z"
     stroke="#363330"
     stroke-width="1.83249"
     id="path25" />
  <path
     fill-rule="evenodd"
     clip-rule="evenodd"
     d="M 2.3731376,51.37541 C 6.0312824,53.450409 13.135399,54.096862 16.994799,52.577127 15.050351,46.536638 19.249481,38.784551 21.890241,35.07004 L 21.62381,28.366782 12.637495,27.858456 C 9.0552552,34.192519 -0.50153381,46.209549 2.3731376,51.37541 Z"
     fill="#66381a"
     stroke="#512d15"
     stroke-width="3.66498"
     stroke-miterlimit="3.99393"
     stroke-linecap="round"
     id="path26"
     sodipodi:nodetypes="cccccc" />
  <path
     d="M 26.597756,22.272843 C 23.416057,17.726625 24.650173,13.354131 27.602979,8.4112623 l 4.240416,0.129934 -0.271931,13.9771697 z"
     fill="#5d5855"
     stroke="#363330"
     stroke-width="1.83249"
     stroke-miterlimit="3.99393"
     stroke-linecap="round"
     id="path34"
     sodipodi:nodetypes="ccccc" />
  <path
     style="fill:#4b4e4e;fill-opacity:1;stroke:#363330;stroke-width:1.332;stroke-dasharray:none;stroke-opacity:1;paint-order:markers stroke fill"
     d="m 31.581063,12.22977 -0.176527,5.314974 -2.604664,0.03509 c -4.559046,-0.484905 -4.181765,-5.322115 0.900002,-5.235831 z"
     id="path35"
     sodipodi:nodetypes="ccccc" />
  <ellipse
     style="fill:#ae9d04;fill-opacity:1;stroke:#604c03;stroke-width:0.877367;stroke-dasharray:none;stroke-opacity:1;paint-order:markers stroke fill"
     id="path33"
     cx="62.844189"
     cy="-14.740561"
     rx="0.20392273"
     ry="0.20399593"
     transform="rotate(30)" />
  <path
     style="fill:#3e4040;fill-opacity:1;stroke:#363330;stroke-width:1.332;stroke-dasharray:none;stroke-opacity:1;paint-order:markers stroke fill"
     d="m 30.373391,11.070854 -0.02028,1.083999 c -3.142347,1.438385 -2.189912,4.440828 -0.333757,5.711447 l 0.164642,1.312877 1.067012,0.123596 0.345744,-8.325835 z"
     id="path36"
     sodipodi:nodetypes="ccccccc" />
  <defs
     id="defs30">
    <clipPath
       id="clip0_1243_369">
      <rect
         width="110"
         height="110"
         fill="#ffffff"
         id="rect30"
         x="0"
         y="0" />
    </clipPath>
  </defs>
  <ellipse
     style="fill:#ae9d04;fill-opacity:1;stroke:#604c03;stroke-width:0.877367;stroke-dasharray:none;stroke-opacity:1;paint-order:markers stroke fill"
     id="path33-0"
     cx="31.131342"
     cy="28.595703"
     rx="1.1031212"
     ry="1.1035171"
     transform="rotate(30)" />
  <path
     style="fill:none;stroke:#604c03;stroke-width:0.532;stroke-dasharray:none;stroke-opacity:1;paint-order:markers stroke fill"
     d="m 11.416635,40.149852 2.349419,0.377095"
     id="path5" />
  <ellipse
     style="fill:#3e4040;fill-opacity:1;stroke:#363330;stroke-width:0.531999;stroke-dasharray:none;stroke-opacity:1;paint-order:markers stroke fill"
     id="path6"
     cx="94.023254"
     cy="-40.418739"
     rx="0.37962192"
     ry="0.31098336"
     transform="rotate(30)" />
  <ellipse
     style="fill:#3e4040;fill-opacity:1;stroke:#363330;stroke-width:0.531999;stroke-dasharray:none;stroke-opacity:1;paint-order:markers stroke fill"
     id="path6-8"
     cx="96.361725"
     cy="-41.69949"
     rx="0.37962192"
     ry="0.31098336"
     transform="rotate(30)" />
  <ellipse
     style="fill:#3e4040;fill-opacity:1;stroke:#363330;stroke-width:0.531999;stroke-dasharray:none;stroke-opacity:1;paint-order:markers stroke fill"
     id="path6-9"
     cx="95.221825"
     cy="-41.105808"
     rx="0.37962192"
     ry="0.31098336"
     transform="rotate(30)" />
  <ellipse
     style="fill:#3e4040;fill-opacity:1;stroke:#363330;stroke-width:0.531999;stroke-dasharray:none;stroke-opacity:1;paint-order:markers stroke fill"
     id="path6-4"
     cx="92.838501"
     cy="-39.852467"
     rx="0.37962192"
     ry="0.31098336"
     transform="rotate(30)" />
  <path
     style="fill:#3e4040;fill-opacity:1;stroke:#363330;stroke-width:0.532;stroke-dasharray:none;stroke-opacity:1;paint-order:markers stroke fill"
     d="m 36.128501,10.952804 -0.06464,0.769727 c -0.29588,0.157665 -0.426314,0.244695 -0.824573,0.162573 l -0.02921,0.822189 c -0.30407,1.093709 -0.898824,1.022407 -1.01534,-0.0399 l -0.02539,-0.807549 c -0.379758,0.188195 -0.653278,0.101721 -0.884849,-0.02612 l 0.0083,-0.925342 c 1.012764,0.119828 1.865642,0.1324 2.835662,0.04442 z"
     id="path12"
     sodipodi:nodetypes="ccccccccc" />
  <path
     style="fill:#3e4040;fill-opacity:1;stroke:#363330;stroke-width:0.532;stroke-dasharray:none;stroke-opacity:1;paint-order:markers stroke fill"
     d="m 36.094039,17.418337 -0.06464,0.769728 c -0.29588,0.157664 -0.426316,0.244695 -0.824573,0.162573 l -0.02921,0.822188 c -0.304071,1.093709 -0.898825,1.022407 -1.015341,-0.0399 l -0.02539,-0.807548 c -0.379758,0.188194 -0.653277,0.101722 -0.884849,-0.02612 l 0.0083,-0.925343 c 1.012764,0.119828 1.865642,0.132401 2.835662,0.04442 z"
     id="path14"
     sodipodi:nodetypes="ccccccccc" />
  <ellipse
     style="fill:#ae9d04;fill-opacity:1;stroke:#604c03;stroke-width:0.877367;stroke-dasharray:none;stroke-opacity:1;paint-order:markers stroke fill"
     id="circle14"
     cx="34.470039"
     cy="9.3768854"
     rx="0.6368373"
     ry="0.63706589"
     transform="rotate(30)" />
  <ellipse
     style="fill:#ae9d04;fill-opacity:1;stroke:#604c03;stroke-width:0.877367;stroke-dasharray:none;stroke-opacity:1;paint-order:markers stroke fill"
     id="circle15"
     cx="45.287823"
     cy="3.4063044"
     rx="0.6368373"
     ry="0.63706589"
     transform="rotate(30)" />
  <ellipse
     style="fill:#ae9d04;fill-opacity:1;stroke:#604c03;stroke-width:0.877367;stroke-dasharray:none;stroke-opacity:1;paint-order:markers stroke fill"
     id="circle16"
     cx="44.488483"
     cy="5.2188044"
     rx="0.15723112"
     ry="0.15728755"
     transform="rotate(30)" />
  <ellipse
     style="fill:#ae9d04;fill-opacity:1;stroke:#604c03;stroke-width:0.877367;stroke-dasharray:none;stroke-opacity:1;paint-order:markers stroke fill"
     id="circle17"
     cx="41.837322"
     cy="8.5106096"
     rx="0.38371181"
     ry="0.38384956"
     transform="rotate(30)" />
</svg>
