<?xml version="1.0" encoding="UTF-8" standalone="no"?>
<!-- Created with Inkscape (http://www.inkscape.org/) -->

<svg
   width="50mm"
   height="31.223206mm"
   viewBox="0 0 50 31.223206"
   version="1.1"
   id="svg18667"
   inkscape:version="1.4 (86a8ad7, 2024-10-11)"
   sodipodi:docname="taurustx.svg"
   xmlns:inkscape="http://www.inkscape.org/namespaces/inkscape"
   xmlns:sodipodi="http://sodipodi.sourceforge.net/DTD/sodipodi-0.dtd"
   xmlns="http://www.w3.org/2000/svg"
   xmlns:svg="http://www.w3.org/2000/svg">
  <sodipodi:namedview
     id="namedview18669"
     pagecolor="#ffffff"
     bordercolor="#666666"
     borderopacity="1.0"
     inkscape:pageshadow="2"
     inkscape:pageopacity="0.0"
     inkscape:pagecheckerboard="0"
     inkscape:document-units="mm"
     showgrid="false"
     inkscape:zoom="1.6234012"
     inkscape:cx="149.68573"
     inkscape:cy="4.6199301"
     inkscape:window-width="1920"
     inkscape:window-height="1009"
     inkscape:window-x="-8"
     inkscape:window-y="-8"
     inkscape:window-maximized="1"
     inkscape:current-layer="layer1"
     fit-margin-top="0"
     fit-margin-left="0"
     fit-margin-right="0"
     fit-margin-bottom="0"
     inkscape:showpageshadow="2"
     inkscape:deskcolor="#d1d1d1" />
  <defs
     id="defs18664" />
  <g
     inkscape:groupmode="layer"
     id="layer2"
     inkscape:label="Layer 2"
     transform="matrix(0.66027924,0,0,0.66027924,-50.661992,-85.5304)">
    <rect
       style="fill:#666666;fill-opacity:1;stroke:none;stroke-width:0.078668;stroke-linecap:square;stroke-opacity:1"
       id="rect22625"
       width="3.9520504"
       height="5.0292368"
       x="148.50162"
       y="131.43631" />
  </g>
  <g
     inkscape:label="Layer 1"
     inkscape:groupmode="layer"
     id="layer1"
     transform="matrix(0.66027924,0,0,0.66027924,-50.661992,-85.5304)">
    <path
       style="fill:#1c1c1c;fill-opacity:1;stroke:none;stroke-width:0.264583px;stroke-linecap:butt;stroke-linejoin:miter;stroke-opacity:1"
       d="m 98.503587,129.604 h 1.661143 l -2.778703,6.85123 h -1.722033 z"
       id="path25251-3-9-7" />
    <path
       style="fill:#1a1a1a;stroke:none;stroke-width:0.264583px;stroke-linecap:butt;stroke-linejoin:miter;stroke-opacity:1"
       d="m 113.15077,146.36778 4.56234,5.16357 h 1.13557 c 0,0 -4.62397,-4.82548 0.0321,-8.60113 4.65605,-3.77566 -7.22241,-2.20694 -7.22241,-2.20694 l -0.7247,3.81155 z"
       id="path20603" />
    <path
       id="path18795"
       style="fill:#1a1a1a;stroke:none;stroke-width:0.999999px;stroke-linecap:butt;stroke-linejoin:miter;stroke-opacity:1"
       d="m 302.97656,515.16797 -12.98047,28.27148 32.8086,0.29883 c 0,0 11.54259,0.88767 16.19531,12.76563 4.65272,11.87796 -28.12795,41.55761 -33.6543,54.26367 -5.52635,12.70601 -7.125,48.33789 -7.125,48.33789 0,0 0.59188,6.58342 5.07813,8.40039 4.48624,1.81701 67.41601,0 67.41601,0 l -4.66015,-9.12695 18.71289,-38.98633 7.17969,-7.20508 c 0,0 0.55519,-12.3235 8.58007,-17.39453 8.02489,-5.07107 3.35477,-5.56738 4.39063,-10.5957 1.03582,-5.02836 12.59375,-10.79102 12.59375,-10.79102 l 18.16016,8.20703 h 50.47265 v -37.85937 h 75.83594 v -28.24219 z m 121.56446,22.03906 59.94336,7.04492 0.0957,35.76953 -48.5,0.11524 -16.40235,-7.74219 10.78907,-24.50391 z"
       transform="scale(0.26458333)"
       sodipodi:nodetypes="cccsscsccccsscccccccccccccc" />
    <rect
       style="fill:#1a1a1a;stroke:none;stroke-width:0.107016;stroke-linecap:square;stroke-opacity:1"
       id="rect21154"
       width="15.755788"
       height="1.0488064"
       x="128.62573"
       y="143.74278" />
    <rect
       style="fill:#333333;stroke:none;stroke-width:0.0325496;stroke-linecap:square;stroke-opacity:1"
       id="rect21154-2"
       width="1.4575813"
       height="1.0488064"
       x="145.5249"
       y="143.76804" />
    <rect
       style="fill:#333333;stroke:none;stroke-width:0.0220301;stroke-linecap:square;stroke-opacity:1"
       id="rect21154-2-9"
       width="0.66768771"
       height="1.0488064"
       x="148.02296"
       y="143.79196" />
    <rect
       style="fill:#1a1a1a;fill-opacity:1;stroke:none;stroke-width:0.104927;stroke-linecap:square;stroke-opacity:1"
       id="rect22498"
       width="27.157387"
       height="5.1908998"
       x="106.20161"
       y="130.25009" />
    <path
       style="fill:#333333;fill-opacity:1;stroke:none;stroke-width:0.264583px;stroke-linecap:butt;stroke-linejoin:miter;stroke-opacity:1"
       d="m 80.162547,136.41325 3.161682,-6.87654 h 27.982651 l -2.93055,3.48312 c 0,0 -1.16168,1.90584 2.39449,2.09893 4.65558,0.25279 11.34193,0.51531 13.21306,-1.0031 1.87113,-1.51841 3.73505,-4.50866 3.73505,-4.50866 h 20.87796 l 0.0938,6.8972 z"
       id="path21976"
       sodipodi:nodetypes="ccccsscccc" />
    <path
       style="fill:#1c1c1c;fill-opacity:1;stroke:none;stroke-width:0.264583px;stroke-linecap:butt;stroke-linejoin:miter;stroke-opacity:1"
       d="m 85.200766,129.604 h 1.661147 l -2.778707,6.85122 h -1.722033 z"
       id="path25251" />
    <path
       style="fill:#1c1c1c;fill-opacity:1;stroke:none;stroke-width:0.264583px;stroke-linecap:butt;stroke-linejoin:miter;stroke-opacity:1"
       d="m 87.846601,129.604 h 1.661147 l -2.778707,6.85122 h -1.722033 z"
       id="path25251-3" />
    <path
       style="fill:#1c1c1c;fill-opacity:1;stroke:none;stroke-width:0.264583px;stroke-linecap:butt;stroke-linejoin:miter;stroke-opacity:1"
       d="m 90.492436,129.604 h 1.661147 l -2.778707,6.85122 h -1.722033 z"
       id="path25251-1" />
    <path
       style="fill:#1c1c1c;fill-opacity:1;stroke:none;stroke-width:0.264583px;stroke-linecap:butt;stroke-linejoin:miter;stroke-opacity:1"
       d="m 93.138271,129.604 h 1.661147 l -2.778707,6.85122 h -1.722033 z"
       id="path25251-3-9" />
    <path
       style="fill:#1c1c1c;fill-opacity:1;stroke:none;stroke-width:0.264583px;stroke-linecap:butt;stroke-linejoin:miter;stroke-opacity:1"
       d="m 95.857752,129.604 h 1.661147 l -2.778707,6.85123 h -1.722033 z"
       id="path25251-1-4" />
    <path
       style="fill:#1c1c1c;fill-opacity:1;stroke:none;stroke-width:0.20134px;stroke-linecap:butt;stroke-linejoin:miter;stroke-opacity:1"
       d="m 136.37482,132.58005 h 1.66114 l -2.7787,3.96738 h -1.72204 z"
       id="path25251-3-4" />
    <path
       style="fill:#1c1c1c;fill-opacity:1;stroke:none;stroke-width:0.20134px;stroke-linecap:butt;stroke-linejoin:miter;stroke-opacity:1"
       d="m 139.02065,132.58005 h 1.66115 l -2.77871,3.96738 h -1.72203 z"
       id="path25251-1-5" />
    <path
       style="fill:#1c1c1c;fill-opacity:1;stroke:none;stroke-width:0.20134px;stroke-linecap:butt;stroke-linejoin:miter;stroke-opacity:1"
       d="m 141.66649,132.58005 h 1.66114 l -2.7787,3.96738 h -1.72204 z"
       id="path25251-3-9-0" />
    <path
       style="fill:#1c1c1c;fill-opacity:1;stroke:none;stroke-width:0.20134px;stroke-linecap:butt;stroke-linejoin:miter;stroke-opacity:1"
       d="m 144.38597,132.58005 h 1.66114 l -2.7787,3.96739 h -1.72204 z"
       id="path25251-1-4-3" />
    <path
       style="fill:#808080;stroke:none;stroke-width:0.264583px;stroke-linecap:butt;stroke-linejoin:miter;stroke-opacity:1"
       d="m 85.796836,136.40495 c 0,0 -4.201557,1.46673 -3.147087,2.5163 1.054473,1.04958 10.945125,-1.6021 10.945125,-1.6021 l 1.287544,-0.89414 z"
       id="path19470"
       sodipodi:nodetypes="csccc" />
  </g>
</svg>
