<?xml version="1.0" encoding="UTF-8" standalone="no"?>
<!-- Created with Inkscape (http://www.inkscape.org/) -->

<svg
   width="19.15756mm"
   height="10.191045mm"
   viewBox="0 0 19.15756 10.191045"
   version="1.1"
   id="svg5"
   inkscape:version="1.4.2 (f4327f4, 2025-05-13)"
   sodipodi:docname="bandage.svg"
   inkscape:export-filename="gauze.png"
   inkscape:export-xdpi="96"
   inkscape:export-ydpi="96"
   xmlns:inkscape="http://www.inkscape.org/namespaces/inkscape"
   xmlns:sodipodi="http://sodipodi.sourceforge.net/DTD/sodipodi-0.dtd"
   xmlns="http://www.w3.org/2000/svg"
   xmlns:svg="http://www.w3.org/2000/svg">
  <sodipodi:namedview
     id="namedview7"
     pagecolor="#ffffff"
     bordercolor="#666666"
     borderopacity="1.0"
     inkscape:pageshadow="2"
     inkscape:pageopacity="0.0"
     inkscape:pagecheckerboard="0"
     inkscape:document-units="mm"
     showgrid="false"
     inkscape:zoom="6.6291404"
     inkscape:cx="52.118371"
     inkscape:cy="43.067424"
     inkscape:window-width="1920"
     inkscape:window-height="1009"
     inkscape:window-x="-8"
     inkscape:window-y="-8"
     inkscape:window-maximized="1"
     inkscape:current-layer="layer1"
     fit-margin-top="0"
     fit-margin-left="0"
     fit-margin-right="0"
     fit-margin-bottom="0"
     inkscape:showpageshadow="2"
     inkscape:deskcolor="#d1d1d1"
     showguides="false" />
  <defs
     id="defs2" />
  <g
     inkscape:label="Layer 1"
     inkscape:groupmode="layer"
     id="layer1"
     transform="matrix(0.38355218,0,0,0.38355218,-25.311186,-42.016759)">
    <path
       id="path846"
       style="fill:#f7f7f7;fill-opacity:1;stroke:#a8bcc8;stroke-width:2.60721;stroke-linecap:square;stroke-linejoin:round;stroke-dasharray:none;stroke-opacity:1"
       d="m 72.598013,118.51157 c -5.2e-4,5.14684 3.920694,8.04663 9.395857,7.56919 h 24.71374 V 110.92755 H 81.861833 c -5.766306,-0.0298 -9.263438,2.4616 -9.26382,7.58402 z"
       sodipodi:nodetypes="cccccc" />
    <circle
       style="fill:#f7f7f7;fill-opacity:1;stroke:#a8bcc8;stroke-width:2.60721;stroke-linecap:square;stroke-linejoin:round;stroke-miterlimit:4;stroke-dasharray:none;stroke-opacity:1"
       id="path846-3"
       cx="107.00388"
       cy="118.48175"
       r="7.6317496" />
    <path
       id="path2201"
       style="fill:#ffffff;fill-opacity:1;stroke:#a8bcc8;stroke-width:9.85401;stroke-linecap:butt;stroke-linejoin:miter;stroke-miterlimit:4;stroke-dasharray:none;stroke-opacity:1"
       d="m 412.50586,476.52344 -113.71484,0.66992 -46.80469,28.60937 8.80859,-3.22265 3.74024,6.94922 h 0.54101 l 9.96485,-6.76758 9.91796,6.76758 h 6.2461 l 4.89648,-6.34571 9.1836,4.90625 14.12109,-5.92382 7.37891,7.36328 h 3.15234 l 5.65625,-6.45313 9.15234,6.45313 h 6.74024 l 5.96875,-6.08399 7.18359,6.08399 h 3.23633 z"
       transform="scale(0.26458333)"
       sodipodi:nodetypes="ccccccccccccccccccccc" />
    <path
       id="path2615"
       style="fill:none;fill-rule:evenodd;stroke:#a8bcc8;stroke-width:1.3036;stroke-linecap:round;stroke-dasharray:none"
       d="m 106.48704,118.98983 c -0.39739,-0.0482 -0.44948,-0.63212 -0.32658,-0.98106 0.21983,-0.62416 0.93602,-0.77974 1.44154,-0.49943 0.74188,0.41138 0.94915,1.53827 0.55606,2.29315 -0.52392,1.00614 -1.75199,1.22499 -2.62044,0.64024 -1.09286,-0.73585 -1.32131,-2.37224 -0.64758,-3.52247 0.81597,-1.39307 2.57195,-1.67565 3.79934,-0.78104 1.44643,1.05426 1.73301,3.2729 0.77589,4.81616 -1.10502,1.78176 -3.39319,2.12817 -4.97824,0.92185 -1.80103,-1.37069 -2.14581,-4.17448 -0.9042,-6.10986 1.39289,-2.1712 4.21501,-2.58152 6.15714,-1.06265 2.15613,1.68622 2.55917,5.07652 1.03251,7.40356"
       sodipodi:nodetypes="csssssscsscc" />
  </g>
</svg>
