<?xml version="1.0" encoding="UTF-8" standalone="no"?>
<!-- Created with Inkscape (http://www.inkscape.org/) -->

<svg
   width="10.555407mm"
   height="19.203562mm"
   viewBox="0 0 10.555407 19.203563"
   version="1.1"
   id="svg5"
   inkscape:version="1.4.2 (f4327f4, 2025-05-13)"
   sodipodi:docname="black_soda.svg"
   inkscape:export-filename="soda.png"
   inkscape:export-xdpi="96"
   inkscape:export-ydpi="96"
   xml:space="preserve"
   xmlns:inkscape="http://www.inkscape.org/namespaces/inkscape"
   xmlns:sodipodi="http://sodipodi.sourceforge.net/DTD/sodipodi-0.dtd"
   xmlns:xlink="http://www.w3.org/1999/xlink"
   xmlns="http://www.w3.org/2000/svg"
   xmlns:svg="http://www.w3.org/2000/svg"><sodipodi:namedview
     id="namedview7"
     pagecolor="#ffffff"
     bordercolor="#666666"
     borderopacity="1.0"
     inkscape:pageshadow="2"
     inkscape:pageopacity="0.0"
     inkscape:pagecheckerboard="0"
     inkscape:document-units="mm"
     showgrid="false"
     inkscape:zoom="4.1666273"
     inkscape:cx="-0.24000227"
     inkscape:cy="70.680668"
     inkscape:window-width="1920"
     inkscape:window-height="1009"
     inkscape:window-x="-8"
     inkscape:window-y="-8"
     inkscape:window-maximized="1"
     inkscape:current-layer="layer1"
     fit-margin-top="0"
     fit-margin-left="0"
     fit-margin-right="0"
     fit-margin-bottom="0"
     inkscape:showpageshadow="2"
     inkscape:deskcolor="#d1d1d1" /><defs
     id="defs2"><inkscape:path-effect
       effect="fillet_chamfer"
       id="path-effect1"
       is_visible="true"
       lpeversion="1"
       nodesatellites_param="F,0,0,1,0,0,0,1 @ F,0,0,1,0,0,0,1 @ F,0,0,1,0,0,0,1 @ F,0,0,1,0,0,0,1"
       radius="0"
       unit="px"
       method="auto"
       mode="F"
       chamfer_steps="1"
       flexible="false"
       use_knot_distance="true"
       apply_no_radius="true"
       apply_with_radius="true"
       only_selected="false"
       hide_knots="false" /><linearGradient
       inkscape:collect="always"
       xlink:href="#linearGradient1-8"
       id="linearGradient5"
       x1="62.827393"
       y1="118.9819"
       x2="62.827393"
       y2="157.20273"
       gradientUnits="userSpaceOnUse" /><linearGradient
       id="linearGradient1-8"
       inkscape:collect="always"><stop
         style="stop-color:#52565e;stop-opacity:1;"
         offset="0"
         id="stop1-8" /><stop
         style="stop-color:#282b2d;stop-opacity:1;"
         offset="1"
         id="stop2" /></linearGradient><inkscape:path-effect
       effect="offset"
       id="path-effect4"
       is_visible="true"
       lpeversion="1.3"
       linejoin_type="miter"
       unit="mm"
       offset="2.4"
       miter_limit="4"
       attempt_force_join="false"
       update_on_knot_move="true" /><inkscape:path-effect
       effect="knot"
       id="path-effect3"
       is_visible="false"
       lpeversion="1"
       switcher_size="15.9"
       interruption_width="3"
       prop_to_stroke_width="true"
       add_stroke_width="inkscape_1.0_and_up"
       both="false"
       inverse_width="false"
       add_other_stroke_width="inkscape_1.0_and_up"
       crossing_points_vector="" /><inkscape:path-effect
       effect="fillet_chamfer"
       id="path-effect1-5"
       is_visible="true"
       lpeversion="1"
       nodesatellites_param="F,0,0,1,0,0,0,1 @ F,0,0,1,0,0,0,1 @ F,0,0,1,0,0,0,1 @ F,0,0,1,0,0,0,1"
       radius="0"
       unit="px"
       method="auto"
       mode="F"
       chamfer_steps="1"
       flexible="false"
       use_knot_distance="true"
       apply_no_radius="true"
       apply_with_radius="true"
       only_selected="false"
       hide_knots="false" /></defs><g
     inkscape:label="Layer 1"
     inkscape:groupmode="layer"
     id="layer1"
     transform="matrix(0.41121811,0,0,0.41121811,-20.601963,-47.603968)"><path
       id="rect880"
       style="fill:url(#linearGradient5);stroke:#1a1c1d;stroke-width:2.4318;stroke-linecap:square;stroke-dasharray:none;stroke-opacity:1"
       d="m 53.436268,119.83657 h 18.999649 c -0.01284,1.27668 1.30244,2.31918 2.11664,2.9342 l -9.74e-4,33.68647 H 51.320602 v -33.63266 c 0.875792,-0.52475 1.907981,-1.72578 2.115666,-2.98801 z"
       sodipodi:nodetypes="ccccccc" /><path
       id="rect4106"
       style="fill:#bdbdbd;stroke:#777777;stroke-width:1.2159;stroke-linecap:square;stroke-dasharray:none"
       d="m 53.027725,116.37126 h 20.057483 v 1.7129 H 53.027725 Z"
       sodipodi:nodetypes="ccccc" /><path
       id="rect4106-7"
       style="fill:#bdbdbd;stroke:#777777;stroke-width:1.2159;stroke-linecap:square;stroke-dasharray:none;stroke-opacity:1"
       d="m 50.712652,158.16271 24.439586,-9.5e-4 c 0.002,1.64215 -0.124221,3.6482 -1.94544,3.69242 l -21.278246,3.9e-4 c -1.127757,-0.004 -1.24735,-1.82597 -1.2159,-3.69186 z"
       sodipodi:nodetypes="ccccc" /><path
       id="path6045"
       style="stroke-width:0.452758;stroke-dasharray:none;fill:#ffffff;fill-opacity:1;stroke:#d3d3d3;stroke-linecap:round;stroke-miterlimit:4;stroke-opacity:1"
       d="M 4.3095167,0.09189162 C 2.2206413,0.0917038 0.52710762,1.7396015 0.526882,3.772595 0.52722787,5.0030771 1.1592632,6.1520205 2.211256,6.8345291 V 8.5261084 H 3.1790476 V 7.2854792 c 0.2106972,0.063535 0.4267013,0.1090091 0.6455421,0.1359036 V 8.5261084 H 4.7934063 V 7.4234416 C 5.0122791,7.3962113 5.2282837,7.3503926 5.4389484,7.2865097 V 8.5261084 H 6.406744 V 6.835559 C 7.4590487,6.152848 8.0911259,5.003442 8.091118,3.772595 8.0908924,1.7399943 6.3979885,0.09225919 4.3095167,0.09189162 Z M 2.2915631,2.7914171 C 2.8485666,2.7912188 3.3002867,3.2304925 3.3005415,3.772595 3.3008714,4.3150997 2.84898,4.7550013 2.2915631,4.7548028 1.7345481,4.7544482 1.2832839,4.3147086 1.2836136,3.772595 1.2838681,3.2308835 1.7349613,2.7917715 2.2915631,2.7914171 Z m 4.0348698,0 C 6.8834367,2.7912184 7.3351572,3.2304923 7.335412,3.772595 7.3357419,4.3150999 6.88385,4.7550017 6.3264329,4.7548028 5.7690188,4.7549975 5.3171317,4.315097 5.3174616,3.772595 5.3177164,3.2304952 5.7694321,2.7912226 6.3264329,2.7914171 Z M 4.3095167,4.5581549 c 0.1292995,0 0.2581193,0.2186793 0.5168405,0.6548055 0.5174305,0.8722519 0.5180362,0.8720432 -0.5168405,0.8720432 -1.0348649,0 -1.0353044,2.091e-4 -0.517874,-0.8720432 0.2587251,-0.4361262 0.3885272,-0.6548055 0.517874,-0.6548055 z"
       sodipodi:nodetypes="ccccccccccccccccccccccccccscscs"
       transform="matrix(1.7778264,0,0,1.7778264,55.273506,131.45226)" /></g></svg>
