<?xml version="1.0" encoding="UTF-8" standalone="no"?>
<!-- Created with Inkscape (http://www.inkscape.org/) -->

<svg
   width="20mm"
   height="20.000004mm"
   viewBox="0 0 20.000001 20.000005"
   version="1.1"
   id="svg1"
   inkscape:version="1.4.2 (f4327f4, 2025-05-13)"
   sodipodi:docname="22lr.svg"
   inkscape:export-filename="762mm.png"
   inkscape:export-xdpi="216.74667"
   inkscape:export-ydpi="216.74667"
   xml:space="preserve"
   xmlns:inkscape="http://www.inkscape.org/namespaces/inkscape"
   xmlns:sodipodi="http://sodipodi.sourceforge.net/DTD/sodipodi-0.dtd"
   xmlns="http://www.w3.org/2000/svg"
   xmlns:svg="http://www.w3.org/2000/svg"><sodipodi:namedview
     id="namedview1"
     pagecolor="#ffffff"
     bordercolor="#000000"
     borderopacity="0.25"
     inkscape:showpageshadow="2"
     inkscape:pageopacity="0.0"
     inkscape:pagecheckerboard="0"
     inkscape:deskcolor="#d1d1d1"
     inkscape:document-units="mm"
     inkscape:zoom="2.8284271"
     inkscape:cx="42.426407"
     inkscape:cy="107.30345"
     inkscape:window-width="1920"
     inkscape:window-height="1009"
     inkscape:window-x="-8"
     inkscape:window-y="-8"
     inkscape:window-maximized="1"
     inkscape:current-layer="layer1" /><defs
     id="defs1"><inkscape:path-effect
       effect="fillet_chamfer"
       id="path-effect2"
       is_visible="true"
       lpeversion="1"
       nodesatellites_param="F,0,0,1,0,1.3229167,0,1 @ F,0,0,1,0,1.3229167,0,1 @ F,0,0,1,0,1.3229167,0,1 @ F,0,0,1,0,1.3229167,0,1"
       radius="5"
       unit="px"
       method="auto"
       mode="F"
       chamfer_steps="1"
       flexible="false"
       use_knot_distance="true"
       apply_no_radius="true"
       apply_with_radius="true"
       only_selected="false"
       hide_knots="false" /><inkscape:path-effect
       effect="fillet_chamfer"
       id="path-effect1"
       is_visible="true"
       lpeversion="1"
       nodesatellites_param="F,0,0,1,0,1.5875,0,1 @ F,0,0,1,0,1.5875,0,1 @ F,0,0,1,0,1.5875,0,1 @ F,0,0,1,0,1.5875,0,1"
       radius="7"
       unit="px"
       method="auto"
       mode="F"
       chamfer_steps="1"
       flexible="false"
       use_knot_distance="true"
       apply_no_radius="true"
       apply_with_radius="true"
       only_selected="false"
       hide_knots="false" /></defs><g
     inkscape:label="Camada 1"
     inkscape:groupmode="layer"
     id="layer1"
     transform="matrix(1.6232329,0,0,1.6232329,2.3084548,1.7179209)"><path
       id="rect1"
       d="M 0.64337315,-0.31574178 H 8.8334496 c 0.7306266,1.7e-7 1.3229164,0.59229009 1.3229164,1.32291668 v 8.1900774 c 0,0.7306266 -0.5922898,1.3229167 -1.3229164,1.3229167 H 0.64337315 c -0.73062672,0 -1.3229167,-0.59229 -1.3229167,-1.3229167 V 1.0071749 c 1e-8,-0.73062671 0.59228999,-1.32291668 1.3229167,-1.32291668 z"
       style="fill:#f9f9f9;fill-opacity:1;stroke:#9ca3a3;stroke-width:1.48518;stroke-linecap:round;stroke-linejoin:miter;stroke-dasharray:none;stroke-opacity:1"
       sodipodi:nodetypes="scsssssss" /><g
       id="g3"
       style="stroke:#a9b1b1;stroke-width:0.855337;stroke-dasharray:none;stroke-opacity:1"
       transform="matrix(0.72024737,0,0,0.72024737,-0.66344401,-0.29964174)"><circle
         style="fill:none;fill-opacity:1;stroke:#a9b1b1;stroke-opacity:1"
         id="path1"
         cx="2.95"
         cy="2.95"
         r="1" /><circle
         style="fill:none;fill-opacity:1;stroke:#a9b1b1;stroke-opacity:1"
         id="circle1"
         cx="12.05"
         cy="2.95"
         r="1" /><circle
         style="fill:none;fill-opacity:1;stroke:#a9b1b1;stroke-opacity:1"
         id="path1-8"
         cx="2.95"
         cy="12.05"
         r="1" /><circle
         style="fill:none;fill-opacity:1;stroke:#a9b1b1;stroke-opacity:1"
         id="circle1-8"
         cx="12.05"
         cy="12.05"
         r="1" /></g><path
       d="M 1.4871475,6.0584648 H 2.3477761 V 6.7756553 H 1.4871475 Z M 5.1687243,4.4806457 q 0,0.4064079 -0.3442514,0.7028467 -0.105188,0.090844 -0.229501,0.1816882 L 3.5669988,6.1062775 H 5.1687243 V 6.7756553 H 2.5868385 V 5.867214 L 4.3080957,4.6240838 V 4.3850203 q 0,-0.2868762 -0.2868762,-0.2868762 H 2.6824639 V 3.4287663 h 1.5300064 q 0.5020333,0 0.726753,0.2295009 0.229501,0.2247197 0.229501,0.7267531 z m 2.8209501,0 q 0,0.4064079 -0.3442514,0.7028467 -0.1051879,0.090844 -0.229501,0.1816882 L 6.387949,6.1062775 H 7.9896744 V 6.7756553 H 5.4077886 V 5.867214 L 7.1290458,4.6240838 V 4.3850203 q 0,-0.2868762 -0.2868762,-0.2868762 H 5.503414 V 3.4287663 h 1.5300064 q 0.5020334,0 0.7267531,0.2295009 0.2295009,0.2247197 0.2295009,0.7267531 z"
       id="text2"
       style="font-size:4.78127px;font-family:'Russo One';-inkscape-font-specification:'Russo One, Normal';fill:#b7bebe;stroke-width:0.162998"
       aria-label=".22" /></g></svg>
