<?xml version="1.0" encoding="UTF-8" standalone="no"?>
<!-- Created with Inkscape (http://www.inkscape.org/) -->

<svg
   width="20mm"
   height="20.000004mm"
   viewBox="0 0 20.000001 20.000005"
   version="1.1"
   id="svg1"
   inkscape:version="1.4.2 (f4327f4, 2025-05-13)"
   sodipodi:docname="50cal.svg"
   inkscape:export-filename="762mm.png"
   inkscape:export-xdpi="216.74667"
   inkscape:export-ydpi="216.74667"
   xmlns:inkscape="http://www.inkscape.org/namespaces/inkscape"
   xmlns:sodipodi="http://sodipodi.sourceforge.net/DTD/sodipodi-0.dtd"
   xmlns="http://www.w3.org/2000/svg"
   xmlns:svg="http://www.w3.org/2000/svg">
  <sodipodi:namedview
     id="namedview1"
     pagecolor="#ffffff"
     bordercolor="#000000"
     borderopacity="0.25"
     inkscape:showpageshadow="2"
     inkscape:pageopacity="0.0"
     inkscape:pagecheckerboard="0"
     inkscape:deskcolor="#d1d1d1"
     inkscape:document-units="mm"
     inkscape:zoom="2"
     inkscape:cx="48"
     inkscape:cy="28.25"
     inkscape:window-width="1920"
     inkscape:window-height="1009"
     inkscape:window-x="-8"
     inkscape:window-y="-8"
     inkscape:window-maximized="1"
     inkscape:current-layer="layer1" />
  <defs
     id="defs1">
    <inkscape:path-effect
       effect="fillet_chamfer"
       id="path-effect1"
       is_visible="true"
       lpeversion="1"
       nodesatellites_param="F,0,0,1,0,1.5875,0,1 @ F,0,0,1,0,1.5875,0,1 @ F,0,0,1,0,1.5875,0,1 @ F,0,0,1,0,1.5875,0,1"
       radius="7"
       unit="px"
       method="auto"
       mode="F"
       chamfer_steps="1"
       flexible="false"
       use_knot_distance="true"
       apply_no_radius="true"
       apply_with_radius="true"
       only_selected="false"
       hide_knots="false" />
  </defs>
  <g
     inkscape:label="Camada 1"
     inkscape:groupmode="layer"
     id="layer1"
     transform="matrix(1.6232329,0,0,1.6232329,2.3084548,1.7179209)">
    <path
       id="rect1"
       style="fill:#525759;stroke:#313434;stroke-width:1.08423;stroke-linecap:round"
       d="M -0.88001907,-0.51621801 H 10.356842 V 10.720645 H -0.88001907 Z" />
    <g
       id="g3"
       style="stroke:#313136;stroke-width:0.7;stroke-dasharray:none;stroke-opacity:1"
       transform="matrix(0.83463542,0,0,0.83463542,-1.5213544,-1.1575524)">
      <path
         id="path1"
         style="fill:none"
         d="m 3.95,2.95 a 1,1 0 0 1 -1,1 1,1 0 0 1 -1,-1 1,1 0 0 1 1,-1 1,1 0 0 1 1,1 z" />
      <path
         id="circle1"
         style="fill:none"
         d="m 13.05,2.95 a 1,1 0 0 1 -1,1 1,1 0 0 1 -1,-1 1,1 0 0 1 1,-1 1,1 0 0 1 1,1 z" />
      <path
         id="path1-8"
         style="fill:none"
         d="m 3.95,12.05 a 1,1 0 0 1 -1,1 1,1 0 0 1 -1,-1 1,1 0 0 1 1,-1 1,1 0 0 1 1,1 z" />
      <path
         id="circle1-8"
         style="fill:none"
         d="m 13.05,12.05 a 1,1 0 0 1 -1,1 1,1 0 0 1 -1,-1 1,1 0 0 1 1,-1 1,1 0 0 1 1,1 z" />
    </g>
    <path
       d="m 1.3517473,6.0429554 h 0.846666 v 0.705555 h -0.846666 z m 2.8222189,0.752592 q -0.7855179,0 -1.740369,-0.094074 V 6.0664739 q 1.0395177,0.070556 1.552221,0.070556 0.1081851,0 0.1693332,-0.061148 0.065852,-0.065852 0.065852,-0.174037 v -0.235185 q 0,-0.282222 -0.282222,-0.282222 h -1.364073 v -1.928517 h 2.257776 v 0.658518 h -1.41111 v 0.611481 h 0.752592 q 0.4609626,0 0.6773328,0.2116665 0.2163702,0.2069628 0.2163702,0.6349995 v 0.329259 q 0,0.4609627 -0.2163702,0.6773329 -0.2163704,0.2163696 -0.677333,0.2163696 z M 7.27841,4.3496233 q 0,-0.282222 -0.282222,-0.282222 H 6.478781 q -0.282222,0 -0.282222,0.282222 v 1.505184 q 0,0.2822221 0.282222,0.2822221 h 0.517407 q 0.282222,0 0.282222,-0.2822221 z m 0.846666,1.505184 q 0,0.4938886 -0.2257776,0.7196662 Q 7.6782245,6.7955474 7.184336,6.7955474 H 6.290633 q -0.4938885,0 -0.7196661,-0.2210739 Q 5.349893,6.3486959 5.349893,5.8548073 v -1.505184 q 0,-0.4938885 0.2210739,-0.7149624 Q 5.7967445,3.4088833 6.290633,3.4088833 h 0.893703 q 0.4938885,0 0.7149624,0.2257776 0.2257776,0.2210739 0.2257776,0.7149624 z"
       id="text1"
       style="font-size:4.7037px;font-family:'Russo One';-inkscape-font-specification:'Russo One, Normal';fill:#313136;stroke-width:0.0881944"
       aria-label=".50" />
  </g>
</svg>
