<?xml version="1.0" encoding="UTF-8" standalone="no"?>
<!-- Created with Inkscape (http://www.inkscape.org/) -->

<svg
   width="20mm"
   height="20.000004mm"
   viewBox="0 0 20.000001 20.000005"
   version="1.1"
   id="svg1"
   inkscape:version="1.4.2 (f4327f4, 2025-05-13)"
   sodipodi:docname="556mm.svg"
   inkscape:export-filename="762mm.png"
   inkscape:export-xdpi="216.74667"
   inkscape:export-ydpi="216.74667"
   xml:space="preserve"
   xmlns:inkscape="http://www.inkscape.org/namespaces/inkscape"
   xmlns:sodipodi="http://sodipodi.sourceforge.net/DTD/sodipodi-0.dtd"
   xmlns="http://www.w3.org/2000/svg"
   xmlns:svg="http://www.w3.org/2000/svg"><sodipodi:namedview
     id="namedview1"
     pagecolor="#ffffff"
     bordercolor="#000000"
     borderopacity="0.25"
     inkscape:showpageshadow="2"
     inkscape:pageopacity="0.0"
     inkscape:pagecheckerboard="0"
     inkscape:deskcolor="#d1d1d1"
     inkscape:document-units="mm"
     inkscape:zoom="5.6568542"
     inkscape:cx="37.653436"
     inkscape:cy="21.124815"
     inkscape:window-width="1920"
     inkscape:window-height="1009"
     inkscape:window-x="-8"
     inkscape:window-y="-8"
     inkscape:window-maximized="1"
     inkscape:current-layer="layer1" /><defs
     id="defs1"><inkscape:path-effect
       effect="fillet_chamfer"
       id="path-effect2"
       is_visible="true"
       lpeversion="1"
       nodesatellites_param="F,0,0,1,0,1.3229167,0,1 @ F,0,0,1,0,1.3229167,0,1 @ F,0,0,1,0,1.3229167,0,1 @ F,0,0,1,0,1.3229167,0,1"
       radius="5"
       unit="px"
       method="auto"
       mode="F"
       chamfer_steps="1"
       flexible="false"
       use_knot_distance="true"
       apply_no_radius="true"
       apply_with_radius="true"
       only_selected="false"
       hide_knots="false" /><inkscape:path-effect
       effect="fillet_chamfer"
       id="path-effect1"
       is_visible="true"
       lpeversion="1"
       nodesatellites_param="F,0,0,1,0,1.5875,0,1 @ F,0,0,1,0,1.5875,0,1 @ F,0,0,1,0,1.5875,0,1 @ F,0,0,1,0,1.5875,0,1"
       radius="7"
       unit="px"
       method="auto"
       mode="F"
       chamfer_steps="1"
       flexible="false"
       use_knot_distance="true"
       apply_no_radius="true"
       apply_with_radius="true"
       only_selected="false"
       hide_knots="false" /></defs><g
     inkscape:label="Camada 1"
     inkscape:groupmode="layer"
     id="layer1"
     transform="matrix(1.6232329,0,0,1.6232329,2.3084548,1.7179209)"><path
       id="rect1"
       d="M 0.64337315,-0.31574178 H 8.8334496 c 0.7306266,1.7e-7 1.3229164,0.59229009 1.3229164,1.32291668 v 8.1900774 c 0,0.7306266 -0.5922898,1.3229167 -1.3229164,1.3229167 H 0.64337315 c -0.73062672,0 -1.3229167,-0.59229 -1.3229167,-1.3229167 V 1.0071749 c 1e-8,-0.73062671 0.59228999,-1.32291668 1.3229167,-1.32291668 z"
       style="fill:#00f512;fill-opacity:1;stroke:#008610;stroke-width:1.48518;stroke-linecap:round;stroke-linejoin:miter;stroke-dasharray:none;stroke-opacity:1"
       sodipodi:nodetypes="scsssssss" /><g
       id="g3"
       style="stroke:#009c0e;stroke-width:0.855337;stroke-dasharray:none;stroke-opacity:1"
       transform="matrix(0.72024737,0,0,0.72024737,-0.66344401,-0.29964174)"><circle
         style="fill:none;fill-opacity:1;stroke:#009c0e;stroke-opacity:1"
         id="path1"
         cx="2.95"
         cy="2.95"
         r="1" /><circle
         style="fill:none;fill-opacity:1;stroke:#009c0e;stroke-opacity:1"
         id="circle1"
         cx="12.05"
         cy="2.95"
         r="1" /><circle
         style="fill:none;fill-opacity:1;stroke:#009c0e;stroke-opacity:1"
         id="path1-8"
         cx="2.95"
         cy="12.05"
         r="1" /><circle
         style="fill:none;fill-opacity:1;stroke:#009c0e;stroke-opacity:1"
         id="circle1-8"
         cx="12.05"
         cy="12.05"
         r="1" /></g><path
       d="m 2.4955584,6.3540353 q -0.5807074,0 -1.2865972,-0.069546 V 5.8150554 q 0.768481,0.052159 1.1475056,0.052159 0.079978,0 0.1251825,-0.045205 0.048682,-0.048682 0.048682,-0.1286598 V 5.5194857 q 0,-0.2086374 -0.2086374,-0.2086374 H 1.3132799 V 3.8851595 H 2.982379 V 4.3719801 H 1.9391921 v 0.4520477 h 0.5563663 q 0.3407745,0 0.5007298,0.156478 0.1599553,0.1530008 0.1599553,0.4694341 v 0.2434103 q 0,0.3407744 -0.1599553,0.5007298 Q 2.8363329,6.3540353 2.4955584,6.3540353 Z M 3.3301093,5.7976689 H 3.9560215 V 6.3192624 H 3.3301093 Z m 2.0863731,0.5563664 q -0.5807074,0 -1.2865973,-0.069546 V 5.8150554 q 0.7684811,0.052159 1.1475057,0.052159 0.079978,0 0.1251824,-0.045205 0.048682,-0.048682 0.048682,-0.1286598 V 5.5194857 q 0,-0.2086374 -0.2086374,-0.2086374 H 4.2342038 V 3.8851595 H 5.903303 V 4.3719801 H 4.860116 v 0.4520477 h 0.5563664 q 0.3407744,0 0.5007297,0.156478 0.1599554,0.1530008 0.1599554,0.4694341 v 0.2434103 q 0,0.3407744 -0.1599554,0.5007298 Q 5.7572568,6.3540353 5.4164824,6.3540353 Z M 6.9464915,3.8503866 q 0.476389,0 1.147506,0.069546 v 0.4694341 q -0.191251,-0.010432 -0.326866,-0.017386 -0.132137,-0.010432 -0.219069,-0.013909 -0.08345,-0.00695 -0.16691,-0.013909 -0.139091,-0.00695 -0.257319,-0.00695 -0.212115,0 -0.212115,0.1738645 v 0.3129561 q 0.337297,-0.069546 0.591139,-0.069546 h 0.243411 q 0.236455,0 0.379024,0.1425688 0.142569,0.1425689 0.142569,0.3790246 v 0.4520477 q 0,0.3164334 -0.159955,0.4729115 -0.159956,0.1530007 -0.50073,0.1530007 h -0.660685 q -0.340774,0 -0.5007298,-0.1530007 Q 6.2858064,6.0445565 6.2858064,5.7281231 V 4.5110717 q 0,-0.3407744 0.1599553,-0.5007298 0.1599558,-0.1599553 0.5007298,-0.1599553 z m 0.382502,1.3909159 q -0.132137,0 -0.24341,0.013909 -0.107796,0.013909 -0.173865,0.020864 v 0.3825019 q 0,0.2086374 0.208637,0.2086374 h 0.312957 q 0.208637,0 0.208637,-0.2086374 V 5.3630077 q 0,-0.052159 -0.03477,-0.086932 -0.03477,-0.034773 -0.08693,-0.034773 z"
       id="text2"
       style="font-size:3.47729px;font-family:'Russo One';-inkscape-font-specification:'Russo One, Normal';fill:#00b710;stroke-width:0.162998;fill-opacity:1"
       aria-label="5.56" /></g></svg>
