<?xml version="1.0" encoding="UTF-8" standalone="no"?>
<!-- Created with Inkscape (http://www.inkscape.org/) -->

<svg
   width="20mm"
   height="20.000004mm"
   viewBox="0 0 20.000001 20.000005"
   version="1.1"
   id="svg1"
   inkscape:version="1.4.2 (f4327f4, 2025-05-13)"
   sodipodi:docname="9mm.svg"
   inkscape:export-filename="762mm.png"
   inkscape:export-xdpi="216.74667"
   inkscape:export-ydpi="216.74667"
   xml:space="preserve"
   xmlns:inkscape="http://www.inkscape.org/namespaces/inkscape"
   xmlns:sodipodi="http://sodipodi.sourceforge.net/DTD/sodipodi-0.dtd"
   xmlns="http://www.w3.org/2000/svg"
   xmlns:svg="http://www.w3.org/2000/svg"><sodipodi:namedview
     id="namedview1"
     pagecolor="#ffffff"
     bordercolor="#000000"
     borderopacity="0.25"
     inkscape:showpageshadow="2"
     inkscape:pageopacity="0.0"
     inkscape:pagecheckerboard="0"
     inkscape:deskcolor="#d1d1d1"
     inkscape:document-units="mm"
     inkscape:zoom="5.6568542"
     inkscape:cx="37.653436"
     inkscape:cy="49.409087"
     inkscape:window-width="1920"
     inkscape:window-height="1009"
     inkscape:window-x="-8"
     inkscape:window-y="-8"
     inkscape:window-maximized="1"
     inkscape:current-layer="layer1" /><defs
     id="defs1"><inkscape:path-effect
       effect="fillet_chamfer"
       id="path-effect2"
       is_visible="true"
       lpeversion="1"
       nodesatellites_param="F,0,0,1,0,1.3229167,0,1 @ F,0,0,1,0,1.3229167,0,1 @ F,0,0,1,0,1.3229167,0,1 @ F,0,0,1,0,1.3229167,0,1"
       radius="5"
       unit="px"
       method="auto"
       mode="F"
       chamfer_steps="1"
       flexible="false"
       use_knot_distance="true"
       apply_no_radius="true"
       apply_with_radius="true"
       only_selected="false"
       hide_knots="false" /><inkscape:path-effect
       effect="fillet_chamfer"
       id="path-effect1"
       is_visible="true"
       lpeversion="1"
       nodesatellites_param="F,0,0,1,0,1.5875,0,1 @ F,0,0,1,0,1.5875,0,1 @ F,0,0,1,0,1.5875,0,1 @ F,0,0,1,0,1.5875,0,1"
       radius="7"
       unit="px"
       method="auto"
       mode="F"
       chamfer_steps="1"
       flexible="false"
       use_knot_distance="true"
       apply_no_radius="true"
       apply_with_radius="true"
       only_selected="false"
       hide_knots="false" /></defs><g
     inkscape:label="Camada 1"
     inkscape:groupmode="layer"
     id="layer1"
     transform="matrix(1.6232329,0,0,1.6232329,2.3084548,1.7179209)"><path
       id="rect1"
       d="M 0.64337315,-0.31574178 H 8.8334496 c 0.7306266,1.7e-7 1.3229164,0.59229009 1.3229164,1.32291668 v 8.1900774 c 0,0.7306266 -0.5922898,1.3229167 -1.3229164,1.3229167 H 0.64337315 c -0.73062672,0 -1.3229167,-0.59229 -1.3229167,-1.3229167 V 1.0071749 c 1e-8,-0.73062671 0.59228999,-1.32291668 1.3229167,-1.32291668 z"
       style="fill:#fcff00;fill-opacity:1;stroke:#987a00;stroke-width:1.48518;stroke-linecap:round;stroke-linejoin:miter;stroke-dasharray:none;stroke-opacity:1"
       sodipodi:nodetypes="scsssssss" /><g
       id="g3"
       style="stroke:#b59400;stroke-width:0.855337;stroke-dasharray:none;stroke-opacity:1"
       transform="matrix(0.72024737,0,0,0.72024737,-0.66344401,-0.29964174)"><circle
         style="fill:none;fill-opacity:1;stroke:#b59400;stroke-width:0.855337;stroke-dasharray:none;stroke-opacity:1"
         id="path1"
         cx="2.95"
         cy="2.95"
         r="1" /><circle
         style="fill:none;fill-opacity:1;stroke:#b59400;stroke-width:0.855337;stroke-dasharray:none;stroke-opacity:1"
         id="circle1"
         cx="12.05"
         cy="2.95"
         r="1" /><circle
         style="fill:none;fill-opacity:1;stroke:#b59400;stroke-width:0.855337;stroke-dasharray:none;stroke-opacity:1"
         id="path1-8"
         cx="2.95"
         cy="12.05"
         r="1" /><circle
         style="fill:none;fill-opacity:1;stroke:#b59400;stroke-width:0.855337;stroke-dasharray:none;stroke-opacity:1"
         id="circle1-8"
         cx="12.05"
         cy="12.05"
         r="1" /></g><path
       d="m 3.3375707,6.3242292 c 0.8186495,0.059611 1.3948833,0.089416 1.7287016,0.089416 0.091403,0 0.1629351,-0.025831 0.2145974,-0.077494 0.055637,-0.055637 0.083455,-0.1291562 0.083455,-0.2205585 V 5.5790992 C 4.9788438,5.6585797 4.6410514,5.69832 4.3509475,5.69832 H 3.9336747 C 3.6634408,5.69832 3.4468564,5.6168525 3.2839213,5.4539174 3.1209862,5.2909823 3.0395187,5.0743978 3.0395187,4.804164 V 4.0292288 c 0,-0.3616364 0.091403,-0.6298832 0.2742078,-0.8047404 C 3.4965317,3.0456572 3.7826616,2.9562416 4.1721163,2.9562416 h 1.1325976 c 0.3894546,0 0.6755845,0.089416 0.8583897,0.2682468 0.1828053,0.1748572 0.2742079,0.443104 0.2742079,0.8047404 v 2.086364 c 0,0.3894547 -0.091403,0.6755846 -0.2742079,0.8583898 -0.1828052,0.1828052 -0.4689351,0.2742078 -0.8583897,0.2742078 -0.5444417,0 -1.2001561,-0.03974 -1.9671432,-0.1192208 z M 4.6489995,4.8637744 c 0.2265195,0 0.4649611,-0.01987 0.7153248,-0.05961 V 4.1484496 c 0,-0.2384416 -0.1192208,-0.3576624 -0.3576624,-0.3576624 H 4.4701683 c -0.2384416,0 -0.3576624,0.1192208 -0.3576624,0.3576624 V 4.655138 c 0,0.059611 0.01987,0.109286 0.05961,0.149026 0.03974,0.03974 0.089415,0.05961 0.149026,0.05961 z"
       id="text2"
       style="font-size:5.96104px;font-family:'Russo One';-inkscape-font-specification:'Russo One, Normal';fill:#d5b600;fill-opacity:1;stroke-width:0.223539"
       aria-label="9"
       sodipodi:nodetypes="cssscssssscsscssssccscssssssss" /></g></svg>
