<?xml version="1.0" encoding="UTF-8" standalone="no"?>
<!-- Created with Inkscape (http://www.inkscape.org/) -->

<svg
   width="19.341185mm"
   height="20.002888mm"
   viewBox="0 0 19.341184 20.002889"
   version="1.1"
   id="svg5"
   inkscape:version="1.4 (1:1.4+202410161351+e7c3feb100)"
   sodipodi:docname="stone_particle_1.svg"
   xml:space="preserve"
   xmlns:inkscape="http://www.inkscape.org/namespaces/inkscape"
   xmlns:sodipodi="http://sodipodi.sourceforge.net/DTD/sodipodi-0.dtd"
   xmlns:xlink="http://www.w3.org/1999/xlink"
   xmlns="http://www.w3.org/2000/svg"
   xmlns:svg="http://www.w3.org/2000/svg"><sodipodi:namedview
     id="namedview7"
     pagecolor="#ffffff"
     bordercolor="#666666"
     borderopacity="1.0"
     inkscape:pageshadow="2"
     inkscape:pageopacity="0.0"
     inkscape:pagecheckerboard="0"
     inkscape:document-units="mm"
     showgrid="false"
     inkscape:zoom="2.599907"
     inkscape:cx="45.578553"
     inkscape:cy="1.346202"
     inkscape:window-width="1854"
     inkscape:window-height="1011"
     inkscape:window-x="0"
     inkscape:window-y="0"
     inkscape:window-maximized="1"
     inkscape:current-layer="layer1"
     fit-margin-top="0"
     fit-margin-left="0"
     fit-margin-right="0"
     fit-margin-bottom="0"
     inkscape:showpageshadow="2"
     inkscape:deskcolor="#d1d1d1" /><defs
     id="defs2"><linearGradient
       x1="204.98874"
       y1="178.6452"
       x2="275.01126"
       y2="178.6452"
       gradientUnits="userSpaceOnUse"
       id="color-2"><stop
         offset="0"
         stop-color="#666666"
         id="stop3"
         style="stop-color:#353a3a;stop-opacity:1;" /><stop
         offset="1"
         stop-color="#666666"
         id="stop4"
         style="stop-color:#4a4f4f;stop-opacity:1;" /></linearGradient><linearGradient
       x1="240.26578"
       y1="148.08002"
       x2="262.53214"
       y2="153.164"
       gradientUnits="userSpaceOnUse"
       id="color-3"><stop
         offset="0"
         stop-color="#e6e6e6"
         id="stop5"
         style="stop-color:#e6e6e6;stop-opacity:0.29523811;" /><stop
         offset="1"
         stop-color="#e6e6e6"
         stop-opacity="0"
         id="stop6"
         style="stop-color:#e6e6e6;stop-opacity:0.15449736;" /></linearGradient><linearGradient
       x1="204.98874"
       y1="178.6452"
       x2="275.01126"
       y2="178.6452"
       gradientUnits="userSpaceOnUse"
       id="linearGradient33"><stop
         offset="0"
         stop-color="#666666"
         id="stop30"
         style="stop-color:#616b6b;stop-opacity:1;" /><stop
         offset="1"
         stop-color="#666666"
         id="stop31"
         style="stop-color:#6f7676;stop-opacity:1;" /></linearGradient><inkscape:path-effect
       effect="fillet_chamfer"
       id="path-effect2"
       is_visible="true"
       lpeversion="1"
       nodesatellites_param="F,0,0,1,0,0,0,1 @ F,0,0,1,0,8.1875627,0,1 @ F,0,0,1,0,0,0,1 @ F,0,0,1,0,0,0,1 @ F,0,0,1,0,0,0,1 @ F,0,0,1,0,10.156461,0,1"
       radius="0"
       unit="px"
       method="bezier"
       mode="F"
       chamfer_steps="1"
       flexible="false"
       use_knot_distance="false"
       apply_no_radius="false"
       apply_with_radius="true"
       only_selected="false"
       hide_knots="false" /><linearGradient
       x1="246.26093"
       y1="140.44138"
       x2="246.26093"
       y2="210.47472"
       gradientUnits="userSpaceOnUse"
       id="color-1"><stop
         offset="0"
         stop-color="#3e3e3e"
         id="stop1" /><stop
         offset="1"
         stop-color="#1a1a1a"
         id="stop2" /></linearGradient><linearGradient
       x1="251.66998"
       y1="144.20598"
       x2="251.66998"
       y2="153.43912"
       gradientUnits="userSpaceOnUse"
       id="color-4"><stop
         offset="0"
         stop-color="#e6e6e6"
         id="stop7"
         style="stop-color:#e6e6e6;stop-opacity:0;" /><stop
         offset="1"
         stop-color="#e6e6e6"
         stop-opacity="0"
         id="stop8"
         style="stop-color:#e6e6e6;stop-opacity:0;" /></linearGradient><linearGradient
       id="linearGradient18"
       inkscape:collect="always"><stop
         style="stop-color:#898989;stop-opacity:1;"
         offset="0"
         id="stop18" /><stop
         style="stop-color:#8a8a8a;stop-opacity:1;"
         offset="1"
         id="stop19" /></linearGradient><linearGradient
       inkscape:collect="always"
       xlink:href="#linearGradient18"
       id="linearGradient19"
       x1="204.98874"
       y1="177.33334"
       x2="275.01126"
       y2="177.33334"
       gradientUnits="userSpaceOnUse" /></defs><g
     inkscape:label="Layer 1"
     inkscape:groupmode="layer"
     id="layer1"
     transform="matrix(0.77142856,0,0,0.77142856,-18.236397,-14.463232)"><g
       stroke="none"
       stroke-width="0"
       stroke-miterlimit="10"
       id="g15"
       style="stroke:#2a2a2a;stroke-opacity:1"
       transform="matrix(0.33675785,0,0,0.33675785,-44.647747,-28.004827)"><path
         style="baseline-shift:baseline;display:inline;overflow:visible;opacity:1;fill:url(#linearGradient19);stroke:none;stroke-width:4.41875;stroke-dasharray:none;stroke-opacity:1;enable-background:accumulate;stop-color:#000000;stop-opacity:1"
         d="m 248.46281,213.62287 c -31.23408,-0.004 -43.47407,-26.17649 -43.47407,-36.90593 0,-11.36641 7.03504,-33.05858 20.37598,-33.05858 3.99604,0 34.97068,-4.33247 39.91999,-1.84331 9.04657,3.01724 11.23973,26.36634 8.80017,39.21567 -2.43955,12.84933 -10.13097,23.29878 -10.13097,23.29878 -4.78997,7.02193 -10.03458,9.27017 -15.4911,9.29337 z"
         id="path10"
         sodipodi:nodetypes="csscscc" /><path
         d="m 248.46281,213.62287 c -15.42604,0.42454 -30.94693,-7.84561 -38.51356,-21.42493 -4.23823,-6.87701 -6.09901,-15.34326 -4.10366,-23.26663 1.61516,-8.30696 4.97499,-16.79954 11.55796,-22.40489 1.61831,-1.42922 6.68607,-3.71353 7.06068,-2.28274 -5.20809,6.83346 -9.64184,14.50526 -11.04184,23.09567 -1.0259,5.40332 -2.01569,10.8979 -2.00677,16.40318 0.66966,8.36757 7.71746,14.74145 15.2043,17.51086 5.74769,2.01561 13.0746,3.15054 18.01857,-1.30525 3.8556,-3.76769 5.56306,-9.05357 7.13033,-14.05645 2.04086,-3.76277 7.60571,-1.47057 10.27251,-4.97895 4.24728,-3.28634 7.18692,-7.9694 8.64256,-13.11238 1.76922,-4.63338 2.60884,-9.5628 2.324,-14.52496 3.76826,15.04252 2.52357,31.7348 -5.4876,45.23711 -3.63121,8.64057 -8.96839,15.32128 -19.05748,15.11036 z"
         fill="url(#color-2)"
         id="path11"
         style="fill:url(#linearGradient33);stroke:none;stroke-width:2.2;stroke-dasharray:none;stroke-opacity:1"
         sodipodi:nodetypes="ccccccccccccccc" /><path
         d="m 243.2083,146.84427 c 8.56726,-2.81843 13.97898,-3.28261 17.70027,-1.84948 3.72129,1.43314 5.56324,4.46806 0.99776,7.56029 -2.10565,1.42616 -15.80033,0.75687 -17.81323,0.51238 -3.73596,-0.45377 -9.45209,-3.40477 -0.88481,-6.2232 z"
         fill="url(#color-3)"
         id="path14"
         style="fill:url(#color-3);stroke:#2a2a2a;stroke-opacity:1"
         sodipodi:nodetypes="cssscc" /><path
         style="baseline-shift:baseline;display:inline;overflow:visible;opacity:1;vector-effect:none;fill:#000000;fill-opacity:1;stroke:none;stroke-opacity:1;enable-background:accumulate;stop-color:#000000;stop-opacity:1"
         d="m 257.48828,138.84375 c -3.75873,0.0576 -8.25556,0.36952 -12.71289,0.75781 -4.45733,0.38829 -8.87205,0.85375 -12.41211,1.22071 -3.54005,0.36695 -6.39827,0.62695 -6.99805,0.62695 -7.86794,0 -13.55636,6.27642 -17.16601,13.48633 -3.60965,7.20991 -5.41992,15.64222 -5.41992,21.78125 0,6.20486 3.26038,15.65248 10.57812,23.9375 7.31775,8.28501 18.87135,15.17565 35.10547,15.17773 h 0.004 0.006 c 6.04687,-0.0257 12.19508,-2.79297 17.27929,-10.22461 0.0354,-0.0477 7.95228,-10.72438 10.50391,-24.16406 1.28815,-6.7848 1.3385,-15.97204 -0.0879,-24.08984 -0.7132,-4.05891 -1.79056,-7.84268 -3.38086,-10.95118 -1.54977,-3.02926 -3.65974,-5.51164 -6.58594,-6.57812 -1.12456,-0.54851 -2.2695,-0.71752 -3.6914,-0.8457 -1.45126,-0.13083 -3.14212,-0.16357 -5.02149,-0.13477 z m 0.0664,4.41797 c 1.78294,-0.0273 3.35298,0.0105 4.55859,0.11914 1.20561,0.10868 2.08914,0.36266 2.17969,0.4082 l 0.14062,0.0723 0.15235,0.0488 c 1.47573,0.49219 2.9766,1.9843 4.26562,4.5039 1.28903,2.5196 2.30387,5.94339 2.96485,9.70508 1.32194,7.52339 1.24906,16.43547 0.0976,22.5 -2.32176,12.22893 -9.74023,22.40039 -9.74023,22.40039 l -0.0234,0.0312 -0.0215,0.0332 c -4.48757,6.57862 -8.81436,8.30714 -13.66602,8.33008 -14.99996,-0.002 -25.18415,-6.20096 -31.79492,-13.68554 -6.61077,-7.48459 -9.4707,-16.48714 -9.4707,-21.01172 0,-5.22739 1.71001,-13.32496 4.95312,-19.80274 3.24311,-6.47778 7.74184,-11.04687 13.21484,-11.04687 1.39825,0 3.90884,-0.28084 7.45508,-0.64844 3.54624,-0.3676 7.9334,-0.83116 12.33789,-1.21484 4.4045,-0.38369 8.8306,-0.68754 12.39649,-0.74219 z"
         id="path5"
         sodipodi:nodetypes="sscssscscccssscssscccccsccccccsssssccc" /></g></g></svg>
