<?xml version="1.0" encoding="UTF-8" standalone="no"?>
<!-- Created with Inkscape (http://www.inkscape.org/) -->

<svg
   width="12.718694mm"
   height="10.008536mm"
   viewBox="0 0 12.718694 10.008536"
   version="1.1"
   id="svg17553"
   inkscape:version="1.4.2 (f4327f4, 2025-05-13)"
   sodipodi:docname="red_crystal.svg"
   xmlns:inkscape="http://www.inkscape.org/namespaces/inkscape"
   xmlns:sodipodi="http://sodipodi.sourceforge.net/DTD/sodipodi-0.dtd"
   xmlns="http://www.w3.org/2000/svg"
   xmlns:svg="http://www.w3.org/2000/svg">
  <sodipodi:namedview
     id="namedview17555"
     pagecolor="#ffffff"
     bordercolor="#666666"
     borderopacity="1.0"
     inkscape:pageshadow="2"
     inkscape:pageopacity="0.0"
     inkscape:pagecheckerboard="0"
     inkscape:document-units="mm"
     showgrid="false"
     fit-margin-top="0"
     fit-margin-left="0"
     fit-margin-right="0"
     fit-margin-bottom="0"
     inkscape:zoom="5.6568542"
     inkscape:cx="41.277358"
     inkscape:cy="52.591067"
     inkscape:window-width="1920"
     inkscape:window-height="1009"
     inkscape:window-x="-8"
     inkscape:window-y="-8"
     inkscape:window-maximized="1"
     inkscape:current-layer="layer1"
     inkscape:showpageshadow="2"
     inkscape:deskcolor="#d1d1d1" />
  <defs
     id="defs17550" />
  <g
     inkscape:label="Layer 1"
     inkscape:groupmode="layer"
     id="layer1"
     transform="translate(-102.94585,-57.935866)">
    <g
       id="g12"
       transform="matrix(-0.46010441,0.79692423,0.79692423,0.46010441,106.4087,-49.363775)">
      <path
         style="fill:#ff2525;fill-opacity:1;stroke:#900000;stroke-width:0.5;stroke-linecap:square;stroke-linejoin:round;stroke-dasharray:none;stroke-opacity:1;paint-order:fill markers stroke"
         d="m 106.37109,60.444096 1.355,-2.305026 1.341,2.305026 v 4.859 l -1.341,2.34456 -1.355,-2.34456 z"
         id="path11"
         sodipodi:nodetypes="ccccccc" />
      <path
         id="path12"
         style="baseline-shift:baseline;display:inline;overflow:visible;opacity:1;vector-effect:none;fill:#900000;stroke-linejoin:round;paint-order:fill markers stroke;enable-background:accumulate;stop-color:#000000;stop-opacity:1"
         d="m 107.4745,58.529367 v 0.01757 h -0.0274 v 1.892908 l -1.30638,2.433443 0.007,0.0036 -0.007,0.0036 1.30638,2.433443 v 1.892908 h 0.0274 v 0.01757 h 0.50022 V 65.30053 a 0.25002449,0.25002449 0 0 0 0,-0.0036 v -5.17e-4 l 1.2883,-2.397787 0.0181,-0.0098 -0.006,-0.01189 0.006,-0.01188 -0.0181,-0.0098 -1.2883,-2.397786 v -5.17e-4 a 0.25002449,0.25002449 0 0 0 0,-0.0036 v -1.923914 z m 0.23202,2.48512 1.00201,1.862418 -1.00201,1.862419 -1.00149,-1.862419 z" />
    </g>
    <g
       id="g10"
       transform="matrix(-0.72513447,0.56653713,0.56653713,0.72513447,150.80553,-42.476554)">
      <path
         style="fill:#ff2525;fill-opacity:1;stroke:#900000;stroke-width:0.5;stroke-linecap:square;stroke-linejoin:round;stroke-dasharray:none;stroke-opacity:1;paint-order:fill markers stroke"
         d="m 106.37109,60.444096 1.355,-2.305026 1.341,2.305026 v 4.859 l -1.341,2.34456 -1.355,-2.34456 z"
         id="path9"
         sodipodi:nodetypes="ccccccc" />
      <path
         id="path10"
         style="baseline-shift:baseline;display:inline;overflow:visible;opacity:1;vector-effect:none;fill:#900000;stroke-linejoin:round;paint-order:fill markers stroke;enable-background:accumulate;stop-color:#000000;stop-opacity:1"
         d="m 107.4745,58.529367 v 0.01757 h -0.0274 v 1.892908 l -1.30638,2.433443 0.007,0.0036 -0.007,0.0036 1.30638,2.433443 v 1.892908 h 0.0274 v 0.01757 h 0.50022 V 65.30053 a 0.25002449,0.25002449 0 0 0 0,-0.0036 v -5.17e-4 l 1.2883,-2.397787 0.0181,-0.0098 -0.006,-0.01189 0.006,-0.01188 -0.0181,-0.0098 -1.2883,-2.397786 v -5.17e-4 a 0.25002449,0.25002449 0 0 0 0,-0.0036 v -1.923914 z m 0.23202,2.48512 1.00201,1.862418 -1.00201,1.862419 -1.00149,-1.862419 z" />
    </g>
    <g
       id="g6"
       transform="matrix(0.63232583,0.49402707,-0.49402707,0.63232583,76.068224,-28.264054)">
      <path
         style="fill:#ff2525;fill-opacity:1;stroke:#900000;stroke-width:0.5;stroke-linecap:square;stroke-linejoin:round;stroke-dasharray:none;stroke-opacity:1;paint-order:fill markers stroke"
         d="m 106.37109,60.444096 1.355,-2.305026 1.341,2.305026 v 4.859 l -1.341,2.34456 -1.355,-2.34456 z"
         id="path5"
         sodipodi:nodetypes="ccccccc" />
      <path
         id="path6"
         style="baseline-shift:baseline;display:inline;overflow:visible;opacity:1;vector-effect:none;fill:#900000;stroke-linejoin:round;paint-order:fill markers stroke;enable-background:accumulate;stop-color:#000000;stop-opacity:1"
         d="m 107.4745,58.529367 v 0.01757 h -0.0274 v 1.892908 l -1.30638,2.433443 0.007,0.0036 -0.007,0.0036 1.30638,2.433443 v 1.892908 h 0.0274 v 0.01757 h 0.50022 V 65.30053 a 0.25002449,0.25002449 0 0 0 0,-0.0036 v -5.17e-4 l 1.2883,-2.397787 0.0181,-0.0098 -0.006,-0.01189 0.006,-0.01188 -0.0181,-0.0098 -1.2883,-2.397786 v -5.17e-4 a 0.25002449,0.25002449 0 0 0 0,-0.0036 v -1.923914 z m 0.23202,2.48512 1.00201,1.862418 -1.00201,1.862419 -1.00149,-1.862419 z" />
    </g>
    <g
       id="g8"
       transform="matrix(0.7018237,0.38902723,-0.38902723,0.7018237,61.299501,-21.884954)">
      <path
         style="fill:#ff2525;fill-opacity:1;stroke:#900000;stroke-width:0.5;stroke-linecap:square;stroke-linejoin:round;stroke-dasharray:none;stroke-opacity:1;paint-order:fill markers stroke"
         d="m 106.37109,60.444096 1.355,-2.305026 1.341,2.305026 v 4.859 l -1.341,2.34456 -1.355,-2.34456 z"
         id="path7"
         sodipodi:nodetypes="ccccccc" />
      <path
         id="path8"
         style="baseline-shift:baseline;display:inline;overflow:visible;opacity:1;vector-effect:none;fill:#900000;stroke-linejoin:round;paint-order:fill markers stroke;enable-background:accumulate;stop-color:#000000;stop-opacity:1"
         d="m 107.4745,58.529367 v 0.01757 h -0.0274 v 1.892908 l -1.30638,2.433443 0.007,0.0036 -0.007,0.0036 1.30638,2.433443 v 1.892908 h 0.0274 v 0.01757 h 0.50022 V 65.30053 a 0.25002449,0.25002449 0 0 0 0,-0.0036 v -5.17e-4 l 1.2883,-2.397787 0.0181,-0.0098 -0.006,-0.01189 0.006,-0.01188 -0.0181,-0.0098 -1.2883,-2.397786 v -5.17e-4 a 0.25002449,0.25002449 0 0 0 0,-0.0036 v -1.923914 z m 0.23202,2.48512 1.00201,1.862418 -1.00201,1.862419 -1.00149,-1.862419 z" />
    </g>
    <g
       id="g4"
       transform="translate(3.0401906,0.04677138)">
      <path
         style="fill:#ff2525;fill-opacity:1;stroke:#900000;stroke-width:0.5;stroke-linecap:square;stroke-linejoin:round;stroke-dasharray:none;stroke-opacity:1;paint-order:fill markers stroke"
         d="m 106.37109,60.444096 1.355,-2.305026 1.341,2.305026 v 4.859 l -1.341,2.34456 -1.355,-2.34456 z"
         id="path1"
         sodipodi:nodetypes="ccccccc" />
      <path
         id="path4"
         style="baseline-shift:baseline;display:inline;overflow:visible;opacity:1;vector-effect:none;fill:#900000;stroke-linejoin:round;paint-order:fill markers stroke;enable-background:accumulate;stop-color:#000000;stop-opacity:1"
         d="m 107.4745,58.529367 v 0.01757 h -0.0274 v 1.892908 l -1.30638,2.433443 0.007,0.0036 -0.007,0.0036 1.30638,2.433443 v 1.892908 h 0.0274 v 0.01757 h 0.50022 V 65.30053 a 0.25002449,0.25002449 0 0 0 0,-0.0036 v -5.17e-4 l 1.2883,-2.397787 0.0181,-0.0098 -0.006,-0.01189 0.006,-0.01188 -0.0181,-0.0098 -1.2883,-2.397786 v -5.17e-4 a 0.25002449,0.25002449 0 0 0 0,-0.0036 v -1.923914 z m 0.23202,2.48512 1.00201,1.862418 -1.00201,1.862419 -1.00149,-1.862419 z" />
    </g>
  </g>
</svg>
