<?xml version="1.0" encoding="UTF-8" standalone="no"?>
<!-- Created with Inkscape (http://www.inkscape.org/) -->

<svg
   width="8.9688683mm"
   height="15.380341mm"
   viewBox="0 0 8.9688674 15.380341"
   version="1.1"
   id="svg5"
   inkscape:version="1.4.2 (f4327f4, 2025-05-13)"
   sodipodi:docname="red_pills.svg"
   xmlns:inkscape="http://www.inkscape.org/namespaces/inkscape"
   xmlns:sodipodi="http://sodipodi.sourceforge.net/DTD/sodipodi-0.dtd"
   xmlns:xlink="http://www.w3.org/1999/xlink"
   xmlns="http://www.w3.org/2000/svg"
   xmlns:svg="http://www.w3.org/2000/svg">
  <sodipodi:namedview
     id="namedview7"
     pagecolor="#ffffff"
     bordercolor="#666666"
     borderopacity="1.0"
     inkscape:pageshadow="2"
     inkscape:pageopacity="0.0"
     inkscape:pagecheckerboard="0"
     inkscape:document-units="mm"
     showgrid="false"
     inkscape:zoom="9.7741023"
     inkscape:cx="28.237887"
     inkscape:cy="29.414466"
     inkscape:window-width="1920"
     inkscape:window-height="1009"
     inkscape:window-x="-8"
     inkscape:window-y="-8"
     inkscape:window-maximized="1"
     inkscape:current-layer="layer1"
     fit-margin-top="0"
     fit-margin-left="0"
     fit-margin-right="0"
     fit-margin-bottom="0"
     inkscape:showpageshadow="2"
     inkscape:deskcolor="#d1d1d1" />
  <defs
     id="defs2">
    <linearGradient
       id="linearGradient22"
       inkscape:collect="always">
      <stop
         style="stop-color:#737373;stop-opacity:1;"
         offset="0"
         id="stop22" />
      <stop
         style="stop-color:#838383;stop-opacity:1;"
         offset="1"
         id="stop23" />
    </linearGradient>
    <linearGradient
       id="linearGradient20"
       inkscape:collect="always">
      <stop
         style="stop-color:#b2b2b2;stop-opacity:1;"
         offset="0"
         id="stop20" />
      <stop
         style="stop-color:#d5d5d5;stop-opacity:1;"
         offset="1"
         id="stop21" />
    </linearGradient>
    <linearGradient
       inkscape:collect="always"
       xlink:href="#linearGradient20"
       id="linearGradient21"
       x1="86.219116"
       y1="114.21862"
       x2="85.453468"
       y2="187.58344"
       gradientUnits="userSpaceOnUse" />
    <linearGradient
       inkscape:collect="always"
       xlink:href="#linearGradient22"
       id="linearGradient23"
       x1="86.219116"
       y1="114.21862"
       x2="85.453468"
       y2="187.58344"
       gradientUnits="userSpaceOnUse" />
  </defs>
  <g
     inkscape:label="Layer 1"
     inkscape:groupmode="layer"
     id="layer1"
     transform="matrix(0.2,0,0,0.2,-12.75939,-22.2412)">
    <rect
       style="fill:url(#linearGradient21);fill-opacity:1;stroke:url(#linearGradient23);stroke-width:5;stroke-linecap:square;stroke-dasharray:none;stroke-opacity:1"
       id="rect2383"
       width="39.844341"
       height="71.901703"
       x="66.296951"
       y="113.706"
       rx="5.7303567"
       ry="6.0857296" />
    <g
       id="g27"
       transform="translate(0.14985422)">
      <g
         id="g21"
         transform="matrix(0.84988435,0,0,0.84988435,7.8399221,19.192215)">
        <path
           style="baseline-shift:baseline;display:inline;overflow:visible;opacity:1;vector-effect:none;fill:#e90000;enable-background:accumulate;stop-color:#000000;stop-opacity:1;fill-opacity:1"
           d="m 89.377948,127.17831 a 7.0381575,7.4453239 0 0 1 -7.038158,7.44532 7.0381575,7.4453239 0 0 1 -7.038157,-7.44532 7.0381575,7.4453239 0 0 1 7.038157,-7.44533 7.0381575,7.4453239 0 0 1 7.038158,7.44533 z"
           id="path22" />
        <path
           style="fill:none;fill-opacity:1;stroke:#af0004;stroke-width:3.52989;stroke-dasharray:none;stroke-opacity:1"
           d="M 75.76195,126.996 H 88.872007"
           id="path20"
           sodipodi:nodetypes="cc" />
        <path
           style="baseline-shift:baseline;display:inline;overflow:visible;opacity:1;vector-effect:none;fill:#99000f;fill-opacity:1;enable-background:accumulate;stop-color:#000000;stop-opacity:1"
           d="m 82.339844,118.26172 c -4.727926,0 -8.509766,4.05267 -8.509766,8.91601 0,4.86335 3.78184,8.91602 8.509766,8.91602 4.727925,0 8.509765,-4.05267 8.509765,-8.91602 0,-4.86334 -3.78184,-8.91601 -8.509765,-8.91601 z m 0,2.94141 c 3.046208,0 5.566406,2.61407 5.566406,5.9746 0,3.36054 -2.520198,5.97461 -5.566406,5.97461 -3.046209,0 -5.56836,-2.61407 -5.56836,-5.97461 0,-3.36053 2.522151,-5.9746 5.56836,-5.9746 z"
           id="path23"
           sodipodi:nodetypes="ssssssssss" />
      </g>
      <g
         id="g26"
         transform="matrix(0.84988435,0,0,0.84988435,24.339922,19.192215)">
        <path
           style="baseline-shift:baseline;display:inline;overflow:visible;opacity:1;vector-effect:none;fill:#e90000;enable-background:accumulate;stop-color:#000000;stop-opacity:1;fill-opacity:1"
           d="m 89.377948,127.17831 a 7.0381575,7.4453239 0 0 1 -7.038158,7.44532 7.0381575,7.4453239 0 0 1 -7.038157,-7.44532 7.0381575,7.4453239 0 0 1 7.038157,-7.44533 7.0381575,7.4453239 0 0 1 7.038158,7.44533 z"
           id="path24" />
        <path
           style="fill:none;fill-opacity:1;stroke:#af0004;stroke-width:3.52989;stroke-dasharray:none;stroke-opacity:1"
           d="M 75.76195,126.996 H 88.872007"
           id="path25"
           sodipodi:nodetypes="cc" />
        <path
           style="baseline-shift:baseline;display:inline;overflow:visible;opacity:1;vector-effect:none;fill:#99000f;fill-opacity:1;enable-background:accumulate;stop-color:#000000;stop-opacity:1"
           d="m 82.339844,118.26172 c -4.727926,0 -8.509766,4.05267 -8.509766,8.91601 0,4.86335 3.78184,8.91602 8.509766,8.91602 4.727925,0 8.509765,-4.05267 8.509765,-8.91602 0,-4.86334 -3.78184,-8.91601 -8.509765,-8.91601 z m 0,2.94141 c 3.046208,0 5.566406,2.61407 5.566406,5.9746 0,3.36054 -2.520198,5.97461 -5.566406,5.97461 -3.046209,0 -5.56836,-2.61407 -5.56836,-5.97461 0,-3.36053 2.522151,-5.9746 5.56836,-5.9746 z"
           id="path26"
           sodipodi:nodetypes="ssssssssss" />
      </g>
      <g
         id="g29"
         transform="matrix(0.84988435,0,0,0.84988435,7.8399221,40.692215)">
        <path
           style="baseline-shift:baseline;display:inline;overflow:visible;opacity:1;vector-effect:none;fill:#e90000;enable-background:accumulate;stop-color:#000000;stop-opacity:1;fill-opacity:1"
           d="m 89.377948,127.17831 a 7.0381575,7.4453239 0 0 1 -7.038158,7.44532 7.0381575,7.4453239 0 0 1 -7.038157,-7.44532 7.0381575,7.4453239 0 0 1 7.038157,-7.44533 7.0381575,7.4453239 0 0 1 7.038158,7.44533 z"
           id="path27" />
        <path
           style="fill:none;fill-opacity:1;stroke:#af0004;stroke-width:3.52989;stroke-dasharray:none;stroke-opacity:1"
           d="M 75.76195,126.996 H 88.872007"
           id="path28"
           sodipodi:nodetypes="cc" />
        <path
           style="baseline-shift:baseline;display:inline;overflow:visible;opacity:1;vector-effect:none;fill:#99000f;fill-opacity:1;enable-background:accumulate;stop-color:#000000;stop-opacity:1"
           d="m 82.339844,118.26172 c -4.727926,0 -8.509766,4.05267 -8.509766,8.91601 0,4.86335 3.78184,8.91602 8.509766,8.91602 4.727925,0 8.509765,-4.05267 8.509765,-8.91602 0,-4.86334 -3.78184,-8.91601 -8.509765,-8.91601 z m 0,2.94141 c 3.046208,0 5.566406,2.61407 5.566406,5.9746 0,3.36054 -2.520198,5.97461 -5.566406,5.97461 -3.046209,0 -5.56836,-2.61407 -5.56836,-5.97461 0,-3.36053 2.522151,-5.9746 5.56836,-5.9746 z"
           id="path29"
           sodipodi:nodetypes="ssssssssss" />
      </g>
      <g
         id="g32"
         transform="matrix(0.84988435,0,0,0.84988435,24.339922,40.692215)">
        <path
           style="baseline-shift:baseline;display:inline;overflow:visible;opacity:1;vector-effect:none;fill:#e90000;enable-background:accumulate;stop-color:#000000;stop-opacity:1;fill-opacity:1"
           d="m 89.377948,127.17831 a 7.0381575,7.4453239 0 0 1 -7.038158,7.44532 7.0381575,7.4453239 0 0 1 -7.038157,-7.44532 7.0381575,7.4453239 0 0 1 7.038157,-7.44533 7.0381575,7.4453239 0 0 1 7.038158,7.44533 z"
           id="path30" />
        <path
           style="fill:none;fill-opacity:1;stroke:#af0004;stroke-width:3.52989;stroke-dasharray:none;stroke-opacity:1"
           d="M 75.76195,126.996 H 88.872007"
           id="path31"
           sodipodi:nodetypes="cc" />
        <path
           style="baseline-shift:baseline;display:inline;overflow:visible;opacity:1;vector-effect:none;fill:#99000f;fill-opacity:1;enable-background:accumulate;stop-color:#000000;stop-opacity:1"
           d="m 82.339844,118.26172 c -4.727926,0 -8.509766,4.05267 -8.509766,8.91601 0,4.86335 3.78184,8.91602 8.509766,8.91602 4.727925,0 8.509765,-4.05267 8.509765,-8.91602 0,-4.86334 -3.78184,-8.91601 -8.509765,-8.91601 z m 0,2.94141 c 3.046208,0 5.566406,2.61407 5.566406,5.9746 0,3.36054 -2.520198,5.97461 -5.566406,5.97461 -3.046209,0 -5.56836,-2.61407 -5.56836,-5.97461 0,-3.36053 2.522151,-5.9746 5.56836,-5.9746 z"
           id="path32"
           sodipodi:nodetypes="ssssssssss" />
      </g>
      <g
         id="g35"
         transform="matrix(0.84988435,0,0,0.84988435,7.8399221,62.192215)">
        <path
           style="baseline-shift:baseline;display:inline;overflow:visible;opacity:1;vector-effect:none;fill:#e90000;enable-background:accumulate;stop-color:#000000;stop-opacity:1;fill-opacity:1"
           d="m 89.377948,127.17831 a 7.0381575,7.4453239 0 0 1 -7.038158,7.44532 7.0381575,7.4453239 0 0 1 -7.038157,-7.44532 7.0381575,7.4453239 0 0 1 7.038157,-7.44533 7.0381575,7.4453239 0 0 1 7.038158,7.44533 z"
           id="path33" />
        <path
           style="fill:none;fill-opacity:1;stroke:#af0004;stroke-width:3.52989;stroke-dasharray:none;stroke-opacity:1"
           d="M 75.76195,126.996 H 88.872007"
           id="path34"
           sodipodi:nodetypes="cc" />
        <path
           style="baseline-shift:baseline;display:inline;overflow:visible;opacity:1;vector-effect:none;fill:#99000f;fill-opacity:1;enable-background:accumulate;stop-color:#000000;stop-opacity:1"
           d="m 82.339844,118.26172 c -4.727926,0 -8.509766,4.05267 -8.509766,8.91601 0,4.86335 3.78184,8.91602 8.509766,8.91602 4.727925,0 8.509765,-4.05267 8.509765,-8.91602 0,-4.86334 -3.78184,-8.91601 -8.509765,-8.91601 z m 0,2.94141 c 3.046208,0 5.566406,2.61407 5.566406,5.9746 0,3.36054 -2.520198,5.97461 -5.566406,5.97461 -3.046209,0 -5.56836,-2.61407 -5.56836,-5.97461 0,-3.36053 2.522151,-5.9746 5.56836,-5.9746 z"
           id="path35"
           sodipodi:nodetypes="ssssssssss" />
      </g>
      <g
         id="g38"
         transform="matrix(0.84988435,0,0,0.84988435,24.339922,62.192215)">
        <path
           style="baseline-shift:baseline;display:inline;overflow:visible;opacity:1;vector-effect:none;fill:#e90000;enable-background:accumulate;stop-color:#000000;stop-opacity:1;fill-opacity:1"
           d="m 89.377948,127.17831 a 7.0381575,7.4453239 0 0 1 -7.038158,7.44532 7.0381575,7.4453239 0 0 1 -7.038157,-7.44532 7.0381575,7.4453239 0 0 1 7.038157,-7.44533 7.0381575,7.4453239 0 0 1 7.038158,7.44533 z"
           id="path36" />
        <path
           style="fill:none;fill-opacity:1;stroke:#af0004;stroke-width:3.52989;stroke-dasharray:none;stroke-opacity:1"
           d="M 75.76195,126.996 H 88.872007"
           id="path37"
           sodipodi:nodetypes="cc" />
        <path
           style="baseline-shift:baseline;display:inline;overflow:visible;opacity:1;vector-effect:none;fill:#99000f;fill-opacity:1;enable-background:accumulate;stop-color:#000000;stop-opacity:1"
           d="m 82.339844,118.26172 c -4.727926,0 -8.509766,4.05267 -8.509766,8.91601 0,4.86335 3.78184,8.91602 8.509766,8.91602 4.727925,0 8.509765,-4.05267 8.509765,-8.91602 0,-4.86334 -3.78184,-8.91601 -8.509765,-8.91601 z m 0,2.94141 c 3.046208,0 5.566406,2.61407 5.566406,5.9746 0,3.36054 -2.520198,5.97461 -5.566406,5.97461 -3.046209,0 -5.56836,-2.61407 -5.56836,-5.97461 0,-3.36053 2.522151,-5.9746 5.56836,-5.9746 z"
           id="path38"
           sodipodi:nodetypes="ssssssssss" />
      </g>
    </g>
  </g>
</svg>
