<?xml version="1.0" encoding="UTF-8" standalone="no"?>
<!-- Created with Inkscape (http://www.inkscape.org/) -->

<svg
   width="4.2412143mm"
   height="9.9830189mm"
   viewBox="0 0 4.2412143 9.9830189"
   version="1.1"
   id="svg5"
   inkscape:version="1.4.2 (f4327f4, 2025-05-13)"
   sodipodi:docname="small_red_crystal.svg"
   xmlns:inkscape="http://www.inkscape.org/namespaces/inkscape"
   xmlns:sodipodi="http://sodipodi.sourceforge.net/DTD/sodipodi-0.dtd"
   xmlns="http://www.w3.org/2000/svg"
   xmlns:svg="http://www.w3.org/2000/svg">
  <sodipodi:namedview
     id="namedview7"
     pagecolor="#ffffff"
     bordercolor="#666666"
     borderopacity="1.0"
     inkscape:pageshadow="2"
     inkscape:pageopacity="0.0"
     inkscape:pagecheckerboard="0"
     inkscape:document-units="mm"
     showgrid="false"
     fit-margin-top="0"
     fit-margin-left="0"
     fit-margin-right="0"
     fit-margin-bottom="0"
     inkscape:zoom="7.032765"
     inkscape:cx="13.579296"
     inkscape:cy="26.660922"
     inkscape:window-width="1920"
     inkscape:window-height="1009"
     inkscape:window-x="-8"
     inkscape:window-y="-8"
     inkscape:window-maximized="1"
     inkscape:current-layer="layer1"
     inkscape:showpageshadow="2"
     inkscape:deskcolor="#d1d1d1" />
  <defs
     id="defs2" />
  <g
     inkscape:label="Layer 1"
     inkscape:groupmode="layer"
     id="layer1"
     transform="translate(-102.36216,-138.7242)">
    <g
       id="g4"
       transform="matrix(1.3270382,0,0,0.99745042,-38.464577,80.982699)">
      <path
         style="fill:#ff2525;fill-opacity:1;stroke:#900000;stroke-width:0.5;stroke-linecap:square;stroke-linejoin:round;stroke-dasharray:none;stroke-opacity:1;paint-order:fill markers stroke"
         d="m 106.37109,60.444096 1.355,-2.305026 1.341,2.305026 v 4.859 l -1.341,2.34456 -1.355,-2.34456 z"
         id="path1"
         sodipodi:nodetypes="ccccccc" />
      <path
         id="path4"
         style="baseline-shift:baseline;display:inline;overflow:visible;opacity:1;vector-effect:none;fill:#900000;stroke-linejoin:round;paint-order:fill markers stroke;enable-background:accumulate;stop-color:#000000;stop-opacity:1"
         d="m 107.4745,58.529367 v 0.01757 h -0.0274 v 1.892908 l -1.30638,2.433443 0.007,0.0036 -0.007,0.0036 1.30638,2.433443 v 1.892908 h 0.0274 v 0.01757 h 0.50022 V 65.30053 a 0.25002449,0.25002449 0 0 0 0,-0.0036 v -5.17e-4 l 1.2883,-2.397787 0.0181,-0.0098 -0.006,-0.01189 0.006,-0.01188 -0.0181,-0.0098 -1.2883,-2.397786 v -5.17e-4 a 0.25002449,0.25002449 0 0 0 0,-0.0036 v -1.923914 z m 0.23202,2.48512 1.00201,1.862418 -1.00201,1.862419 -1.00149,-1.862419 z" />
    </g>
  </g>
</svg>
