<?xml version="1.0" encoding="UTF-8" standalone="no"?>
<!-- Created with Inkscape (http://www.inkscape.org/) -->

<svg
   width="7.930934mm"
   height="8.8009148mm"
   viewBox="0 0 7.9309337 8.8009156"
   version="1.1"
   id="svg5"
   inkscape:version="1.4.2 (f4327f4, 2025-05-13)"
   sodipodi:docname="boost_death_particle.svg"
   xml:space="preserve"
   xmlns:inkscape="http://www.inkscape.org/namespaces/inkscape"
   xmlns:sodipodi="http://sodipodi.sourceforge.net/DTD/sodipodi-0.dtd"
   xmlns:xlink="http://www.w3.org/1999/xlink"
   xmlns="http://www.w3.org/2000/svg"
   xmlns:svg="http://www.w3.org/2000/svg"><sodipodi:namedview
     id="namedview7"
     pagecolor="#ffffff"
     bordercolor="#666666"
     borderopacity="1.0"
     inkscape:pageshadow="2"
     inkscape:pageopacity="0.0"
     inkscape:pagecheckerboard="0"
     inkscape:document-units="mm"
     showgrid="false"
     inkscape:zoom="14.707295"
     inkscape:cx="10.640978"
     inkscape:cy="16.96437"
     inkscape:window-width="1920"
     inkscape:window-height="1009"
     inkscape:window-x="-8"
     inkscape:window-y="-8"
     inkscape:window-maximized="1"
     inkscape:current-layer="svg5"
     fit-margin-top="0"
     fit-margin-left="0"
     fit-margin-right="0"
     fit-margin-bottom="0"
     inkscape:showpageshadow="2"
     inkscape:deskcolor="#d1d1d1" /><defs
     id="defs2"><linearGradient
       id="linearGradient1"
       inkscape:collect="always"><stop
         style="stop-color:#52565e;stop-opacity:1;"
         offset="0"
         id="stop1" /><stop
         style="stop-color:#282b2d;stop-opacity:1;"
         offset="1"
         id="stop2" /></linearGradient><inkscape:path-effect
       effect="offset"
       id="path-effect4"
       is_visible="true"
       lpeversion="1.3"
       linejoin_type="miter"
       unit="mm"
       offset="2.4"
       miter_limit="4"
       attempt_force_join="false"
       update_on_knot_move="true" /><inkscape:path-effect
       effect="knot"
       id="path-effect3"
       is_visible="false"
       lpeversion="1"
       switcher_size="15.9"
       interruption_width="3"
       prop_to_stroke_width="true"
       add_stroke_width="inkscape_1.0_and_up"
       both="false"
       inverse_width="false"
       add_other_stroke_width="inkscape_1.0_and_up"
       crossing_points_vector="" /><radialGradient
       inkscape:collect="always"
       xlink:href="#linearGradient1"
       id="radialGradient2"
       cx="4.309"
       cy="4.309"
       fx="4.309"
       fy="4.309"
       r="3.965467"
       gradientTransform="matrix(1,0,0,1.1096946,0,-0.47267412)"
       gradientUnits="userSpaceOnUse" /></defs><g
     id="g2"
     transform="translate(-0.343533,0.09145739)"><g
       id="g3"
       transform="translate(0.3346554,0.30007308)" /><path
       id="path6045"
       style="fill:url(#radialGradient2);fill-opacity:1;stroke:#1a1c1d;stroke-width:0.366698;stroke-linecap:round;stroke-miterlimit:4;stroke-dasharray:none;stroke-opacity:1"
       d="M 4.3095167,0.09189162 C 2.2206413,0.0917038 0.52710762,1.7396015 0.526882,3.772595 0.52722787,5.0030771 1.1592632,6.1520205 2.211256,6.8345291 V 8.5261084 H 3.1790476 V 7.2854792 c 0.2106972,0.063535 0.4267013,0.1090091 0.6455421,0.1359036 V 8.5261084 H 4.7934063 V 7.4234416 C 5.0122791,7.3962113 5.2282837,7.3503926 5.4389484,7.2865097 V 8.5261084 H 6.406744 V 6.835559 C 7.4590487,6.152848 8.0911259,5.003442 8.091118,3.772595 8.0908924,1.7399943 6.3979885,0.09225919 4.3095167,0.09189162 Z M 2.2915631,2.7914171 C 2.8485666,2.7912188 3.3002867,3.2304925 3.3005415,3.772595 3.3008714,4.3150997 2.84898,4.7550013 2.2915631,4.7548028 1.7345481,4.7544482 1.2832839,4.3147086 1.2836136,3.772595 1.2838681,3.2308835 1.7349613,2.7917715 2.2915631,2.7914171 Z m 4.0348698,0 C 6.8834367,2.7912184 7.3351572,3.2304923 7.335412,3.772595 7.3357419,4.3150999 6.88385,4.7550017 6.3264329,4.7548028 5.7690188,4.7549975 5.3171317,4.315097 5.3174616,3.772595 5.3177164,3.2304952 5.7694321,2.7912226 6.3264329,2.7914171 Z M 4.3095167,4.5581549 c 0.1292995,0 0.2581193,0.2186793 0.5168405,0.6548055 0.5174305,0.8722519 0.5180362,0.8720432 -0.5168405,0.8720432 -1.0348649,0 -1.0353044,2.091e-4 -0.517874,-0.8720432 0.2587251,-0.4361262 0.3885272,-0.6548055 0.517874,-0.6548055 z"
       sodipodi:nodetypes="ccccccccccccccccccccccccccscscs" /></g></svg>
