<?xml version="1.0" encoding="UTF-8" standalone="no"?>
<!-- Created with Inkscape (http://www.inkscape.org/) -->

<svg
   width="8.618mm"
   height="8.618mm"
   viewBox="0 0 8.6179998 8.6180008"
   version="1.1"
   id="svg5"
   inkscape:version="1.4.2 (f4327f4, 2025-05-13)"
   sodipodi:docname="boost_green_bless.svg"
   xmlns:inkscape="http://www.inkscape.org/namespaces/inkscape"
   xmlns:sodipodi="http://sodipodi.sourceforge.net/DTD/sodipodi-0.dtd"
   xmlns:xlink="http://www.w3.org/1999/xlink"
   xmlns="http://www.w3.org/2000/svg"
   xmlns:svg="http://www.w3.org/2000/svg">
  <sodipodi:namedview
     id="namedview7"
     pagecolor="#ffffff"
     bordercolor="#666666"
     borderopacity="1.0"
     inkscape:pageshadow="2"
     inkscape:pageopacity="0.0"
     inkscape:pagecheckerboard="0"
     inkscape:document-units="mm"
     showgrid="false"
     inkscape:zoom="5.199814"
     inkscape:cx="-25.000894"
     inkscape:cy="55.867383"
     inkscape:window-width="1920"
     inkscape:window-height="1009"
     inkscape:window-x="-8"
     inkscape:window-y="-8"
     inkscape:window-maximized="1"
     inkscape:current-layer="g2"
     fit-margin-top="0"
     fit-margin-left="0"
     fit-margin-right="0"
     fit-margin-bottom="0"
     inkscape:showpageshadow="2"
     inkscape:deskcolor="#d1d1d1" />
  <defs
     id="defs2">
    <linearGradient
       id="linearGradient1"
       inkscape:collect="always">
      <stop
         style="stop-color:#33ff0d;stop-opacity:1;"
         offset="0"
         id="stop1" />
      <stop
         style="stop-color:#00b70f;stop-opacity:1;"
         offset="1"
         id="stop2" />
    </linearGradient>
    <radialGradient
       inkscape:collect="always"
       xlink:href="#linearGradient1"
       id="radialGradient2"
       cx="4.309"
       cy="4.309"
       fx="4.309"
       fy="4.309"
       r="4.309"
       gradientUnits="userSpaceOnUse" />
  </defs>
  <g
     id="g2">
    <path
       id="path1"
       style="fill:url(#radialGradient2);stroke:#00921d;stroke-width:0.3"
       d="M 4.3087809,0.14986165 C 2.0118917,0.14990619 0.14990619,2.0118917 0.14986165,4.3087809 0.14962073,6.605872 2.0116898,8.4681725 4.3087809,8.468217 6.6060738,8.468458 8.468458,6.6060738 8.468217,4.3087809 8.4681725,2.0116898 6.605872,0.14962073 4.3087809,0.14986165 Z M 2.9036987,2.5130249 c 0.4355209,2.8e-6 0.7885796,0.3530615 0.7885824,0.7885824 C 3.6922782,3.7371281 3.3392195,4.0901868 2.9036987,4.0901896 2.4681779,4.0901867 2.1151193,3.7371281 2.1151164,3.3016073 2.1151192,2.8660865 2.4681779,2.5130278 2.9036987,2.5130249 Z m 2.8106812,0 c 0.4355208,2.9e-6 0.7885795,0.3530616 0.7885823,0.7885824 C 6.5029593,3.7371281 6.1499007,4.0901867 5.7143799,4.0901896 5.2788591,4.0901868 4.9258004,3.7371281 4.9257975,3.3016073 4.9258003,2.8660864 5.278859,2.5130277 5.7143799,2.5130249 Z M 2.1636922,5.4735677 c 3.0303705,1.5834732 4.071834,-0.2698293 4.4632935,0.126093 0.097005,0.098191 0.096086,0.2564172 -0.00207,0.3534668 C 5.3526694,7.2033652 3.3532717,7.1408366 2.0060791,5.9081665 1.9039423,5.8150327 1.896766,5.6566907 1.9900594,5.5546997 2.0348612,5.5056638 2.097335,5.4764723 2.1636922,5.4735677 Z"
       sodipodi:nodetypes="ccccccccccccccccccccc" />
    <g
       id="g3"
       transform="translate(0.3346554,0.30007308)" />
  </g>
</svg>
