<?xml version="1.0" encoding="UTF-8" standalone="no"?>
<svg
   version="1.1"
   width="58"
   height="58"
   viewBox="0,0,58,58"
   id="svg5"
   sodipodi:docname="emote_sad.svg"
   inkscape:version="1.4.2 (f4327f4, 2025-05-13)"
   inkscape:export-filename="happy.png"
   inkscape:export-xdpi="423.72415"
   inkscape:export-ydpi="423.72415"
   xmlns:inkscape="http://www.inkscape.org/namespaces/inkscape"
   xmlns:sodipodi="http://sodipodi.sourceforge.net/DTD/sodipodi-0.dtd"
   xmlns="http://www.w3.org/2000/svg"
   xmlns:svg="http://www.w3.org/2000/svg">
  <defs
     id="defs5" />
  <sodipodi:namedview
     id="namedview5"
     pagecolor="#000000"
     bordercolor="#000000"
     borderopacity="0.25"
     inkscape:showpageshadow="2"
     inkscape:pageopacity="0.0"
     inkscape:pagecheckerboard="true"
     inkscape:deskcolor="#000000"
     inkscape:zoom="9.8385376"
     inkscape:cx="34.40552"
     inkscape:cy="41.012193"
     inkscape:window-width="1920"
     inkscape:window-height="1009"
     inkscape:window-x="-8"
     inkscape:window-y="-8"
     inkscape:window-maximized="1"
     inkscape:current-layer="svg5" />
  <g
     transform="translate(-213.9774,-147.29997)"
     id="g5">
    <g
       data-paper-data="{&quot;isPaintingLayer&quot;:true}"
       fill-rule="nonzero"
       stroke="#777777"
       stroke-width="1.5"
       stroke-linejoin="miter"
       stroke-miterlimit="10"
       stroke-dasharray=""
       stroke-dashoffset="0"
       style="mix-blend-mode: normal"
       id="g4">
      <path
         d="m 214.7274,176.29998 c 0,-15.60205 12.64795,-28.25 28.25,-28.25 15.60205,0 28.25,12.64795 28.25,28.25 0,15.60205 -12.64795,28.25 -28.25,28.25 -15.60205,0 -28.25,-12.64795 -28.25,-28.25 z"
         fill="#ffffff"
         stroke-linecap="butt"
         id="path1"
         sodipodi:nodetypes="sssss"
         style="fill:#9c0012;fill-opacity:0.2331048;stroke:#9a0013;stroke-opacity:1" />
    </g>
    <g
       id="g2"
       transform="translate(-0.56481108,-0.59984248)"
       style="fill:#9a0013;fill-opacity:1;stroke:none;stroke-opacity:1">
      <path
         style="baseline-shift:baseline;display:inline;overflow:visible;opacity:1;vector-effect:none;fill:#9a0013;fill-opacity:1;stroke-linecap:round;enable-background:accumulate;stop-color:#000000;stop-opacity:1"
         d="m 229.81624,193.04897 c -0.53752,-0.12487 -0.87229,-0.66156 -0.74804,-1.19922 0,0 0.58536,-2.49744 2.74023,-4.92187 2.15487,-2.42443 5.94947,-4.81836 12.08984,-4.81836 5.42762,0 9.02664,2.41622 11.16993,4.81641 2.14328,2.40018 2.92578,4.84374 2.92578,4.84375 0.16882,0.52586 -0.12063,1.089 -0.64649,1.25781 -0.52586,0.16882 -1.089,-0.12063 -1.25781,-0.64649 0,0 -0.65343,-2.03983 -2.51367,-4.12304 -1.86025,-2.08322 -4.832,-4.14844 -9.67774,-4.14844 -5.63262,0 -8.76569,2.08755 -10.5957,4.14648 -1.83001,2.05894 -2.28711,4.04492 -2.28711,4.04493 -0.12487,0.53752 -0.66156,0.87229 -1.19922,0.74804 z"
         id="path4"
         sodipodi:nodetypes="ccssscscssscc" />
      <circle
         style="fill:#9a0013;fill-opacity:1;stroke:none;stroke-width:1.84907;stroke-dasharray:none;stroke-opacity:1"
         id="path2"
         cx="19.764391"
         cy="20.626842"
         r="3.809"
         transform="translate(213.9774,147.29997)" />
      <circle
         style="fill:#9a0013;fill-opacity:1;stroke:none;stroke-width:1.84907;stroke-dasharray:none;stroke-opacity:1"
         id="circle2"
         cx="253.3416"
         cy="167.92682"
         r="3.809" />
    </g>
  </g>
</svg>
