<?xml version="1.0" encoding="UTF-8" standalone="no"?>
<svg
   width="58"
   height="58"
   viewBox="-26 -28 58 58"
   version="1.1"
   id="svg14"
   sodipodi:docname="emote_md.svg"
   inkscape:version="1.4.2 (f4327f4, 2025-05-13)"
   inkscape:export-filename="MD.png"
   inkscape:export-xdpi="585.14288"
   inkscape:export-ydpi="585.14288"
   xmlns:inkscape="http://www.inkscape.org/namespaces/inkscape"
   xmlns:sodipodi="http://sodipodi.sourceforge.net/DTD/sodipodi-0.dtd"
   xmlns="http://www.w3.org/2000/svg"
   xmlns:svg="http://www.w3.org/2000/svg">
  <sodipodi:namedview
     id="namedview14"
     pagecolor="#505050"
     bordercolor="#ffffff"
     borderopacity="1"
     inkscape:showpageshadow="0"
     inkscape:pageopacity="0"
     inkscape:pagecheckerboard="1"
     inkscape:deskcolor="#505050"
     inkscape:zoom="6.9404762"
     inkscape:cx="40.7753"
     inkscape:cy="56.696398"
     inkscape:window-width="1920"
     inkscape:window-height="1009"
     inkscape:window-x="-8"
     inkscape:window-y="-8"
     inkscape:window-maximized="1"
     inkscape:current-layer="svg14"
     showgrid="false" />
  <defs
     id="defs7">
    <clipPath
       id="b">
      <circle
         cy="-15"
         r="9.5"
         id="circle1"
         cx="0" />
      <circle
         cy="-15"
         r="9.5"
         transform="rotate(120)"
         id="circle2"
         cx="0" />
      <circle
         cy="-15"
         r="9.5"
         transform="rotate(-120)"
         id="circle3"
         cx="0" />
    </clipPath>
    <mask
       maskUnits="userSpaceOnUse"
       id="mask14">
      <g
         id="g18"
         transform="matrix(-0.3980914,0.68951456,-0.68951456,-0.3980914,15.914388,-5.5218685)">
        <path
           fill="#ffffff"
           d="M -17.911372,-20.069095 H 49.912244 V 47.754521 H -17.911372 Z"
           id="path14"
           style="stroke-width:1.25599" />
        <path
           d="m 18.512422,-15.045124 v -5.023971 H 13.48845 v 5.023971 m 1.88399,21.3518796 v 5.0239714 h 1.255992 V 6.3067556"
           id="path15"
           style="stroke-width:1.25599" />
        <circle
           cy="-4.9971805"
           r="13.187925"
           id="circle15"
           cx="16.000437"
           style="stroke-width:1.25599" />
        <g
           transform="matrix(-0.62799645,1.0877218,-1.0877218,-0.62799645,16.000436,13.842713)"
           id="g16">
          <path
             d="m 2,-23 v -4 h -4 v 4 m 1.5,17 v 4 h 1 v -4"
             id="path16"
             style="stroke-width:1" />
          <circle
             cy="-15"
             r="10.5"
             id="circle16"
             cx="0" />
        </g>
        <g
           transform="matrix(-0.62799645,-1.0877218,1.0877218,-0.62799645,16.000436,13.842713)"
           id="g17">
          <path
             d="m 2,-23 v -4 h -4 v 4 m 1.5,17 v 4 h 1 v -4"
             id="path17" />
          <circle
             cy="-15"
             r="10.5"
             id="circle17"
             cx="0" />
        </g>
        <circle
           r="3.7679787"
           id="circle18"
           cx="16.000437"
           cy="13.842713"
           style="stroke-width:1.25599" />
      </g>
    </mask>
    <mask
       maskUnits="userSpaceOnUse"
       id="mask18">
      <g
         id="g22"
         transform="matrix(-0.3980914,-0.68951456,0.68951456,-0.3980914,-3.1751162,16.543199)"
         style="stroke-width:1.25599">
        <path
           fill="#ffffff"
           d="M -17.911372,-20.069095 H 49.912244 V 47.754521 H -17.911372 Z"
           id="path18" />
        <path
           d="m 18.512422,-15.045124 v -5.023971 H 13.48845 v 5.023971 m 1.88399,21.3518796 v 5.0239714 h 1.255992 V 6.3067556"
           id="path19" />
        <circle
           cy="-4.9971805"
           r="13.187925"
           id="circle19"
           cx="16.000437" />
        <g
           transform="matrix(-0.62799645,1.0877218,-1.0877218,-0.62799645,16.000436,13.842713)"
           id="g20">
          <path
             d="m 2,-23 v -4 h -4 v 4 m 1.5,17 v 4 h 1 v -4"
             id="path20" />
          <circle
             cy="-15"
             r="10.5"
             id="circle20"
             cx="0" />
        </g>
        <g
           transform="matrix(-0.62799645,-1.0877218,1.0877218,-0.62799645,16.000436,13.842713)"
           id="g21">
          <path
             d="m 2,-23 v -4 h -4 v 4 m 1.5,17 v 4 h 1 v -4"
             id="path21" />
          <circle
             cy="-15"
             r="10.5"
             id="circle21"
             cx="0" />
        </g>
        <circle
           r="3.7679787"
           id="circle22"
           cx="16.000437"
           cy="13.842713" />
      </g>
    </mask>
    <mask
       maskUnits="userSpaceOnUse"
       id="mask22">
      <g
         id="g26"
         transform="matrix(0.79618284,0,0,0.79618284,-12.739273,-11.021331)">
        <path
           fill="#ffffff"
           d="M -17.911372,-20.069095 H 49.912244 V 47.754521 H -17.911372 Z"
           id="path22" />
        <path
           d="m 18.512422,-15.045124 v -5.023971 H 13.48845 v 5.023971 m 1.88399,21.3518796 v 5.0239714 h 1.255992 V 6.3067556"
           id="path23" />
        <circle
           cy="-4.9971805"
           r="13.187925"
           id="circle23"
           cx="16.000437" />
        <g
           transform="matrix(-0.62799645,1.0877218,-1.0877218,-0.62799645,16.000436,13.842713)"
           id="g24">
          <path
             d="m 2,-23 v -4 h -4 v 4 m 1.5,17 v 4 h 1 v -4"
             id="path24" />
          <circle
             cy="-15"
             r="10.5"
             id="circle24"
             cx="0" />
        </g>
        <g
           transform="matrix(-0.62799645,-1.0877218,1.0877218,-0.62799645,16.000436,13.842713)"
           id="g25">
          <path
             d="m 2,-23 v -4 h -4 v 4 m 1.5,17 v 4 h 1 v -4"
             id="path25" />
          <circle
             cy="-15"
             r="10.5"
             id="circle25"
             cx="0" />
        </g>
        <circle
           r="3.7679787"
           id="circle26"
           cx="16.000437"
           cy="13.842713" />
      </g>
    </mask>
    <mask
       id="b-3"
       maskUnits="userSpaceOnUse"
       x="-30"
       y="-30"
       width="60"
       height="60">
      <path
         d="M -27,-27 H 27 V 27 H -27 Z"
         fill="#ffffff"
         id="path3" />
      <path
         d="m 2,-23 v -4 h -4 v 4 m 1.5,17 v 4 h 1 v -4"
         id="path4" />
      <circle
         cy="-15"
         r="10.5"
         id="circle4"
         cx="0" />
      <g
         transform="rotate(120)"
         id="g5">
        <path
           d="m 2,-23 v -4 h -4 v 4 m 1.5,17 v 4 h 1 v -4"
           id="path5" />
        <circle
           cy="-15"
           r="10.5"
           id="circle5"
           cx="0" />
      </g>
      <g
         transform="rotate(-120)"
         id="g6">
        <path
           d="m 2,-23 v -4 h -4 v 4 m 1.5,17 v 4 h 1 v -4"
           id="path6" />
        <circle
           cy="-15"
           r="10.5"
           id="circle6"
           cx="0" />
      </g>
      <circle
         r="3"
         id="circle7"
         cx="0"
         cy="0" />
    </mask>
    <clipPath
       id="d">
      <circle
         cy="-15"
         r="9.5"
         id="circle1-6"
         cx="0" />
      <circle
         transform="rotate(120)"
         cy="-15"
         r="9.5"
         id="circle2-7"
         cx="0" />
      <circle
         transform="rotate(-120)"
         cy="-15"
         r="9.5"
         id="circle3-5"
         cx="0" />
    </clipPath>
  </defs>
  <g
     id="g1"
     transform="matrix(0.69047025,0,0,0.69047025,-8.0478255,-8.667105)">
    <circle
       cx="16.000437"
       cy="14.000755"
       r="39.489101"
       style="fill:#000000;fill-opacity:1;stroke:#6782ed;stroke-width:5.02252;stroke-linejoin:round;stroke-miterlimit:4;stroke-dasharray:none;stroke-opacity:1"
       id="circle8"
       inkscape:export-filename="..\..\..\..\..\..\..\..\..\..\Downloads\SuroiMD.png"
       inkscape:export-xdpi="855.90002"
       inkscape:export-ydpi="855.90002" />
    <circle
       cx="16.000437"
       cy="14.000755"
       r="38.243515"
       style="fill:none;fill-opacity:1;stroke:#6e25ff;stroke-width:4.01802;stroke-linejoin:round;stroke-miterlimit:4;stroke-dasharray:none;stroke-opacity:1"
       id="circle9" />
    <g
       id="g11419"
       transform="matrix(1.61051,0,0,1.61051,-9.7681604,-4.5471396)"
       style="stroke-width:0.620922">
      <circle
         style="fill:none;fill-opacity:1;stroke:#0033ff;stroke-width:0.993482;stroke-linecap:square;stroke-linejoin:miter;stroke-dasharray:1.98695, 1.98695;stroke-dashoffset:0.397389;stroke-opacity:1"
         id="circle11308"
         cx="16.004097"
         cy="11.535604"
         r="8.355588" />
      <circle
         style="fill:#8d54ff;fill-opacity:1;stroke:none;stroke-width:1.24185;stroke-linecap:square;stroke-linejoin:round;stroke-dasharray:none;stroke-opacity:1"
         id="path6341"
         cx="19.37608"
         cy="3.6929114"
         r="2.7375643"
         transform="rotate(25)" />
      <path
         id="path11025"
         style="fill:#8d54ff;fill-opacity:1;stroke:none;stroke-width:1.24185;stroke-linecap:square;stroke-linejoin:round;stroke-dasharray:none;stroke-opacity:1"
         d="m 12.955081,13.677504 c 1.001149,6.876277 -1.555658,8.238257 -4.3242185,9.271484 l -1.857422,5.162109 9.2265615,-6.224609 9.226563,6.224609 -1.857422,-5.162109 c -2.76856,-1.033228 -5.325368,-2.395207 -4.324219,-9.271484 -0.733661,0.77668 -1.442594,1.56749 -3.044922,1.828125 -1.602327,-0.260635 -2.31126,-1.051445 -3.044921,-1.828125 z"
         sodipodi:nodetypes="ccccccccc" />
      <path
         id="path11030"
         style="fill:#8d54ff;fill-opacity:1;stroke:none;stroke-width:1.24185;stroke-linecap:square;stroke-linejoin:round;stroke-dasharray:none;stroke-opacity:1"
         d="m 27.333111,1.7461435 5.161074,-1.857241 -1.588608,3.71119 2.794601,7.1681305 -4.448775,-4.9082915 -9.271954,6.3235835 C 19.947289,9.7900205 18.99255,8.9495295 18.061158,8.0697265 c 6.876286,-0.118644 8.238726,-4.000945 9.271953,-6.323583 z"
         sodipodi:nodetypes="cccccccc" />
      <path
         id="path11032"
         style="fill:#8d54ff;fill-opacity:1;stroke:none;stroke-width:1.24185;stroke-linecap:square;stroke-linejoin:round;stroke-dasharray:none;stroke-opacity:1"
         d="m 4.6668895,1.7461415 -5.161074,-1.857238 1.588609,3.71119 -2.794602,7.1681295 4.448774,-4.9082905 9.2719565,6.3235825 C 12.052713,9.7900205 13.007451,8.9495305 13.938843,8.0697275 7.0625545,7.9510825 5.7001175,4.0687805 4.6668915,1.7461435 Z"
         sodipodi:nodetypes="ccccccccc" />
    </g>
    <text
       xml:space="preserve"
       style="font-weight:bold;font-size:22.981px;line-height:1.25;font-family:'Russo One';-inkscape-font-specification:'Russo One Bold';letter-spacing:0px;word-spacing:0px;writing-mode:lr-tb;fill:#bd8bff;fill-opacity:1;stroke:#26004d;stroke-width:2;stroke-dasharray:none;stroke-opacity:1"
       x="-2.9336691"
       y="39.94891"
       id="text5563"
       transform="scale(1.0056096,0.9944217)"><tspan
         sodipodi:role="line"
         id="tspan5561"
         x="-2.9336691"
         y="39.94891"
         style="stroke-width:2">MD</tspan></text>
  </g>
</svg>
