<?xml version="1.0" encoding="UTF-8" standalone="no"?>
<svg
   width="214.82144"
   height="227.25554"
   viewBox="-26 -28 214.82144 227.25552"
   version="1.1"
   id="svg14"
   sodipodi:docname="emote_wheel.svg"
   inkscape:version="1.4 (1:1.4+202410161351+e7c3feb100)"
   inkscape:export-filename="MD.png"
   inkscape:export-xdpi="585.14288"
   inkscape:export-ydpi="585.14288"
   xmlns:inkscape="http://www.inkscape.org/namespaces/inkscape"
   xmlns:sodipodi="http://sodipodi.sourceforge.net/DTD/sodipodi-0.dtd"
   xmlns="http://www.w3.org/2000/svg"
   xmlns:svg="http://www.w3.org/2000/svg">
  <sodipodi:namedview
     id="namedview14"
     pagecolor="#505050"
     bordercolor="#ffffff"
     borderopacity="1"
     inkscape:showpageshadow="0"
     inkscape:pageopacity="0"
     inkscape:pagecheckerboard="1"
     inkscape:deskcolor="#505050"
     inkscape:zoom="2.4104105"
     inkscape:cx="104.75394"
     inkscape:cy="86.08492"
     inkscape:window-width="1854"
     inkscape:window-height="1011"
     inkscape:window-x="0"
     inkscape:window-y="0"
     inkscape:window-maximized="1"
     inkscape:current-layer="svg14"
     showgrid="false"
     showguides="false" />
  <defs
     id="defs7">
    <clipPath
       id="b">
      <circle
         cy="-15"
         r="9.5"
         id="circle1"
         cx="0" />
      <circle
         cy="-15"
         r="9.5"
         transform="rotate(120)"
         id="circle2"
         cx="0" />
      <circle
         cy="-15"
         r="9.5"
         transform="rotate(-120)"
         id="circle3"
         cx="0" />
    </clipPath>
    <mask
       maskUnits="userSpaceOnUse"
       id="mask14">
      <g
         id="g18"
         transform="matrix(-0.3980914,0.68951456,-0.68951456,-0.3980914,15.914388,-5.5218685)">
        <path
           fill="#ffffff"
           d="M -17.911372,-20.069095 H 49.912244 V 47.754521 H -17.911372 Z"
           id="path14"
           style="stroke-width:1.25599" />
        <path
           d="m 18.512422,-15.045124 v -5.023971 H 13.48845 v 5.023971 m 1.88399,21.3518796 v 5.0239714 h 1.255992 V 6.3067556"
           id="path15"
           style="stroke-width:1.25599" />
        <circle
           cy="-4.9971805"
           r="13.187925"
           id="circle15"
           cx="16.000437"
           style="stroke-width:1.25599" />
        <g
           transform="matrix(-0.62799645,1.0877218,-1.0877218,-0.62799645,16.000436,13.842713)"
           id="g16">
          <path
             d="m 2,-23 v -4 h -4 v 4 m 1.5,17 v 4 h 1 v -4"
             id="path16"
             style="stroke-width:1" />
          <circle
             cy="-15"
             r="10.5"
             id="circle16"
             cx="0" />
        </g>
        <g
           transform="matrix(-0.62799645,-1.0877218,1.0877218,-0.62799645,16.000436,13.842713)"
           id="g17">
          <path
             d="m 2,-23 v -4 h -4 v 4 m 1.5,17 v 4 h 1 v -4"
             id="path17" />
          <circle
             cy="-15"
             r="10.5"
             id="circle17"
             cx="0" />
        </g>
        <circle
           r="3.7679787"
           id="circle18"
           cx="16.000437"
           cy="13.842713"
           style="stroke-width:1.25599" />
      </g>
    </mask>
    <mask
       maskUnits="userSpaceOnUse"
       id="mask18">
      <g
         id="g22"
         transform="matrix(-0.3980914,-0.68951456,0.68951456,-0.3980914,-3.1751162,16.543199)"
         style="stroke-width:1.25599">
        <path
           fill="#ffffff"
           d="M -17.911372,-20.069095 H 49.912244 V 47.754521 H -17.911372 Z"
           id="path18" />
        <path
           d="m 18.512422,-15.045124 v -5.023971 H 13.48845 v 5.023971 m 1.88399,21.3518796 v 5.0239714 h 1.255992 V 6.3067556"
           id="path19" />
        <circle
           cy="-4.9971805"
           r="13.187925"
           id="circle19"
           cx="16.000437" />
        <g
           transform="matrix(-0.62799645,1.0877218,-1.0877218,-0.62799645,16.000436,13.842713)"
           id="g20">
          <path
             d="m 2,-23 v -4 h -4 v 4 m 1.5,17 v 4 h 1 v -4"
             id="path20" />
          <circle
             cy="-15"
             r="10.5"
             id="circle20"
             cx="0" />
        </g>
        <g
           transform="matrix(-0.62799645,-1.0877218,1.0877218,-0.62799645,16.000436,13.842713)"
           id="g21">
          <path
             d="m 2,-23 v -4 h -4 v 4 m 1.5,17 v 4 h 1 v -4"
             id="path21" />
          <circle
             cy="-15"
             r="10.5"
             id="circle21"
             cx="0" />
        </g>
        <circle
           r="3.7679787"
           id="circle22"
           cx="16.000437"
           cy="13.842713" />
      </g>
    </mask>
    <mask
       maskUnits="userSpaceOnUse"
       id="mask22">
      <g
         id="g26"
         transform="matrix(0.79618284,0,0,0.79618284,-12.739273,-11.021331)">
        <path
           fill="#ffffff"
           d="M -17.911372,-20.069095 H 49.912244 V 47.754521 H -17.911372 Z"
           id="path22" />
        <path
           d="m 18.512422,-15.045124 v -5.023971 H 13.48845 v 5.023971 m 1.88399,21.3518796 v 5.0239714 h 1.255992 V 6.3067556"
           id="path23" />
        <circle
           cy="-4.9971805"
           r="13.187925"
           id="circle23"
           cx="16.000437" />
        <g
           transform="matrix(-0.62799645,1.0877218,-1.0877218,-0.62799645,16.000436,13.842713)"
           id="g24">
          <path
             d="m 2,-23 v -4 h -4 v 4 m 1.5,17 v 4 h 1 v -4"
             id="path24" />
          <circle
             cy="-15"
             r="10.5"
             id="circle24"
             cx="0" />
        </g>
        <g
           transform="matrix(-0.62799645,-1.0877218,1.0877218,-0.62799645,16.000436,13.842713)"
           id="g25">
          <path
             d="m 2,-23 v -4 h -4 v 4 m 1.5,17 v 4 h 1 v -4"
             id="path25" />
          <circle
             cy="-15"
             r="10.5"
             id="circle25"
             cx="0" />
        </g>
        <circle
           r="3.7679787"
           id="circle26"
           cx="16.000437"
           cy="13.842713" />
      </g>
    </mask>
    <mask
       id="b-3"
       maskUnits="userSpaceOnUse"
       x="-30"
       y="-30"
       width="60"
       height="60">
      <path
         d="M -27,-27 H 27 V 27 H -27 Z"
         fill="#ffffff"
         id="path3" />
      <path
         d="m 2,-23 v -4 h -4 v 4 m 1.5,17 v 4 h 1 v -4"
         id="path4" />
      <circle
         cy="-15"
         r="10.5"
         id="circle4"
         cx="0" />
      <g
         transform="rotate(120)"
         id="g5">
        <path
           d="m 2,-23 v -4 h -4 v 4 m 1.5,17 v 4 h 1 v -4"
           id="path5" />
        <circle
           cy="-15"
           r="10.5"
           id="circle5"
           cx="0" />
      </g>
      <g
         transform="rotate(-120)"
         id="g6">
        <path
           d="m 2,-23 v -4 h -4 v 4 m 1.5,17 v 4 h 1 v -4"
           id="path6" />
        <circle
           cy="-15"
           r="10.5"
           id="circle6"
           cx="0" />
      </g>
      <circle
         r="3"
         id="circle7"
         cx="0"
         cy="0" />
    </mask>
    <clipPath
       id="d">
      <circle
         cy="-15"
         r="9.5"
         id="circle1-6"
         cx="0" />
      <circle
         transform="rotate(120)"
         cy="-15"
         r="9.5"
         id="circle2-7"
         cx="0" />
      <circle
         transform="rotate(-120)"
         cy="-15"
         r="9.5"
         id="circle3-5"
         cx="0" />
    </clipPath>
  </defs>
  <path
     style="fill:#ffffff;fill-opacity:1;stroke:none;stroke-width:9.82677;stroke-miterlimit:48.6;stroke-dashoffset:62.7704;stroke-opacity:0.624474;paint-order:fill markers stroke"
     d="m 42.984093,-7.9603322 c 6.654955,-20.4039558 30.490384,-19.5992268 38,-1 L 80.016779,64.506668 c 11.491326,-7.5333 22.026301,-8.15868 33.517621,0 10.53653,-9.16895 22.64122,-8.51685 34.14836,0 9.26645,-7.87788 24.38509,-6.78558 32.10133,0 4.71926,31.2762 6.53323,67.275502 -1,96.633002 -25.35471,45.73638 -120.779954,42.77835 -135.799997,0 -0.245751,-9.093 -3.946816,-27.46217 -3.946816,-27.46217 0.875963,-6.18491 -33.0526233,-14.86134 -60.106969,-14.83279 0.133063,-38.741022 23.6747416,-29.799262 63.523673,-29.418872 0,0 0.530112,-63.762227 0.530112,-97.3861702 z"
     id="path1"
     sodipodi:nodetypes="cccccccccccc" />
</svg>
