<?xml version="1.0" encoding="UTF-8" standalone="no"?>
<!-- Created with Inkscape (http://www.inkscape.org/) -->

<svg
   width="74.720001mm"
   height="19.470221mm"
   viewBox="0 0 74.720001 19.470221"
   version="1.1"
   id="svg1"
   xml:space="preserve"
   inkscape:version="1.4.2 (f4327f4, 2025-05-13)"
   sodipodi:docname="inomeado.svg"
   inkscape:export-filename="inomeado.png"
   inkscape:export-xdpi="169.96788"
   inkscape:export-ydpi="169.96788"
   xmlns:inkscape="http://www.inkscape.org/namespaces/inkscape"
   xmlns:sodipodi="http://sodipodi.sourceforge.net/DTD/sodipodi-0.dtd"
   xmlns="http://www.w3.org/2000/svg"
   xmlns:svg="http://www.w3.org/2000/svg"><sodipodi:namedview
     id="namedview1"
     pagecolor="#ffffff"
     bordercolor="#000000"
     borderopacity="0.25"
     inkscape:showpageshadow="2"
     inkscape:pageopacity="0.0"
     inkscape:pagecheckerboard="0"
     inkscape:deskcolor="#d1d1d1"
     inkscape:document-units="mm"
     inkscape:zoom="0.71891835"
     inkscape:cx="-23.646635"
     inkscape:cy="128.66552"
     inkscape:window-width="1920"
     inkscape:window-height="1009"
     inkscape:window-x="-8"
     inkscape:window-y="-8"
     inkscape:window-maximized="1"
     inkscape:current-layer="layer1" /><defs
     id="defs1" /><g
     inkscape:label="Camada 1"
     inkscape:groupmode="layer"
     id="layer1"><g
       id="g2"
       transform="translate(-32.785,-180.21506)"><g
         id="g3"
         transform="translate(-1.099677)"><path
           d="m 35.674695,195.74828 c 4.639733,0.254 7.780867,0.381 9.4234,0.381 0.389467,0 0.694267,-0.11007 0.9144,-0.3302 0.237067,-0.23707 0.3556,-0.55033 0.3556,-0.9398 v -2.286 h -5.842 c -1.778,0 -3.0734,-0.39793 -3.8862,-1.1938 -0.795867,-0.8128 -1.1938,-2.1082 -1.1938,-3.8862 v -0.762 c 0,-1.778 0.397933,-3.06493 1.1938,-3.8608 0.8128,-0.81279 2.1082,-1.21919 3.8862,-1.21919 h 8.9154 v 3.55599 h -7.8994 c -1.016,0 -1.524,0.508 -1.524,1.524 v 0.508 c 0,1.016 0.508,1.524 1.524,1.524 h 4.572 c 1.659467,0 2.878667,0.38947 3.6576,1.1684 0.778933,0.77893 1.1684,1.99813 1.1684,3.6576 v 1.27 c 0,1.65947 -0.389467,2.87867 -1.1684,3.6576 -0.778933,0.77893 -1.998133,1.1684 -3.6576,1.1684 -0.8636,0 -1.778,-0.0169 -2.7432,-0.0508 l -2.3368,-0.1016 c -1.7272,-0.0847 -3.513667,-0.2032 -5.3594,-0.3556 z m 32.791401,-6.223 -3.556,6.35 h -3.556 l -3.556,-6.35 v 9.906 h -4.572 v -17.77999 h 4.826 l 5.08,9.39799 5.08,-9.39799 h 4.826 v 17.77999 h -4.572 z"
           id="path3"
           style="font-size:25.4px;font-family:'Russo One';-inkscape-font-specification:'Russo One, Normal';fill:#7691eb;fill-opacity:1;stroke-width:0.264583"
           aria-label="SMDE"
           sodipodi:nodetypes="cssscscssssccsssssssssscccccccccccccccccc" /><path
           d="m 34.893986,195.13699 c 4.639733,0.254 7.780867,0.381 9.4234,0.381 0.389467,0 0.694267,-0.11007 0.9144,-0.3302 0.237067,-0.23707 0.3556,-0.55033 0.3556,-0.9398 v -2.286 h -5.842 c -1.778,0 -3.0734,-0.39793 -3.8862,-1.1938 -0.795867,-0.8128 -1.1938,-2.1082 -1.1938,-3.8862 v -0.762 c 0,-1.778 0.397933,-3.06493 1.1938,-3.8608 0.8128,-0.81279 2.1082,-1.21919 3.8862,-1.21919 h 8.9154 v 3.55599 h -7.8994 c -1.016,0 -1.524,0.508 -1.524,1.524 v 0.508 c 0,1.016 0.508,1.524 1.524,1.524 h 4.572 c 1.659467,0 2.878667,0.38947 3.6576,1.1684 0.778933,0.77893 1.1684,1.99813 1.1684,3.6576 v 1.27 c 0,1.65947 -0.389467,2.87867 -1.1684,3.6576 -0.778933,0.77893 -1.998133,1.1684 -3.6576,1.1684 -0.8636,0 -1.778,-0.0169 -2.7432,-0.0508 l -2.3368,-0.1016 c -1.7272,-0.0847 -3.513667,-0.2032 -5.3594,-0.3556 z m 32.791401,-6.223 -3.556,6.35 h -3.556 l -3.556,-6.35 v 9.906 h -4.572 V 181.04 h 4.826 l 5.08,9.39799 5.08,-9.39799 h 4.826 v 17.77999 h -4.572 z"
           id="path2"
           style="font-size:25.4px;font-family:'Russo One';-inkscape-font-specification:'Russo One, Normal';fill:#aac0f2;fill-opacity:1;stroke-width:0.264583"
           aria-label="SMDE"
           sodipodi:nodetypes="cssscscssssccsssssssssscccccccccccccccccc" /><path
           d="m 34.113277,194.31698 c 4.639733,0.254 7.780867,0.381 9.4234,0.381 0.389467,0 0.694267,-0.11007 0.9144,-0.3302 0.237067,-0.23707 0.3556,-0.55033 0.3556,-0.9398 v -2.286 h -5.842 c -1.778,0 -3.0734,-0.39793 -3.8862,-1.1938 -0.795867,-0.8128 -1.1938,-2.1082 -1.1938,-3.8862 v -0.762 c 0,-1.778 0.397933,-3.06493 1.1938,-3.8608 0.8128,-0.81279 2.1082,-1.21919 3.8862,-1.21919 h 8.9154 v 3.55599 h -7.8994 c -1.016,0 -1.524,0.508 -1.524,1.524 v 0.508 c 0,1.016 0.508,1.524 1.524,1.524 h 4.572 c 1.659467,0 2.878667,0.38947 3.6576,1.1684 0.778933,0.77893 1.1684,1.99813 1.1684,3.6576 v 1.27 c 0,1.65947 -0.389467,2.87867 -1.1684,3.6576 -0.778933,0.77893 -1.998133,1.1684 -3.6576,1.1684 -0.8636,0 -1.778,-0.0169 -2.7432,-0.0508 l -2.3368,-0.1016 c -1.7272,-0.0847 -3.513667,-0.2032 -5.3594,-0.3556 z m 32.791401,-6.223 -3.556,6.35 h -3.556 l -3.556,-6.35 v 9.906 h -4.572 v -17.77999 h 4.826 l 5.08,9.39799 5.08,-9.39799 h 4.826 v 17.77999 h -4.572 z"
           id="text1"
           style="font-size:25.4px;font-family:'Russo One';-inkscape-font-specification:'Russo One, Normal';fill:#cfd6eb;stroke-width:0.264583"
           aria-label="SMDE"
           sodipodi:nodetypes="cssscscssssccsssssssssscccccccccccccccccc" /></g><g
         id="g4"><path
           d="m 84.956592,181.811 c 1.919378,0 3.371648,0.49953 4.356818,1.49859 1.00215,0.98213 1.50322,2.42993 1.50322,4.3434 v 6.096 c 0,1.91347 -0.50107,3.36973 -1.50322,4.3688 -0.98517,0.98213 -2.43744,1.4732 -4.356818,1.4732 H 75.02 V 181.811 Z m 1.273918,5.84199 c 0,-1.524 -0.764349,-2.286 -2.293056,-2.286 h -4.331335 v 10.668 h 4.331335 c 1.528707,0 2.293056,-0.762 2.293056,-2.286 z m 21.27449,11.938 H 93.36446 V 181.811 H 107.505 v 3.55599 h -9.55442 v 3.429 h 7.51614 v 3.556 h -7.51614 v 3.683 h 9.55442 z"
           style="font-size:25.4px;font-family:'Russo One';-inkscape-font-specification:'Russo One, Normal';fill:#5419d0;fill-opacity:1;stroke-width:0.264991"
           id="path5"
           sodipodi:nodetypes="scssssccsssccsssccccccccccccc" /><path
           d="m 84.014999,180.915 c 1.913467,0 3.361267,0.49953 4.3434,1.49859 0.999067,0.98213 1.4986,2.42993 1.4986,4.3434 v 6.096 c 0,1.91347 -0.499533,3.36973 -1.4986,4.3688 -0.982133,0.98213 -2.429933,1.4732 -4.3434,1.4732 H 74.109 V 180.915 Z m 1.27,5.84199 c 0,-1.524 -0.762,-2.286 -2.286,-2.286 h -4.318 v 10.668 h 4.318 c 1.524,0 2.286,-0.762 2.286,-2.286 z m 21.208981,11.938 H 92.396982 V 180.915 h 14.096998 v 3.55599 h -9.524998 v 3.429 h 7.492998 v 3.556 h -7.492998 v 3.683 h 9.524998 z"
           style="font-size:25.4px;font-family:'Russo One';-inkscape-font-specification:'Russo One, Normal';fill:#5a2ce6;fill-opacity:1;stroke-width:0.264583"
           id="path4"
           sodipodi:nodetypes="scssssccsssccsssccccccccccccc" /><path
           d="m 83.41522,180.21506 c 1.913467,0 3.361267,0.49953 4.3434,1.49859 0.999067,0.98213 1.4986,2.42993 1.4986,4.3434 v 6.096 c 0,1.91347 -0.499533,3.36973 -1.4986,4.3688 -0.982133,0.98213 -2.429933,1.4732 -4.3434,1.4732 h -9.905999 v -17.77999 z m 1.27,5.84199 c 0,-1.524 -0.762,-2.286 -2.286,-2.286 h -4.318 v 10.668 h 4.318 c 1.524,0 2.286,-0.762 2.286,-2.286 z m 21.20898,11.938 H 91.797203 V 180.21506 H 105.8942 v 3.55599 h -9.524997 v 3.429 h 7.492997 v 3.556 h -7.492997 v 3.683 h 9.524997 z"
           style="font-size:25.4px;font-family:'Russo One';-inkscape-font-specification:'Russo One, Normal';fill:#2d17a2;fill-opacity:1;stroke-width:0.264583"
           id="path1"
           sodipodi:nodetypes="scssssccsssccsssccccccccccccc" /></g></g><text
       xml:space="preserve"
       style="font-style:normal;font-variant:normal;font-weight:normal;font-stretch:normal;font-size:25.4px;font-family:'Russo One';-inkscape-font-specification:'Russo One, Normal';font-variant-ligatures:normal;font-variant-caps:normal;font-variant-numeric:normal;font-variant-east-asian:normal;text-align:start;writing-mode:lr-tb;direction:ltr;text-anchor:start;display:none;fill:#cfd6eb;fill-opacity:1;stroke-width:0.264583"
       x="33.122677"
       y="197.99998"
       id="text2"><tspan
         sodipodi:role="line"
         id="tspan2"
         style="font-style:normal;font-variant:normal;font-weight:normal;font-stretch:normal;font-size:25.4px;font-family:'Russo One';-inkscape-font-specification:'Russo One, Normal';font-variant-ligatures:normal;font-variant-caps:normal;font-variant-numeric:normal;font-variant-east-asian:normal;stroke-width:0.264583"
         x="0"
         y="0">SMDE</tspan></text></g></svg>
