<?xml version="1.0" encoding="UTF-8" standalone="no"?>
<!-- Created with Inkscape (http://www.inkscape.org/) -->

<svg
   width="128.95001mm"
   height="19.733999mm"
   viewBox="0 0 128.95001 19.734"
   version="1.1"
   id="svg1"
   xml:space="preserve"
   inkscape:version="1.4.3 (0d15f75, 2025-12-25)"
   sodipodi:docname="title.svg"
   inkscape:export-filename="title.png"
   inkscape:export-xdpi="196.97556"
   inkscape:export-ydpi="196.97556"
   xmlns:inkscape="http://www.inkscape.org/namespaces/inkscape"
   xmlns:sodipodi="http://sodipodi.sourceforge.net/DTD/sodipodi-0.dtd"
   xmlns="http://www.w3.org/2000/svg"
   xmlns:svg="http://www.w3.org/2000/svg"><sodipodi:namedview
     id="namedview1"
     pagecolor="#ffffff"
     bordercolor="#000000"
     borderopacity="0.25"
     inkscape:showpageshadow="2"
     inkscape:pageopacity="0.0"
     inkscape:pagecheckerboard="0"
     inkscape:deskcolor="#d1d1d1"
     inkscape:document-units="mm"
     inkscape:zoom="1.0167041"
     inkscape:cx="179.50159"
     inkscape:cy="319.16858"
     inkscape:window-width="1920"
     inkscape:window-height="1009"
     inkscape:window-x="-8"
     inkscape:window-y="-8"
     inkscape:window-maximized="1"
     inkscape:current-layer="layer1" /><defs
     id="defs1" /><g
     inkscape:label="Camada 1"
     inkscape:groupmode="layer"
     id="layer1"
     transform="translate(1.7440319e-5)"><text
       xml:space="preserve"
       style="font-style:normal;font-variant:normal;font-weight:normal;font-stretch:normal;font-size:25.4px;font-family:'Russo One';-inkscape-font-specification:'Russo One, Normal';font-variant-ligatures:normal;font-variant-caps:normal;font-variant-numeric:normal;font-variant-east-asian:normal;text-align:start;writing-mode:lr-tb;direction:ltr;text-anchor:start;display:none;fill:#cfd6eb;fill-opacity:1;stroke-width:0.264583"
       x="-0.76201743"
       y="17.78002"
       id="text2"><tspan
         sodipodi:role="line"
         id="tspan1"
         x="0"
         y="0">SURGEMD</tspan></text><g
       id="g5"><g
         id="g7"><path
           d="m 1.9286,15.797 c 4.6397333,0.254 7.7808665,0.381 9.4234,0.381 0.389466,0 0.694266,-0.110067 0.914399,-0.3302 0.237067,-0.237067 0.3556,-0.550333 0.3556,-0.9398 V 12.622 H 6.7799999 c -1.778,0 -3.0734,-0.397933 -3.8862,-1.1938 C 2.0979333,10.6154 1.7,9.3199999 1.7,7.5419999 V 6.78 C 1.7,5.002 2.0979333,3.7150667 2.8937999,2.9192 3.7065999,2.1064 5.0019999,1.7 6.7799999,1.7 H 15.695399 V 5.256 H 7.7959999 c -1.016,0 -1.524,0.508 -1.524,1.524 v 0.5079999 c 0,1.016 0.508,1.524 1.524,1.524 h 4.5719991 c 1.659467,0 2.878667,0.3894667 3.6576,1.1684 0.778933,0.7789331 1.1684,1.9981331 1.1684,3.6576001 v 1.27 c 0,1.659467 -0.389467,2.878667 -1.1684,3.6576 -0.778933,0.778933 -1.998133,1.1684 -3.6576,1.1684 C 11.5044,19.734 10.59,19.71707 9.6247998,19.6832 L 7.2879999,19.5816 C 5.5607999,19.49693 3.7743333,19.3784 1.9286,19.226 Z M 30.910001,1.7 h 4.572 v 12.954 c 0,1.778 -0.4064,3.0734 -1.2192,3.8862 -0.795867,0.795867 -2.0828,1.1938 -3.8608,1.1938 h -5.842 c -1.778,0 -3.0734,-0.397933 -3.8862,-1.1938 -0.795867,-0.8128 -1.1938,-2.1082 -1.1938,-3.8862 V 1.7 h 4.572 v 12.954 c 0,1.016 0.508,1.524 1.524,1.524 h 3.81 c 1.016,0 1.524,-0.508 1.524,-1.524 z M 38.53,1.7 h 10.668 c 1.778,0 3.064933,0.4064 3.8608,1.2192 0.8128,0.7958667 1.2192,2.0828 1.2192,3.8608 v 2.2859999 c 0,1.4054671 -0.237067,2.4976671 -0.7112,3.2766001 -0.4572,0.778933 -1.1938,1.2954 -2.2098,1.5494 l 3.175,5.588 H 49.579 L 46.658,14.146 H 43.102 V 19.48 H 38.53 Z m 11.176,5.08 c 0,-1.016 -0.508,-1.524 -1.524,-1.524 h -5.08 v 5.334 h 5.08 c 1.016,0 1.524,-0.508 1.524,-1.5240001 z m 22.351983,12.319 c -3.9624,0.423333 -7.603067,0.635 -10.922,0.635 -1.659467,0 -2.878667,-0.389467 -3.6576,-1.1684 -0.778933,-0.778933 -1.1684,-1.998133 -1.1684,-3.6576 V 6.78 c 0,-1.778 0.397933,-3.0649333 1.1938,-3.8608 0.8128,-0.8128 2.1082,-1.2192 3.8862,-1.2192 h 9.144 v 3.556 h -8.128 c -1.016,0 -1.524,0.508 -1.524,1.524 v 8.128 c 0,0.389467 0.110067,0.702733 0.3302,0.9398 0.237067,0.220133 0.550333,0.3302 0.9398,0.3302 1.947333,0 3.725333,-0.04233 5.334,-0.127 v -3.683 h -3.302 V 9.3199999 h 7.874 z m 16.637018,0.381 h -14.097 V 1.7 h 14.097 v 3.556 h -9.525 v 3.4289999 h 7.493 V 12.241 h -7.493 v 3.683 h 9.525 z"
           id="path9"
           style="font-size:25.4px;font-family:'Russo One';-inkscape-font-specification:'Russo One, Normal';fill:#7691eb;fill-opacity:1;stroke-width:0.264583"
           aria-label="SURGEMD"
           sodipodi:nodetypes="cssscscssssccssssssssssccccccsssscsccssssccscsscccccccccssccssscssssssccssscsccccccccccccccccccc" /><path
           d="m 1.0286,14.897 c 4.6397333,0.254 7.7808665,0.381 9.4234,0.381 0.389466,0 0.694266,-0.110067 0.914399,-0.3302 0.237067,-0.237067 0.3556,-0.550333 0.3556,-0.9398 V 11.722 H 5.8799999 c -1.778,0 -3.0734,-0.397933 -3.8862,-1.1938 C 1.1979333,9.7153999 0.8,8.4199999 0.8,6.6419999 V 5.88 C 0.8,4.102 1.1979333,2.8150667 1.9937999,2.0192 2.8065999,1.2064 4.1019999,0.8 5.8799999,0.8 H 14.795399 V 4.356 H 6.8959999 c -1.016,0 -1.524,0.508 -1.524,1.524 v 0.5079999 c 0,1.016 0.508,1.524 1.524,1.524 h 4.5719991 c 1.659467,0 2.878667,0.3894667 3.6576,1.1684 0.778933,0.7789333 1.1684,1.9981331 1.1684,3.6576001 v 1.27 c 0,1.659467 -0.389467,2.878667 -1.1684,3.6576 -0.778933,0.778933 -1.998133,1.1684 -3.6576,1.1684 -0.863599,0 -1.7779992,-0.01693 -2.7431992,-0.0508 L 6.3879999,18.6816 C 4.6607999,18.59693 2.8743333,18.4784 1.0286,18.326 Z M 30.010001,0.8 h 4.572 v 12.954 c 0,1.778 -0.4064,3.0734 -1.2192,3.8862 -0.795867,0.795867 -2.0828,1.1938 -3.8608,1.1938 h -5.842 c -1.778,0 -3.0734,-0.397933 -3.8862,-1.1938 -0.795867,-0.8128 -1.1938,-2.1082 -1.1938,-3.8862 V 0.8 h 4.572 v 12.954 c 0,1.016 0.508,1.524 1.524,1.524 h 3.81 c 1.016,0 1.524,-0.508 1.524,-1.524 z M 37.63,0.8 h 10.668 c 1.778,0 3.064933,0.4064 3.8608,1.2192 0.8128,0.7958667 1.2192,2.0828 1.2192,3.8608 v 2.2859999 c 0,1.4054667 -0.237067,2.4976671 -0.7112,3.2766001 -0.4572,0.778933 -1.1938,1.2954 -2.2098,1.5494 l 3.175,5.588 H 48.679 L 45.758,13.246 H 42.202 V 18.58 H 37.63 Z m 11.176,5.08 c 0,-1.016 -0.508,-1.524 -1.524,-1.524 h -5.08 v 5.3339999 h 5.08 c 1.016,0 1.524,-0.508 1.524,-1.524 z m 22.351983,12.319 c -3.9624,0.423333 -7.603067,0.635 -10.922,0.635 -1.659467,0 -2.878667,-0.389467 -3.6576,-1.1684 -0.778933,-0.778933 -1.1684,-1.998133 -1.1684,-3.6576 V 5.88 c 0,-1.778 0.397933,-3.0649333 1.1938,-3.8608 0.8128,-0.8128 2.1082,-1.2192 3.8862,-1.2192 h 9.144 v 3.556 h -8.128 c -1.016,0 -1.524,0.508 -1.524,1.524 v 8.128 c 0,0.389467 0.110067,0.702733 0.3302,0.9398 0.237067,0.220133 0.550333,0.3302 0.9398,0.3302 1.947333,0 3.725333,-0.04233 5.334,-0.127 v -3.683 h -3.302 V 8.4199999 h 7.874 z m 16.637018,0.381 h -14.097 V 0.8 h 14.097 v 3.556 h -9.525 v 3.4289999 h 7.493 V 11.341 h -7.493 v 3.683 h 9.525 z"
           id="text3"
           style="font-size:25.4px;font-family:'Russo One';-inkscape-font-specification:'Russo One, Normal';fill:#aac0f2;fill-opacity:1;stroke-width:0.264583"
           aria-label="SURGEMD"
           sodipodi:nodetypes="cssscscssssccssssssssssccccccsssscsccssssccscsscccccccccssccssscssssssccssscsccccccccccccccccccc" /><path
           d="m 0.22858256,14.09702 c 4.63973334,0.254 7.78086654,0.381 9.42339984,0.381 0.3894666,0 0.6942666,-0.110067 0.9143996,-0.3302 0.237067,-0.237067 0.3556,-0.550333 0.3556,-0.9398 v -2.286 H 5.0799825 c -1.778,0 -3.0734,-0.397933 -3.8862,-1.1938001 -0.79586663,-0.8128 -1.193799940319,-2.1082 -1.193799940319,-3.8862 V 5.08002 c 0,-1.778 0.397933310319,-3.0649333 1.193799940319,-3.8608 0.8128,-0.81279998 2.1082,-1.219199972839 3.8862,-1.219199972839 H 13.995382 V 3.55602 H 6.0959825 c -1.016,0 -1.524,0.508 -1.524,1.524 v 0.5079999 c 0,1.016 0.508,1.524 1.524,1.524 h 4.5719995 c 1.659467,0 2.878667,0.3894667 3.6576,1.1684 0.778933,0.7789333 1.1684,1.9981331 1.1684,3.6576001 v 1.27 c 0,1.659467 -0.389467,2.878667 -1.1684,3.6576 -0.778933,0.778933 -1.998133,1.1684 -3.6576,1.1684 -0.8635997,0 -1.7779996,-0.01693 -2.7431996,-0.0508 l -2.3367999,-0.1016 c -1.7272,-0.08467 -3.5136666,-0.2032 -5.35939994,-0.3556 z M 29.209984,2.0027161e-5 h 4.572 V 12.95402 c 0,1.778 -0.4064,3.0734 -1.2192,3.8862 -0.795867,0.795867 -2.0828,1.1938 -3.8608,1.1938 h -5.842 c -1.778,0 -3.0734,-0.397933 -3.8862,-1.1938 -0.795867,-0.8128 -1.1938,-2.1082 -1.1938,-3.8862 V 2.0027161e-5 h 4.572 V 12.95402 c 0,1.016 0.508,1.524 1.524,1.524 h 3.81 c 1.016,0 1.524,-0.508 1.524,-1.524 z m 7.619999,0 h 10.668 c 1.778,0 3.064933,0.406399992839 3.8608,1.219199972839 0.8128,0.7958667 1.2192,2.0828 1.2192,3.8608 v 2.2859999 c 0,1.4054667 -0.237067,2.4976667 -0.7112,3.2766001 -0.4572,0.778933 -1.1938,1.2954 -2.2098,1.5494 l 3.175,5.588 h -4.953 l -2.921,-5.334 h -3.556 v 5.334 h -4.572 z M 48.005983,5.08002 c 0,-1.016 -0.508,-1.524 -1.524,-1.524 h -5.08 v 5.3339999 h 5.08 c 1.016,0 1.524,-0.508 1.524,-1.524 z m 22.351983,12.319 c -3.9624,0.423333 -7.603067,0.635 -10.922,0.635 -1.659467,0 -2.878667,-0.389467 -3.6576,-1.1684 -0.778933,-0.778933 -1.1684,-1.998133 -1.1684,-3.6576 v -8.128 c 0,-1.778 0.397933,-3.0649333 1.1938,-3.8608 0.8128,-0.81279998 2.1082,-1.219199972839 3.8862,-1.219199972839 h 9.144 V 3.55602 h -8.128 c -1.016,0 -1.524,0.508 -1.524,1.524 v 8.128 c 0,0.389467 0.110067,0.702733 0.3302,0.9398 0.237067,0.220133 0.550333,0.3302 0.9398,0.3302 1.947333,0 3.725333,-0.04233 5.334,-0.127 v -3.683 h -3.302 V 7.6200199 h 7.874 z m 16.637018,0.381 h -14.097 V 2.0027161e-5 h 14.097 V 3.55602 h -9.525 v 3.4289999 h 7.493 V 10.54102 h -7.493 v 3.683 h 9.525 z"
           id="path8"
           style="font-size:25.4px;font-family:'Russo One';-inkscape-font-specification:'Russo One, Normal';fill:#cfd6eb;stroke-width:0.264583"
           aria-label="SURGEMD"
           sodipodi:nodetypes="cssscscssssccssssssssssccccccsssscsccssssccscsscccccccccssccssscssssssccssscsccccccccccccccccccc" /></g><g
         id="g6"
         transform="translate(0.9)"><path
           d="m 104.682,9.574 -3.556,6.350001 H 97.569999 L 94.013999,9.574 v 9.906001 H 89.442 V 1.7 h 4.825999 l 5.08,9.398 L 104.428,1.7 h 4.826 v 17.780001 h -4.572 z M 122.20799,1.7 c 1.91347,0 3.36127,0.4995334 4.3434,1.4986003 0.99907,0.982133 1.4986,2.429933 1.4986,4.3433997 v 6.096001 c 0,1.913467 -0.49953,3.369733 -1.4986,4.3688 -0.98213,0.982133 -2.42993,1.4732 -4.3434,1.4732 h -9.906 V 1.7 Z m 1.27,5.842 c 0,-1.5239997 -0.762,-2.2859997 -2.286,-2.2859997 h -4.318 V 15.924001 h 4.318 c 1.524,0 2.286,-0.762 2.286,-2.286 z"
           style="font-size:25.4px;font-family:'Russo One';-inkscape-font-specification:'Russo One, Normal';fill:#5419d0;fill-opacity:1;stroke-width:0.264583"
           id="path7" /><path
           d="m 104.082,8.674 -3.556,6.350001 H 96.969999 L 93.413999,8.674 v 9.906001 H 88.842 V 0.8 h 4.825999 l 5.08,9.398 L 103.828,0.8 h 4.826 v 17.780001 h -4.572 z M 121.60799,0.8 c 1.91347,0 3.36127,0.4995334 4.3434,1.4986003 0.99907,0.982133 1.4986,2.429933 1.4986,4.3433997 v 6.096001 c 0,1.913467 -0.49953,3.369733 -1.4986,4.3688 -0.98213,0.982133 -2.42993,1.4732 -4.3434,1.4732 h -9.906 V 0.8 Z m 1.27,5.842 c 0,-1.5239997 -0.762,-2.2859997 -2.286,-2.2859997 h -4.318 V 15.024001 h 4.318 c 1.524,0 2.286,-0.762 2.286,-2.286 z"
           style="font-size:25.4px;font-family:'Russo One';-inkscape-font-specification:'Russo One, Normal';fill:#5a2ce6;fill-opacity:1;stroke-width:0.264583"
           id="path6" /><path
           d="m 103.582,7.8740003 -3.556,6.3500007 h -3.556001 l -3.556,-6.3500007 V 17.780001 H 88.342 V 0 h 4.825999 l 5.08,9.3980003 L 103.328,0 h 4.826 v 17.780001 h -4.572 z M 121.10799,0 c 1.91347,0 3.36127,0.4995334 4.3434,1.4986003 0.99907,0.982133 1.4986,2.429933 1.4986,4.3434 v 6.0960007 c 0,1.913467 -0.49953,3.369733 -1.4986,4.3688 -0.98213,0.982133 -2.42993,1.4732 -4.3434,1.4732 h -9.906 V 0 Z m 1.27,5.8420003 c 0,-1.524 -0.762,-2.286 -2.286,-2.286 h -4.318 V 14.224001 h 4.318 c 1.524,0 2.286,-0.762 2.286,-2.286 z"
           style="font-size:25.4px;font-family:'Russo One';-inkscape-font-specification:'Russo One, Normal';fill:#2d17a2;fill-opacity:1;stroke-width:0.264583"
           id="path1-8" /></g></g></g></svg>
