<?xml version="1.0" encoding="UTF-8" standalone="no"?>
<!-- Created with Inkscape (http://www.inkscape.org/) -->

<svg
   width="51.80468mm"
   height="51.951416mm"
   viewBox="0 0 51.804679 51.95142"
   version="1.1"
   id="svg5"
   inkscape:version="1.4.2 (f4327f4, 2025-05-13)"
   sodipodi:docname="barrel_dead.svg"
   xmlns:inkscape="http://www.inkscape.org/namespaces/inkscape"
   xmlns:sodipodi="http://sodipodi.sourceforge.net/DTD/sodipodi-0.dtd"
   xmlns:xlink="http://www.w3.org/1999/xlink"
   xmlns="http://www.w3.org/2000/svg"
   xmlns:svg="http://www.w3.org/2000/svg">
  <sodipodi:namedview
     id="namedview7"
     pagecolor="#ffffff"
     bordercolor="#666666"
     borderopacity="1.0"
     inkscape:pageshadow="2"
     inkscape:pageopacity="0.0"
     inkscape:pagecheckerboard="true"
     inkscape:document-units="mm"
     showgrid="false"
     inkscape:zoom="1.2999535"
     inkscape:cx="119.23503"
     inkscape:cy="255.00912"
     inkscape:window-width="1920"
     inkscape:window-height="1009"
     inkscape:window-x="-8"
     inkscape:window-y="-8"
     inkscape:window-maximized="1"
     inkscape:current-layer="layer1"
     fit-margin-top="0"
     fit-margin-left="0"
     fit-margin-right="0"
     fit-margin-bottom="0"
     inkscape:showpageshadow="2"
     inkscape:deskcolor="#d1d1d1" />
  <defs
     id="defs2">
    <linearGradient
       id="linearGradient1"
       inkscape:collect="always">
      <stop
         style="stop-color:#2b2b2b;stop-opacity:0.59235668;"
         offset="0"
         id="stop1" />
      <stop
         style="stop-color:#5d5d5d;stop-opacity:0;"
         offset="1"
         id="stop2" />
    </linearGradient>
    <radialGradient
       inkscape:collect="always"
       xlink:href="#linearGradient1"
       id="radialGradient2"
       cx="41.917641"
       cy="41.527069"
       fx="41.917641"
       fy="41.527069"
       r="19.193617"
       gradientTransform="matrix(1.1134992,-0.04661164,0.04531093,1.0824267,-2.4182429,-3.0015165)"
       gradientUnits="userSpaceOnUse" />
  </defs>
  <g
     inkscape:label="Layer 1"
     inkscape:groupmode="layer"
     id="layer1"
     transform="matrix(1.3409032,0,0,1.3409032,-35.881131,-25.444921)">
    <path
       style="fill:url(#radialGradient2);stroke-width:0.447363"
       d="m 35.468117,28.613173 -2.158025,-6.548622 5.623861,5.159842 -0.795185,-7.035306 4.009031,6.34524 2.196195,-7.55837 1.913633,8.829802 5.204126,-6.822228 -2.160558,9.341685 8.730798,-6.54325 -5.506513,9.878767 9.947508,-4.829416 -7.113436,8.510863 8.816832,-1.453939 -7.837349,4.965107 9.05406,0.753435 -8.819365,3.87439 7.350664,4.642587 -8.993224,-1.645093 1.998185,6.953288 -4.714909,-4.295608 0.772519,5.829775 -3.897798,-4.530611 -3.642228,5.284046 -2.745505,-7.534962 -3.05833,5.699458 -0.895981,-7.889538 -6.146182,6.933462 1.705187,-9.184377 -6.439922,1.158101 6.500758,-4.504056 -6.681474,-1.167362 5.290161,-3.328356 -3.962216,-5.359642 4.925147,-0.532759 -5.418688,-5.010439 z"
       id="path1"
       sodipodi:nodetypes="ccccccccccccccccccccccccccccccccccccc" />
    <path
       style="fill:#484848;fill-opacity:1;stroke:#000000;stroke-width:0.372064;stroke-opacity:1"
       d="m 26.993426,39.481746 2.289707,-13.308924 2.504367,-1.28796 0.930194,1.860387 2.719027,-0.787086 v 2.003494 l 2.432814,-1.001748 -0.572427,2.146601 1.931941,-0.64398 -3.363008,11.019216 -1.71728,-2.146601 -0.930194,1.860387 -0.858641,-2.075047 -1.502619,1.788835 -0.429321,-2.361262 -1.788833,2.432815 z"
       id="path2"
       sodipodi:nodetypes="ccccccccccccccccc" />
    <path
       style="fill:#484848;fill-opacity:1;stroke:#000000;stroke-width:0.329394;stroke-opacity:1"
       d="m 50.691276,37.271523 11.782615,2.027116 1.140253,2.21716 -1.647034,0.823515 0.696822,2.4072 h -1.773726 l 0.886863,2.153813 -1.900421,-0.506781 0.570126,1.710381 -9.755499,-2.977328 1.900422,-1.520337 -1.647032,-0.823517 1.837074,-0.760169 -1.583684,-1.330294 2.090463,-0.380085 -2.153811,-1.583684 z"
       id="path3"
       sodipodi:nodetypes="ccccccccccccccccc" />
    <path
       style="fill:#484848;fill-opacity:1;stroke:#000000;stroke-width:0.329394;stroke-opacity:1"
       d="m 34.980969,57.129329 9.683788,-1.631685 2.083204,-4.437658 -2.589985,1.396983 0.696822,-2.4072 h -1.773726 l -1.013558,-1.647032 1.33057,-1.527874 -10.515943,2.794821 1.900422,1.520337 -1.647032,0.823517 1.837074,0.760169 -1.583684,1.330294 2.090463,0.380085 -2.39918,1.48412 z"
       id="path4"
       sodipodi:nodetypes="cccccccccccccccc" />
  </g>
</svg>
