<?xml version="1.0" encoding="UTF-8" standalone="no"?>
<!-- Created with Inkscape (http://www.inkscape.org/) -->

<svg
   width="157.17091mm"
   height="157.65689mm"
   viewBox="0 0 157.17091 157.65691"
   version="1.1"
   id="svg5"
   inkscape:version="1.4 (1:1.4+202410161351+e7c3feb100)"
   sodipodi:docname="sillo.svg"
   xmlns:inkscape="http://www.inkscape.org/namespaces/inkscape"
   xmlns:sodipodi="http://sodipodi.sourceforge.net/DTD/sodipodi-0.dtd"
   xmlns="http://www.w3.org/2000/svg"
   xmlns:svg="http://www.w3.org/2000/svg">
  <sodipodi:namedview
     id="namedview7"
     pagecolor="#ffffff"
     bordercolor="#666666"
     borderopacity="1.0"
     inkscape:pageshadow="2"
     inkscape:pageopacity="0.0"
     inkscape:pagecheckerboard="0"
     inkscape:document-units="mm"
     showgrid="false"
     inkscape:zoom="0.85119635"
     inkscape:cx="249.64863"
     inkscape:cy="269.62052"
     inkscape:window-width="1854"
     inkscape:window-height="1011"
     inkscape:window-x="0"
     inkscape:window-y="0"
     inkscape:window-maximized="1"
     inkscape:current-layer="layer1"
     fit-margin-top="0"
     fit-margin-left="0"
     fit-margin-right="0"
     fit-margin-bottom="0"
     inkscape:showpageshadow="2"
     inkscape:deskcolor="#d1d1d1" />
  <defs
     id="defs2" />
  <g
     inkscape:label="Layer 1"
     inkscape:groupmode="layer"
     id="layer1"
     transform="matrix(1.6565576,0,0,1.6565576,-44.104063,-32.089333)">
    <path
       style="fill:#484848"
       d="m 120.89822,66.809616 c 0,5.001797 -0.53743,10.917095 -1.90999,15.535665 -1.08121,3.638196 -2.68065,6.172597 -4.94382,8.870118 -3.36667,4.0128 -7.04068,8.819811 -10.57397,12.627191 -2.73233,2.94429 -0.1159,3.39602 -9.296251,8.15146 -5.660425,2.93211 -13.137904,1.64993 -20.110331,1.64993 -18.88031,0 -37.677049,-10.23431 -42.562767,-27.265775 -0.721749,-2.515995 -1.538445,-4.781834 -2.485758,-6.714945 -1.868742,-3.813404 -1.785837,-8.396243 -1.785837,-12.853644 0,-4.571781 1.283254,-9.199962 1.876445,-13.167611 0.984456,-6.584681 3.510572,-12.809866 8.068161,-17.418785 2.719531,-2.75016 5.069043,-5.20676 8.104298,-7.325909 3.944462,-2.753937 8.425678,-3.890796 13.022228,-5.766027 4.903075,-2.000282 10.411875,-3.15603 15.76323,-3.15603 3.605714,0 7.783802,2.318413 11.42641,2.32035 4.450055,0.0024 7.551079,0.769652 10.176654,2.948771 1.35824,1.127283 3.97201,1.684034 5.771988,2.856684 1.77068,1.153564 2.72838,2.922231 3.98071,4.127302 2.90175,2.792241 7.32837,4.94456 8.59562,8.573195 0.94787,2.714157 2.04157,5.146551 3.18935,7.759549 2.3934,5.4487 3.69363,11.470353 3.69363,18.248511 z"
       id="path13" />
    <circle
       style="display:inline;fill:#3c3c3c;fill-opacity:1;stroke:#383838;stroke-width:0.545066;stroke-dasharray:none;stroke-opacity:1"
       id="circle2"
       cx="50.206738"
       cy="40.615116"
       r="3.1436968" />
    <g
       id="g4"
       transform="matrix(0.64879097,0,0,0.64879097,14.941557,36.629292)"
       style="display:inline">
      <path
         style="fill:#232323;fill-opacity:0.624474;stroke-miterlimit:48.6;stroke-dashoffset:62.7704;paint-order:fill markers stroke"
         d="m 27.669475,53.86107 -4.223216,3.148065 -3.47405,0.101935 v 1.570313 l 4.036364,-0.127418 3.359283,-2.419178 2.069197,1.847377 3.298364,-4.204431 -3.627885,1.68183 z"
         id="path2"
         sodipodi:nodetypes="cccccccccc" />
      <path
         style="fill:#232323;fill-opacity:0.624474;stroke-miterlimit:48.6;stroke-dashoffset:62.7704;paint-order:fill markers stroke"
         d="m 41.938562,81.562621 -7.876656,1.858061 -4.366633,3.725198 0.804687,1.347656 3.308081,-3.321669 7.155298,-2.163585 3.899638,2.424553 z"
         id="path3"
         sodipodi:nodetypes="cccccccc" />
      <path
         style="fill:#232323;fill-opacity:0.624474;stroke-miterlimit:48.6;stroke-dashoffset:62.7704;paint-order:fill markers stroke"
         d="m 54.292783,110.43616 3.038482,-2.3196 4.479616,0.46154 4.366633,-3.7252 -3.305212,-1.10951 -0.807556,3.08353 -5.003004,-0.62726 -3.347488,2.751 z"
         id="path4"
         sodipodi:nodetypes="ccccccccc" />
      <path
         style="fill:#232323;fill-opacity:0.624474;stroke-miterlimit:48.6;stroke-dashoffset:62.7704;paint-order:fill markers stroke"
         d="m 115.97759,117.70695 -2.31961,-3.03849 0.46155,-4.47961 -3.7252,-4.36664 -1.10951,3.30522 3.08352,0.80755 -0.62726,5.00301 2.75101,3.34748 z"
         id="path5"
         sodipodi:nodetypes="ccccccccc" />
      <path
         style="fill:#232323;fill-opacity:0.624474;stroke-miterlimit:48.6;stroke-dashoffset:62.7704;paint-order:fill markers stroke"
         d="m 83.050032,110.1161 -3.14807,4.22322 -0.10193,3.47405 h -1.57032 l 0.12742,-4.03637 2.41918,-3.35928 -1.84738,-2.0692 4.20443,-3.29836 -1.68183,3.62789 z"
         id="path6"
         sodipodi:nodetypes="cccccccccc" />
      <path
         style="fill:#232323;fill-opacity:0.624474;stroke-miterlimit:48.6;stroke-dashoffset:62.7704;paint-order:fill markers stroke"
         d="m 132.6945,88.833743 7.87666,1.858061 4.36663,3.725198 -0.80469,1.347655 -3.30808,-3.321668 -7.1553,-2.163585 -3.89963,2.424553 z"
         id="path7"
         sodipodi:nodetypes="cccccccc" />
      <path
         style="fill:#232323;fill-opacity:0.624474;stroke-width:0.660426;stroke-miterlimit:48.6;stroke-dashoffset:62.7704;paint-order:fill markers stroke"
         d="m 142.58134,9.6562801 0.81042,-7.87666 1.62479,-4.36663 0.58779,0.80469 -1.44879,3.30808 -0.94367,7.1553 1.0575,3.8996309 z"
         id="path8"
         sodipodi:nodetypes="cccccccc" />
      <path
         style="fill:#232323;fill-opacity:0.624474;stroke-miterlimit:48.6;stroke-dashoffset:62.7704;paint-order:fill markers stroke"
         d="m 154.34592,62.909933 4.22322,-3.14807 3.47405,-0.10193 v -1.57032 l -4.03637,0.12742 -3.35928,2.41918 -2.0692,-1.84738 -3.29836,4.20443 3.62789,-1.68183 z"
         id="path9"
         sodipodi:nodetypes="cccccccccc" />
      <path
         style="fill:#232323;fill-opacity:0.624474;stroke-miterlimit:48.6;stroke-dashoffset:62.7704;paint-order:fill markers stroke"
         d="m 92.639912,-17.167423 3.038482,-2.3196 4.479616,0.46154 4.36663,-3.7252 -3.30521,-1.10951 -0.80756,3.08353 -5.002999,-0.62726 -3.347488,2.751 z"
         id="path10"
         sodipodi:nodetypes="ccccccccc" />
      <path
         style="fill:#232323;fill-opacity:0.624474;stroke-miterlimit:48.6;stroke-dashoffset:62.7704;paint-order:fill markers stroke"
         d="m 37.296596,20.577932 -7.87666,-1.85806 -4.36663,-3.7252 0.80469,-1.34766 3.30808,3.32167 7.1553,2.16359 3.89963,-2.42456 z"
         id="path11"
         sodipodi:nodetypes="cccccccc" />
    </g>
    <path
       style="fill:#000000;fill-opacity:1"
       d="m 74.064453,19.371094 c -5.438271,0 -11.017987,1.171873 -15.992187,3.201172 -4.548504,1.85563 -9.082189,2.99793 -13.138672,5.830078 -3.094911,2.160799 -5.47407,4.650518 -8.189453,7.396484 -4.670263,4.722862 -7.235817,11.074898 -8.234375,17.753906 -0.584517,3.909629 -1.884766,8.573071 -1.884766,13.257813 0,4.449916 -0.108289,9.127788 1.847656,13.11914 0.92562,1.888843 1.732311,4.122923 2.447266,6.615235 4.981203,17.364328 24.046073,27.703128 43.144531,27.703128 6.898421,0 14.469681,1.34628 20.386719,-1.71875 4.617906,-2.39209 6.340408,-3.7283 7.265628,-4.91992 0.4626,-0.59582 0.70137,-1.1269 0.97265,-1.63672 0.27128,-0.50982 0.57749,-1.02353 1.22266,-1.71875 3.56369,-3.84014 7.24261,-8.653782 10.5957,-12.650394 2.29282,-2.732863 3.95288,-5.365293 5.0586,-9.085938 1.40039,-4.712239 1.93554,-10.661993 1.93554,-15.707031 0,-6.855357 -1.31725,-12.967254 -3.74414,-18.492188 -1.14909,-2.615982 -2.23464,-5.033111 -3.17187,-7.716797 -0.69351,-1.985796 -2.21229,-3.500948 -3.8711,-4.867187 -1.6588,-1.366239 -3.48075,-2.597894 -4.87695,-3.941406 -1.15048,-1.107066 -2.14659,-2.943998 -4.07031,-4.197266 -0.97535,-0.635422 -2.109252,-1.075407 -3.152346,-1.5 -1.043093,-0.424592 -1.992231,-0.843107 -2.5625,-1.316406 -2.751736,-2.283828 -6.04321,-3.085453 -10.5625,-3.087891 -1.693356,-9e-4 -3.60433,-0.554981 -5.554687,-1.134765 -1.950357,-0.579785 -3.938856,-1.185547 -5.871094,-1.185547 z m 0,1.207031 c 1.673476,0 3.576577,0.554859 5.527344,1.134766 1.950767,0.579906 3.949186,1.18451 5.898437,1.185546 4.38082,0.0024 7.291603,0.736137 9.791016,2.810547 0.787971,0.653984 1.82556,1.077094 2.878906,1.50586 1.053347,0.428766 2.124594,0.85535 2.949224,1.392578 1.61763,1.05386 2.53839,2.753565 3.89257,4.05664 1.50555,1.448729 3.34856,2.688768 4.94532,4.003907 1.59675,1.315139 2.9243,2.689192 3.49804,4.332031 0.95851,2.744629 2.06056,5.194674 3.20703,7.804687 2.35992,5.372467 3.64258,11.304901 3.64258,18.00586 0,4.958556 -0.54004,10.83838 -1.88476,15.363281 -1.05671,3.555747 -2.59461,5.992117 -4.82813,8.654297 -3.38025,4.028987 -7.0518,8.828895 -10.55469,12.603515 -0.72099,0.77693 -1.1108,1.42304 -1.40429,1.97461 -0.2935,0.55157 -0.48701,0.9833 -0.85938,1.46289 -0.74474,0.95918 -2.304738,2.22649 -6.867186,4.58984 -5.403812,2.79919 -12.785598,1.58204 -19.832031,1.58204 -18.662162,0 -37.192189,-10.13148 -41.982422,-26.830083 -0.728542,-2.539677 -1.556384,-4.83512 -2.52539,-6.8125 -1.781539,-3.635455 -1.722657,-8.123004 -1.722657,-12.58789 0,-4.45882 1.267276,-9.054409 1.869141,-13.080078 0.970353,-6.490354 3.455476,-12.587055 7.900391,-17.082032 2.723678,-2.754354 5.043931,-5.17836 8.019531,-7.255859 3.832441,-2.675726 8.261654,-3.808293 12.90625,-5.703125 4.83195,-1.971265 10.270717,-3.111328 15.535156,-3.111328 z"
       id="path14" />
  </g>
</svg>
