<?xml version="1.0" encoding="UTF-8" standalone="no"?>
<!-- Created with Inkscape (http://www.inkscape.org/) -->

<svg
   width="131.369"
   height="116.43111"
   viewBox="0 0 34.758042 30.805735"
   version="1.1"
   id="svg5"
   inkscape:version="1.4.2 (f4327f4, 2025-05-13)"
   sodipodi:docname="default_skin_leg_3.svg"
   xml:space="preserve"
   xmlns:inkscape="http://www.inkscape.org/namespaces/inkscape"
   xmlns:sodipodi="http://sodipodi.sourceforge.net/DTD/sodipodi-0.dtd"
   xmlns="http://www.w3.org/2000/svg"
   xmlns:svg="http://www.w3.org/2000/svg"><sodipodi:namedview
     id="namedview7"
     pagecolor="#505050"
     bordercolor="#ffffff"
     borderopacity="1"
     inkscape:pageshadow="0"
     inkscape:pageopacity="0"
     inkscape:pagecheckerboard="1"
     inkscape:document-units="px"
     showgrid="false"
     units="px"
     inkscape:zoom="3.1665592"
     inkscape:cx="66.47594"
     inkscape:cy="113.84597"
     inkscape:window-width="1920"
     inkscape:window-height="1009"
     inkscape:window-x="-8"
     inkscape:window-y="-8"
     inkscape:window-maximized="1"
     inkscape:current-layer="layer1"
     showguides="false"
     inkscape:showpageshadow="2"
     inkscape:deskcolor="#d1d1d1" /><defs
     id="defs2"><inkscape:path-effect
       effect="fillet_chamfer"
       id="path-effect16"
       is_visible="true"
       lpeversion="1"
       nodesatellites_param="F,0,0,1,0,0.52916663,0,1 @ F,0,0,1,0,0.52916663,0,1 @ F,0,0,1,0,0.52916663,0,1 @ F,0,0,1,0,0.52916663,0,1"
       radius="2"
       unit="px"
       method="auto"
       mode="F"
       chamfer_steps="1"
       flexible="false"
       use_knot_distance="true"
       apply_no_radius="true"
       apply_with_radius="true"
       only_selected="false"
       hide_knots="false" /><inkscape:path-effect
       effect="fillet_chamfer"
       id="path-effect5"
       is_visible="true"
       lpeversion="1"
       nodesatellites_param="F,0,0,1,0,1.3229166,0,1 @ F,0,0,1,0,1.3229166,0,1 @ F,0,0,1,0,1.3229166,0,1 @ F,0,0,1,0,1.3229166,0,1"
       radius="5"
       unit="px"
       method="auto"
       mode="F"
       chamfer_steps="1"
       flexible="false"
       use_knot_distance="true"
       apply_no_radius="true"
       apply_with_radius="true"
       only_selected="false"
       hide_knots="false" /><inkscape:path-effect
       effect="fillet_chamfer"
       id="path-effect25"
       is_visible="true"
       lpeversion="1"
       nodesatellites_param="F,0,0,1,0,2.014691,0,1 @ F,0,0,1,0,0.36977953,0,1 @ F,0,0,1,0,0,0,1 @ F,0,0,1,0,0,0,1 @ F,0,0,1,0,0,0,1 @ F,0,0,1,0,0,0,1 @ F,0,0,1,0,2.1035876,0,1 @ F,0,0,1,0,0,0,1 @ F,0,0,1,0,0,0,1 @ F,0,0,1,0,0,0,1"
       radius="0"
       unit="px"
       method="auto"
       mode="F"
       chamfer_steps="1"
       flexible="false"
       use_knot_distance="true"
       apply_no_radius="true"
       apply_with_radius="true"
       only_selected="false"
       hide_knots="false" /><inkscape:path-effect
       effect="fillet_chamfer"
       id="path-effect21"
       is_visible="true"
       lpeversion="1"
       nodesatellites_param="F,0,0,1,0,0,0,1 @ F,0,0,1,0,0.46757353,0,1 @ F,0,0,1,0,4.0968119,0,1 @ F,0,0,1,0,0,0,1 @ F,0,0,1,0,0,0,1"
       radius="0"
       unit="px"
       method="auto"
       mode="F"
       chamfer_steps="1"
       flexible="false"
       use_knot_distance="true"
       apply_no_radius="true"
       apply_with_radius="true"
       only_selected="false"
       hide_knots="false" /><inkscape:path-effect
       effect="fillet_chamfer"
       id="path-effect7"
       is_visible="true"
       lpeversion="1"
       nodesatellites_param="F,0,0,1,0,0.26458332,0,1 @ F,0,0,1,0,0.26458332,0,1 @ F,0,0,1,0,0.26458332,0,1 @ F,0,0,1,0,0.26458332,0,1"
       radius="1"
       unit="px"
       method="auto"
       mode="F"
       chamfer_steps="1"
       flexible="false"
       use_knot_distance="true"
       apply_no_radius="true"
       apply_with_radius="true"
       only_selected="false"
       hide_knots="false" /><inkscape:path-effect
       effect="fillet_chamfer"
       id="path-effect6"
       is_visible="true"
       lpeversion="1"
       nodesatellites_param="F,0,0,1,0,0.79374997,0,1 @ F,0,0,1,0,0.79374997,0,1 @ F,0,0,1,0,0.79374997,0,1 @ F,0,0,1,0,0,0,1"
       radius="3"
       unit="px"
       method="auto"
       mode="F"
       chamfer_steps="1"
       flexible="false"
       use_knot_distance="true"
       apply_no_radius="true"
       apply_with_radius="true"
       only_selected="false"
       hide_knots="false" /><linearGradient
       x1="240.00002"
       y1="150.77409"
       x2="240.00002"
       y2="184.71407"
       gradientUnits="userSpaceOnUse"
       id="color-7"
       gradientTransform="matrix(0.89718188,0,0,0.89718188,21.81132,15.39949)"><stop
         offset="0"
         stop-color="#4d3108"
         id="stop13" /><stop
         offset="1"
         stop-color="#331f00"
         id="stop14" /></linearGradient><linearGradient
       x1="240.00002"
       y1="150.37373"
       x2="240.00002"
       y2="186.34032"
       gradientUnits="userSpaceOnUse"
       id="color-6"><stop
         offset="0"
         stop-color="#261700"
         id="stop11" /><stop
         offset="1"
         stop-color="#0d0800"
         id="stop12" /></linearGradient><clipPath
       clipPathUnits="userSpaceOnUse"
       id="clipPath8"><path
         id="path9"
         style="fill:#ffffff;stroke:#000000;stroke-width:0.292031;stroke-opacity:1"
         d="M 26.324644,11.369493 A 2.1469877,2.936924 0 0 1 24.177656,8.4325687 2.1469877,2.936924 0 0 1 26.324644,5.4956445 2.1469877,2.936924 0 0 1 28.471633,8.4325687 2.1469877,2.936924 0 0 1 26.324644,11.369493 Z" /></clipPath><clipPath
       clipPathUnits="userSpaceOnUse"
       id="clipPath17"><path
         id="path17"
         style="fill:#ffffff;stroke:#000000;stroke-width:0.292031;stroke-opacity:1"
         d="M 26.324644,11.369493 A 2.1469877,2.936924 0 0 1 24.177656,8.4325687 2.1469877,2.936924 0 0 1 26.324644,5.4956445 2.1469877,2.936924 0 0 1 28.471633,8.4325687 2.1469877,2.936924 0 0 1 26.324644,11.369493 Z" /></clipPath><clipPath
       clipPathUnits="userSpaceOnUse"
       id="clipPath17-4"><path
         id="path17-8"
         style="fill:#ffffff;stroke:#000000;stroke-width:0.292031;stroke-opacity:1"
         d="M 26.324644,11.369493 A 2.1469877,2.936924 0 0 1 24.177656,8.4325687 2.1469877,2.936924 0 0 1 26.324644,5.4956445 2.1469877,2.936924 0 0 1 28.471633,8.4325687 2.1469877,2.936924 0 0 1 26.324644,11.369493 Z" /></clipPath><clipPath
       clipPathUnits="userSpaceOnUse"
       id="clipPath2"><path
         id="path2-2"
         style="fill:#ffffff;stroke:#000000;stroke-width:0.292031;stroke-opacity:1"
         d="M 26.324644,11.369493 A 2.1469877,2.936924 0 0 1 24.177656,8.4325687 2.1469877,2.936924 0 0 1 26.324644,5.4956445 2.1469877,2.936924 0 0 1 28.471633,8.4325687 2.1469877,2.936924 0 0 1 26.324644,11.369493 Z" /></clipPath><linearGradient
       x1="256.38449"
       y1="188.49911"
       x2="256.38449"
       y2="214.92255"
       gradientUnits="userSpaceOnUse"
       id="color-2"
       gradientTransform="matrix(1.0314358,0,0,1.023076,-7.8594681,-4.8770679)"><stop
         offset="0"
         stop-color="#0066ff"
         id="stop3" /><stop
         offset="1"
         stop-color="#001aff"
         id="stop4" /></linearGradient></defs><g
     inkscape:label="Layer 1"
     inkscape:groupmode="layer"
     id="layer1"
     transform="matrix(0.80016323,0,0,0.79999903,5.5184308,5.525881)"><g
       id="g24"
       inkscape:label="Frame 3"
       style="display:inline"
       transform="translate(-1.0540237,-0.81238717)"><g
         id="g20"
         transform="translate(2.1162847)"
         style="display:inline"><path
           id="path19"
           style="display:inline;fill:#262626;stroke:#161616;stroke-width:1.65348"
           d="m -6.046439,8.294921 2.1765995,-0.16109 -0.4168286,-8.57756814 -2.5241635,0.27886236 C -6.9719385,2.7774071 -6.7221596,5.5988153 -6.046439,8.294921 Z"
           sodipodi:nodetypes="ccccc" /><path
           id="path20"
           style="display:inline;fill:#2a303a;stroke:#161a1f;stroke-width:1.65348"
           d="M -3.3848267,8.1707727 19.209547,6.1936152 c 0.727846,-0.063692 1.266271,-0.70536 1.202606,-1.4332064 l -0.522392,-5.972199 c -0.06367,-0.7278468 -0.705312,-1.2662511 -1.433159,-1.2025595 l -22.5943733,1.97715735 c -2.5372778,0.22202862 -1.5728442,8.81148695 0.7529446,8.60796505 z"
           sodipodi:nodetypes="scsscss" /></g><g
         id="g22"
         transform="translate(-2.2484999)"
         style="display:inline"><path
           id="path21"
           style="display:inline;fill:#262626;stroke:#161616;stroke-width:1.65348"
           d="m 35.333809,21.707395 2.124388,0.16109 c 2.229198,0.212608 1.240236,8.715632 -0.577558,8.613567 l -2.272064,-0.262639 z"
           sodipodi:nodetypes="ccccc" /><path
           id="path22"
           style="display:inline;fill:#2a303a;stroke:#161a1f;stroke-width:1.65348"
           d="m 11.468802,28.275779 22.594375,1.977157 a 1.3229403,1.3228929 47.5 0 0 1.433158,-1.202559 l 0.522393,-5.9722 A 1.3229403,1.3228929 47.5 0 0 34.816121,21.644971 L 12.221747,19.667814 a 1.3229403,1.3228929 47.5 0 0 -1.433159,1.202559 l -0.522394,5.9722 a 1.3229403,1.3228929 47.5 0 0 1.202608,1.433206 z" /></g></g></g></svg>
