<?xml version="1.0" encoding="UTF-8" standalone="no"?>
<!-- Created with Inkscape (http://www.inkscape.org/) -->

<svg
   width="34.889862mm"
   height="9.1269999mm"
   viewBox="0 0 34.889862 9.1270002"
   version="1.1"
   id="svg878"
   inkscape:version="1.4.2 (f4327f4, 2025-05-13)"
   sodipodi:docname="survival_knife.svg"
   xmlns:inkscape="http://www.inkscape.org/namespaces/inkscape"
   xmlns:sodipodi="http://sodipodi.sourceforge.net/DTD/sodipodi-0.dtd"
   xmlns:xlink="http://www.w3.org/1999/xlink"
   xmlns="http://www.w3.org/2000/svg"
   xmlns:svg="http://www.w3.org/2000/svg">
  <sodipodi:namedview
     id="namedview880"
     pagecolor="#ffffff"
     bordercolor="#666666"
     borderopacity="1.0"
     inkscape:pageshadow="2"
     inkscape:pageopacity="0.0"
     inkscape:pagecheckerboard="0"
     inkscape:document-units="mm"
     showgrid="false"
     inkscape:zoom="5.7009184"
     inkscape:cx="-19.382842"
     inkscape:cy="44.115699"
     inkscape:window-width="1920"
     inkscape:window-height="1009"
     inkscape:window-x="-8"
     inkscape:window-y="-8"
     inkscape:window-maximized="1"
     inkscape:current-layer="path14"
     fit-margin-top="0"
     fit-margin-left="0"
     fit-margin-right="0"
     fit-margin-bottom="0"
     inkscape:showpageshadow="2"
     inkscape:deskcolor="#d1d1d1"
     showguides="true" />
  <defs
     id="defs875">
    <linearGradient
       id="linearGradient14"
       inkscape:collect="always">
      <stop
         style="stop-color:#7d3c00;stop-opacity:1;"
         offset="0"
         id="stop14" />
      <stop
         style="stop-color:#582400;stop-opacity:1;"
         offset="0.99900991"
         id="stop15" />
    </linearGradient>
    <linearGradient
       xlink:href="#b"
       id="f"
       x1="64.014999"
       y1="105"
       x2="67.643997"
       y2="89"
       gradientUnits="userSpaceOnUse"
       gradientTransform="matrix(9.4072405e-8,1.1024499,0.90707067,-6.6459205e-8,22.87162,-12.040824)" />
    <linearGradient
       id="b">
      <stop
         stop-color="#b66622"
         offset="0"
         id="stop3" />
      <stop
         stop-color="#6b3f1b"
         offset="1"
         id="stop4" />
    </linearGradient>
    <clipPath
       id="e">
      <path
         d="m 60.387,76 v 5 c 0,13 1.708,22 0.907,29.079 -0.224,4.028 -4.201,6.535 -3.734,7.936 2.103,4.476 6.974,6.644 10.376,7.002 0,0 1.4,0.21 1.867,-0.933 C 72.58,117.638 72.18,108 72.18,108 V 76 Z"
         fill="#3d3522"
         fill-opacity="0.606"
         stroke-width="10.494"
         id="path4"
         sodipodi:nodetypes="csccccccc" />
    </clipPath>
    <linearGradient
       xlink:href="#a"
       id="d"
       x1="21.630793"
       y1="42.527935"
       x2="81.372665"
       y2="54.182426"
       gradientUnits="userSpaceOnUse"
       gradientTransform="matrix(9.4926351e-8,0.99999999,0.99999999,-9.4926351e-8,17.641833,-4.4678344)" />
    <linearGradient
       id="a">
      <stop
         offset="0"
         stop-color="#272727"
         id="stop1" />
      <stop
         offset="1"
         stop-color="#dfdfdf"
         id="stop2" />
    </linearGradient>
    <clipPath
       id="c">
      <path
         d="M 58.856,78 57.324,74.164 55.281,73.45 c 0,0 -3.064,-19.293 -3.064,-35.014 0,-20.007 13.904,-29.556 13.904,-29.556 0,0 -1.647,20.982 6.524,35.273 V 78 Z"
         fill="#393a3c"
         fill-opacity="0.434"
         stroke-width="1.536"
         id="path2"
         sodipodi:nodetypes="cccscccc" />
    </clipPath>
    <linearGradient
       inkscape:collect="always"
       xlink:href="#linearGradient14"
       id="linearGradient15"
       x1="0.31269151"
       y1="5.3440657"
       x2="30.010483"
       y2="5.3440657"
       gradientUnits="userSpaceOnUse" />
    <linearGradient
       inkscape:collect="always"
       xlink:href="#a"
       id="linearGradient7"
       x1="-15.520402"
       y1="6.329711"
       x2="32.439369"
       y2="5.500916"
       gradientUnits="userSpaceOnUse" />
  </defs>
  <g
     id="g7"
     transform="translate(-3.3349614,-1.2759848)">
    <path
       style="fill:none;fill-opacity:1;stroke:#313334;stroke-width:1;stroke-dasharray:none;stroke-opacity:1"
       d="m 16.544,1.296 v 9.106985"
       id="path16"
       sodipodi:nodetypes="cc" />
    <g
       id="g2"
       transform="matrix(0.42842351,0,0,0.5200108,4.1959192,3.2024562)"
       style="display:inline">
      <path
         id="rect1"
         style="fill:url(#linearGradient15);stroke:#502000;stroke-width:2;stroke-dasharray:none"
         d="M 1.3126915,1.7067503 H 3.392627 c 2.4260923,1.6201419 6.4742114,1.1591588 7.851019,0.1269205 2.494312,1.6808623 5.813727,1.5748619 7.673413,0 2.091959,1.4240377 6.066689,1.2434436 7.273532,-0.1269205 h 2.819891 V 9.5170128 H 1.3126915 Z"
         sodipodi:nodetypes="ccccccccc" />
      <path
         id="rect2"
         style="fill:#34363a;stroke:#111213"
         d="M -1.5095952,1.1990686 H 0.65634632 V 10.042091 H -1.5095952 Z"
         sodipodi:nodetypes="ccccc" />
    </g>
    <g
       id="g16">
      <g
         id="path14"
         style="opacity:1">
        <path
           style="baseline-shift:baseline;display:inline;overflow:visible;vector-effect:none;fill:url(#linearGradient7);enable-background:accumulate;stop-color:#000000;stop-opacity:1"
           d="M 16.543992,3.807 17.557248,3.667768 18.115142,2.822 C 23.311747,2.5087521 31.567544,-0.23116583 37.361961,5.9429848 32.156598,6.0833325 28.665189,6.8580156 27.337277,8.1081787 L 16.544,8.201 Z"
           id="path5"
           sodipodi:nodetypes="ccccccc" />
        <path
           style="fill:#edeef0;fill-opacity:1;stroke:#313334;stroke-width:0.3;stroke-dasharray:none;stroke-opacity:1"
           d="M 18.073763,2.7362126 C 27.06335,1.0963184 33.348594,2.2910964 37.2024,6.0344911 31.805821,2.8839259 28.75861,2.0975389 18.618135,3.6266293 l -0.663571,0.91473 -1.166919,0.082443 0.02344,-0.3818136 0.939196,-1.1200152 z"
           id="path1"
           sodipodi:nodetypes="cccccccc" />
      </g>
      <g
         id="g8"
         transform="matrix(2.1796842,0,0,0.69353741,-22.615016,2.3796205)"
         style="fill:#313334;fill-opacity:1">
        <rect
           style="fill-opacity:1;stroke:none;fill:#313334"
           id="rect7"
           width="0.22972175"
           height="1.7393157"
           x="18.521627"
           y="6.6290917" />
        <rect
           style="fill-opacity:1;stroke:none;fill:#313334"
           id="rect8"
           width="0.22972175"
           height="1.7393157"
           x="18.967024"
           y="6.6290917" />
        <rect
           style="fill-opacity:1;stroke:none;fill:#313334"
           id="rect9"
           width="0.22972175"
           height="1.7393157"
           x="19.412479"
           y="6.6290917" />
        <rect
           style="fill-opacity:1;stroke:none;fill:#313334"
           id="rect10"
           width="0.22972175"
           height="1.7393157"
           x="19.857935"
           y="6.6290002" />
        <rect
           style="fill-opacity:1;stroke:none;fill:#313334"
           id="rect11"
           width="0.22972175"
           height="1.7393157"
           x="20.310747"
           y="6.6290917" />
        <rect
           style="fill-opacity:1;stroke:none;fill:#313334"
           id="rect12"
           width="0.22972175"
           height="1.7393157"
           x="20.756144"
           y="6.6290917" />
        <rect
           style="fill-opacity:1;stroke:none;fill:#313334"
           id="rect13"
           width="0.22972175"
           height="1.7393157"
           x="21.201599"
           y="6.6290917" />
        <rect
           style="fill-opacity:1;stroke:none;fill:#313334"
           id="rect14"
           width="0.22972175"
           height="1.7393157"
           x="21.647055"
           y="6.6290002" />
      </g>
      <path
         style="baseline-shift:baseline;display:inline;overflow:visible;opacity:1;vector-effect:none;fill:#313334;enable-background:accumulate;stop-color:#000000;stop-opacity:1"
         d="M 27.521484,1.4785156 C 24.009627,1.4298565 20.616793,2.1990042 18.085937,2.3515625 L 17.851562,2.3652344 17.28125,3.2304688 16.072266,3.3964844 V 8.6757813 L 27.525391,8.578125 27.660156,8.4511719 c 0.549184,-0.5170291 1.688807,-1.0225931 3.335938,-1.3808594 1.64713,-0.3582663 3.79675,-0.5866296 6.378906,-0.65625 l 1.048828,-0.027344 -0.71875,-0.765625 C 34.707587,2.4271636 31.033341,1.5271747 27.521484,1.4785156 Z m -0.01367,0.9433594 c 3.055846,0.042341 6.078333,0.807748 8.707032,3.1660156 -2.046513,0.1036735 -3.987856,0.249059 -5.419922,0.5605469 -1.614579,0.351186 -2.78624,0.8330326 -3.574219,1.4882812 l -10.20508,0.089844 V 4.2167969 L 17.833984,4.1054687 18.386719,3.2636719 C 21.014305,3.0764098 24.236917,2.3765546 27.507812,2.421875 Z"
         id="path6"
         sodipodi:nodetypes="scccccccscccsscscccccss" />
    </g>
  </g>
</svg>
