<?xml version="1.0" encoding="UTF-8" standalone="no"?>
<!-- Created with Inkscape (http://www.inkscape.org/) -->

<svg
   width="41.730324mm"
   height="46.307911mm"
   viewBox="0 0 41.730325 46.307912"
   version="1.1"
   id="svg5"
   inkscape:version="1.4.2 (f4327f4, 2025-05-13)"
   sodipodi:docname="player_body.svg"
   xmlns:inkscape="http://www.inkscape.org/namespaces/inkscape"
   xmlns:sodipodi="http://sodipodi.sourceforge.net/DTD/sodipodi-0.dtd"
   xmlns="http://www.w3.org/2000/svg"
   xmlns:svg="http://www.w3.org/2000/svg">
  <sodipodi:namedview
     id="namedview7"
     pagecolor="#ffffff"
     bordercolor="#666666"
     borderopacity="1.0"
     inkscape:pageshadow="2"
     inkscape:pageopacity="0.0"
     inkscape:pagecheckerboard="0"
     inkscape:document-units="mm"
     showgrid="false"
     inkscape:zoom="2"
     inkscape:cx="148.75"
     inkscape:cy="-21.25"
     inkscape:window-width="1920"
     inkscape:window-height="1009"
     inkscape:window-x="-8"
     inkscape:window-y="-8"
     inkscape:window-maximized="1"
     inkscape:current-layer="layer1"
     fit-margin-top="0"
     fit-margin-left="0"
     fit-margin-right="0"
     fit-margin-bottom="0"
     inkscape:showpageshadow="2"
     inkscape:deskcolor="#d1d1d1" />
  <defs
     id="defs2">
    <inkscape:path-effect
       effect="offset"
       id="path-effect4"
       is_visible="true"
       lpeversion="1.3"
       linejoin_type="miter"
       unit="mm"
       offset="2.4"
       miter_limit="4"
       attempt_force_join="false"
       update_on_knot_move="true" />
    <inkscape:path-effect
       effect="knot"
       id="path-effect3"
       is_visible="false"
       lpeversion="1"
       switcher_size="15.9"
       interruption_width="3"
       prop_to_stroke_width="true"
       add_stroke_width="inkscape_1.0_and_up"
       both="false"
       inverse_width="false"
       add_other_stroke_width="inkscape_1.0_and_up"
       crossing_points_vector="" />
  </defs>
  <g
     inkscape:label="Layer 1"
     inkscape:groupmode="layer"
     id="layer1"
     transform="translate(-19.494759,-8.9092951)">
    <path
       id="path6045"
       style="fill:#ffffff;fill-opacity:1;stroke:#000000;stroke-width:1.92946;stroke-linecap:round;stroke-miterlimit:4;stroke-dasharray:none;stroke-opacity:1"
       d="m 40.362639,9.8740252 a 19.90131,19.368907 0 0 0 -19.90315,19.3668158 19.90131,19.368907 0 0 0 8.862699,16.111027 v 8.900609 h 5.092244 v -6.527838 a 19.90131,19.368907 0 0 0 3.396657,0.715086 v 5.812752 h 5.097641 v -5.801919 a 19.90131,19.368907 0 0 0 3.396657,-0.720497 v 6.522416 h 5.092265 v -8.89519 A 19.90131,19.368907 0 0 0 60.260351,29.240841 19.90131,19.368907 0 0 0 40.362639,9.8740252 Z M 29.744741,24.078162 a 5.3070162,5.1650421 0 0 1 5.308959,5.162679 5.3070162,5.1650421 0 0 1 -5.308959,5.168098 5.3070162,5.1650421 0 0 1 -5.303543,-5.168098 5.3070162,5.1650421 0 0 1 5.303543,-5.162679 z m 21.230337,0 a 5.3070162,5.1650421 0 0 1 5.30896,5.162679 5.3070162,5.1650421 0 0 1 -5.30896,5.168098 5.3070162,5.1650421 0 0 1 -5.308918,-5.168098 5.3070162,5.1650421 0 0 1 5.308918,-5.162679 z m -10.612439,9.296072 c 0.680336,0 1.35815,1.150628 2.719467,3.4454 2.722572,4.589542 2.72576,4.588444 -2.719467,4.588444 -5.445164,0 -5.447477,0.0011 -2.724905,-4.588444 1.361338,-2.294772 2.044319,-3.4454 2.724905,-3.4454 z" />
  </g>
</svg>
