<?xml version="1.0" encoding="UTF-8" standalone="no"?>
<!-- Created with Inkscape (http://www.inkscape.org/) -->

<svg
   width="10.555407mm"
   height="19.203562mm"
   viewBox="0 0 10.555407 19.203563"
   version="1.1"
   id="svg5"
   inkscape:version="1.4.2 (f4327f4, 2025-05-13)"
   sodipodi:docname="green_soda.svg"
   inkscape:export-filename="soda.png"
   inkscape:export-xdpi="96"
   inkscape:export-ydpi="96"
   xml:space="preserve"
   xmlns:inkscape="http://www.inkscape.org/namespaces/inkscape"
   xmlns:sodipodi="http://sodipodi.sourceforge.net/DTD/sodipodi-0.dtd"
   xmlns:xlink="http://www.w3.org/1999/xlink"
   xmlns="http://www.w3.org/2000/svg"
   xmlns:svg="http://www.w3.org/2000/svg"><sodipodi:namedview
     id="namedview7"
     pagecolor="#ffffff"
     bordercolor="#666666"
     borderopacity="1.0"
     inkscape:pageshadow="2"
     inkscape:pageopacity="0.0"
     inkscape:pagecheckerboard="0"
     inkscape:document-units="mm"
     showgrid="false"
     inkscape:zoom="5.8925008"
     inkscape:cx="57.106484"
     inkscape:cy="76.283401"
     inkscape:window-width="1920"
     inkscape:window-height="1009"
     inkscape:window-x="-8"
     inkscape:window-y="-8"
     inkscape:window-maximized="1"
     inkscape:current-layer="layer1"
     fit-margin-top="0"
     fit-margin-left="0"
     fit-margin-right="0"
     fit-margin-bottom="0"
     inkscape:showpageshadow="2"
     inkscape:deskcolor="#d1d1d1" /><defs
     id="defs2"><inkscape:path-effect
       effect="fillet_chamfer"
       id="path-effect1"
       is_visible="true"
       lpeversion="1"
       nodesatellites_param="F,0,0,1,0,0,0,1 @ F,0,0,1,0,0,0,1 @ F,0,0,1,0,0,0,1 @ F,0,0,1,0,0,0,1"
       radius="0"
       unit="px"
       method="auto"
       mode="F"
       chamfer_steps="1"
       flexible="false"
       use_knot_distance="true"
       apply_no_radius="true"
       apply_with_radius="true"
       only_selected="false"
       hide_knots="false" /><linearGradient
       inkscape:collect="always"
       xlink:href="#linearGradient1"
       id="linearGradient5"
       x1="62.827393"
       y1="118.9819"
       x2="62.827393"
       y2="157.20273"
       gradientUnits="userSpaceOnUse" /><linearGradient
       id="linearGradient1"
       inkscape:collect="always"><stop
         style="stop-color:#33ff0d;stop-opacity:1;"
         offset="0"
         id="stop1" /><stop
         style="stop-color:#00b70f;stop-opacity:1;"
         offset="1"
         id="stop2-8" /></linearGradient></defs><g
     inkscape:label="Layer 1"
     inkscape:groupmode="layer"
     id="layer1"
     transform="matrix(0.41121811,0,0,0.41121811,-20.601963,-47.603968)"><path
       id="rect880"
       style="fill:url(#linearGradient5);stroke:#00921d;stroke-width:2.4318;stroke-linecap:square;stroke-dasharray:none;stroke-opacity:1"
       d="m 53.436268,119.83657 h 18.999649 c -0.01284,1.27668 1.30244,2.31918 2.11664,2.9342 l -9.74e-4,33.68647 H 51.320602 v -33.63266 c 0.875792,-0.52475 1.907981,-1.72578 2.115666,-2.98801 z"
       sodipodi:nodetypes="ccccccc" /><path
       style="fill:#ffffff;fill-opacity:1;stroke:none;stroke-width:1.45908;stroke-dasharray:none;stroke-opacity:1"
       d="m 63.312069,146.22786 -6.578815,-3.52144 1.610582,-8.57157 9.226719,-0.0819 0.982727,8.54427 z"
       id="path2" /><path
       id="rect4106"
       style="fill:#bdbdbd;stroke:#777777;stroke-width:1.2159;stroke-linecap:square;stroke-dasharray:none"
       d="m 53.027725,116.37126 h 20.057483 v 1.7129 H 53.027725 Z"
       sodipodi:nodetypes="ccccc" /><path
       id="rect4106-7"
       style="fill:#bdbdbd;stroke:#777777;stroke-width:1.2159;stroke-linecap:square;stroke-dasharray:none;stroke-opacity:1"
       d="m 50.712652,158.16271 24.439586,-9.5e-4 c 0.002,1.64215 -0.124221,3.6482 -1.94544,3.69242 l -21.278246,3.9e-4 c -1.127757,-0.004 -1.24735,-1.82597 -1.2159,-3.69186 z"
       sodipodi:nodetypes="ccccc" /><path
       id="path1"
       style="fill:#ffffff;fill-opacity:1;stroke:#d3d3d3;stroke-width:1.15789;stroke-dasharray:none;stroke-opacity:1"
       d="m 62.933661,131.08647 c -4.432573,8e-5 -8.025862,3.59337 -8.025948,8.02595 -4.65e-4,4.43296 3.592986,8.02686 8.025948,8.02694 4.433352,4.7e-4 8.02741,-3.59359 8.026945,-8.02694 -8.6e-5,-4.43297 -3.593982,-8.02642 -8.026945,-8.02595 z m -2.71155,4.56047 c 0.840475,0 1.521814,0.68134 1.521819,1.52182 -6e-6,0.84047 -0.681344,1.52181 -1.521819,1.52182 -0.840475,-1e-5 -1.521813,-0.68135 -1.521818,-1.52182 5e-6,-0.84048 0.681343,-1.52182 1.521818,-1.52182 z m 5.424097,0 c 0.840475,0 1.521813,0.68134 1.521819,1.52182 -6e-6,0.84047 -0.681344,1.52181 -1.521819,1.52182 -0.840475,-1e-5 -1.521813,-0.68135 -1.521819,-1.52182 6e-6,-0.84048 0.681344,-1.52182 1.521819,-1.52182 z m -6.852173,5.7133 c 5.848057,3.05581 7.857889,-0.52072 8.613334,0.24334 0.187202,0.18949 0.185428,0.49483 -0.004,0.68212 -1.542462,3.98135 -7.317194,3.99054 -8.913503,-0.0868 -0.303158,-0.51023 -0.05652,-0.59318 0.304169,-0.83866 z"
       sodipodi:nodetypes="cccccccccccccccccccc" /></g></svg>
