<?xml version="1.0" encoding="UTF-8" standalone="no"?>
<svg
   width="38.041042"
   height="10.233533"
   viewBox="0 0 38.041042 10.233533"
   fill="none"
   version="1.1"
   id="svg3"
   sodipodi:docname="casing_762mm.svg"
   xml:space="preserve"
   inkscape:version="1.4.2 (f4327f4, 2025-05-13)"
   xmlns:inkscape="http://www.inkscape.org/namespaces/inkscape"
   xmlns:sodipodi="http://sodipodi.sourceforge.net/DTD/sodipodi-0.dtd"
   xmlns="http://www.w3.org/2000/svg"
   xmlns:svg="http://www.w3.org/2000/svg"><defs
     id="defs3" /><sodipodi:namedview
     id="namedview3"
     pagecolor="#ffffff"
     bordercolor="#000000"
     borderopacity="0.25"
     inkscape:showpageshadow="2"
     inkscape:pageopacity="0.0"
     inkscape:pagecheckerboard="0"
     inkscape:deskcolor="#d1d1d1"
     inkscape:zoom="8.7717391"
     inkscape:cx="20.577447"
     inkscape:cy="5.6431227"
     inkscape:window-width="1920"
     inkscape:window-height="1009"
     inkscape:window-x="-8"
     inkscape:window-y="-8"
     inkscape:window-maximized="1"
     inkscape:current-layer="svg3" /><path
     d="M 3.5848914,0.87022423 28.980607,1.0228966 31.721105,2.0186665 h 5.467491 V 8.2131881 H 31.721105 L 28.980607,9.2089241 3.5848914,9.3615031 2.8173945,9.1828546 V 1.0489661 Z"
     fill="#b57921"
     id="path1"
     style="stroke-width:0.851923" /><path
     d="M 1.8260125,0.85192502 H 1.177103 L 0.85192502,1.1770945 V 9.0564301 L 1.177103,9.381608 h 0.6489095 z"
     fill="#b57921"
     id="path2"
     style="stroke-width:0.851923" /><rect
     x="1.8253307"
     y="1.4284689"
     width="0.99183339"
     height="7.3759255"
     fill="#97651c"
     stroke="#563a10"
     stroke-width="0.851922"
     stroke-miterlimit="3.99393"
     id="rect2" /><path
     d="M 28.981118,1.0237315 3.5854876,0.87105918 2.8179059,1.049801 V 1.4287784 H 1.8260125 V 0.85192502 H 1.177103 L 0.85192502,1.1770945 V 9.0564301 L 1.177103,9.381608 H 1.8260125 V 8.8046867 H 2.8179059 V 9.1837066 L 3.5854876,9.362355 28.981118,9.209776 m 0,-8.1860445 2.740507,0.99577 m -2.740507,-0.99577 V 9.209776 m 2.740507,-7.1902745 h 5.467491 v 6.1945216 h -5.467491 m 0,-6.1945216 v 6.1945216 m 0,0 -2.740507,0.9957529"
     stroke="#563a10"
     stroke-width="1.70385"
     stroke-miterlimit="3.99393"
     id="path3" /></svg>
