<?xml version="1.0" encoding="UTF-8" standalone="no"?>
<!-- Created with Inkscape (http://www.inkscape.org/) -->

<svg
   width="172.42284mm"
   height="208.95598mm"
   viewBox="0 0 172.42283 208.95598"
   version="1.1"
   id="svg1"
   inkscape:version="1.4.2 (f4327f4, 2025-05-13)"
   sodipodi:docname="inomeado.svg"
   xml:space="preserve"
   xmlns:inkscape="http://www.inkscape.org/namespaces/inkscape"
   xmlns:sodipodi="http://sodipodi.sourceforge.net/DTD/sodipodi-0.dtd"
   xmlns="http://www.w3.org/2000/svg"
   xmlns:svg="http://www.w3.org/2000/svg"><sodipodi:namedview
     id="namedview1"
     pagecolor="#ffffff"
     bordercolor="#000000"
     borderopacity="0.25"
     inkscape:showpageshadow="2"
     inkscape:pageopacity="0.0"
     inkscape:pagecheckerboard="0"
     inkscape:deskcolor="#d1d1d1"
     inkscape:document-units="mm"
     inkscape:zoom="0.50835205"
     inkscape:cx="-18.687837"
     inkscape:cy="307.85752"
     inkscape:window-width="1920"
     inkscape:window-height="1009"
     inkscape:window-x="-8"
     inkscape:window-y="-8"
     inkscape:window-maximized="1"
     inkscape:current-layer="layer1" /><defs
     id="defs1"><filter
       inkscape:label="Blur"
       inkscape:menu="Blurs"
       inkscape:menu-tooltip="Blur the contents of objects, preserving the outline and adding progressive transparency at edges"
       style="color-interpolation-filters:sRGB"
       id="filter35"
       x="-0.027306117"
       y="-0.039863877"
       width="1.0546122"
       height="1.0797278"><feGaussianBlur
         result="result6"
         stdDeviation="2.3675087"
         in="SourceGraphic"
         id="feGaussianBlur35" /><feColorMatrix
         values="1 0 0 0 0 0 1 0 0 0 0 0 1 0 0 0 0 0 1 0 "
         result="result7"
         in="SourceGraphic"
         id="feColorMatrix35" /><feComposite
         operator="in"
         in="result6"
         in2="result7"
         id="feComposite35"
         result="fbSourceGraphic" /><feColorMatrix
         result="fbSourceGraphicAlpha"
         in="fbSourceGraphic"
         values="0 0 0 -1 0 0 0 0 -1 0 0 0 0 -1 0 0 0 0 1 0"
         id="feColorMatrix1805" /><feGaussianBlur
         id="feGaussianBlur1807"
         stdDeviation="2 2"
         result="blur"
         in="fbSourceGraphic" /></filter><filter
       style="color-interpolation-filters:sRGB"
       inkscape:label="Blur"
       id="filter2017"
       x="-0.012504208"
       y="-0.018254744"
       width="1.0250084"
       height="1.0365095"><feGaussianBlur
         stdDeviation="2 2"
         result="blur"
         id="feGaussianBlur2015" /></filter><filter
       style="color-interpolation-filters:sRGB"
       inkscape:label="Blur"
       id="filter2620"
       x="-0.012504208"
       y="-0.018254744"
       width="1.0250084"
       height="1.0365095"><feGaussianBlur
         stdDeviation="2 2"
         result="blur"
         id="feGaussianBlur2618" /></filter><filter
       style="color-interpolation-filters:sRGB"
       inkscape:label="Blur"
       id="filter932"
       x="-0.018699281"
       y="-0.027298855"
       width="1.0373986"
       height="1.0545977"><feGaussianBlur
         stdDeviation="2.9908778"
         result="blur"
         id="feGaussianBlur930" /></filter><filter
       inkscape:collect="always"
       style="color-interpolation-filters:sRGB"
       id="filter3"
       x="-0.024662556"
       y="-0.020176639"
       width="1.0493251"
       height="1.0403533"><feGaussianBlur
         inkscape:collect="always"
         stdDeviation="1.0412217"
         id="feGaussianBlur3" /></filter></defs><g
     inkscape:label="Camada 1"
     inkscape:groupmode="layer"
     id="layer1"
     transform="translate(-12.958316,-44.220141)"><path
       style="mix-blend-mode:normal;fill:#000000;fill-opacity:0.75;fill-rule:evenodd;stroke:none;stroke-width:3.165;stroke-dasharray:none;stroke-opacity:1;filter:url(#filter3)"
       d="m 19.137972,46.719075 8.01998,12.608385 12.84782,12.869217 h 10.5742 c 4.70793,0.140779 4.70147,9.453885 0,9.442149 h -2.29714 l 5.82014,5.563602 -3.666,3.370612 5.504,8.40626 23.311,4.27134 2.541085,1.26536 13.726909,-1.46223 v 2.74173 l 20.074934,3.63915 c 1.45964,0.20157 1.82916,2.69989 -0.36803,2.99354 l -19.706904,3.08827 v 2.51545 l -13.448795,-1.21902 -2.819199,1.30036 -23.311,3.68389 -5.504,7.27894 3.666,2.70753 -5.89446,5.69321 h 2.37146 c 3.04028,-0.27742 5.24877,8.72101 0,8.999 h -10.69749 l -11.25366,11.51332 -9.49085,12.58268 v -22.82859 c -4.64771,-3.05744 -5.16085,-6.94181 0,-11.96096 v -13.3412 l -1.80007,-2.5 0.8,-2.7443 v -2.34619 c -1.09846,0.006 -1.08139,-2.84676 0,-2.88451 v -6.04021 c -0.95083,-0.14881 -1.08681,-2.62369 0,-2.99024 v -1.93216 l -0.8,-2.79138 1.8,-2.501 7e-5,-12.909756 c -4.42255,-3.644134 -4.89589,-7.703974 0,-12.328996 z"
       id="path1"
       sodipodi:nodetypes="ccccccccccccccccccccccccccccccccccccccccccc"
       transform="matrix(1.6216918,0,0,1.6216918,-8.0560797,-27.491302)" /></g></svg>
