<?xml version="1.0" encoding="UTF-8" standalone="no"?>
<!-- Created with Inkscape (http://www.inkscape.org/) -->

<svg
   width="117.00002"
   height="117"
   viewBox="0 0 30.956255 30.95625"
   version="1.1"
   id="svg5"
   inkscape:version="1.4.2 (f4327f4, 2025-05-13)"
   sodipodi:docname="nick_winner_body_2.svg"
   xml:space="preserve"
   xmlns:inkscape="http://www.inkscape.org/namespaces/inkscape"
   xmlns:sodipodi="http://sodipodi.sourceforge.net/DTD/sodipodi-0.dtd"
   xmlns:xlink="http://www.w3.org/1999/xlink"
   xmlns="http://www.w3.org/2000/svg"
   xmlns:svg="http://www.w3.org/2000/svg"><sodipodi:namedview
     id="namedview7"
     pagecolor="#505050"
     bordercolor="#ffffff"
     borderopacity="1"
     inkscape:pageshadow="0"
     inkscape:pageopacity="0"
     inkscape:pagecheckerboard="1"
     inkscape:document-units="px"
     showgrid="false"
     units="px"
     inkscape:zoom="4.3893395"
     inkscape:cx="69.486537"
     inkscape:cy="61.170935"
     inkscape:window-width="1920"
     inkscape:window-height="1009"
     inkscape:window-x="-8"
     inkscape:window-y="-8"
     inkscape:window-maximized="1"
     inkscape:current-layer="layer1"
     showguides="false"
     inkscape:showpageshadow="2"
     inkscape:deskcolor="#d1d1d1" /><defs
     id="defs2"><inkscape:path-effect
       effect="fillet_chamfer"
       id="path-effect25"
       is_visible="true"
       lpeversion="1"
       nodesatellites_param="F,0,0,1,0,2.014691,0,1 @ F,0,0,1,0,0.36977953,0,1 @ F,0,0,1,0,0,0,1 @ F,0,0,1,0,0,0,1 @ F,0,0,1,0,0,0,1 @ F,0,0,1,0,0,0,1 @ F,0,0,1,0,2.1035876,0,1 @ F,0,0,1,0,0,0,1 @ F,0,0,1,0,0,0,1 @ F,0,0,1,0,0,0,1"
       radius="0"
       unit="px"
       method="auto"
       mode="F"
       chamfer_steps="1"
       flexible="false"
       use_knot_distance="true"
       apply_no_radius="true"
       apply_with_radius="true"
       only_selected="false"
       hide_knots="false" /><inkscape:path-effect
       effect="fillet_chamfer"
       id="path-effect21"
       is_visible="true"
       lpeversion="1"
       nodesatellites_param="F,0,0,1,0,0,0,1 @ F,0,0,1,0,0.46757353,0,1 @ F,0,0,1,0,4.0968119,0,1 @ F,0,0,1,0,0,0,1 @ F,0,0,1,0,0,0,1"
       radius="0"
       unit="px"
       method="auto"
       mode="F"
       chamfer_steps="1"
       flexible="false"
       use_knot_distance="true"
       apply_no_radius="true"
       apply_with_radius="true"
       only_selected="false"
       hide_knots="false" /><inkscape:path-effect
       effect="fillet_chamfer"
       id="path-effect7"
       is_visible="true"
       lpeversion="1"
       nodesatellites_param="F,0,0,1,0,0.26458332,0,1 @ F,0,0,1,0,0.26458332,0,1 @ F,0,0,1,0,0.26458332,0,1 @ F,0,0,1,0,0.26458332,0,1"
       radius="1"
       unit="px"
       method="auto"
       mode="F"
       chamfer_steps="1"
       flexible="false"
       use_knot_distance="true"
       apply_no_radius="true"
       apply_with_radius="true"
       only_selected="false"
       hide_knots="false" /><inkscape:path-effect
       effect="fillet_chamfer"
       id="path-effect6"
       is_visible="true"
       lpeversion="1"
       nodesatellites_param="F,0,0,1,0,0.79374997,0,1 @ F,0,0,1,0,0.79374997,0,1 @ F,0,0,1,0,0.79374997,0,1 @ F,0,0,1,0,0,0,1"
       radius="3"
       unit="px"
       method="auto"
       mode="F"
       chamfer_steps="1"
       flexible="false"
       use_knot_distance="true"
       apply_no_radius="true"
       apply_with_radius="true"
       only_selected="false"
       hide_knots="false" /><linearGradient
       x1="240.00002"
       y1="150.77409"
       x2="240.00002"
       y2="184.71407"
       gradientUnits="userSpaceOnUse"
       id="color-7"
       gradientTransform="matrix(0.89718188,0,0,0.89718188,21.81132,15.39949)"><stop
         offset="0"
         stop-color="#4d3108"
         id="stop13" /><stop
         offset="1"
         stop-color="#331f00"
         id="stop14" /></linearGradient><linearGradient
       x1="240.00002"
       y1="150.37373"
       x2="240.00002"
       y2="186.34032"
       gradientUnits="userSpaceOnUse"
       id="color-6"><stop
         offset="0"
         stop-color="#261700"
         id="stop11" /><stop
         offset="1"
         stop-color="#0d0800"
         id="stop12" /></linearGradient><clipPath
       clipPathUnits="userSpaceOnUse"
       id="clipPath8"><path
         id="path9"
         style="fill:#ffffff;stroke:#000000;stroke-width:0.292031;stroke-opacity:1"
         d="M 26.324644,11.369493 A 2.1469877,2.936924 0 0 1 24.177656,8.4325687 2.1469877,2.936924 0 0 1 26.324644,5.4956445 2.1469877,2.936924 0 0 1 28.471633,8.4325687 2.1469877,2.936924 0 0 1 26.324644,11.369493 Z" /></clipPath><clipPath
       clipPathUnits="userSpaceOnUse"
       id="clipPath17"><path
         id="path17"
         style="fill:#ffffff;stroke:#000000;stroke-width:0.292031;stroke-opacity:1"
         d="M 26.324644,11.369493 A 2.1469877,2.936924 0 0 1 24.177656,8.4325687 2.1469877,2.936924 0 0 1 26.324644,5.4956445 2.1469877,2.936924 0 0 1 28.471633,8.4325687 2.1469877,2.936924 0 0 1 26.324644,11.369493 Z" /></clipPath><clipPath
       clipPathUnits="userSpaceOnUse"
       id="clipPath17-4"><path
         id="path17-8"
         style="fill:#ffffff;stroke:#000000;stroke-width:0.292031;stroke-opacity:1"
         d="M 26.324644,11.369493 A 2.1469877,2.936924 0 0 1 24.177656,8.4325687 2.1469877,2.936924 0 0 1 26.324644,5.4956445 2.1469877,2.936924 0 0 1 28.471633,8.4325687 2.1469877,2.936924 0 0 1 26.324644,11.369493 Z" /></clipPath><clipPath
       clipPathUnits="userSpaceOnUse"
       id="clipPath2"><path
         id="path2-2"
         style="fill:#ffffff;stroke:#000000;stroke-width:0.292031;stroke-opacity:1"
         d="M 26.324644,11.369493 A 2.1469877,2.936924 0 0 1 24.177656,8.4325687 2.1469877,2.936924 0 0 1 26.324644,5.4956445 2.1469877,2.936924 0 0 1 28.471633,8.4325687 2.1469877,2.936924 0 0 1 26.324644,11.369493 Z" /></clipPath><linearGradient
       x1="240.00002"
       y1="150.77409"
       x2="240.11511"
       y2="183.76869"
       gradientUnits="userSpaceOnUse"
       id="linearGradient10"
       gradientTransform="matrix(0.89718188,0,0,0.89718188,21.81132,15.39949)"><stop
         offset="0"
         stop-color="#331f00"
         id="stop10"
         style="stop-color:#373e46;stop-opacity:1;" /><stop
         offset="1"
         stop-color="#4d3108"
         id="stop9"
         style="stop-color:#222324;stop-opacity:1;" /></linearGradient><inkscape:path-effect
       effect="fillet_chamfer"
       id="path-effect1"
       is_visible="true"
       lpeversion="1"
       nodesatellites_param="F,0,0,1,0,1.3229167,0,1 @ F,0,0,1,0,1.3229167,0,1 @ F,0,0,1,0,1.3229167,0,1 @ F,0,0,1,0,1.3229167,0,1 @ F,0,0,1,0,1.3229167,0,1 @ F,0,0,1,0,1.3229167,0,1 @ F,0,0,1,0,1.3229167,0,1 @ F,0,0,1,0,1.3229167,0,1 @ F,0,0,1,0,1.3229167,0,1 @ F,0,0,1,0,1.3229167,0,1 @ F,0,0,1,0,1.3229167,0,1 @ F,0,0,1,0,1.3229167,0,1 @ F,0,0,1,0,1.3229167,0,1 @ F,0,0,1,0,1.3229167,0,1 @ F,0,0,1,0,1.3229167,0,1"
       radius="5"
       unit="px"
       method="auto"
       mode="F"
       chamfer_steps="1"
       flexible="false"
       use_knot_distance="true"
       apply_no_radius="true"
       apply_with_radius="true"
       only_selected="false"
       hide_knots="false" /><linearGradient
       x1="240.00002"
       y1="150.77409"
       x2="240.11511"
       y2="183.76869"
       gradientUnits="userSpaceOnUse"
       id="color-7-8"
       gradientTransform="matrix(0.89718188,0,0,0.89718188,21.81132,15.39949)"><stop
         offset="0"
         stop-color="#4d3108"
         id="stop13-8"
         style="stop-color:#141417;stop-opacity:1;" /><stop
         offset="1"
         stop-color="#331f00"
         id="stop14-2"
         style="stop-color:#1d1d22;stop-opacity:1;" /></linearGradient><linearGradient
       x1="240.00002"
       y1="150.37373"
       x2="240.00002"
       y2="186.34032"
       gradientUnits="userSpaceOnUse"
       id="color-6-4"><stop
         offset="0"
         stop-color="#261700"
         id="stop11-5"
         style="stop-color:#0f0f15;stop-opacity:1;" /><stop
         offset="1"
         stop-color="#0d0800"
         id="stop12-5"
         style="stop-color:#0f0f15;stop-opacity:1;" /></linearGradient><clipPath
       clipPathUnits="userSpaceOnUse"
       id="clipPath6"><path
         d="M 10.123065,37.773461 C 0.85059937,37.313658 -9.904326,27.144464 -12.002919,14.251811 c -0.121026,-0.743529 -0.260592,-1.958656 -0.298335,-2.711451 -0.719625,-14.3524911 13.4950253,-23.010749 22.42453,-23.613952 0.732337,-0.04943 6.489067,-0.0093 7.13809,0.342809 l 4.308245,5.1226367 c 0.419048,0.2275598 0.348808,0.8648053 -0.109181,0.9904157 l -4.261949,1.1689197 c -0.471865,0.1294181 -0.554284,0.7808724 -0.130281,1.0298023 l 4.14834,2.43552729 c 0.438372,0.25738103 0.366526,0.92785289 -0.11587,1.0811692 L 15.596643,1.847038 c -0.487259,0.1548638 -0.56373,0.830165 -0.12408,1.0957081 l 4.027535,2.432638 c 0.554385,0.3348439 0.612365,1.1352498 0.112324,1.5506419 l -5.137561,4.26784 c -0.507377,0.421491 -0.461596,1.2301 0.08993,1.588367 l 5.291416,3.437459 c 0.53872,0.34994 0.56383,1.147601 0.04823,1.532532 l -6.058169,4.522704 c -0.367711,0.274489 -0.202994,0.870688 0.250302,0.906007 l 4.6728,0.3641 c 0.545512,0.04251 0.809169,0.706729 0.448039,1.128727 l -4.787123,5.594192 c -0.342991,0.400814 -0.06773,1.029958 0.451838,1.032858 l 4.940366,0.02755 c 0.393647,0.002 0.543411,0.52886 0.212771,0.748236 -2.249032,3.462709 -3.323205,6.410984 -9.912205,5.696863 z"
         fill="url(#color-7)"
         id="path6"
         style="fill:url(#linearGradient6);stroke:#0b0b0f;stroke-width:1.4256;stroke-dasharray:none;stroke-opacity:1"
         inkscape:label="Hair"
         sodipodi:nodetypes="csccccccccccccccccccccccsccc" /></clipPath><linearGradient
       inkscape:collect="always"
       xlink:href="#color-7-8"
       id="linearGradient6"
       gradientUnits="userSpaceOnUse"
       gradientTransform="matrix(0,-0.92578071,0.90154802,0,-148.11974,235.08777)"
       x1="240.00002"
       y1="150.77409"
       x2="240.11511"
       y2="183.76869" /><linearGradient
       inkscape:collect="always"
       xlink:href="#linearGradient10"
       id="linearGradient9"
       x1="238.99446"
       y1="178.25917"
       x2="239.30193"
       y2="150.59596"
       gradientUnits="userSpaceOnUse"
       gradientTransform="matrix(0,-0.77390721,0.75364985,0,-119.36787,196.36049)" /><clipPath
       clipPathUnits="userSpaceOnUse"
       id="clipPath17-1"><path
         id="path17-1"
         style="fill:#ffffff;stroke:#000000;stroke-width:0.292031;stroke-opacity:1"
         d="M 26.324644,11.369493 A 2.1469877,2.936924 0 0 1 24.177656,8.4325687 2.1469877,2.936924 0 0 1 26.324644,5.4956445 2.1469877,2.936924 0 0 1 28.471633,8.4325687 2.1469877,2.936924 0 0 1 26.324644,11.369493 Z" /></clipPath><clipPath
       clipPathUnits="userSpaceOnUse"
       id="clipPath2-5"><path
         id="path2-0"
         style="fill:#ffffff;stroke:#000000;stroke-width:0.292031;stroke-opacity:1"
         d="M 26.324644,11.369493 A 2.1469877,2.936924 0 0 1 24.177656,8.4325687 2.1469877,2.936924 0 0 1 26.324644,5.4956445 2.1469877,2.936924 0 0 1 28.471633,8.4325687 2.1469877,2.936924 0 0 1 26.324644,11.369493 Z" /></clipPath></defs><g
     inkscape:label="Layer 1"
     inkscape:groupmode="layer"
     id="layer1"
     transform="matrix(0.80016323,0,0,0.79999903,5.1571883,5.1576506)"><g
       id="g2"
       inkscape:label="body"
       transform="matrix(0,-0.77390722,0.75364988,0,-119.471,196.42092)"><path
         style="fill:#8b5521;fill-opacity:1"
         d="m 212.83947,176.30376 c 0,-13.41811 10.8774,-24.29551 24.29551,-24.29551 13.41811,0 24.29551,10.8774 24.29551,24.29551 0,13.41811 -10.8774,24.29551 -24.29551,24.29551 -13.41811,0 -24.29551,-10.8774 -24.29551,-24.29551 z"
         id="path1"
         inkscape:label="Skin"
         sodipodi:nodetypes="sssss" /><path
         style="fill:#1a1001"
         d="m 237.13477,151.30469 c -13.79885,0 -25,11.20115 -25,25 0,13.79884 11.20115,25 25,25 13.79884,0 25,-11.20116 25,-25 0,-13.79885 -11.20116,-25 -25,-25 z m 0,1.4082 c 13.03737,0 23.59179,10.55442 23.59179,23.5918 0,13.03737 -10.55442,23.58984 -23.59179,23.58984 -13.03738,0 -23.58985,-10.55247 -23.58985,-23.58984 0,-13.03738 10.55247,-23.5918 23.58985,-23.5918 z"
         id="path2"
         inkscape:label="Skin Line"
         sodipodi:nodetypes="ssssssssss"
         transform="translate(-1.2015723e-6)" /><g
         id="g1"
         transform="matrix(0,1.3268761,-1.2921445,0,253.80422,158.52321)"><path
           d="M 13.69272,28.486495 C 7.709177,28.171902 0.76897382,21.214716 -0.58525206,12.394294 -0.66333772,11.885605 -0.75339888,11.054282 -0.77776438,10.539262 -0.88141384,0.81877809 6.7071845,-4.8266039 15.26616,-5.2699366 l 5.65327,3.3130887 c 0.270402,0.155679 0.105926,1.47088799 -0.18961,1.55682299 -0.385289,0.142902 -2.43551,0.954669 -2.43551,0.954669 l 2.288699,1.38825001 c 0.28289,0.176095 -0.102459,1.97693 -0.413762,2.08181 l -2.986066,1.107732 1.99559,1.259743 c 1.350495,1.0425 0.972419,1.716302 0.4115,2.417122 l -2.425426,2.3123339 c -0.327416,0.28835 -1.187722,0.996962 -0.831758,1.242074 l 3.372183,2.266953 c 0.347629,0.239408 0.293238,2.212035 -0.03957,2.47538 l -3.174871,2.246498 c -1.590849,0.979767 2.302084,-0.128081 2.922662,1.532948 l -0.177025,0.758088 -2.863146,3.205617 c -0.221302,0.274203 -0.04311,0.684683 0.291587,0.706616 l 3.060904,-0.164858 0.1373,0.511886 c -3.368476,7.215384 -3.995151,4.377846 -3.995151,4.377846 z"
           fill="url(#color-7)"
           id="path37-2"
           style="fill:#5b3510;fill-opacity:1;stroke:none;stroke-width:0.947224;stroke-dasharray:none;stroke-opacity:1"
           inkscape:label="Hair"
           sodipodi:nodetypes="csccccccccccccccccccscccc" /><path
           style="baseline-shift:baseline;display:inline;overflow:visible;opacity:1;vector-effect:none;fill:url(#linearGradient9);stroke-width:0.763711;enable-background:accumulate;stop-color:#000000;stop-opacity:1"
           d="M 10.920057,31.494819 C 3.9657078,31.149966 -4.100486,23.523072 -5.6744309,13.853581 -5.7652005,13.295935 -5.869875,12.384589 -5.898182,11.819993 -6.4379008,1.0556251 4.2230867,-5.438068 10.920215,-5.8904709 c 0.549253,-0.03707 4.8668,-0.00697 5.353567,0.2571074 l 3.231183,3.8419776 c 0.314287,0.170669 0.261607,0.648604 -0.08188,0.742811 l -3.196462,0.87668999 c -0.353899,0.09706 -0.415714,0.585654 -0.09771,0.772352 l 3.111255,1.82664501 c 0.32878,0.193036 0.274894,0.69589 -0.0869,0.810877 l -4.12802,1.312013 c -0.365444,0.116148 -0.422797,0.622623 -0.09306,0.821781 l 3.020651,1.824478 c 0.415789,0.251133 0.459274,0.851437 0.08424,1.162982 l -3.853171,3.2008799 c -0.380532,0.316118 -0.346196,0.922575 0.06745,1.191275 l 3.968562,2.578094 c 0.404039,0.262455 0.422873,0.860701 0.03618,1.149399 l -4.543635,3.392028 c -0.275783,0.205867 -0.152244,0.653015 0.187727,0.679506 l 3.5046,0.273073 c 0.409134,0.03189 0.606876,0.530049 0.33603,0.846546 l -3.590343,4.195645 c -0.257243,0.300609 -0.0508,0.772468 0.338879,0.774643 l 3.705274,0.02066 c 0.295235,0.0015 0.407559,0.396643 0.159578,0.561176 -1.686774,2.597031 -2.492403,4.808239 -7.434153,4.272648 z"
           id="path7"
           sodipodi:nodetypes="cscccccsccccccscccccccccccccc" /><path
           style="baseline-shift:baseline;display:inline;overflow:visible;opacity:1;vector-effect:none;fill:#4d5154;fill-opacity:1;stroke-width:1.53305;stroke-linecap:square;enable-background:accumulate;stop-color:#000000;stop-opacity:1"
           d="m 15.892852,-13.332031 -0.0134,1.849053 C 10.059015,-4.7910726 9.9040784,14.684715 9.9040784,14.684715 9.4561147,18.717216 13.252713,37.753179 15.537835,36.539871 l -0.0134,1.847032 8.110054,0.01213 0.0134,-1.847033 0.341616,-48.024868 0.0134,-1.847034 z"
           id="path4"
           transform="matrix(0.74999998,0,0,0.74999996,3.3277527,3.1647301)"
           clip-path="url(#clipPath6)"
           sodipodi:nodetypes="cccccccccc" /><path
           style="baseline-shift:baseline;display:inline;overflow:visible;opacity:1;vector-effect:none;fill:#13151c;fill-opacity:1;stroke-width:0.763711;enable-background:accumulate;stop-color:#000000;stop-opacity:1"
           d="m -6.4249004,11.847103 c 0.030221,0.603191 0.134323,1.510992 0.2296296,2.096507 1.6139713,9.9154 9.7717486,17.71996 17.0778188,18.090081 2.536989,0.271541 4.151013,-0.16906 5.296161,-1.070174 1.148329,-0.903614 1.787673,-2.167668 2.614223,-3.440258 l -0.153089,0.154178 c 0.316164,-0.209768 0.435934,-0.627476 0.344441,-0.949244 -0.09149,-0.321775 -0.411064,-0.607176 -0.787504,-0.60915 l -3.544513,-0.01966 3.484161,-4.072083 c 0.536086,-0.626447 0.117968,-1.681205 -0.691828,-1.744317 l -3.069058,-0.23882 4.1907,-3.127375 c 0.673665,-0.502931 0.63911,-1.587887 -0.06474,-2.045112 l -3.968441,-2.578682 c -0.121715,-0.07906 -0.129635,-0.218358 -0.01764,-0.311373 l 3.853631,-3.2014379 c 0.648154,-0.538438 0.569932,-1.617125 -0.148673,-2.051156 l -2.849738,-1.721642 3.938996,-1.251555 c 0.381332,-0.121193 0.631385,-0.47637 0.669746,-0.834364 0.03836,-0.357994 -0.130389,-0.760906 -0.476917,-0.964366 l -2.862988,-1.68082601 2.920393,-0.801118 c 0.380134,-0.104253 0.636932,-0.454485 0.67564,-0.80564499 0.03874,-0.35116 -0.136471,-0.751301 -0.484281,-0.940181 l 0.153082,0.125458 -3.295741,-3.9194144 -0.08832,-0.048369 c -0.201484,-0.1094122 -0.327215,-0.1142878 -0.513713,-0.1435956 -0.186498,-0.029331 -0.406413,-0.053709 -0.655027,-0.074063 -0.497228,-0.04063 -1.106517,-0.068026 -1.716317,-0.086159 -1.219617,-0.036219 -2.375505,-0.03885 -2.749647,-0.013621 -3.4952468,0.2361113 -7.90547,2.010936 -11.43133796,5.1165558 C -4.0716589,1.7917501 -6.7041578,6.2763871 -6.4248476,11.84708 Z m 1.0539341,-0.05441 C -5.6313749,6.5990221 -3.2038838,2.4538431 0.14009824,-0.49156991 3.4840728,-3.4369838 7.7527907,-5.1333575 10.954672,-5.3496491 c 0.175118,-0.011841 1.452864,-0.018961 2.651024,0.016639 0.599084,0.0178 1.195477,0.045041 1.661858,0.083133 0.233194,0.019038 0.433552,0.040708 0.578487,0.06346 0.09891,0.015556 0.10493,0.017877 0.123643,0.021128 l 3.079368,3.6579192 -2.958663,0.81169699 c -0.382764,0.10498 -0.642683,0.453571 -0.687412,0.807162 -0.04477,0.35359 0.119733,0.757903 0.463668,0.95982301 l 2.92334,1.715597 -3.921338,1.245511 c -0.382176,0.121465 -0.633525,0.475527 -0.674162,0.834365 -0.04062,0.358838 0.124721,0.763637 0.469561,0.971919 l 3.021963,1.824424 c 0.112972,0.06826 0.121036,0.190451 0.01914,0.275101 l -3.853631,3.2014379 c -0.649088,0.53922 -0.587824,1.610957 0.117758,2.069296 l 3.968441,2.578682 c 0.104207,0.06772 0.108571,0.177968 0.0088,0.252425 l -4.543981,3.391889 c -0.315131,0.235244 -0.426913,0.657256 -0.334138,0.993085 0.09278,0.335822 0.403444,0.634805 0.79192,0.665073 l 3.444421,0.269056 -3.550399,4.149172 c -0.265164,0.309857 -0.303947,0.74785 -0.158975,1.079237 0.144979,0.331379 0.488855,0.591791 0.890543,0.594028 l 3.250115,0.01811 c -0.761541,1.195672 -1.357301,2.241236 -2.199128,2.903669 -0.911615,0.717343 -2.169102,1.111811 -4.561639,0.852506 l -0.0147,-0.0015 h -0.0147 C 4.3462105,30.627084 -3.6214887,23.181965 -5.1545557,13.76363 -5.2407884,13.233852 -5.3445584,12.318591 -5.3709286,11.792589 Z"
           id="path8"
           sodipodi:nodetypes="cscsccscccccccccccccsccccccccccccccccccscccccccccccccccccccccccccscccscc" /></g><g
         id="g20"
         inkscape:label="Face"
         transform="translate(2.4240234e-5,1.357668e-4)"><g
           id="g38"
           inkscape:label="Eyes"
           transform="matrix(0.72087807,0,0,0.72087807,64.124243,52.673392)"><g
             id="g4"
             transform="matrix(0,1.8406388,1.7924592,0,215.0572,145.1013)"
             inkscape:label="Eye 2"><path
               style="baseline-shift:baseline;display:inline;overflow:visible;opacity:1;vector-effect:none;enable-background:accumulate;stop-color:#000000;stop-opacity:1"
               d="m 25.140625,5.3457031 -0.253131,6.849e-4 c -0.258233,6.987e-4 -0.597814,0.1656129 -0.740676,0.380659 -0.44046,0.6630116 -0.693497,1.3287353 -0.797211,1.9767697 -0.34731,2.1700913 1.418372,3.8237313 1.816409,3.8215773 -1.42821,-1.7615454 -1.902121,-4.1214905 -0.02539,-6.1796909 z"
               id="path4-9"
               inkscape:label="eyebrow"
               sodipodi:nodetypes="ccccccc" /><ellipse
               style="fill:#4b2a11;fill-opacity:1;stroke:none;stroke-width:1.34921"
               id="ellipse4"
               cx="192.67253"
               cy="-249.89713"
               transform="matrix(0.54328964,0,0,0.55789276,-78.832032,147.79973)"
               rx="0.78438312"
               ry="4.2497969" /></g><g
             id="g7"
             transform="matrix(0,1.8406388,-1.7924592,0,264.92498,145.1013)"
             inkscape:label="Eye 1"><path
               style="baseline-shift:baseline;display:inline;overflow:visible;opacity:1;vector-effect:none;enable-background:accumulate;stop-color:#000000;stop-opacity:1"
               d="m 25.140625,5.3457031 -0.253131,6.849e-4 c -0.258233,6.987e-4 -0.597814,0.1656129 -0.740676,0.380659 -0.44046,0.6630116 -0.693497,1.3287353 -0.797211,1.9767697 -0.34731,2.1700913 1.418372,3.8237313 1.816409,3.8215773 -1.42821,-1.7615454 -1.902121,-4.1214905 -0.02539,-6.1796909 z"
               id="path20"
               inkscape:label="eyebrow"
               sodipodi:nodetypes="ccccccc" /><ellipse
               style="fill:#4b2a11;fill-opacity:1;stroke:none;stroke-width:1.34921"
               id="path3"
               cx="192.67253"
               cy="-249.89713"
               transform="matrix(0.54328964,0,0,0.55789276,-78.832032,147.79973)"
               rx="0.78438312"
               ry="4.2497969" /></g></g></g></g></g></svg>
