<?xml version="1.0" encoding="UTF-8" standalone="no"?>
<!-- Created with Inkscape (http://www.inkscape.org/) -->

<svg
   width="26.428558mm"
   height="26.428558mm"
   viewBox="0 0 26.428558 26.428558"
   version="1.1"
   id="svg1"
   inkscape:version="1.4.2 (f4327f4, 2025-05-13)"
   sodipodi:docname="green_power.svg"
   inkscape:export-filename="inomeado.png"
   inkscape:export-xdpi="96"
   inkscape:export-ydpi="96"
   xml:space="preserve"
   xmlns:inkscape="http://www.inkscape.org/namespaces/inkscape"
   xmlns:sodipodi="http://sodipodi.sourceforge.net/DTD/sodipodi-0.dtd"
   xmlns="http://www.w3.org/2000/svg"
   xmlns:svg="http://www.w3.org/2000/svg"><sodipodi:namedview
     id="namedview1"
     pagecolor="#ffffff"
     bordercolor="#000000"
     borderopacity="0.25"
     inkscape:showpageshadow="2"
     inkscape:pageopacity="0.0"
     inkscape:pagecheckerboard="0"
     inkscape:deskcolor="#d1d1d1"
     inkscape:document-units="mm"
     inkscape:zoom="8.1336326"
     inkscape:cx="46.227807"
     inkscape:cy="30.552154"
     inkscape:window-width="1920"
     inkscape:window-height="1009"
     inkscape:window-x="-8"
     inkscape:window-y="-8"
     inkscape:window-maximized="1"
     inkscape:current-layer="g4" /><defs
     id="defs1" /><g
     inkscape:label="Camada 1"
     inkscape:groupmode="layer"
     id="layer1"
     transform="matrix(0.2486434,0,0,0.2486434,-14.695699,-6.7347395)"><g
       id="g4"><path
         style="baseline-shift:baseline;display:inline;overflow:visible;opacity:1;vector-effect:none;fill:#008503;enable-background:accumulate;stop-color:#000000;stop-opacity:1;fill-opacity:1"
         d="M 112.249,31.305969 161.174,80.230691 112.249,129.15541 63.324556,80.230688 Z"
         id="path2"
         sodipodi:nodetypes="ccccc" /><path
         style="fill:#009e0a;fill-opacity:1;stroke:none;stroke-width:5.969;stroke-dasharray:none;stroke-opacity:1"
         d="m 112.249,35.527 v 93.28998 l 45.45421,-47.883485 z"
         id="path1"
         sodipodi:nodetypes="cccc" /><path
         style="baseline-shift:baseline;display:inline;overflow:visible;opacity:1;vector-effect:none;fill:#045b00;fill-opacity:1;enable-background:accumulate;stop-color:#000000;stop-opacity:1"
         d="M 112.25,27.085937 59.103516,80.230469 112.25,133.37695 165.39453,80.230469 Z m 0,8.441063 44.70312,44.703469 L 112.25,124.93555 67.544922,80.230469 Z"
         id="path3"
         sodipodi:nodetypes="cccccccccc" /></g><path
       style="baseline-shift:baseline;display:inline;overflow:visible;opacity:1;vector-effect:none;fill:#00d00d;fill-opacity:1;stroke-width:0.584389;enable-background:accumulate;stop-color:#000000;stop-opacity:1"
       d="M 112.24886,51.64037 140.8401,80.231449 112.24886,108.82253 83.657951,80.231447 Z"
       id="path4"
       sodipodi:nodetypes="ccccc" /><path
       d="m 104.48536,85.867495 c 4.35855,0.28181 7.45838,0.42271 9.2995,0.42271 0.43209,0 0.77026,-0.12211 1.01449,-0.36635 0.26301,-0.26301 0.39451,-0.61057 0.39451,-1.04267 v -2.81802 h -5.32606 c -1.97263,0 -3.40983,-0.44149 -4.31158,-1.32448 -0.88299,-0.90177 -1.32448,-2.33896 -1.32448,-4.31158 v -0.5636 c 0,-1.97262 0.44149,-3.40042 1.32448,-4.2834 0.90175,-0.90177 2.33895,-1.35266 4.31158,-1.35266 h 0.5636 l -0.2818,-2.536224 h 4.22703 l -0.2818,2.536224 h 4.50885 v 3.94524 h -7.60866 c -1.12723,0 -1.69084,0.5636 -1.69084,1.69082 v 0.5636 c 0,1.12721 0.56361,1.69082 1.69084,1.69082 h 3.91703 c 1.84111,0 3.19377,0.4321 4.05797,1.29629 0.86419,0.86419 1.29629,2.21685 1.29629,4.05796 v 1.40901 c 0,1.84112 -0.4321,3.19377 -1.29629,4.05797 -0.84541,0.86419 -2.18867,1.29629 -4.02978,1.29629 h -0.78905 l 0.22542,2.53622 h -4.22704 l 0.28181,-2.67713 c -2.17929,-0.11271 -4.1613,-0.25361 -5.94605,-0.4227 z"
       id="text5"
       style="font-size:11.2889px;font-family:'Russo One';-inkscape-font-specification:'Russo One, Normal';fill:#009e0a;fill-opacity:1;stroke-width:0.660474"
       aria-label="$"
       sodipodi:nodetypes="cssscscsscsccccccsssssssscscccccc" /></g></svg>
