<?xml version="1.0" encoding="UTF-8" standalone="no"?>
<!-- Created with Inkscape (http://www.inkscape.org/) -->

<svg
   width="26.429001mm"
   height="26.429365mm"
   viewBox="0 0 26.429001 26.429365"
   version="1.1"
   id="svg1"
   inkscape:version="1.4.2 (f4327f4, 2025-05-13)"
   sodipodi:docname="kills.svg"
   inkscape:export-filename="inomeado.png"
   inkscape:export-xdpi="96"
   inkscape:export-ydpi="96"
   xml:space="preserve"
   xmlns:inkscape="http://www.inkscape.org/namespaces/inkscape"
   xmlns:sodipodi="http://sodipodi.sourceforge.net/DTD/sodipodi-0.dtd"
   xmlns="http://www.w3.org/2000/svg"
   xmlns:svg="http://www.w3.org/2000/svg"><sodipodi:namedview
     id="namedview1"
     pagecolor="#ffffff"
     bordercolor="#000000"
     borderopacity="0.25"
     inkscape:showpageshadow="2"
     inkscape:pageopacity="0.0"
     inkscape:pagecheckerboard="0"
     inkscape:deskcolor="#d1d1d1"
     inkscape:document-units="mm"
     inkscape:zoom="5.7513468"
     inkscape:cx="35.904634"
     inkscape:cy="44.076633"
     inkscape:window-width="1920"
     inkscape:window-height="1009"
     inkscape:window-x="-8"
     inkscape:window-y="-8"
     inkscape:window-maximized="1"
     inkscape:current-layer="svg1" /><defs
     id="defs1"><clipPath
       id="b"><circle
         cy="-15"
         r="9.5"
         id="circle1"
         cx="0" /><circle
         cy="-15"
         r="9.5"
         transform="rotate(120)"
         id="circle2"
         cx="0" /><circle
         cy="-15"
         r="9.5"
         transform="rotate(-120)"
         id="circle3"
         cx="0" /></clipPath><mask
       maskUnits="userSpaceOnUse"
       id="mask14"><g
         id="g18"
         transform="matrix(-0.3980914,0.68951456,-0.68951456,-0.3980914,15.914388,-5.5218685)"><path
           fill="#ffffff"
           d="M -17.911372,-20.069095 H 49.912244 V 47.754521 H -17.911372 Z"
           id="path14"
           style="stroke-width:1.25599" /><path
           d="m 18.512422,-15.045124 v -5.023971 H 13.48845 v 5.023971 m 1.88399,21.3518796 v 5.0239714 h 1.255992 V 6.3067556"
           id="path15"
           style="stroke-width:1.25599" /><circle
           cy="-4.9971805"
           r="13.187925"
           id="circle15"
           cx="16.000437"
           style="stroke-width:1.25599" /><g
           transform="matrix(-0.62799645,1.0877218,-1.0877218,-0.62799645,16.000436,13.842713)"
           id="g16"><path
             d="m 2,-23 v -4 h -4 v 4 m 1.5,17 v 4 h 1 v -4"
             id="path16"
             style="stroke-width:1" /><circle
             cy="-15"
             r="10.5"
             id="circle16"
             cx="0" /></g><g
           transform="matrix(-0.62799645,-1.0877218,1.0877218,-0.62799645,16.000436,13.842713)"
           id="g17"><path
             d="m 2,-23 v -4 h -4 v 4 m 1.5,17 v 4 h 1 v -4"
             id="path17" /><circle
             cy="-15"
             r="10.5"
             id="circle17"
             cx="0" /></g><circle
           r="3.7679787"
           id="circle18"
           cx="16.000437"
           cy="13.842713"
           style="stroke-width:1.25599" /></g></mask><mask
       maskUnits="userSpaceOnUse"
       id="mask18"><g
         id="g22"
         transform="matrix(-0.3980914,-0.68951456,0.68951456,-0.3980914,-3.1751162,16.543199)"
         style="stroke-width:1.25599"><path
           fill="#ffffff"
           d="M -17.911372,-20.069095 H 49.912244 V 47.754521 H -17.911372 Z"
           id="path18" /><path
           d="m 18.512422,-15.045124 v -5.023971 H 13.48845 v 5.023971 m 1.88399,21.3518796 v 5.0239714 h 1.255992 V 6.3067556"
           id="path19" /><circle
           cy="-4.9971805"
           r="13.187925"
           id="circle19"
           cx="16.000437" /><g
           transform="matrix(-0.62799645,1.0877218,-1.0877218,-0.62799645,16.000436,13.842713)"
           id="g20"><path
             d="m 2,-23 v -4 h -4 v 4 m 1.5,17 v 4 h 1 v -4"
             id="path20" /><circle
             cy="-15"
             r="10.5"
             id="circle20"
             cx="0" /></g><g
           transform="matrix(-0.62799645,-1.0877218,1.0877218,-0.62799645,16.000436,13.842713)"
           id="g21"><path
             d="m 2,-23 v -4 h -4 v 4 m 1.5,17 v 4 h 1 v -4"
             id="path21" /><circle
             cy="-15"
             r="10.5"
             id="circle21"
             cx="0" /></g><circle
           r="3.7679787"
           id="circle22"
           cx="16.000437"
           cy="13.842713" /></g></mask><mask
       maskUnits="userSpaceOnUse"
       id="mask22"><g
         id="g26"
         transform="matrix(0.79618284,0,0,0.79618284,-12.739273,-11.021331)"><path
           fill="#ffffff"
           d="M -17.911372,-20.069095 H 49.912244 V 47.754521 H -17.911372 Z"
           id="path22" /><path
           d="m 18.512422,-15.045124 v -5.023971 H 13.48845 v 5.023971 m 1.88399,21.3518796 v 5.0239714 h 1.255992 V 6.3067556"
           id="path23" /><circle
           cy="-4.9971805"
           r="13.187925"
           id="circle23"
           cx="16.000437" /><g
           transform="matrix(-0.62799645,1.0877218,-1.0877218,-0.62799645,16.000436,13.842713)"
           id="g24"><path
             d="m 2,-23 v -4 h -4 v 4 m 1.5,17 v 4 h 1 v -4"
             id="path24" /><circle
             cy="-15"
             r="10.5"
             id="circle24"
             cx="0" /></g><g
           transform="matrix(-0.62799645,-1.0877218,1.0877218,-0.62799645,16.000436,13.842713)"
           id="g25"><path
             d="m 2,-23 v -4 h -4 v 4 m 1.5,17 v 4 h 1 v -4"
             id="path25" /><circle
             cy="-15"
             r="10.5"
             id="circle25"
             cx="0" /></g><circle
           r="3.7679787"
           id="circle26"
           cx="16.000437"
           cy="13.842713" /></g></mask><mask
       id="b-3"
       maskUnits="userSpaceOnUse"
       x="-30"
       y="-30"
       width="60"
       height="60"><path
         d="M -27,-27 H 27 V 27 H -27 Z"
         fill="#ffffff"
         id="path3-0" /><path
         d="m 2,-23 v -4 h -4 v 4 m 1.5,17 v 4 h 1 v -4"
         id="path4-9" /><circle
         cy="-15"
         r="10.5"
         id="circle4"
         cx="0" /><g
         transform="rotate(120)"
         id="g5"><path
           d="m 2,-23 v -4 h -4 v 4 m 1.5,17 v 4 h 1 v -4"
           id="path5" /><circle
           cy="-15"
           r="10.5"
           id="circle5"
           cx="0" /></g><g
         transform="rotate(-120)"
         id="g6"><path
           d="m 2,-23 v -4 h -4 v 4 m 1.5,17 v 4 h 1 v -4"
           id="path6" /><circle
           cy="-15"
           r="10.5"
           id="circle6"
           cx="0" /></g><circle
         r="3"
         id="circle7"
         cx="0"
         cy="0" /></mask><clipPath
       id="d"><circle
         cy="-15"
         r="9.5"
         id="circle1-6"
         cx="0" /><circle
         transform="rotate(120)"
         cy="-15"
         r="9.5"
         id="circle2-7"
         cx="0" /><circle
         transform="rotate(-120)"
         cy="-15"
         r="9.5"
         id="circle3-5"
         cx="0" /></clipPath></defs><g
     id="g10"
     style="fill:#ffffff;fill-opacity:1;stroke:none;stroke-width:12.3036;stroke-dasharray:none"
     transform="matrix(0.18601262,0,0,0.18601262,5.1224062,5.4944315)"><path
       style="baseline-shift:baseline;display:inline;overflow:visible;opacity:1;fill:#ffffff;fill-opacity:1;stroke:#ffffff;stroke-width:3.0759;stroke-dasharray:none;stroke-opacity:1;enable-background:accumulate;stop-color:#000000;stop-opacity:1"
       d="m 44,-18.496094 c -33.091761,0 -60,26.9082392 -60,60 0,33.091761 26.908239,60.000004 60,60.000004 33.091761,0 60,-26.908243 60,-60.000004 0,-33.0917608 -26.908239,-60 -60,-60 z m 0,7.652344 c 28.955854,0 52.347656,23.391802 52.347656,52.347656 C 96.347656,70.45976 72.955854,93.851562 44,93.851562 15.044146,93.851562 -8.3476563,70.45976 -8.3476563,41.503906 -8.3476563,12.548052 15.044146,-10.84375 44,-10.84375 Z"
       id="path1-4"
       sodipodi:nodetypes="ssssssssss" /><g
       id="g9"
       transform="translate(10,9.503906)"
       style="fill:#ffffff;fill-opacity:1;stroke:none;stroke-width:12.3036;stroke-dasharray:none"><path
         style="baseline-shift:baseline;display:inline;overflow:visible;opacity:1;fill:#ffffff;fill-opacity:1;stroke:#ffffff;stroke-width:3.0759;stroke-dasharray:none;stroke-opacity:1;enable-background:accumulate;stop-color:#000000;stop-opacity:1"
         d="m -36,28.048828 v 7.902344 h 50.534161 v -7.902344 z"
         id="path2-8"
         sodipodi:nodetypes="ccccc" /><path
         style="baseline-shift:baseline;display:inline;overflow:visible;opacity:1;fill:#ffffff;fill-opacity:1;stroke:#ffffff;stroke-width:3.0759;stroke-dasharray:none;stroke-opacity:1;enable-background:accumulate;stop-color:#000000;stop-opacity:1"
         d="m 53.336192,28.048828 v 7.902344 h 49.669668 v -7.902344 z"
         id="path7"
         sodipodi:nodetypes="ccccc" /><path
         style="baseline-shift:baseline;display:inline;overflow:visible;opacity:1;fill:#ffffff;fill-opacity:1;stroke:#ffffff;stroke-width:3.0759;stroke-dasharray:none;stroke-opacity:1;enable-background:accumulate;stop-color:#000000;stop-opacity:1"
         d="m 29.550781,-37.503906 v 50.824278 h 7.904297 v -50.824278 z"
         id="path8"
         sodipodi:nodetypes="ccccc" /><path
         style="baseline-shift:baseline;display:inline;overflow:visible;opacity:1;fill:#ffffff;fill-opacity:1;stroke:#ffffff;stroke-width:3.0759;stroke-dasharray:none;stroke-opacity:1;enable-background:accumulate;stop-color:#000000;stop-opacity:1"
         d="m 29.550781,55.002097 v 46.501813 h 7.904297 V 55.002097 Z"
         id="path9"
         sodipodi:nodetypes="ccccc" /></g></g></svg>
