<?xml version="1.0" encoding="UTF-8" standalone="no"?>
<!-- Created with Inkscape (http://www.inkscape.org/) -->

<svg
   width="19.106617mm"
   height="16.908817mm"
   viewBox="0 0 19.106617 16.908817"
   version="1.1"
   id="svg1"
   inkscape:version="1.4.2 (f4327f4, 2025-05-13)"
   sodipodi:docname="special_win.svg"
   inkscape:export-filename="inomeado.png"
   inkscape:export-xdpi="96"
   inkscape:export-ydpi="96"
   xml:space="preserve"
   xmlns:inkscape="http://www.inkscape.org/namespaces/inkscape"
   xmlns:sodipodi="http://sodipodi.sourceforge.net/DTD/sodipodi-0.dtd"
   xmlns:xlink="http://www.w3.org/1999/xlink"
   xmlns="http://www.w3.org/2000/svg"
   xmlns:svg="http://www.w3.org/2000/svg"><sodipodi:namedview
     id="namedview1"
     pagecolor="#ffffff"
     bordercolor="#000000"
     borderopacity="0.25"
     inkscape:showpageshadow="2"
     inkscape:pageopacity="0.0"
     inkscape:pagecheckerboard="0"
     inkscape:deskcolor="#d1d1d1"
     inkscape:document-units="mm"
     inkscape:zoom="2.0334082"
     inkscape:cx="-25.818721"
     inkscape:cy="157.12536"
     inkscape:window-width="1920"
     inkscape:window-height="1009"
     inkscape:window-x="-8"
     inkscape:window-y="-8"
     inkscape:window-maximized="1"
     inkscape:current-layer="layer1" /><defs
     id="defs1"><linearGradient
       id="linearGradient14"
       inkscape:collect="always"><stop
         style="stop-color:#c61831;stop-opacity:1;"
         offset="0"
         id="stop14" /><stop
         style="stop-color:#e74d55;stop-opacity:1;"
         offset="1"
         id="stop15" /></linearGradient><linearGradient
       id="linearGradient11"
       inkscape:collect="always"><stop
         style="stop-color:#12981b;stop-opacity:1;"
         offset="0"
         id="stop11" /><stop
         style="stop-color:#2bc618;stop-opacity:1;"
         offset="1"
         id="stop12" /></linearGradient><linearGradient
       id="linearGradient10"
       inkscape:collect="always"><stop
         style="stop-color:#8c6302;stop-opacity:1;"
         offset="0"
         id="stop9" /><stop
         style="stop-color:#fcc516;stop-opacity:1;"
         offset="1"
         id="stop10" /></linearGradient><linearGradient
       id="linearGradient1"
       inkscape:collect="always"><stop
         style="stop-color:#dead02;stop-opacity:1;"
         offset="0"
         id="stop1" /><stop
         style="stop-color:#fcfd61;stop-opacity:1;"
         offset="1"
         id="stop2" /></linearGradient><linearGradient
       inkscape:collect="always"
       xlink:href="#linearGradient10"
       id="linearGradient7"
       x1="91.381805"
       y1="41.441639"
       x2="153.70932"
       y2="107.11734"
       gradientUnits="userSpaceOnUse" /><linearGradient
       inkscape:collect="always"
       xlink:href="#linearGradient1"
       id="linearGradient9"
       x1="83.305389"
       y1="74.541145"
       x2="158.13792"
       y2="74.541145"
       gradientUnits="userSpaceOnUse" /><linearGradient
       inkscape:collect="always"
       xlink:href="#linearGradient11"
       id="linearGradient12"
       x1="121.40009"
       y1="79.00071"
       x2="121.40009"
       y2="102.03557"
       gradientUnits="userSpaceOnUse"
       gradientTransform="translate(-0.58520273,0.55505656)" /><linearGradient
       inkscape:collect="always"
       xlink:href="#linearGradient14"
       id="linearGradient15"
       x1="94.220436"
       y1="79.115433"
       x2="102.29518"
       y2="92.621803"
       gradientUnits="userSpaceOnUse"
       gradientTransform="matrix(0.56249998,0,0,0.56249998,48.841906,44.588814)" /><linearGradient
       inkscape:collect="always"
       xlink:href="#linearGradient14"
       id="linearGradient16"
       gradientUnits="userSpaceOnUse"
       gradientTransform="matrix(0.56249998,0,0,0.56249998,82.624927,44.588814)"
       x1="94.220436"
       y1="79.115433"
       x2="102.29518"
       y2="92.621803" /></defs><g
     inkscape:label="Camada 1"
     inkscape:groupmode="layer"
     id="layer1"
     transform="matrix(0.2486434,0,0,0.2486434,-20.463336,-10.079755)"><g
       id="g17"
       inkscape:label="Gold"><path
         id="path1"
         style="display:inline;fill:url(#linearGradient7);stroke:#7b4f02;stroke-width:2.01091;stroke-dasharray:none;stroke-opacity:1"
         d="m 120.39744,41.544456 c -2.45636,1.7e-5 -4.44762,1.991281 -4.44764,4.447637 -5e-4,1.913004 1.2223,3.612035 3.03645,4.21902 L 111.54789,76.641302 100.59922,56.51886 c 1.18336,-0.564362 1.93697,-1.758653 1.93701,-3.069701 -4.9e-4,-1.877652 -1.52251,-3.399667 -3.40016,-3.400156 -1.878462,-6.56e-4 -3.401742,1.521694 -3.402234,3.400156 5.4e-5,1.671765 1.215074,3.095603 2.866024,3.35859 L 95.40338,85.522028 91.381802,107.53783 H 154.1018 l -6.3701,-22.015802 -5.37665,-28.722592 c 1.62637,-0.286008 2.8123,-1.698947 2.81199,-3.350277 -4.9e-4,-1.877652 -1.52251,-3.399667 -3.40016,-3.400156 -1.87846,-6.54e-4 -3.40174,1.521695 -3.40223,3.400156 -1.1e-4,1.290334 0.72999,2.469602 1.88505,3.044761 l -9.27561,20.147382 -9.17793,-26.42811 c 1.81981,-0.602903 3.04853,-2.30402 3.04892,-4.221099 -2e-5,-2.456356 -1.99128,-4.44762 -4.44764,-4.447637 z"
         sodipodi:nodetypes="cccccccccccccccccccccc" /><path
         id="circle3"
         style="display:inline;fill:url(#linearGradient9);stroke:#8c6302;stroke-width:2.01091;stroke-dasharray:none;stroke-opacity:1"
         d="m 120.39744,41.544456 c -2.45636,1.7e-5 -4.44762,1.991281 -4.44764,4.447637 -5e-4,1.913004 1.2223,3.612035 3.03645,4.21902 l -7.43836,26.430189 -22.028277,-8.458825 c 0.383307,-0.56398 0.58823,-1.23016 0.588169,-1.912068 -4.92e-4,-1.878462 -1.523772,-3.400812 -3.402234,-3.400156 -1.877651,4.91e-4 -3.399665,1.522505 -3.400157,3.400156 -6.56e-4,1.878463 1.521694,3.401744 3.400157,3.402235 0.234659,-9.2e-5 0.468679,-0.02447 0.69832,-0.07274 L 95.40338,85.522028 91.381802,107.53783 H 154.1018 l -6.3701,-22.015802 6.51766,-15.886794 c 0.16174,0.0235 0.32497,0.03531 0.48841,0.03533 1.87846,-4.9e-4 3.40082,-1.52377 3.40016,-3.402234 -4.9e-4,-1.877653 -1.52251,-3.399668 -3.40016,-3.400157 -1.87846,-6.54e-4 -3.40174,1.521696 -3.40223,3.400157 4.8e-4,0.698469 0.21599,1.379853 0.61726,1.951556 l -20.97871,8.421415 -9.17793,-26.42811 c 1.81981,-0.602903 3.04853,-2.30402 3.04892,-4.221099 -2e-5,-2.456356 -1.99128,-4.44762 -4.44764,-4.447636 z"
         sodipodi:nodetypes="cccccccccccccccccccccccc" /></g><g
       id="g16"
       inkscape:label="Gems"
       transform="translate(-0.25578803)"><path
         style="fill:url(#linearGradient12);fill-opacity:1;stroke:#0e7c1b;stroke-width:2.01091;stroke-dasharray:none;stroke-opacity:1"
         d="m 117.53034,83.117491 v 15.753484 l 3.23757,3.858415 3.14507,-3.858415 V 83.117491 l -3.14507,-3.607974 z"
         id="path10"
         sodipodi:nodetypes="ccccccc" /><path
         id="path14"
         style="fill:url(#linearGradient15);stroke:#9e1426;stroke-width:1.13114;stroke-opacity:1"
         d="m 107.71584,95.222626 -3.6549,2.081329 -3.62993,-2.124571 0.025,-4.205899 3.65489,-2.081328 3.62994,2.12457 z"
         sodipodi:nodetypes="ccccccc" /><path
         id="path15"
         style="fill:url(#linearGradient16);stroke:#9e1426;stroke-width:1.13114;stroke-opacity:1"
         d="m 141.49889,95.222626 -3.6549,2.081329 -3.62993,-2.124571 0.025,-4.205899 3.65489,-2.081328 3.62994,2.12457 z"
         sodipodi:nodetypes="ccccccc" /></g></g></svg>
