<?xml version="1.0" encoding="UTF-8" standalone="no"?>
<svg
   id="svg1"
   width="232.31218"
   height="43.110622"
   viewBox="0 0 232.31218 43.110623"
   version="1.1"
   sodipodi:docname="ak47_world.svg"
   inkscape:version="1.4.2 (f4327f4, 2025-05-13)"
   xmlns:inkscape="http://www.inkscape.org/namespaces/inkscape"
   xmlns:sodipodi="http://sodipodi.sourceforge.net/DTD/sodipodi-0.dtd"
   xmlns="http://www.w3.org/2000/svg"
   xmlns:svg="http://www.w3.org/2000/svg">
  <sodipodi:namedview
     id="namedview1"
     pagecolor="#ffffff"
     bordercolor="#000000"
     borderopacity="0.25"
     inkscape:showpageshadow="2"
     inkscape:pageopacity="0.0"
     inkscape:pagecheckerboard="0"
     inkscape:deskcolor="#d1d1d1"
     inkscape:zoom="1.2772799"
     inkscape:cx="198.46863"
     inkscape:cy="126.44057"
     inkscape:window-width="1920"
     inkscape:window-height="1009"
     inkscape:window-x="-8"
     inkscape:window-y="-8"
     inkscape:window-maximized="1"
     inkscape:current-layer="svg1" />
  <defs
     id="defs1">
    <style
       id="style1">
      .cls-1 {
        fill: #171717;
      }

      .cls-2 {
        fill: #1a1a1a;
      }

      .cls-3 {
        fill: #7d521b;
        stroke: #261a08;
      }

      .cls-3, .cls-4, .cls-5, .cls-6 {
        stroke-width: 3px;
      }

      .cls-3, .cls-4, .cls-5, .cls-6, .cls-7, .cls-8 {
        stroke-linecap: round;
      }

      .cls-4 {
        fill: #434343;
      }

      .cls-4, .cls-5, .cls-6, .cls-7 {
        stroke: #171717;
      }

      .cls-5 {
        fill: #3c3c3c;
      }

      .cls-6, .cls-8 {
        fill: none;
      }

      .cls-7 {
        fill: #505050;
      }

      .cls-7, .cls-8 {
        stroke-width: 1.5px;
      }

      .cls-8 {
        stroke: #1a1a1a;
      }
    </style>
  </defs>
  <path
     id="rect2023-2"
     class="cls-3"
     d="m 93.945616,12.866561 v 9.451269 c 0,1.890254 -1.701229,3.591482 -3.780508,3.591482 H 6.6158884 c -2.0792792,0 -3.7805076,-1.701228 -3.7805076,-3.591482 v -9.451269 c 0,-1.890254 1.7012284,-3.5914824 3.7805076,-3.5914824 H 89.976083 c 2.268304,0.1890254 3.969533,1.7012284 3.969533,3.5914824 z" />
  <path
     id="rect2077-2"
     class="cls-4"
     d="M 142.33611,28.933719 H 51.792955 L 49.52465,24.586135 V 10.409231 l 2.268305,-4.3475839 h 90.543155 z" />
  <path
     id="path2637-2"
     class="cls-2"
     d="M 57.274691,4.7384694 50.658803,4.9274948 V 31.012998 l 6.615888,0.189025 v -8.128091 l 2.835381,-1.890254 v -7.561016 l -2.835381,-1.890253 z"
     style="stroke-width:1.89025" />
  <path
     id="path2938-2"
     class="cls-1"
     d="m 120.59819,31.202023 v 11.530548 c -0.18902,0.189026 -0.37805,0.378051 -0.56707,0.378051 h -1.5122 c -0.18903,0 -0.37806,-0.189025 -0.56708,-0.378051 v -3.024406 c 0,-0.945127 0,-1.890253 -0.56708,-2.646355 -1.32317,-1.890254 -3.21343,-2.45733 -4.15856,-3.402457 -0.56707,-0.567076 -0.37805,-1.890254 -0.94512,-2.45733 z"
     style="stroke-width:1.89025" />
  <rect
     id="rect5115-2"
     class="cls-5"
     x="188.26927"
     y="11.354359"
     width="41.207531"
     height="12.28665"
     rx="2.6085503"
     ry="2.6085503" />
  <path
     id="rect983-2"
     class="cls-7"
     d="M 135.90925,6.4396979 V 28.366642 h -20.98182 v -5.29271 l 13.42081,-3.024407 V 14.94584 L 114.92743,11.921434 V 6.4396979 Z" />
  <path
     id="path1772-2"
     class="cls-6"
     d="M 142.33611,28.933719 H 51.792955 L 49.52465,24.586135 V 10.409231 l 2.268305,-4.3475839 h 90.543155 z" />
  <path
     id="rect5006-2"
     class="cls-3"
     d="m 199.98886,14.189739 v 6.426863 c 0,4.91466 -3.21344,9.073218 -7.93907,9.262243 l -45.74414,2.45733 c -2.26831,0 -4.15856,-1.890253 -4.15856,-4.347583 V 7.1957994 c 0,-2.45733 1.89025,-4.5366092 4.15856,-4.3475838 l 45.74414,2.45733 c 4.72563,0 7.93907,3.969533 7.93907,8.8841934 z" />
  <g
     id="g2"
     transform="matrix(1.8902538,0,0,1.8902538,0,-0.00606774)">
    <path
       id="path1"
       class="cls-8"
       d="M 59.47,11.88 H 32.61" />
    <path
       id="path2"
       class="cls-8"
       d="M 59.47,6.82 H 32.61" />
  </g>
</svg>
