<?xml version="1.0" encoding="UTF-8" standalone="no"?>
<svg
   id="Layer_1"
   data-name="Layer 1"
   width="271.92892"
   height="42.534611"
   viewBox="0 0 271.92892 42.534612"
   version="1.1"
   sodipodi:docname="kar98k_world.svg"
   inkscape:version="1.4.2 (f4327f4, 2025-05-13)"
   xmlns:inkscape="http://www.inkscape.org/namespaces/inkscape"
   xmlns:sodipodi="http://sodipodi.sourceforge.net/DTD/sodipodi-0.dtd"
   xmlns="http://www.w3.org/2000/svg"
   xmlns:svg="http://www.w3.org/2000/svg">
  <sodipodi:namedview
     id="namedview1"
     pagecolor="#ffffff"
     bordercolor="#000000"
     borderopacity="0.25"
     inkscape:showpageshadow="2"
     inkscape:pageopacity="0.0"
     inkscape:pagecheckerboard="0"
     inkscape:deskcolor="#d1d1d1"
     inkscape:zoom="1.8893918"
     inkscape:cx="179.15818"
     inkscape:cy="24.611094"
     inkscape:window-width="1920"
     inkscape:window-height="1009"
     inkscape:window-x="-8"
     inkscape:window-y="-8"
     inkscape:window-maximized="1"
     inkscape:current-layer="Layer_1"
     labelstyle="below" />
  <defs
     id="defs1">
    <style
       id="style1">
      .cls-1 {
        fill: #181616;
        stroke-miterlimit: 15.12;
      }

      .cls-1, .cls-2, .cls-3, .cls-4, .cls-5, .cls-6, .cls-7, .cls-8, .cls-9, .cls-10, .cls-11 {
        stroke-width: 3px;
      }

      .cls-1, .cls-4, .cls-6, .cls-7, .cls-10 {
        stroke: #181616;
      }

      .cls-2 {
        stroke: #181716;
      }

      .cls-2, .cls-4 {
        fill: #716d69;
      }

      .cls-3, .cls-5 {
        fill: #79391d;
        stroke: #251109;
      }

      .cls-4, .cls-5, .cls-6, .cls-7, .cls-12, .cls-13 {
        fill-rule: evenodd;
      }

      .cls-6 {
        fill: #4d4946;
      }

      .cls-7 {
        fill: #3e3b38;
      }

      .cls-12 {
        fill: #793a1d;
      }

      .cls-13 {
        fill: #544e4e;
      }

      .cls-8 {
        stroke: #251209;
      }

      .cls-8, .cls-9, .cls-10, .cls-11 {
        fill: none;
      }

      .cls-9 {
        stroke: #44403d;
      }

      .cls-11 {
        stroke: #524e4b;
      }
    </style>
  </defs>
  <path
     id="path13"
     class="cls-11"
     d="M 156.17659,6.3148602 V 17.266836" />
  <path
     style="fill:#77391d;fill-opacity:1;stroke:#251209;stroke-width:4.89656;stroke-linecap:round;stroke-linejoin:round;stroke-dasharray:none;stroke-opacity:1"
     d="M 2.4482801,3.4540274 V 18.292446 c 14.7811629,0.645829 12.0555169,2.555486 44.3275239,0.572614 6.393793,-0.847708 20.29788,-3.286259 28.200069,-1.377331 7.447919,4.179589 33.175497,2.286093 80.644077,1.779505 L 155.7844,3.9464328 C 82.675096,3.1442452 85.149841,2.4028838 74.106717,5.8727558 64.800497,7.91782 51.767949,3.5362985 46.360215,3.4540272 14.647373,1.4767896 17.901806,2.922549 2.4482801,3.4540274 Z"
     id="path1"
     sodipodi:nodetypes="ccccccccc" />
  <rect
     style="fill:#737373;fill-opacity:1;stroke:#171717;stroke-width:5.24585;stroke-linecap:round;stroke-linejoin:round;stroke-dasharray:none;stroke-opacity:1"
     id="rect2"
     width="60.416389"
     height="8.8739595"
     x="84.288193"
     y="7.4059448" />
  <path
     id="path9"
     class="cls-6"
     d="M 108.66213,21.680011 V 32.586287"
     style="stroke:#171717;stroke-linecap:round;stroke-opacity:1" />
  <ellipse
     id="path11"
     class="cls-1"
     cx="108.66213"
     cy="36.815079"
     rx="2.6114993"
     ry="4.4069052"
     style="fill:#171717;fill-opacity:1;stroke:#171717;stroke-opacity:1" />
  <path
     style="fill:#737373;fill-opacity:1;stroke:#171717;stroke-width:4.89656;stroke-linecap:round;stroke-linejoin:round;stroke-dasharray:none;stroke-opacity:1"
     d="m 100.82099,14.975987 v 6.046191 h 15.6823 v -6.235134"
     id="path6" />
  <rect
     style="fill:#737373;fill-opacity:1;stroke:none;stroke-width:5.02263;stroke-linecap:round;stroke-linejoin:round;stroke-dasharray:none;stroke-opacity:1"
     id="rect2-5"
     width="66.967003"
     height="7.3403425"
     x="85.673943"
     y="7.9067926" />
  <path
     style="fill:#3e3939;fill-opacity:1;stroke:#171717;stroke-width:4.89656;stroke-linecap:round;stroke-linejoin:round;stroke-dasharray:none;stroke-opacity:1"
     d="m 119.82411,7.5822927 c 2.43373,2.8341513 2.09565,5.6683043 0,8.5024553"
     id="path4"
     sodipodi:nodetypes="cc" />
  <path
     style="fill:#4b4b4b;fill-opacity:1;stroke:#171717;stroke-width:0.682172;stroke-linecap:round;stroke-linejoin:round;stroke-dasharray:none;stroke-opacity:1"
     d="m 122.85493,14.899235 c 0,-0.08885 0.15211,-0.515039 0.33804,-0.947091 0.60316,-1.401638 0.402,-3.912728 -0.44775,-5.5893577 -0.15485,-0.3055128 0.47776,-0.3233516 11.46633,-0.3233516 h 11.6302 v 3.5106703 3.510673 h -11.49341 c -6.41015,0 -11.49341,-0.07144 -11.49341,-0.161538 z"
     id="path7" />
  <rect
     style="fill:#2f2f2f;stroke:#0d0d0d;stroke-width:4.89656;stroke-linecap:round;stroke-linejoin:round;stroke-dasharray:none"
     id="rect4"
     width="58.974701"
     height="7.7629156"
     x="210.50594"
     y="7.8299503" />
  <rect
     style="fill:#4b4b4b;fill-opacity:1;stroke:#171717;stroke-width:5.4564;stroke-linecap:round;stroke-linejoin:round;stroke-dasharray:none;stroke-opacity:1"
     id="rect7"
     width="1.1334783"
     height="10.956956"
     x="128.68211"
     y="6.0695281" />
  <path
     id="rect15"
     class="cls-12"
     d="m 152.89136,4.0624422 h 85.82954 c 2.42627,0 4.54927,2.1218431 4.54927,4.8965611 v 5.8758737 c 0,2.611499 -1.97136,4.896561 -4.54927,4.896561 h -85.82954 c -2.42628,0 -4.54927,-2.121844 -4.54927,-4.896561 V 8.9590033 c 0.15165,-2.6114993 2.12299,-4.8965611 4.54927,-4.8965611 z"
     style="stroke-width:1.57324" />
  <rect
     style="fill:#4b4b4b;fill-opacity:1;stroke:#171717;stroke-width:3.53047;stroke-linecap:round;stroke-linejoin:round;stroke-dasharray:none;stroke-opacity:1"
     id="rect8"
     width="13.260715"
     height="0.41462681"
     x="85.372276"
     y="15.307867" />
  <rect
     style="fill:#4b4b4b;fill-opacity:1;stroke:#171717;stroke-width:3.53047;stroke-linecap:round;stroke-linejoin:round;stroke-dasharray:none;stroke-opacity:1"
     id="rect8-1"
     width="13.260715"
     height="0.41462681"
     x="85.605309"
     y="7.6379905" />
  <path
     id="rect12"
     class="cls-8"
     d="m 148.21806,5.2553117 h 89.70852 c 3.36791,0 6.12347,2.4547413 6.12347,5.4549803 v 2.045618 c 0,3.00024 -2.75556,5.454981 -6.12347,5.454981 h -89.70852 z"
     style="stroke-width:4.89656;stroke-dasharray:none"
     sodipodi:nodetypes="csssscc" />
  <path
     style="fill:#767676;fill-opacity:1;stroke:#757575;stroke-width:0.549784;stroke-linecap:square;stroke-linejoin:round;stroke-dasharray:none;stroke-opacity:1"
     d="m 103.42183,16.850114 v -1.644586 l -1.43901,-0.0061 -1.43901,-0.0061 -0.32891,-0.692989 c -0.245069,-0.516164 -0.475661,-0.742868 -0.904523,-0.889118 -0.405533,-0.138293 -2.482856,-0.199034 -7.030603,-0.205573 l -6.454985,-0.0093 V 11.674777 9.9531459 l 6.894154,-0.046294 6.894143,-0.046294 0.427854,-0.4020844 c 0.23532,-0.2211459 0.48643,-0.6281804 0.55802,-0.9045208 l 0.13017,-0.5024368 8.33583,-0.042622 c 7.98122,-0.040808 8.13885,0.048094 8.33582,0.2580999 2.24962,2.3983802 1.72949,4.5214152 -0.0437,6.9384592 h -1.70496 -1.70495 v 1.644586 1.644583 h -5.26267 -5.26267 z"
     id="path10"
     sodipodi:nodetypes="cccccsscccccsscsscccccccc" />
  <rect
     style="fill:#2f2f2f;stroke:#0d0d0d;stroke-width:4.04671;stroke-linecap:round;stroke-linejoin:round;stroke-dasharray:none"
     id="rect3"
     width="3.4588346"
     height="15.320118"
     x="227.29076"
     y="4.0513487" />
  <rect
     style="fill:#2f2f2f;stroke:#0d0d0d;stroke-width:3.93362;stroke-linecap:square;stroke-linejoin:miter;stroke-dasharray:none"
     id="rect3-6"
     width="3.5719218"
     height="14.017524"
     x="159.61365"
     y="4.77384" />
</svg>
