<?xml version="1.0" encoding="UTF-8" standalone="no"?>
<svg
   id="Layer_2"
   data-name="Layer 2"
   width="97.133003"
   height="30.399"
   viewBox="0 0 97.133004 30.399001"
   version="1.1"
   sodipodi:docname="pfeifer_zeliska_world.svg"
   inkscape:version="1.4 (86a8ad7, 2024-10-11)"
   xmlns:inkscape="http://www.inkscape.org/namespaces/inkscape"
   xmlns:sodipodi="http://sodipodi.sourceforge.net/DTD/sodipodi-0.dtd"
   xmlns="http://www.w3.org/2000/svg"
   xmlns:svg="http://www.w3.org/2000/svg">
  <sodipodi:namedview
     id="namedview1"
     pagecolor="#ffffff"
     bordercolor="#000000"
     borderopacity="0.25"
     inkscape:showpageshadow="2"
     inkscape:pageopacity="0.0"
     inkscape:pagecheckerboard="0"
     inkscape:deskcolor="#d1d1d1"
     inkscape:zoom="6.7485131"
     inkscape:cx="18.078056"
     inkscape:cy="36.378384"
     inkscape:window-width="1920"
     inkscape:window-height="1009"
     inkscape:window-x="-8"
     inkscape:window-y="-8"
     inkscape:window-maximized="1"
     inkscape:current-layer="Layer_2" />
  <defs
     id="defs1">
    <style
       id="style1">
      .cls-1 {
        fill: #3d3d3d;
      }

      .cls-2, .cls-3 {
        fill: #595959;
      }

      .cls-2, .cls-3, .cls-4, .cls-5, .cls-6, .cls-7 {
        stroke-linecap: round;
      }

      .cls-2, .cls-3, .cls-4, .cls-5, .cls-8 {
        fill-rule: evenodd;
      }

      .cls-2, .cls-3, .cls-4, .cls-6, .cls-7 {
        stroke: #171717;
      }

      .cls-2, .cls-7 {
        stroke-width: 1.5px;
      }

      .cls-3, .cls-4, .cls-5, .cls-6 {
        stroke-width: 3px;
      }

      .cls-4, .cls-6 {
        fill: #737373;
      }

      .cls-5 {
        fill: #803300;
        stroke: #2e1300;
      }

      .cls-8 {
        fill: #303030;
      }

      .cls-7 {
        fill: none;
      }
    </style>
  </defs>
  <g
     id="Layer_14"
     data-name="Layer 14"
     transform="matrix(1.2316057,0,0,1.2555059,-0.34740749,-0.38325858)"
     style="stroke-width:0.804185">
    <g
       id="g67"
       style="stroke-width:0.804185">
      <path
         id="polygon6"
         class="cls-3"
         d="m 33.22,23.23 -8.79,-0.08 c -2.31675,-1.140278 -4.157541,-4.713253 -4.36,-7.4 h 1.25 V 9.02 h -1.25 c 0.246694,-2.8129194 1.422721,-6.345875 4.36,-7.39 l 8.79,-0.08 c 0.49,0 0.9,0.35 0.96,0.84 l 0.89,6.55 -1.25,0.02 v 6.86 l 1.25,0.02 -0.89,6.55 c -0.07,0.48 -0.48,0.84 -0.96,0.84 z"
         sodipodi:nodetypes="ccccccccccccccc" />
      <path
         id="rect56"
         class="cls-3"
         d="m 26.58,1.5 h 11.67 c 0.11,0 0.2,0.13 0.2,0.29 v 21.22 c 0,0.16 -0.09,0.29 -0.2,0.29 H 26.58 c -0.11,0 -0.2,-0.13 -0.2,-0.29 V 1.79 c 0,-0.16 0.09,-0.29 0.2,-0.29 z" />
      <path
         id="path58"
         class="cls-5"
         d="m 1.51,17.13 c -0.07,0.77 0.28,1.09 0.64,1.4 4.75,1.83 9.66,1.52 14.55,0.87 0.47,-0.07 0.87,-0.45 1.27,-0.88 L 18.32,6.67 C 13.16,3.9 4.54,4.86 2.14,6.24 1.67,6.43 1.64,7.01 1.56,7.82 l -0.06,9.3 v 0 z" />
      <path
         id="path67"
         class="cls-3"
         d="m 39.07,16.16 37.712448,0.122297 c 1.816402,-2.254417 1.904764,-5.403549 -0.07,-8.063201 L 39.15,8.64 Z"
         sodipodi:nodetypes="ccccc" />
      <path
         id="path59"
         class="cls-4"
         d="m 7.46,8.31 3.69,-0.8 9.45,0.39 c 0.75,0.03 1.34,0.65 1.34,1.4 v 6.58 c 0,0.78 -0.63,1.41 -1.41,1.4 L 11.37,17.25 7.4,15.96 C 7.18,15.89 7.03,15.69 7.03,15.46 7.01,14.33 6.97,10.95 7.03,8.81 7.03,8.56 7.22,8.35 7.46,8.3 Z" />
      <path
         id="rect14"
         class="cls-6"
         d="M 17.510665,8.55 H 46.69 c 0.46,0 0.83,0.37 0.83,0.83 v 6.03 c 0,0.46 -0.37,0.83 -0.83,0.83 H 17.510665 Z"
         sodipodi:nodetypes="csssscc" />
      <path
         id="path61"
         class="cls-2"
         d="m 11.826405,10.883455 c -0.25,0.03 -0.45,0.24 -0.45,0.49 v 1.13 l -0.01,1.09 c 0,0.26 0.19,0.47 0.45,0.49 1.61,0.17 2.145295,0.522592 3.745295,0.342592 v -3.78 c -0.572629,-0.593011 -2.458224,0.102893 -3.735295,0.237408 z"
         sodipodi:nodetypes="cscccccc"
         style="fill:#ae9d04;fill-opacity:1;stroke:#604c03;stroke-opacity:1" />
      <path
         id="path63"
         class="cls-3"
         d="m 43.07,16.05 2.89,0.07 c 0.55,0.01 1.02,-0.41 1.05,-0.96 0.1,-1.82 0.09,-3.65 -0.04,-5.5 C 46.94,9.13 46.49,8.72 45.96,8.71 L 43.12,8.67 c -0.57,0 -1.03,0.45 -1.03,1.02 v 5.34 c -0.02,0.55 0.43,1.01 0.98,1.02 z" />
      <path
         id="rect67"
         class="cls-8"
         d="m 72.535367,11.115156 h 3.13 c 0.22,0 0.39,0.23 0.39,0.51 v 1.47 c 0,0.28 -0.17,0.51 -0.39,0.51 h -3.13 c -0.22,0 -0.39,-0.23 -0.39,-0.51 v -1.47 c 0,-0.28 0.17,-0.51 0.39,-0.51 z"
         style="stroke-width:0.804185"
         sodipodi:nodetypes="sssssssss" />
      <path
         id="path19"
         class="cls-7"
         d="m 11.16,7.53 c 0,0 -2.35,4.05 0.23,9.75" />
    </g>
  </g>
</svg>
